# MagicaVoxel @ Ephtracy

# group
o 

# material
mtllib storeManagerV1Angy.mtl
usemtl palette

# normals
vn -1 0 0
vn 1 0 0
vn 0 0 1
vn 0 0 -1
vn 0 -1 0
vn 0 1 0

# texcoords
vt 0.845703 0.5
vt 0.876953 0.5
vt 0.912109 0.5
vt 0.916016 0.5
vt 0.919922 0.5
vt 0.939453 0.5
vt 0.970703 0.5
vt 0.994141 0.5

# verts
v -0.7 1 0.2
v -0.7 1 0
v -0.7 1.2 0.2
v -0.7 1.2 0.1
v -0.7 1.2 0
v -0.7 1.2 -0.1
v -0.7 1.7 0.1
v -0.7 1.7 -0.1
v -0.7 1.9 0.1
v -0.7 1.9 -0.1
v -0.6 1.1 0
v -0.6 1.1 -0.1
v -0.6 1.2 0
v -0.6 1.2 -0.1
v -0.6 1.9 0.1
v -0.6 1.9 -0.1
v -0.6 2 0.1
v -0.6 2 -0.1
v -0.4 0 0.3
v -0.4 0 -0.2
v -0.4 0.1 0.3
v -0.4 0.1 0
v -0.4 0.1 -0.2
v -0.4 0.4 0.1
v -0.4 0.4 0
v -0.4 0.5 -0.1
v -0.4 0.5 -0.2
v -0.4 1 -0.1
v -0.4 1 -0.2
v -0.4 1.1 0.1
v -0.4 1.1 -0.2
v -0.4 1.2 0.1
v -0.4 1.2 -0.2
v -0.4 1.7 0.1
v -0.4 1.7 -0.1
v -0.4 2 0.1
v -0.4 2 -0.1
v -0.4 2 -0.2
v -0.4 2.1 0.1
v -0.4 2.1 -0.1
v -0.3 0.9 -0.1
v -0.3 0.9 -0.2
v -0.3 1 -0.1
v -0.3 1 -0.2
v -0.3 1.1 0.2
v -0.3 1.1 0.1
v -0.3 1.2 0.2
v -0.3 1.2 0.1
v -0.3 1.9 0.2
v -0.3 1.9 0.1
v -0.3 2 -0.1
v -0.3 2 -0.2
v -0.3 2.1 -0.1
v -0.3 2.1 -0.2
v -0.3 2.3 0.3
v -0.3 2.3 -0.3
v -0.3 2.5 0.3
v -0.3 2.5 0.2
v -0.3 2.6 0.3
v -0.3 2.6 0.2
v -0.3 2.6 0.1
v -0.3 2.6 -0.3
v -0.3 2.7 0.2
v -0.3 2.7 0.1
v -0.3 2.9 0.3
v -0.3 2.9 0.2
v -0.3 2.9 -0.3
v -0.2 1 0.2
v -0.2 1 0.1
v -0.2 1.1 0.2
v -0.2 1.1 0.1
v -0.2 1.9 0.2
v -0.2 1.9 0.1
v -0.2 2.1 0.2
v -0.2 2.1 0.1
v -0.2 2.1 -0.1
v -0.2 2.2 0.3
v -0.2 2.2 0.2
v -0.2 2.2 -0.1
v -0.2 2.2 -0.2
v -0.2 2.3 0.3
v -0.2 2.3 -0.2
v -0.2 2.9 0.2
v -0.2 2.9 0.1
v -0.2 2.9 0
v -0.2 2.9 -0.2
v -0.2 3 0.2
v -0.2 3 0.1
v -0.2 3 0
v -0.2 3 -0.2
v -0.1 2.1 -0.1
v -0.1 2.1 -0.2
v -0.1 2.2 -0.1
v -0.1 2.2 -0.2
v 0.1 0.9 -0.1
v 0.1 0.9 -0.2
v 0.1 1 -0.1
v 0.1 1 -0.2
v 0.1 2.1 0.2
v 0.1 2.1 0.1
v 0.1 2.2 0.2
v 0.1 2.2 0.1
v 0.2 0 0.3
v 0.2 0 -0.2
v 0.2 0.1 0.3
v 0.2 0.1 0
v 0.2 0.1 -0.2
v 0.2 0.4 0.1
v 0.2 0.4 0
v 0.2 0.5 -0.1
v 0.2 0.5 -0.2
v 0.2 0.8 0.1
v 0.2 0.8 -0.1
v 0.5 1 0.2
v 0.5 1 0
v 0.5 1.1 0
v 0.5 1.1 -0.1
v 0.5 1.2 0.2
v 0.5 1.2 0.1
v 0.5 1.7 0.1
v 0.5 1.7 -0.1
v -0.5 1 0.2
v -0.5 1 0
v -0.5 1.1 0
v -0.5 1.1 -0.1
v -0.5 1.2 0.2
v -0.5 1.2 0.1
v -0.5 1.7 0.1
v -0.5 1.7 -0.1
v -0.2 0 0.3
v -0.2 0 -0.2
v -0.2 0.1 0.3
v -0.2 0.1 0
v -0.2 0.1 -0.2
v -0.2 0.4 0.1
v -0.2 0.4 0
v -0.2 0.5 -0.1
v -0.2 0.5 -0.2
v -0.2 0.8 0.1
v -0.2 0.8 -0.1
v -0.1 0.9 -0.1
v -0.1 0.9 -0.2
v -0.1 1 -0.1
v -0.1 1 -0.2
v -0.1 2.1 0.2
v -0.1 2.1 0.1
v -0.1 2.2 0.2
v -0.1 2.2 0.1
v 0.1 2.1 -0.1
v 0.1 2.1 -0.2
v 0.1 2.2 -0.1
v 0.1 2.2 -0.2
v 0.2 1 0.2
v 0.2 1 0.1
v 0.2 1.1 0.2
v 0.2 1.1 0.1
v 0.2 1.9 0.2
v 0.2 1.9 0.1
v 0.2 2.1 0.2
v 0.2 2.1 0.1
v 0.2 2.1 -0.1
v 0.2 2.2 0.3
v 0.2 2.2 0.2
v 0.2 2.2 -0.1
v 0.2 2.2 -0.2
v 0.2 2.3 0.3
v 0.2 2.3 -0.2
v 0.2 2.9 0.2
v 0.2 2.9 0.1
v 0.2 2.9 0
v 0.2 2.9 -0.2
v 0.2 3 0.2
v 0.2 3 0.1
v 0.2 3 0
v 0.2 3 -0.2
v 0.3 0.9 -0.1
v 0.3 0.9 -0.2
v 0.3 1 -0.1
v 0.3 1 -0.2
v 0.3 1.1 0.2
v 0.3 1.1 0.1
v 0.3 1.2 0.2
v 0.3 1.2 0.1
v 0.3 1.9 0.2
v 0.3 1.9 0.1
v 0.3 2 -0.1
v 0.3 2 -0.2
v 0.3 2.1 -0.1
v 0.3 2.1 -0.2
v 0.3 2.3 0.3
v 0.3 2.3 -0.3
v 0.3 2.5 0.3
v 0.3 2.5 0.2
v 0.3 2.6 0.3
v 0.3 2.6 0.2
v 0.3 2.6 0
v 0.3 2.6 -0.3
v 0.3 2.7 0.2
v 0.3 2.7 0
v 0.3 2.9 0.3
v 0.3 2.9 0.2
v 0.3 2.9 -0.3
v 0.4 0 0.3
v 0.4 0 -0.2
v 0.4 0.1 0.3
v 0.4 0.1 0
v 0.4 0.1 -0.2
v 0.4 0.4 0.1
v 0.4 0.4 0
v 0.4 0.5 -0.1
v 0.4 0.5 -0.2
v 0.4 1 -0.1
v 0.4 1 -0.2
v 0.4 1.1 0.1
v 0.4 1.1 -0.2
v 0.4 1.2 0.1
v 0.4 1.2 -0.2
v 0.4 1.7 0.1
v 0.4 1.7 -0.1
v 0.4 2 0.1
v 0.4 2 -0.1
v 0.4 2 -0.2
v 0.4 2.1 0.1
v 0.4 2.1 -0.1
v 0.6 1.1 0
v 0.6 1.1 -0.1
v 0.6 1.2 0
v 0.6 1.2 -0.1
v 0.6 1.9 0.1
v 0.6 1.9 -0.1
v 0.6 2 0.1
v 0.6 2 -0.1
v 0.7 1 0.2
v 0.7 1 0
v 0.7 1.2 0.2
v 0.7 1.2 0.1
v 0.7 1.2 0
v 0.7 1.2 -0.1
v 0.7 1.7 0.1
v 0.7 1.7 -0.1
v 0.7 1.9 0.1
v 0.7 1.9 -0.1
v -0.4 0 0.3
v -0.4 0.1 0.3
v -0.3 2.3 0.3
v -0.3 2.5 0.3
v -0.3 2.6 0.3
v -0.3 2.9 0.3
v -0.2 0 0.3
v -0.2 0.1 0.3
v -0.2 2.2 0.3
v -0.2 2.3 0.3
v -0.2 2.4 0.3
v -0.2 2.5 0.3
v -0.2 2.6 0.3
v -0.2 2.8 0.3
v -0.2 2.9 0.3
v -0.1 2.3 0.3
v -0.1 2.4 0.3
v -0.1 2.5 0.3
v -0.1 2.6 0.3
v 0.1 2.3 0.3
v 0.1 2.4 0.3
v 0.1 2.5 0.3
v 0.1 2.6 0.3
v 0.2 0 0.3
v 0.2 0.1 0.3
v 0.2 2.2 0.3
v 0.2 2.3 0.3
v 0.2 2.4 0.3
v 0.2 2.5 0.3
v 0.2 2.6 0.3
v 0.2 2.8 0.3
v 0.2 2.9 0.3
v 0.3 2.3 0.3
v 0.3 2.5 0.3
v 0.3 2.6 0.3
v 0.3 2.9 0.3
v 0.4 0 0.3
v 0.4 0.1 0.3
v -0.7 1 0.2
v -0.7 1.2 0.2
v -0.5 1 0.2
v -0.5 1.2 0.2
v -0.3 1.1 0.2
v -0.3 1.2 0.2
v -0.3 1.9 0.2
v -0.2 1 0.2
v -0.2 1.1 0.2
v -0.2 1.9 0.2
v -0.2 2.1 0.2
v -0.2 2.2 0.2
v -0.2 2.9 0.2
v -0.2 3 0.2
v -0.1 1.1 0.2
v -0.1 1.2 0.2
v -0.1 2.1 0.2
v -0.1 2.2 0.2
v 0 1.8 0.2
v 0 1.9 0.2
v 0.1 1.1 0.2
v 0.1 1.2 0.2
v 0.1 2.1 0.2
v 0.1 2.2 0.2
v 0.2 1 0.2
v 0.2 1.1 0.2
v 0.2 1.8 0.2
v 0.2 1.9 0.2
v 0.2 2.1 0.2
v 0.2 2.2 0.2
v 0.2 2.9 0.2
v 0.2 3 0.2
v 0.3 1.1 0.2
v 0.3 1.2 0.2
v 0.3 1.9 0.2
v 0.5 1 0.2
v 0.5 1.2 0.2
v 0.7 1 0.2
v 0.7 1.2 0.2
v -0.7 1.2 0.1
v -0.7 1.7 0.1
v -0.7 1.9 0.1
v -0.6 1.9 0.1
v -0.6 2 0.1
v -0.5 1.2 0.1
v -0.5 1.7 0.1
v -0.4 0.4 0.1
v -0.4 1.1 0.1
v -0.4 1.2 0.1
v -0.4 1.7 0.1
v -0.4 2 0.1
v -0.4 2.1 0.1
v -0.3 1.1 0.1
v -0.3 1.2 0.1
v -0.3 1.9 0.1
v -0.2 0.4 0.1
v -0.2 0.8 0.1
v -0.2 1 0.1
v -0.2 1.1 0.1
v -0.2 1.9 0.1
v -0.2 2.1 0.1
v -0.1 2.1 0.1
v -0.1 2.2 0.1
v 0.1 2.1 0.1
v 0.1 2.2 0.1
v 0.2 0.4 0.1
v 0.2 0.8 0.1
v 0.2 1 0.1
v 0.2 1.1 0.1
v 0.2 1.9 0.1
v 0.2 2.1 0.1
v 0.3 1.1 0.1
v 0.3 1.2 0.1
v 0.3 1.9 0.1
v 0.4 0.4 0.1
v 0.4 1.1 0.1
v 0.4 1.2 0.1
v 0.4 1.7 0.1
v 0.4 2 0.1
v 0.4 2.1 0.1
v 0.5 1.2 0.1
v 0.5 1.7 0.1
v 0.6 1.9 0.1
v 0.6 2 0.1
v 0.7 1.2 0.1
v 0.7 1.7 0.1
v 0.7 1.9 0.1
v -0.4 0.1 0
v -0.4 0.4 0
v -0.2 0.1 0
v -0.2 0.4 0
v 0.2 0.1 0
v 0.2 0.4 0
v 0.4 0.1 0
v 0.4 0.4 0
v -0.7 1 0
v -0.7 1.2 0
v -0.6 1.1 0
v -0.6 1.2 0
v -0.5 1 0
v -0.5 1.1 0
v 0.5 1 0
v 0.5 1.1 0
v 0.6 1.1 0
v 0.6 1.2 0
v 0.7 1 0
v 0.7 1.2 0
v -0.7 1.2 -0.1
v -0.7 1.7 -0.1
v -0.7 1.9 -0.1
v -0.6 1.1 -0.1
v -0.6 1.2 -0.1
v -0.6 1.9 -0.1
v -0.6 2 -0.1
v -0.5 1.1 -0.1
v -0.5 1.7 -0.1
v -0.4 0.5 -0.1
v -0.4 1 -0.1
v -0.4 1.7 -0.1
v -0.4 2 -0.1
v -0.4 2.1 -0.1
v -0.3 0.9 -0.1
v -0.3 1 -0.1
v -0.3 2 -0.1
v -0.3 2.1 -0.1
v -0.2 0.5 -0.1
v -0.2 0.8 -0.1
v -0.2 2.1 -0.1
v -0.2 2.2 -0.1
v -0.1 0.9 -0.1
v -0.1 1 -0.1
v -0.1 2.1 -0.1
v -0.1 2.2 -0.1
v 0.1 0.9 -0.1
v 0.1 1 -0.1
v 0.1 2.1 -0.1
v 0.1 2.2 -0.1
v 0.2 0.5 -0.1
v 0.2 0.8 -0.1
v 0.2 2.1 -0.1
v 0.2 2.2 -0.1
v 0.3 0.9 -0.1
v 0.3 1 -0.1
v 0.3 2 -0.1
v 0.3 2.1 -0.1
v 0.4 0.5 -0.1
v 0.4 1 -0.1
v 0.4 1.7 -0.1
v 0.4 2 -0.1
v 0.4 2.1 -0.1
v 0.5 1.1 -0.1
v 0.5 1.7 -0.1
v 0.6 1.1 -0.1
v 0.6 1.2 -0.1
v 0.6 1.9 -0.1
v 0.6 2 -0.1
v 0.7 1.2 -0.1
v 0.7 1.7 -0.1
v 0.7 1.9 -0.1
v -0.4 0 -0.2
v -0.4 0.1 -0.2
v -0.4 0.5 -0.2
v -0.4 1 -0.2
v -0.4 1.1 -0.2
v -0.4 1.2 -0.2
v -0.4 2 -0.2
v -0.3 0.9 -0.2
v -0.3 1 -0.2
v -0.3 2 -0.2
v -0.3 2.1 -0.2
v -0.2 0 -0.2
v -0.2 0.1 -0.2
v -0.2 0.5 -0.2
v -0.2 2.2 -0.2
v -0.2 2.3 -0.2
v -0.2 2.9 -0.2
v -0.2 3 -0.2
v -0.1 0.9 -0.2
v -0.1 1 -0.2
v -0.1 2.1 -0.2
v -0.1 2.2 -0.2
v -0.1 2.9 -0.2
v -0.1 3 -0.2
v 0.1 0.9 -0.2
v 0.1 1 -0.2
v 0.1 2.1 -0.2
v 0.1 2.2 -0.2
v 0.1 2.9 -0.2
v 0.1 3 -0.2
v 0.2 0 -0.2
v 0.2 0.1 -0.2
v 0.2 0.5 -0.2
v 0.2 2.2 -0.2
v 0.2 2.3 -0.2
v 0.2 2.9 -0.2
v 0.2 3 -0.2
v 0.3 0.9 -0.2
v 0.3 1 -0.2
v 0.3 2 -0.2
v 0.3 2.1 -0.2
v 0.4 0 -0.2
v 0.4 0.1 -0.2
v 0.4 0.5 -0.2
v 0.4 1 -0.2
v 0.4 1.1 -0.2
v 0.4 1.2 -0.2
v 0.4 2 -0.2
v -0.3 2.3 -0.3
v -0.3 2.6 -0.3
v -0.3 2.9 -0.3
v 0.3 2.3 -0.3
v 0.3 2.6 -0.3
v 0.3 2.9 -0.3
v -0.4 0 0.3
v -0.2 0 0.3
v 0.2 0 0.3
v 0.4 0 0.3
v -0.4 0 -0.2
v -0.2 0 -0.2
v 0.2 0 -0.2
v 0.4 0 -0.2
v -0.4 0.4 0.1
v -0.2 0.4 0.1
v 0.2 0.4 0.1
v 0.4 0.4 0.1
v -0.4 0.4 0
v -0.2 0.4 0
v 0.2 0.4 0
v 0.4 0.4 0
v -0.2 0.8 0.1
v 0.2 0.8 0.1
v -0.2 0.8 -0.1
v 0.2 0.8 -0.1
v -0.3 0.9 -0.1
v -0.1 0.9 -0.1
v 0.1 0.9 -0.1
v 0.3 0.9 -0.1
v -0.3 0.9 -0.2
v -0.1 0.9 -0.2
v 0.1 0.9 -0.2
v 0.3 0.9 -0.2
v -0.7 1 0.2
v -0.5 1 0.2
v -0.2 1 0.2
v 0.2 1 0.2
v 0.5 1 0.2
v 0.7 1 0.2
v -0.2 1 0.1
v 0.2 1 0.1
v -0.7 1 0
v -0.5 1 0
v 0.5 1 0
v 0.7 1 0
v -0.4 1 -0.1
v -0.3 1 -0.1
v -0.1 1 -0.1
v 0.1 1 -0.1
v 0.3 1 -0.1
v 0.4 1 -0.1
v -0.4 1 -0.2
v -0.3 1 -0.2
v -0.1 1 -0.2
v 0.1 1 -0.2
v 0.3 1 -0.2
v 0.4 1 -0.2
v -0.3 1.1 0.2
v -0.2 1.1 0.2
v 0.2 1.1 0.2
v 0.3 1.1 0.2
v -0.3 1.1 0.1
v -0.2 1.1 0.1
v 0.2 1.1 0.1
v 0.3 1.1 0.1
v -0.6 1.1 0
v -0.5 1.1 0
v 0.5 1.1 0
v 0.6 1.1 0
v -0.6 1.1 -0.1
v -0.5 1.1 -0.1
v 0.5 1.1 -0.1
v 0.6 1.1 -0.1
v -0.7 1.2 0
v -0.6 1.2 0
v 0.6 1.2 0
v 0.7 1.2 0
v -0.7 1.2 -0.1
v -0.6 1.2 -0.1
v 0.6 1.2 -0.1
v 0.7 1.2 -0.1
v -0.5 1.7 0.1
v -0.4 1.7 0.1
v 0.4 1.7 0.1
v 0.5 1.7 0.1
v -0.5 1.7 -0.1
v -0.4 1.7 -0.1
v 0.4 1.7 -0.1
v 0.5 1.7 -0.1
v -0.2 2.2 0.3
v 0.2 2.2 0.3
v -0.2 2.2 0.2
v -0.1 2.2 0.2
v 0.1 2.2 0.2
v 0.2 2.2 0.2
v -0.1 2.2 0.1
v 0.1 2.2 0.1
v -0.2 2.2 -0.1
v -0.1 2.2 -0.1
v 0.1 2.2 -0.1
v 0.2 2.2 -0.1
v -0.2 2.2 -0.2
v -0.1 2.2 -0.2
v 0.1 2.2 -0.2
v 0.2 2.2 -0.2
v -0.3 2.3 0.3
v -0.2 2.3 0.3
v 0.2 2.3 0.3
v 0.3 2.3 0.3
v -0.2 2.3 -0.2
v 0.2 2.3 -0.2
v -0.3 2.3 -0.3
v 0.3 2.3 -0.3
v -0.4 0.1 0.3
v -0.2 0.1 0.3
v 0.2 0.1 0.3
v 0.4 0.1 0.3
v -0.4 0.1 0
v -0.2 0.1 0
v 0.2 0.1 0
v 0.4 0.1 0
v -0.4 0.5 -0.1
v -0.2 0.5 -0.1
v 0.2 0.5 -0.1
v 0.4 0.5 -0.1
v -0.4 0.5 -0.2
v -0.2 0.5 -0.2
v 0.2 0.5 -0.2
v 0.4 0.5 -0.2
v -0.7 1.2 0.2
v -0.5 1.2 0.2
v 0.5 1.2 0.2
v 0.7 1.2 0.2
v -0.7 1.2 0.1
v -0.5 1.2 0.1
v 0.5 1.2 0.1
v 0.7 1.2 0.1
v -0.3 1.9 0.2
v -0.2 1.9 0.2
v 0.2 1.9 0.2
v 0.3 1.9 0.2
v -0.7 1.9 0.1
v -0.6 1.9 0.1
v -0.3 1.9 0.1
v -0.2 1.9 0.1
v 0.2 1.9 0.1
v 0.3 1.9 0.1
v 0.6 1.9 0.1
v 0.7 1.9 0.1
v -0.7 1.9 -0.1
v -0.6 1.9 -0.1
v 0.6 1.9 -0.1
v 0.7 1.9 -0.1
v -0.6 2 0.1
v -0.4 2 0.1
v 0.4 2 0.1
v 0.6 2 0.1
v -0.6 2 -0.1
v -0.4 2 -0.1
v -0.3 2 -0.1
v 0.3 2 -0.1
v 0.4 2 -0.1
v 0.6 2 -0.1
v -0.4 2 -0.2
v -0.3 2 -0.2
v 0.3 2 -0.2
v 0.4 2 -0.2
v -0.1 2.1 0.2
v 0.1 2.1 0.2
v -0.4 2.1 0.1
v -0.2 2.1 0.1
v -0.1 2.1 0.1
v 0.1 2.1 0.1
v 0.2 2.1 0.1
v 0.4 2.1 0.1
v -0.4 2.1 -0.1
v -0.3 2.1 -0.1
v -0.2 2.1 -0.1
v -0.1 2.1 -0.1
v 0.1 2.1 -0.1
v 0.2 2.1 -0.1
v 0.3 2.1 -0.1
v 0.4 2.1 -0.1
v -0.3 2.1 -0.2
v -0.1 2.1 -0.2
v 0.1 2.1 -0.2
v 0.3 2.1 -0.2
v -0.3 2.9 0.3
v -0.2 2.9 0.3
v 0.2 2.9 0.3
v 0.3 2.9 0.3
v -0.3 2.9 0.2
v -0.2 2.9 0.2
v 0.2 2.9 0.2
v 0.3 2.9 0.2
v -0.2 2.9 0.1
v 0.2 2.9 0.1
v -0.2 2.9 0
v 0.2 2.9 0
v -0.2 2.9 -0.2
v -0.1 2.9 -0.2
v 0.1 2.9 -0.2
v 0.2 2.9 -0.2
v -0.3 2.9 -0.3
v 0.3 2.9 -0.3
v -0.2 3 0.2
v 0.2 3 0.2
v -0.2 3 0.1
v 0.2 3 0.1
v -0.2 3 0
v 0.2 3 0
v -0.1 3 -0.1
v 0.1 3 -0.1
v -0.2 3 -0.2
v -0.1 3 -0.2
v 0.1 3 -0.2
v 0.2 3 -0.2

# faces
f 3/4/1 2/4/1 1/4/1
f 4/4/1 2/4/1 3/4/1
f 5/4/1 2/4/1 4/4/1
f 7/4/1 6/4/1 5/4/1
f 7/4/1 5/4/1 4/4/1
f 8/4/1 6/4/1 7/4/1
f 9/7/1 8/7/1 7/7/1
f 10/7/1 8/7/1 9/7/1
f 13/4/1 12/4/1 11/4/1
f 14/4/1 12/4/1 13/4/1
f 17/7/1 16/7/1 15/7/1
f 18/7/1 16/7/1 17/7/1
f 21/8/1 20/8/1 19/8/1
f 22/8/1 20/8/1 21/8/1
f 23/8/1 20/8/1 22/8/1
f 25/2/1 23/2/1 22/2/1
f 26/2/1 23/2/1 25/2/1
f 26/2/1 25/2/1 24/2/1
f 27/2/1 23/2/1 26/2/1
f 28/2/1 26/2/1 24/2/1
f 30/2/1 28/2/1 24/2/1
f 30/2/1 29/2/1 28/2/1
f 31/2/1 29/2/1 30/2/1
f 32/3/1 31/3/1 30/3/1
f 33/3/1 31/3/1 32/3/1
f 34/7/1 33/7/1 32/7/1
f 35/7/1 33/7/1 34/7/1
f 37/7/1 33/7/1 35/7/1
f 38/7/1 33/7/1 37/7/1
f 39/7/1 37/7/1 36/7/1
f 40/7/1 37/7/1 39/7/1
f 43/2/1 42/2/1 41/2/1
f 44/2/1 42/2/1 43/2/1
f 47/3/1 46/3/1 45/3/1
f 48/3/1 46/3/1 47/3/1
f 49/7/1 48/7/1 47/7/1
f 50/7/1 48/7/1 49/7/1
f 53/7/1 52/7/1 51/7/1
f 54/7/1 52/7/1 53/7/1
f 57/4/1 56/4/1 55/4/1
f 58/4/1 56/4/1 57/4/1
f 59/6/1 58/6/1 57/6/1
f 60/4/1 56/4/1 58/4/1
f 60/6/1 58/6/1 59/6/1
f 61/4/1 56/4/1 60/4/1
f 62/4/1 56/4/1 61/4/1
f 63/4/1 60/4/1 59/4/1
f 63/4/1 61/4/1 60/4/1
f 64/1/1 62/1/1 61/1/1
f 64/4/1 61/4/1 63/4/1
f 65/4/1 63/4/1 59/4/1
f 66/1/1 64/1/1 63/1/1
f 66/4/1 63/4/1 65/4/1
f 67/1/1 62/1/1 64/1/1
f 67/1/1 64/1/1 66/1/1
f 70/2/1 69/2/1 68/2/1
f 71/2/1 69/2/1 70/2/1
f 74/7/1 73/7/1 72/7/1
f 75/7/1 73/7/1 74/7/1
f 78/6/1 75/6/1 74/6/1
f 78/6/1 76/6/1 75/6/1
f 79/6/1 76/6/1 78/6/1
f 81/4/1 78/4/1 77/4/1
f 81/4/1 80/4/1 79/4/1
f 81/4/1 79/4/1 78/4/1
f 82/4/1 80/4/1 81/4/1
f 87/4/1 84/4/1 83/4/1
f 88/1/1 85/1/1 84/1/1
f 88/4/1 84/4/1 87/4/1
f 89/4/1 86/4/1 85/4/1
f 89/1/1 85/1/1 88/1/1
f 90/4/1 86/4/1 89/4/1
f 93/6/1 92/6/1 91/6/1
f 94/6/1 92/6/1 93/6/1
f 97/2/1 96/2/1 95/2/1
f 98/2/1 96/2/1 97/2/1
f 101/6/1 100/6/1 99/6/1
f 102/6/1 100/6/1 101/6/1
f 105/8/1 104/8/1 103/8/1
f 106/8/1 104/8/1 105/8/1
f 107/8/1 104/8/1 106/8/1
f 109/2/1 107/2/1 106/2/1
f 110/2/1 107/2/1 109/2/1
f 110/2/1 109/2/1 108/2/1
f 111/2/1 107/2/1 110/2/1
f 112/2/1 110/2/1 108/2/1
f 113/2/1 110/2/1 112/2/1
f 116/4/1 115/4/1 114/4/1
f 118/4/1 116/4/1 114/4/1
f 118/4/1 117/4/1 116/4/1
f 119/4/1 117/4/1 118/4/1
f 120/4/1 117/4/1 119/4/1
f 121/4/1 117/4/1 120/4/1
f 122/4/2 123/4/2 124/4/2
f 122/4/2 124/4/2 126/4/2
f 124/4/2 125/4/2 126/4/2
f 126/4/2 125/4/2 127/4/2
f 127/4/2 125/4/2 128/4/2
f 128/4/2 125/4/2 129/4/2
f 130/8/2 131/8/2 132/8/2
f 132/8/2 131/8/2 133/8/2
f 133/8/2 131/8/2 134/8/2
f 133/2/2 134/2/2 136/2/2
f 136/2/2 134/2/2 137/2/2
f 135/2/2 136/2/2 137/2/2
f 137/2/2 134/2/2 138/2/2
f 135/2/2 137/2/2 139/2/2
f 139/2/2 137/2/2 140/2/2
f 141/2/2 142/2/2 143/2/2
f 143/2/2 142/2/2 144/2/2
f 145/6/2 146/6/2 147/6/2
f 147/6/2 146/6/2 148/6/2
f 149/6/2 150/6/2 151/6/2
f 151/6/2 150/6/2 152/6/2
f 153/2/2 154/2/2 155/2/2
f 155/2/2 154/2/2 156/2/2
f 157/7/2 158/7/2 159/7/2
f 159/7/2 158/7/2 160/7/2
f 159/6/2 160/6/2 163/6/2
f 160/6/2 161/6/2 163/6/2
f 163/6/2 161/6/2 164/6/2
f 162/4/2 163/4/2 166/4/2
f 164/4/2 165/4/2 166/4/2
f 163/4/2 164/4/2 166/4/2
f 166/4/2 165/4/2 167/4/2
f 168/4/2 169/4/2 172/4/2
f 169/1/2 170/1/2 173/1/2
f 172/4/2 169/4/2 173/4/2
f 170/4/2 171/4/2 174/4/2
f 173/1/2 170/1/2 174/1/2
f 174/4/2 171/4/2 175/4/2
f 176/2/2 177/2/2 178/2/2
f 178/2/2 177/2/2 179/2/2
f 180/3/2 181/3/2 182/3/2
f 182/3/2 181/3/2 183/3/2
f 182/7/2 183/7/2 184/7/2
f 184/7/2 183/7/2 185/7/2
f 186/7/2 187/7/2 188/7/2
f 188/7/2 187/7/2 189/7/2
f 190/4/2 191/4/2 192/4/2
f 192/4/2 191/4/2 193/4/2
f 192/6/2 193/6/2 194/6/2
f 193/4/2 191/4/2 195/4/2
f 194/6/2 193/6/2 195/6/2
f 195/4/2 191/4/2 196/4/2
f 196/4/2 191/4/2 197/4/2
f 194/4/2 195/4/2 198/4/2
f 195/4/2 196/4/2 198/4/2
f 196/1/2 197/1/2 199/1/2
f 198/4/2 196/4/2 199/4/2
f 194/4/2 198/4/2 200/4/2
f 198/1/2 199/1/2 201/1/2
f 200/4/2 198/4/2 201/4/2
f 199/1/2 197/1/2 202/1/2
f 201/1/2 199/1/2 202/1/2
f 203/8/2 204/8/2 205/8/2
f 205/8/2 204/8/2 206/8/2
f 206/8/2 204/8/2 207/8/2
f 206/2/2 207/2/2 209/2/2
f 209/2/2 207/2/2 210/2/2
f 208/2/2 209/2/2 210/2/2
f 210/2/2 207/2/2 211/2/2
f 208/2/2 210/2/2 212/2/2
f 208/2/2 212/2/2 214/2/2
f 212/2/2 213/2/2 214/2/2
f 214/2/2 213/2/2 215/2/2
f 214/3/2 215/3/2 216/3/2
f 216/3/2 215/3/2 217/3/2
f 216/7/2 217/7/2 218/7/2
f 218/7/2 217/7/2 219/7/2
f 219/7/2 217/7/2 221/7/2
f 221/7/2 217/7/2 222/7/2
f 220/7/2 221/7/2 223/7/2
f 223/7/2 221/7/2 224/7/2
f 225/4/2 226/4/2 227/4/2
f 227/4/2 226/4/2 228/4/2
f 229/7/2 230/7/2 231/7/2
f 231/7/2 230/7/2 232/7/2
f 233/4/2 234/4/2 235/4/2
f 235/4/2 234/4/2 236/4/2
f 236/4/2 234/4/2 237/4/2
f 237/4/2 238/4/2 239/4/2
f 236/4/2 237/4/2 239/4/2
f 239/4/2 238/4/2 240/4/2
f 239/7/2 240/7/2 241/7/2
f 241/7/2 240/7/2 242/7/2
f 249/8/3 244/8/3 243/8/3
f 250/8/3 244/8/3 249/8/3
f 252/4/3 246/4/3 245/4/3
f 253/4/3 246/4/3 252/4/3
f 254/6/3 247/6/3 246/6/3
f 254/4/3 246/4/3 253/4/3
f 255/4/3 248/4/3 247/4/3
f 255/6/3 247/6/3 254/6/3
f 256/4/3 248/4/3 255/4/3
f 257/4/3 248/4/3 256/4/3
f 258/4/3 253/4/3 252/4/3
f 258/4/3 252/4/3 251/4/3
f 259/1/3 254/1/3 253/1/3
f 259/4/3 253/4/3 258/4/3
f 260/7/3 255/7/3 254/7/3
f 260/1/3 254/1/3 259/1/3
f 261/4/3 256/4/3 255/4/3
f 261/7/3 255/7/3 260/7/3
f 262/4/3 258/4/3 251/4/3
f 262/3/3 259/3/3 258/3/3
f 263/1/3 260/1/3 259/1/3
f 263/3/3 259/3/3 262/3/3
f 264/4/3 261/4/3 260/4/3
f 264/1/3 260/1/3 263/1/3
f 265/4/3 256/4/3 261/4/3
f 265/4/3 261/4/3 264/4/3
f 268/4/3 262/4/3 251/4/3
f 268/4/3 263/4/3 262/4/3
f 269/4/3 263/4/3 268/4/3
f 270/1/3 264/1/3 263/1/3
f 270/4/3 263/4/3 269/4/3
f 271/7/3 265/7/3 264/7/3
f 271/1/3 264/1/3 270/1/3
f 272/4/3 256/4/3 265/4/3
f 272/7/3 265/7/3 271/7/3
f 273/1/3 257/1/3 256/1/3
f 273/4/3 256/4/3 272/4/3
f 274/1/3 257/1/3 273/1/3
f 275/4/3 271/4/3 270/4/3
f 275/4/3 270/4/3 269/4/3
f 276/6/3 272/6/3 271/6/3
f 276/4/3 271/4/3 275/4/3
f 277/4/3 274/4/3 273/4/3
f 277/6/3 272/6/3 276/6/3
f 277/4/3 273/4/3 272/4/3
f 278/4/3 274/4/3 277/4/3
f 279/8/3 267/8/3 266/8/3
f 280/8/3 267/8/3 279/8/3
f 283/4/3 282/4/3 281/4/3
f 284/4/3 282/4/3 283/4/3
f 289/3/3 286/3/3 285/3/3
f 290/7/3 287/7/3 286/7/3
f 295/2/3 289/2/3 288/2/3
f 295/3/3 286/3/3 289/3/3
f 296/7/3 290/7/3 286/7/3
f 296/3/3 286/3/3 295/3/3
f 296/7/3 291/7/3 290/7/3
f 297/6/3 292/6/3 291/6/3
f 297/7/3 291/7/3 296/7/3
f 298/6/3 292/6/3 297/6/3
f 299/7/3 297/7/3 296/7/3
f 300/7/3 297/7/3 299/7/3
f 301/8/3 296/8/3 295/8/3
f 301/2/3 295/2/3 288/2/3
f 302/7/3 299/7/3 296/7/3
f 302/8/3 296/8/3 301/8/3
f 303/7/3 297/7/3 300/7/3
f 305/2/3 301/2/3 288/2/3
f 306/3/3 302/3/3 301/3/3
f 306/2/3 301/2/3 305/2/3
f 307/7/3 299/7/3 302/7/3
f 307/5/3 300/5/3 299/5/3
f 308/7/3 303/7/3 300/7/3
f 308/5/3 300/5/3 307/5/3
f 309/6/3 304/6/3 303/6/3
f 309/7/3 303/7/3 308/7/3
f 310/6/3 304/6/3 309/6/3
f 311/4/3 294/4/3 293/4/3
f 312/4/3 294/4/3 311/4/3
f 313/3/3 302/3/3 306/3/3
f 314/7/3 307/7/3 302/7/3
f 314/3/3 302/3/3 313/3/3
f 314/7/3 308/7/3 307/7/3
f 315/7/3 308/7/3 314/7/3
f 318/4/3 317/4/3 316/4/3
f 319/4/3 317/4/3 318/4/3
f 323/7/3 322/7/3 321/7/3
f 325/4/3 321/4/3 320/4/3
f 326/7/3 324/7/3 323/7/3
f 326/4/3 321/4/3 325/4/3
f 326/7/3 323/7/3 321/7/3
f 330/7/3 324/7/3 326/7/3
f 331/7/3 324/7/3 330/7/3
f 333/3/3 329/3/3 328/3/3
f 333/2/3 328/2/3 327/2/3
f 334/7/3 332/7/3 331/7/3
f 334/3/3 329/3/3 333/3/3
f 334/7/3 331/7/3 330/7/3
f 334/7/3 330/7/3 329/7/3
f 335/7/3 332/7/3 334/7/3
f 336/2/3 333/2/3 327/2/3
f 337/2/3 333/2/3 336/2/3
f 338/2/3 333/2/3 337/2/3
f 339/2/3 333/2/3 338/2/3
f 340/7/3 332/7/3 335/7/3
f 341/7/3 332/7/3 340/7/3
f 344/4/3 343/4/3 342/4/3
f 345/4/3 343/4/3 344/4/3
f 347/2/3 338/2/3 337/2/3
f 348/2/3 338/2/3 347/2/3
f 352/2/3 347/2/3 346/2/3
f 352/2/3 348/2/3 347/2/3
f 352/2/3 349/2/3 348/2/3
f 354/7/3 351/7/3 350/7/3
f 355/2/3 352/2/3 346/2/3
f 356/3/3 353/3/3 352/3/3
f 356/2/3 352/2/3 355/2/3
f 357/7/3 354/7/3 353/7/3
f 357/3/3 353/3/3 356/3/3
f 358/7/3 354/7/3 357/7/3
f 359/7/3 351/7/3 354/7/3
f 359/7/3 354/7/3 358/7/3
f 360/7/3 351/7/3 359/7/3
f 362/7/3 359/7/3 358/7/3
f 363/7/3 359/7/3 362/7/3
f 364/7/3 359/7/3 363/7/3
f 365/4/3 362/4/3 361/4/3
f 366/7/3 363/7/3 362/7/3
f 366/4/3 362/4/3 365/4/3
f 367/7/3 363/7/3 366/7/3
f 370/2/3 369/2/3 368/2/3
f 371/2/3 369/2/3 370/2/3
f 374/2/3 373/2/3 372/2/3
f 375/2/3 373/2/3 374/2/3
f 376/4/4 377/4/4 378/4/4
f 378/4/4 377/4/4 379/4/4
f 376/4/4 378/4/4 380/4/4
f 380/4/4 378/4/4 381/4/4
f 382/4/4 383/4/4 384/4/4
f 382/4/4 384/4/4 386/4/4
f 384/4/4 385/4/4 386/4/4
f 386/4/4 385/4/4 387/4/4
f 388/4/4 389/4/4 392/4/4
f 389/7/4 390/7/4 393/7/4
f 391/4/4 392/4/4 395/4/4
f 393/7/4 394/7/4 396/7/4
f 395/4/4 392/4/4 396/4/4
f 392/4/4 389/4/4 396/4/4
f 389/7/4 393/7/4 396/7/4
f 396/7/4 394/7/4 399/7/4
f 399/7/4 394/7/4 400/7/4
f 397/2/4 398/2/4 402/2/4
f 402/2/4 398/2/4 403/2/4
f 400/7/4 401/7/4 404/7/4
f 404/7/4 401/7/4 405/7/4
f 397/2/4 402/2/4 406/2/4
f 406/2/4 402/2/4 407/2/4
f 407/2/4 402/2/4 410/2/4
f 408/6/4 409/6/4 412/6/4
f 412/6/4 409/6/4 413/6/4
f 410/2/4 411/2/4 414/2/4
f 407/2/4 410/2/4 414/2/4
f 414/2/4 411/2/4 415/2/4
f 407/2/4 414/2/4 419/2/4
f 416/6/4 417/6/4 420/6/4
f 420/6/4 417/6/4 421/6/4
f 418/2/4 419/2/4 422/2/4
f 419/2/4 414/2/4 422/2/4
f 418/2/4 422/2/4 426/2/4
f 422/2/4 423/2/4 426/2/4
f 426/2/4 423/2/4 427/2/4
f 424/7/4 425/7/4 429/7/4
f 429/7/4 425/7/4 430/7/4
f 428/7/4 429/7/4 432/7/4
f 431/4/4 432/4/4 433/4/4
f 433/4/4 432/4/4 434/4/4
f 432/7/4 429/7/4 435/7/4
f 435/7/4 429/7/4 436/7/4
f 434/4/4 432/4/4 437/4/4
f 432/7/4 435/7/4 438/7/4
f 437/4/4 432/4/4 438/4/4
f 438/7/4 435/7/4 439/7/4
f 443/2/4 444/2/4 448/2/4
f 445/7/4 446/7/4 449/7/4
f 440/8/4 441/8/4 451/8/4
f 441/2/4 442/2/4 452/2/4
f 451/8/4 441/8/4 452/8/4
f 452/2/4 442/2/4 453/2/4
f 447/2/4 448/2/4 458/2/4
f 448/2/4 444/2/4 459/2/4
f 458/2/4 448/2/4 459/2/4
f 449/7/4 450/7/4 460/7/4
f 454/4/4 455/4/4 461/4/4
f 456/4/4 457/4/4 462/4/4
f 462/4/4 457/4/4 463/4/4
f 459/2/4 444/2/4 465/2/4
f 460/6/4 461/6/4 466/6/4
f 449/7/4 460/7/4 466/7/4
f 461/4/4 455/4/4 467/4/4
f 466/6/4 461/6/4 467/6/4
f 462/1/4 463/1/4 468/1/4
f 468/1/4 463/1/4 469/1/4
f 467/4/4 455/4/4 473/4/4
f 473/4/4 455/4/4 474/4/4
f 468/4/4 469/4/4 475/4/4
f 475/4/4 469/4/4 476/4/4
f 464/2/4 465/2/4 477/2/4
f 465/2/4 444/2/4 478/2/4
f 477/2/4 465/2/4 478/2/4
f 445/7/4 449/7/4 479/7/4
f 449/7/4 466/7/4 479/7/4
f 479/7/4 466/7/4 480/7/4
f 470/8/4 471/8/4 481/8/4
f 471/2/4 472/2/4 482/2/4
f 481/8/4 471/8/4 482/8/4
f 482/2/4 472/2/4 483/2/4
f 478/2/4 444/2/4 484/2/4
f 444/3/4 445/3/4 485/3/4
f 484/2/4 444/2/4 485/2/4
f 445/7/4 479/7/4 486/7/4
f 485/3/4 445/3/4 486/3/4
f 486/7/4 479/7/4 487/7/4
f 488/4/4 489/4/4 491/4/4
f 489/1/4 490/1/4 492/1/4
f 491/4/4 489/4/4 492/4/4
f 492/1/4 490/1/4 493/1/4
f 498/8/5 495/8/5 494/8/5
f 499/8/5 495/8/5 498/8/5
f 500/8/5 497/8/5 496/8/5
f 501/8/5 497/8/5 500/8/5
f 506/2/5 503/2/5 502/2/5
f 507/2/5 503/2/5 506/2/5
f 508/2/5 505/2/5 504/2/5
f 509/2/5 505/2/5 508/2/5
f 512/2/5 511/2/5 510/2/5
f 513/2/5 511/2/5 512/2/5
f 518/2/5 515/2/5 514/2/5
f 519/2/5 515/2/5 518/2/5
f 520/2/5 517/2/5 516/2/5
f 521/2/5 517/2/5 520/2/5
f 528/2/5 525/2/5 524/2/5
f 529/2/5 525/2/5 528/2/5
f 530/4/5 523/4/5 522/4/5
f 531/4/5 523/4/5 530/4/5
f 532/4/5 527/4/5 526/4/5
f 533/4/5 527/4/5 532/4/5
f 540/2/5 535/2/5 534/2/5
f 541/2/5 535/2/5 540/2/5
f 542/2/5 537/2/5 536/2/5
f 543/2/5 537/2/5 542/2/5
f 544/2/5 539/2/5 538/2/5
f 545/2/5 539/2/5 544/2/5
f 550/3/5 547/3/5 546/3/5
f 551/3/5 547/3/5 550/3/5
f 552/3/5 549/3/5 548/3/5
f 553/3/5 549/3/5 552/3/5
f 558/4/5 555/4/5 554/4/5
f 559/4/5 555/4/5 558/4/5
f 560/4/5 557/4/5 556/4/5
f 561/4/5 557/4/5 560/4/5
f 566/4/5 563/4/5 562/4/5
f 567/4/5 563/4/5 566/4/5
f 568/4/5 565/4/5 564/4/5
f 569/4/5 565/4/5 568/4/5
f 574/7/5 571/7/5 570/7/5
f 575/7/5 571/7/5 574/7/5
f 576/7/5 573/7/5 572/7/5
f 577/7/5 573/7/5 576/7/5
f 580/4/5 579/4/5 578/4/5
f 581/4/5 579/4/5 580/4/5
f 582/4/5 579/4/5 581/4/5
f 583/4/5 579/4/5 582/4/5
f 584/4/5 582/4/5 581/4/5
f 585/4/5 582/4/5 584/4/5
f 590/4/5 587/4/5 586/4/5
f 591/4/5 587/4/5 590/4/5
f 592/4/5 589/4/5 588/4/5
f 593/4/5 589/4/5 592/4/5
f 598/4/5 595/4/5 594/4/5
f 599/4/5 597/4/5 596/4/5
f 600/4/5 598/4/5 594/4/5
f 600/4/5 599/4/5 598/4/5
f 601/4/5 597/4/5 599/4/5
f 601/4/5 599/4/5 600/4/5
f 602/8/6 603/8/6 606/8/6
f 606/8/6 603/8/6 607/8/6
f 604/8/6 605/8/6 608/8/6
f 608/8/6 605/8/6 609/8/6
f 610/2/6 611/2/6 614/2/6
f 614/2/6 611/2/6 615/2/6
f 612/2/6 613/2/6 616/2/6
f 616/2/6 613/2/6 617/2/6
f 618/4/6 619/4/6 622/4/6
f 622/4/6 619/4/6 623/4/6
f 620/4/6 621/4/6 624/4/6
f 624/4/6 621/4/6 625/4/6
f 626/7/6 627/7/6 632/7/6
f 632/7/6 627/7/6 633/7/6
f 628/7/6 629/7/6 634/7/6
f 634/7/6 629/7/6 635/7/6
f 630/7/6 631/7/6 638/7/6
f 638/7/6 631/7/6 639/7/6
f 636/7/6 637/7/6 640/7/6
f 640/7/6 637/7/6 641/7/6
f 642/7/6 643/7/6 646/7/6
f 646/7/6 643/7/6 647/7/6
f 644/7/6 645/7/6 650/7/6
f 650/7/6 645/7/6 651/7/6
f 647/7/6 648/7/6 652/7/6
f 652/7/6 648/7/6 653/7/6
f 649/7/6 650/7/6 654/7/6
f 654/7/6 650/7/6 655/7/6
f 656/7/6 657/7/6 660/7/6
f 660/7/6 657/7/6 661/7/6
f 658/7/6 659/7/6 664/7/6
f 664/7/6 659/7/6 665/7/6
f 665/7/6 659/7/6 666/7/6
f 662/7/6 663/7/6 669/7/6
f 669/7/6 663/7/6 670/7/6
f 670/7/6 663/7/6 671/7/6
f 666/7/6 667/7/6 672/7/6
f 665/7/6 666/7/6 672/7/6
f 672/7/6 667/7/6 673/7/6
f 669/7/6 670/7/6 674/7/6
f 668/7/6 669/7/6 674/7/6
f 674/7/6 670/7/6 675/7/6
f 676/4/6 677/4/6 680/4/6
f 677/1/6 678/1/6 681/1/6
f 680/4/6 677/4/6 681/4/6
f 678/4/6 679/4/6 682/4/6
f 681/1/6 678/1/6 682/1/6
f 682/4/6 679/4/6 683/4/6
f 680/1/6 681/1/6 684/1/6
f 682/1/6 683/1/6 685/1/6
f 680/1/6 684/1/6 686/1/6
f 685/1/6 683/1/6 687/1/6
f 680/1/6 686/1/6 688/1/6
f 687/1/6 683/1/6 691/1/6
f 689/1/6 690/1/6 692/1/6
f 690/1/6 691/1/6 692/1/6
f 680/1/6 688/1/6 692/1/6
f 688/1/6 689/1/6 692/1/6
f 691/1/6 683/1/6 693/1/6
f 692/1/6 691/1/6 693/1/6
f 694/4/6 695/4/6 696/4/6
f 696/4/6 695/4/6 697/4/6
f 696/1/6 697/1/6 698/1/6
f 698/1/6 697/1/6 699/1/6
f 698/4/6 699/4/6 700/4/6
f 700/4/6 699/4/6 701/4/6
f 698/4/6 700/4/6 702/4/6
f 700/1/6 701/1/6 703/1/6
f 702/4/6 700/4/6 703/4/6
f 701/4/6 699/4/6 704/4/6
f 703/1/6 701/1/6 704/1/6
f 704/4/6 699/4/6 705/4/6
