# MagicaVoxel @ Ephtracy

# group
o 

# material
mtllib fullBeansShelf.mtl
usemtl palette

# normals
vn -1 0 0
vn 1 0 0
vn 0 0 1
vn 0 0 -1
vn 0 -1 0
vn 0 1 0

# texcoords
vt 0.845703 0.5
vt 0.849609 0.5
vt 0.853516 0.5
vt 0.884766 0.5
vt 0.888672 0.5
vt 0.892578 0.5
vt 0.896484 0.5
vt 0.916016 0.5
vt 0.919922 0.5
vt 0.974609 0.5

# verts
v -0.8 0 0.6
v -0.8 0 -0.8
v -0.8 0.2 0.8
v -0.8 0.2 0.6
v -0.8 0.2 -0.6
v -0.8 0.3 0.8
v -0.8 0.3 0.7
v -0.8 0.4 0.7
v -0.8 0.4 -0.6
v -0.8 1.3 0.8
v -0.8 1.3 -0.6
v -0.8 1.4 0.8
v -0.8 1.4 0.7
v -0.8 1.5 0.7
v -0.8 1.5 -0.6
v -0.8 2.4 0.8
v -0.8 2.4 -0.6
v -0.8 2.5 0.8
v -0.8 2.5 0.7
v -0.8 2.6 0.7
v -0.8 2.6 -0.6
v -0.8 3.5 0.8
v -0.8 3.5 -0.6
v -0.8 3.6 0.8
v -0.8 3.6 0.7
v -0.8 3.7 0.7
v -0.8 3.7 -0.6
v -0.8 4.6 0.8
v -0.8 4.6 -0.6
v -0.8 4.8 0.8
v -0.8 4.8 -0.8
v -0.1 4.6 0.1
v -0.1 4.6 0
v -0.1 4.7 0.1
v -0.1 4.7 0
v -0.3 4.6 0.1
v -0.3 4.6 0
v -0.3 4.7 0.1
v -0.3 4.7 0
v 0.8 0 0.6
v 0.8 0 -0.8
v 0.8 0.2 0.8
v 0.8 0.2 0.6
v 0.8 0.2 -0.6
v 0.8 0.3 0.8
v 0.8 0.3 0.7
v 0.8 0.4 0.7
v 0.8 0.4 -0.6
v 0.8 1.3 0.8
v 0.8 1.3 -0.6
v 0.8 1.4 0.8
v 0.8 1.4 0.7
v 0.8 1.5 0.7
v 0.8 1.5 -0.6
v 0.8 2.4 0.8
v 0.8 2.4 -0.6
v 0.8 2.5 0.8
v 0.8 2.5 0.7
v 0.8 2.6 0.7
v 0.8 2.6 -0.6
v 0.8 3.5 0.8
v 0.8 3.5 -0.6
v 0.8 3.6 0.8
v 0.8 3.6 0.7
v 0.8 3.7 0.7
v 0.8 3.7 -0.6
v 0.8 4.6 0.8
v 0.8 4.6 -0.6
v 0.8 4.8 0.8
v 0.8 4.8 -0.8
v -0.8 0.2 0.8
v -0.8 0.3 0.8
v -0.8 1.3 0.8
v -0.8 1.4 0.8
v -0.8 2.4 0.8
v -0.8 2.5 0.8
v -0.8 3.5 0.8
v -0.8 3.6 0.8
v -0.8 4.6 0.8
v -0.8 4.8 0.8
v 0.8 0.2 0.8
v 0.8 0.3 0.8
v 0.8 1.3 0.8
v 0.8 1.4 0.8
v 0.8 2.4 0.8
v 0.8 2.5 0.8
v 0.8 3.5 0.8
v 0.8 3.6 0.8
v 0.8 4.6 0.8
v 0.8 4.8 0.8
v -0.8 0.3 0.7
v -0.8 0.4 0.7
v -0.8 1.4 0.7
v -0.8 1.5 0.7
v -0.8 2.5 0.7
v -0.8 2.6 0.7
v -0.8 3.6 0.7
v -0.8 3.7 0.7
v 0.8 0.3 0.7
v 0.8 0.4 0.7
v 0.8 1.4 0.7
v 0.8 1.5 0.7
v 0.8 2.5 0.7
v 0.8 2.6 0.7
v 0.8 3.6 0.7
v 0.8 3.7 0.7
v -0.8 0 0.6
v -0.8 0.2 0.6
v 0.8 0 0.6
v 0.8 0.2 0.6
v -0.3 4.6 0
v -0.3 4.7 0
v -0.2 4.7 0
v -0.1 4.6 0
v -0.1 4.7 0
v -0.8 0.4 -0.6
v -0.8 1.3 -0.6
v -0.8 1.5 -0.6
v -0.8 2.4 -0.6
v -0.8 2.6 -0.6
v -0.8 3.5 -0.6
v -0.8 3.7 -0.6
v -0.8 4.6 -0.6
v 0.8 0.4 -0.6
v 0.8 1.3 -0.6
v 0.8 1.5 -0.6
v 0.8 2.4 -0.6
v 0.8 2.6 -0.6
v 0.8 3.5 -0.6
v 0.8 3.7 -0.6
v 0.8 4.6 -0.6
v -0.3 4.6 0.1
v -0.3 4.7 0.1
v -0.2 4.7 0.1
v -0.1 4.6 0.1
v -0.1 4.7 0.1
v -0.8 0 -0.8
v -0.8 4.8 -0.8
v 0.8 0 -0.8
v 0.8 4.8 -0.8
v -0.8 0 0.6
v 0.8 0 0.6
v -0.8 0 -0.8
v 0.8 0 -0.8
v -0.8 0.2 0.8
v 0.8 0.2 0.8
v -0.8 0.2 0.6
v 0.8 0.2 0.6
v -0.8 1.3 0.8
v 0.8 1.3 0.8
v -0.8 1.3 -0.6
v 0.8 1.3 -0.6
v -0.8 2.4 0.8
v 0.8 2.4 0.8
v -0.8 2.4 -0.6
v 0.8 2.4 -0.6
v -0.8 3.5 0.8
v 0.8 3.5 0.8
v -0.8 3.5 -0.6
v 0.8 3.5 -0.6
v -0.8 4.6 0.8
v 0.8 4.6 0.8
v -0.3 4.6 0.1
v -0.1 4.6 0.1
v -0.3 4.6 0
v -0.1 4.6 0
v -0.8 4.6 -0.6
v 0.8 4.6 -0.6
v -0.3 4.7 0.1
v -0.2 4.7 0.1
v -0.1 4.7 0.1
v -0.3 4.7 0
v -0.2 4.7 0
v -0.1 4.7 0
v -0.8 0.3 0.8
v 0.8 0.3 0.8
v -0.8 0.3 0.7
v 0.8 0.3 0.7
v -0.8 0.4 0.7
v 0.8 0.4 0.7
v -0.8 0.4 -0.6
v 0.8 0.4 -0.6
v -0.8 1.4 0.8
v 0.8 1.4 0.8
v -0.8 1.4 0.7
v 0.8 1.4 0.7
v -0.8 1.5 0.7
v 0.8 1.5 0.7
v -0.8 1.5 -0.6
v 0.8 1.5 -0.6
v -0.8 2.5 0.8
v 0.8 2.5 0.8
v -0.8 2.5 0.7
v 0.8 2.5 0.7
v -0.8 2.6 0.7
v 0.8 2.6 0.7
v -0.8 2.6 -0.6
v 0.8 2.6 -0.6
v -0.8 3.6 0.8
v 0.8 3.6 0.8
v -0.8 3.6 0.7
v 0.8 3.6 0.7
v -0.8 3.7 0.7
v 0.8 3.7 0.7
v -0.8 3.7 -0.6
v 0.8 3.7 -0.6
v -0.8 4.8 0.8
v 0.8 4.8 0.8
v -0.7 4.8 0.7
v -0.4 4.8 0.7
v -0.2 4.8 0.7
v 0.6 4.8 0.7
v -0.6 4.8 0.6
v -0.5 4.8 0.6
v -0.3 4.8 0.6
v -0.2 4.8 0.6
v -0.1 4.8 0.6
v 0.5 4.8 0.6
v 0.6 4.8 0.6
v 0.7 4.8 0.6
v -0.2 4.8 0.5
v -0.1 4.8 0.5
v 0.5 4.8 0.5
v 0.6 4.8 0.5
v -0.2 4.8 0.4
v -0.1 4.8 0.4
v 0 4.8 0.4
v 0.1 4.8 0.4
v 0.2 4.8 0.4
v 0.3 4.8 0.4
v 0.4 4.8 0.4
v 0.5 4.8 0.4
v 0.6 4.8 0.4
v -0.2 4.8 0.3
v -0.1 4.8 0.3
v 0 4.8 0.3
v 0.1 4.8 0.3
v 0.2 4.8 0.3
v 0.3 4.8 0.3
v 0.4 4.8 0.3
v 0.5 4.8 0.3
v 0.6 4.8 0.3
v -0.6 4.8 0.2
v -0.5 4.8 0.2
v -0.2 4.8 0.2
v -0.1 4.8 0.2
v 0 4.8 0.2
v 0.1 4.8 0.2
v 0.2 4.8 0.2
v 0.3 4.8 0.2
v 0.4 4.8 0.2
v 0.5 4.8 0.2
v 0.6 4.8 0.2
v -0.2 4.8 0.1
v -0.1 4.8 0.1
v 0 4.8 0.1
v 0.1 4.8 0.1
v 0.2 4.8 0.1
v 0.4 4.8 0.1
v 0.5 4.8 0.1
v 0.6 4.8 0.1
v -0.1 4.8 0
v 0 4.8 0
v 0.1 4.8 0
v 0.2 4.8 0
v 0.3 4.8 0
v 0.4 4.8 0
v 0.5 4.8 0
v 0.6 4.8 0
v -0.2 4.8 -0.1
v -0.1 4.8 -0.1
v 0 4.8 -0.1
v 0.1 4.8 -0.1
v 0.2 4.8 -0.1
v 0.3 4.8 -0.1
v 0.4 4.8 -0.1
v 0.5 4.8 -0.1
v 0.6 4.8 -0.1
v -0.1 4.8 -0.2
v 0 4.8 -0.2
v 0.1 4.8 -0.2
v 0.3 4.8 -0.2
v 0.4 4.8 -0.2
v 0.5 4.8 -0.2
v 0 4.8 -0.3
v 0.1 4.8 -0.3
v 0.2 4.8 -0.3
v 0.3 4.8 -0.3
v -0.1 4.8 -0.4
v 0.5 4.8 -0.4
v -0.2 4.8 -0.5
v -0.1 4.8 -0.5
v 0 4.8 -0.5
v 0.4 4.8 -0.5
v 0.5 4.8 -0.5
v 0.6 4.8 -0.5
v -0.6 4.8 -0.6
v -0.5 4.8 -0.6
v -0.2 4.8 -0.6
v 0 4.8 -0.6
v 0.4 4.8 -0.6
v 0.6 4.8 -0.6
v -0.7 4.8 -0.7
v -0.4 4.8 -0.7
v -0.3 4.8 -0.7
v 0.7 4.8 -0.7
v -0.8 4.8 -0.8
v 0.8 4.8 -0.8

# faces
f 4/5/1 2/5/1 1/5/1
f 5/5/1 2/5/1 4/5/1
f 6/6/1 4/6/1 3/6/1
f 6/6/1 5/6/1 4/6/1
f 7/6/1 5/6/1 6/6/1
f 8/6/1 5/6/1 7/6/1
f 9/5/1 2/5/1 5/5/1
f 9/6/1 5/6/1 8/6/1
f 11/5/1 2/5/1 9/5/1
f 12/6/1 11/6/1 10/6/1
f 13/6/1 11/6/1 12/6/1
f 14/6/1 11/6/1 13/6/1
f 15/5/1 2/5/1 11/5/1
f 15/6/1 11/6/1 14/6/1
f 17/5/1 2/5/1 15/5/1
f 18/6/1 17/6/1 16/6/1
f 19/6/1 17/6/1 18/6/1
f 20/6/1 17/6/1 19/6/1
f 21/5/1 2/5/1 17/5/1
f 21/6/1 17/6/1 20/6/1
f 23/5/1 2/5/1 21/5/1
f 24/6/1 23/6/1 22/6/1
f 25/6/1 23/6/1 24/6/1
f 26/6/1 23/6/1 25/6/1
f 27/5/1 2/5/1 23/5/1
f 27/6/1 23/6/1 26/6/1
f 29/5/1 2/5/1 27/5/1
f 30/5/1 29/5/1 28/5/1
f 31/5/1 2/5/1 29/5/1
f 31/5/1 29/5/1 30/5/1
f 34/5/1 33/5/1 32/5/1
f 35/5/1 33/5/1 34/5/1
f 36/5/2 37/5/2 38/5/2
f 38/5/2 37/5/2 39/5/2
f 40/5/2 41/5/2 43/5/2
f 43/5/2 41/5/2 44/5/2
f 42/6/2 43/6/2 45/6/2
f 43/6/2 44/6/2 45/6/2
f 45/6/2 44/6/2 46/6/2
f 46/6/2 44/6/2 47/6/2
f 44/5/2 41/5/2 48/5/2
f 47/6/2 44/6/2 48/6/2
f 48/5/2 41/5/2 50/5/2
f 49/6/2 50/6/2 51/6/2
f 51/6/2 50/6/2 52/6/2
f 52/6/2 50/6/2 53/6/2
f 50/5/2 41/5/2 54/5/2
f 53/6/2 50/6/2 54/6/2
f 54/5/2 41/5/2 56/5/2
f 55/6/2 56/6/2 57/6/2
f 57/6/2 56/6/2 58/6/2
f 58/6/2 56/6/2 59/6/2
f 56/5/2 41/5/2 60/5/2
f 59/6/2 56/6/2 60/6/2
f 60/5/2 41/5/2 62/5/2
f 61/6/2 62/6/2 63/6/2
f 63/6/2 62/6/2 64/6/2
f 64/6/2 62/6/2 65/6/2
f 62/5/2 41/5/2 66/5/2
f 65/6/2 62/6/2 66/6/2
f 66/5/2 41/5/2 68/5/2
f 67/5/2 68/5/2 69/5/2
f 68/5/2 41/5/2 70/5/2
f 69/5/2 68/5/2 70/5/2
f 81/6/3 72/6/3 71/6/3
f 82/6/3 72/6/3 81/6/3
f 83/6/3 74/6/3 73/6/3
f 84/6/3 74/6/3 83/6/3
f 85/6/3 76/6/3 75/6/3
f 86/6/3 76/6/3 85/6/3
f 87/6/3 78/6/3 77/6/3
f 88/6/3 78/6/3 87/6/3
f 89/5/3 80/5/3 79/5/3
f 90/5/3 80/5/3 89/5/3
f 99/6/3 92/6/3 91/6/3
f 100/6/3 92/6/3 99/6/3
f 101/6/3 94/6/3 93/6/3
f 102/6/3 94/6/3 101/6/3
f 103/6/3 96/6/3 95/6/3
f 104/6/3 96/6/3 103/6/3
f 105/6/3 98/6/3 97/6/3
f 106/6/3 98/6/3 105/6/3
f 109/5/3 108/5/3 107/5/3
f 110/5/3 108/5/3 109/5/3
f 113/5/3 112/5/3 111/5/3
f 114/5/3 113/5/3 111/5/3
f 115/5/3 113/5/3 114/5/3
f 124/5/3 117/5/3 116/5/3
f 125/5/3 117/5/3 124/5/3
f 126/5/3 119/5/3 118/5/3
f 127/5/3 119/5/3 126/5/3
f 128/5/3 121/5/3 120/5/3
f 129/5/3 121/5/3 128/5/3
f 130/5/3 123/5/3 122/5/3
f 131/5/3 123/5/3 130/5/3
f 132/5/4 133/5/4 134/5/4
f 132/5/4 134/5/4 135/5/4
f 135/5/4 134/5/4 136/5/4
f 137/5/4 138/5/4 139/5/4
f 139/5/4 138/5/4 140/5/4
f 143/5/5 142/5/5 141/5/5
f 144/5/5 142/5/5 143/5/5
f 147/6/5 146/6/5 145/6/5
f 148/6/5 146/6/5 147/6/5
f 151/6/5 150/6/5 149/6/5
f 152/6/5 150/6/5 151/6/5
f 155/6/5 154/6/5 153/6/5
f 156/6/5 154/6/5 155/6/5
f 159/6/5 158/6/5 157/6/5
f 160/6/5 158/6/5 159/6/5
f 163/5/5 162/5/5 161/5/5
f 164/5/5 162/5/5 163/5/5
f 165/5/5 163/5/5 161/5/5
f 166/5/5 162/5/5 164/5/5
f 167/5/5 165/5/5 161/5/5
f 167/5/5 166/5/5 165/5/5
f 168/5/5 162/5/5 166/5/5
f 168/5/5 166/5/5 167/5/5
f 172/4/5 170/4/5 169/4/5
f 173/2/5 171/2/5 170/2/5
f 173/4/5 170/4/5 172/4/5
f 174/2/5 171/2/5 173/2/5
f 175/6/6 176/6/6 177/6/6
f 177/6/6 176/6/6 178/6/6
f 179/6/6 180/6/6 181/6/6
f 181/6/6 180/6/6 182/6/6
f 183/6/6 184/6/6 185/6/6
f 185/6/6 184/6/6 186/6/6
f 187/6/6 188/6/6 189/6/6
f 189/6/6 188/6/6 190/6/6
f 191/6/6 192/6/6 193/6/6
f 193/6/6 192/6/6 194/6/6
f 195/6/6 196/6/6 197/6/6
f 197/6/6 196/6/6 198/6/6
f 199/6/6 200/6/6 201/6/6
f 201/6/6 200/6/6 202/6/6
f 203/6/6 204/6/6 205/6/6
f 205/6/6 204/6/6 206/6/6
f 207/5/6 208/5/6 209/5/6
f 209/5/6 208/5/6 210/5/6
f 210/5/6 208/5/6 211/5/6
f 211/5/6 208/5/6 212/5/6
f 209/4/6 210/4/6 213/4/6
f 213/4/6 210/4/6 214/4/6
f 210/5/6 211/5/6 215/5/6
f 211/4/6 212/4/6 216/4/6
f 215/5/6 211/5/6 216/5/6
f 216/4/6 212/4/6 217/4/6
f 217/4/6 212/4/6 218/4/6
f 212/5/6 208/5/6 219/5/6
f 218/4/6 212/4/6 219/4/6
f 219/5/6 208/5/6 220/5/6
f 215/4/6 216/4/6 221/4/6
f 216/4/6 217/4/6 221/4/6
f 217/7/6 218/7/6 222/7/6
f 221/4/6 217/4/6 222/4/6
f 219/4/6 220/4/6 223/4/6
f 222/7/6 218/7/6 223/7/6
f 218/4/6 219/4/6 223/4/6
f 223/4/6 220/4/6 224/4/6
f 215/4/6 221/4/6 225/4/6
f 221/7/6 222/7/6 225/7/6
f 222/10/6 223/10/6 226/10/6
f 225/7/6 222/7/6 226/7/6
f 226/10/6 223/10/6 227/10/6
f 227/10/6 223/10/6 228/10/6
f 228/10/6 223/10/6 229/10/6
f 229/10/6 223/10/6 230/10/6
f 230/10/6 223/10/6 231/10/6
f 223/7/6 224/7/6 232/7/6
f 231/10/6 223/10/6 232/10/6
f 224/4/6 220/4/6 233/4/6
f 232/7/6 224/7/6 233/7/6
f 215/4/6 225/4/6 234/4/6
f 225/10/6 226/10/6 234/10/6
f 226/10/6 227/10/6 234/10/6
f 234/10/6 227/10/6 235/10/6
f 227/1/6 228/1/6 236/1/6
f 235/10/6 227/10/6 236/10/6
f 228/2/6 229/2/6 237/2/6
f 236/1/6 228/1/6 237/1/6
f 229/3/6 230/3/6 238/3/6
f 237/2/6 229/2/6 238/2/6
f 230/2/6 231/2/6 239/2/6
f 238/3/6 230/3/6 239/3/6
f 231/10/6 232/10/6 240/10/6
f 239/2/6 231/2/6 240/2/6
f 232/10/6 233/10/6 240/10/6
f 240/10/6 233/10/6 241/10/6
f 233/4/6 220/4/6 242/4/6
f 241/10/6 233/10/6 242/10/6
f 209/4/6 213/4/6 243/4/6
f 213/8/6 214/8/6 243/8/6
f 214/4/6 210/4/6 244/4/6
f 243/8/6 214/8/6 244/8/6
f 215/4/6 234/4/6 245/4/6
f 234/2/6 235/2/6 245/2/6
f 235/1/6 236/1/6 246/1/6
f 245/2/6 235/2/6 246/2/6
f 236/2/6 237/2/6 247/2/6
f 246/1/6 236/1/6 247/1/6
f 237/1/6 238/1/6 248/1/6
f 247/2/6 237/2/6 248/2/6
f 238/2/6 239/2/6 249/2/6
f 248/1/6 238/1/6 249/1/6
f 240/1/6 241/1/6 250/1/6
f 249/2/6 239/2/6 250/2/6
f 239/1/6 240/1/6 250/1/6
f 250/1/6 241/1/6 251/1/6
f 241/3/6 242/3/6 252/3/6
f 251/1/6 241/1/6 252/1/6
f 242/4/6 220/4/6 253/4/6
f 252/3/6 242/3/6 253/3/6
f 245/1/6 246/1/6 254/1/6
f 215/4/6 245/4/6 254/4/6
f 246/3/6 247/3/6 255/3/6
f 254/1/6 246/1/6 255/1/6
f 247/2/6 248/2/6 256/2/6
f 255/3/6 247/3/6 256/3/6
f 248/3/6 249/3/6 257/3/6
f 256/2/6 248/2/6 257/2/6
f 249/1/6 250/1/6 258/1/6
f 257/3/6 249/3/6 258/3/6
f 251/2/6 252/2/6 259/2/6
f 250/3/6 251/3/6 259/3/6
f 252/1/6 253/1/6 260/1/6
f 259/2/6 252/2/6 260/2/6
f 253/4/6 220/4/6 261/4/6
f 260/1/6 253/1/6 261/1/6
f 254/2/6 255/2/6 262/2/6
f 255/1/6 256/1/6 262/1/6
f 256/3/6 257/3/6 263/3/6
f 262/1/6 256/1/6 263/1/6
f 257/1/6 258/1/6 264/1/6
f 263/3/6 257/3/6 264/3/6
f 258/1/6 250/1/6 265/1/6
f 264/1/6 258/1/6 265/1/6
f 250/3/6 259/3/6 266/3/6
f 265/1/6 250/1/6 266/1/6
f 259/1/6 260/1/6 267/1/6
f 266/3/6 259/3/6 267/3/6
f 260/2/6 261/2/6 268/2/6
f 267/1/6 260/1/6 268/1/6
f 261/4/6 220/4/6 269/4/6
f 268/2/6 261/2/6 269/2/6
f 215/4/6 254/4/6 270/4/6
f 254/2/6 262/2/6 270/2/6
f 262/3/6 263/3/6 271/3/6
f 270/2/6 262/2/6 271/2/6
f 263/2/6 264/2/6 272/2/6
f 271/3/6 263/3/6 272/3/6
f 264/3/6 265/3/6 273/3/6
f 272/2/6 264/2/6 273/2/6
f 265/2/6 266/2/6 274/2/6
f 273/3/6 265/3/6 274/3/6
f 266/1/6 267/1/6 275/1/6
f 274/2/6 266/2/6 275/2/6
f 267/2/6 268/2/6 276/2/6
f 275/1/6 267/1/6 276/1/6
f 268/3/6 269/3/6 277/3/6
f 276/2/6 268/2/6 277/2/6
f 269/4/6 220/4/6 278/4/6
f 277/3/6 269/3/6 278/3/6
f 270/10/6 271/10/6 279/10/6
f 271/2/6 272/2/6 279/2/6
f 272/1/6 273/1/6 280/1/6
f 279/2/6 272/2/6 280/2/6
f 273/2/6 274/2/6 281/2/6
f 280/1/6 273/1/6 281/1/6
f 274/1/6 275/1/6 282/1/6
f 275/2/6 276/2/6 282/2/6
f 276/1/6 277/1/6 283/1/6
f 282/2/6 276/2/6 283/2/6
f 277/10/6 278/10/6 284/10/6
f 283/1/6 277/1/6 284/1/6
f 279/10/6 280/10/6 285/10/6
f 280/3/6 281/3/6 285/3/6
f 281/2/6 274/2/6 286/2/6
f 285/3/6 281/3/6 286/3/6
f 274/1/6 282/1/6 287/1/6
f 286/2/6 274/2/6 287/2/6
f 282/10/6 283/10/6 288/10/6
f 287/1/6 282/1/6 288/1/6
f 283/10/6 284/10/6 288/10/6
f 279/10/6 285/10/6 289/10/6
f 285/10/6 286/10/6 289/10/6
f 287/10/6 288/10/6 289/10/6
f 286/10/6 287/10/6 289/10/6
f 270/10/6 279/10/6 289/10/6
f 288/10/6 284/10/6 290/10/6
f 289/10/6 288/10/6 290/10/6
f 284/10/6 278/10/6 290/10/6
f 270/10/6 289/10/6 291/10/6
f 215/4/6 270/4/6 291/4/6
f 289/7/6 290/7/6 292/7/6
f 291/10/6 289/10/6 292/10/6
f 292/7/6 290/7/6 293/7/6
f 293/7/6 290/7/6 294/7/6
f 290/10/6 278/10/6 295/10/6
f 294/7/6 290/7/6 295/7/6
f 278/4/6 220/4/6 296/4/6
f 295/10/6 278/10/6 296/10/6
f 209/4/6 243/4/6 297/4/6
f 243/9/6 244/9/6 297/9/6
f 244/4/6 210/4/6 298/4/6
f 297/9/6 244/9/6 298/9/6
f 215/4/6 291/4/6 299/4/6
f 291/7/6 292/7/6 299/7/6
f 292/7/6 293/7/6 299/7/6
f 293/6/6 294/6/6 300/6/6
f 299/7/6 293/7/6 300/7/6
f 294/7/6 295/7/6 301/7/6
f 300/6/6 294/6/6 301/6/6
f 295/7/6 296/7/6 301/7/6
f 296/4/6 220/4/6 302/4/6
f 301/7/6 296/7/6 302/7/6
f 207/5/6 209/5/6 303/5/6
f 297/4/6 298/4/6 303/4/6
f 209/4/6 297/4/6 303/4/6
f 210/5/6 215/5/6 304/5/6
f 303/4/6 298/4/6 304/4/6
f 298/4/6 210/4/6 304/4/6
f 215/4/6 299/4/6 305/4/6
f 304/5/6 215/5/6 305/5/6
f 300/4/6 301/4/6 305/4/6
f 299/4/6 300/4/6 305/4/6
f 301/4/6 302/4/6 305/4/6
f 302/4/6 220/4/6 306/4/6
f 305/4/6 302/4/6 306/4/6
f 220/5/6 208/5/6 306/5/6
f 304/5/6 305/5/6 307/5/6
f 303/5/6 304/5/6 307/5/6
f 305/5/6 306/5/6 307/5/6
f 207/5/6 303/5/6 307/5/6
f 306/5/6 208/5/6 308/5/6
f 307/5/6 306/5/6 308/5/6
