# MagicaVoxel @ Ephtracy

# group
o 

# material
mtllib CustomerModels4.mtl
usemtl palette

# normals
vn -1 0 0
vn 1 0 0
vn 0 0 1
vn 0 0 -1
vn 0 -1 0
vn 0 1 0

# texcoords
vt 0.876953 0.5
vt 0.908203 0.5
vt 0.912109 0.5
vt 0.939453 0.5
vt 0.943359 0.5
vt 0.994141 0.5

# verts
v -0.7 1 0.2
v -0.7 1 0
v -0.7 1.2 0.2
v -0.7 1.2 0.1
v -0.7 1.2 0
v -0.7 1.2 -0.1
v -0.7 1.9 0.1
v -0.7 1.9 -0.1
v -0.6 1.1 0
v -0.6 1.1 -0.1
v -0.6 1.2 0
v -0.6 1.2 -0.1
v -0.6 1.9 0.1
v -0.6 1.9 -0.1
v -0.6 2 0.1
v -0.6 2 -0.1
v -0.4 0 0.3
v -0.4 0 -0.2
v -0.4 0.1 0.3
v -0.4 0.1 0
v -0.4 0.1 -0.2
v -0.4 0.4 0.1
v -0.4 0.4 0
v -0.4 0.5 -0.1
v -0.4 0.5 -0.2
v -0.4 1.1 0.1
v -0.4 1.1 -0.1
v -0.4 1.2 0.1
v -0.4 1.2 -0.1
v -0.4 1.7 0.1
v -0.4 1.7 -0.1
v -0.4 2 0.1
v -0.4 2 -0.1
v -0.4 2.1 0.1
v -0.4 2.1 -0.1
v -0.3 1 -0.1
v -0.3 1 -0.2
v -0.3 1.1 0.2
v -0.3 1.1 0.1
v -0.3 1.1 -0.1
v -0.3 1.1 -0.2
v -0.3 1.2 0.2
v -0.3 1.2 0.1
v -0.3 1.2 -0.1
v -0.3 1.2 -0.2
v -0.3 1.9 0.2
v -0.3 1.9 0.1
v -0.3 1.9 -0.1
v -0.3 1.9 -0.2
v -0.3 2.3 0.3
v -0.3 2.3 -0.2
v -0.3 2.5 0.3
v -0.3 2.5 0.2
v -0.3 2.7 0.3
v -0.3 2.7 0.2
v -0.3 2.8 0.3
v -0.3 2.8 0.2
v -0.3 2.8 -0.1
v -0.3 2.8 -0.2
v -0.3 2.9 0.2
v -0.3 2.9 -0.1
v -0.2 1 0.2
v -0.2 1 0.1
v -0.2 1.1 0.2
v -0.2 1.1 0.1
v -0.2 1.9 0.2
v -0.2 1.9 0.1
v -0.2 1.9 -0.1
v -0.2 1.9 -0.2
v -0.2 2 0.2
v -0.2 2 0.1
v -0.2 2 -0.1
v -0.2 2 -0.2
v -0.2 2.2 0.3
v -0.2 2.2 -0.2
v -0.2 2.3 0.3
v -0.2 2.3 -0.2
v -0.2 2.3 -0.3
v -0.2 2.8 0.3
v -0.2 2.8 0.2
v -0.2 2.8 -0.1
v -0.2 2.8 -0.2
v -0.2 2.8 -0.3
v -0.2 2.9 0.3
v -0.2 2.9 0.2
v -0.2 2.9 -0.1
v -0.2 2.9 -0.2
v -0.2 3 0.2
v -0.2 3 -0.1
v -0.1 2.1 0.1
v -0.1 2.1 -0.1
v -0.1 2.2 0.1
v -0.1 2.2 -0.1
v 0.2 0 0.3
v 0.2 0 -0.2
v 0.2 0.1 0.3
v 0.2 0.1 0
v 0.2 0.1 -0.2
v 0.2 0.4 0.1
v 0.2 0.4 0
v 0.2 0.5 -0.1
v 0.2 0.5 -0.2
v 0.2 0.8 0.1
v 0.2 0.8 -0.1
v 0.5 1 0.2
v 0.5 1 0
v 0.5 1.1 0
v 0.5 1.1 -0.1
v 0.5 1.2 0.2
v 0.5 1.2 0.1
v 0.5 1.7 0.1
v 0.5 1.7 -0.1
v -0.5 1 0.2
v -0.5 1 0
v -0.5 1.1 0
v -0.5 1.1 -0.1
v -0.5 1.2 0.2
v -0.5 1.2 0.1
v -0.5 1.7 0.1
v -0.5 1.7 -0.1
v -0.2 0 0.3
v -0.2 0 -0.2
v -0.2 0.1 0.3
v -0.2 0.1 0
v -0.2 0.1 -0.2
v -0.2 0.4 0.1
v -0.2 0.4 0
v -0.2 0.5 -0.1
v -0.2 0.5 -0.2
v -0.2 0.8 0.1
v -0.2 0.8 -0.1
v 0.1 2.1 0.1
v 0.1 2.1 -0.1
v 0.1 2.2 0.1
v 0.1 2.2 -0.1
v 0.2 1 0.2
v 0.2 1 0.1
v 0.2 1.1 0.2
v 0.2 1.1 0.1
v 0.2 1.9 0.2
v 0.2 1.9 0.1
v 0.2 1.9 -0.1
v 0.2 1.9 -0.2
v 0.2 2 0.2
v 0.2 2 0.1
v 0.2 2 -0.1
v 0.2 2 -0.2
v 0.2 2.2 0.3
v 0.2 2.2 -0.2
v 0.2 2.3 0.3
v 0.2 2.3 -0.2
v 0.2 2.3 -0.3
v 0.2 2.8 0.3
v 0.2 2.8 0.2
v 0.2 2.8 -0.1
v 0.2 2.8 -0.2
v 0.2 2.8 -0.3
v 0.2 2.9 0.3
v 0.2 2.9 0.2
v 0.2 2.9 -0.1
v 0.2 2.9 -0.2
v 0.2 3 0.2
v 0.2 3 -0.1
v 0.3 1 -0.1
v 0.3 1 -0.2
v 0.3 1.1 0.2
v 0.3 1.1 0.1
v 0.3 1.1 -0.1
v 0.3 1.1 -0.2
v 0.3 1.2 0.2
v 0.3 1.2 0.1
v 0.3 1.2 -0.1
v 0.3 1.2 -0.2
v 0.3 1.9 0.2
v 0.3 1.9 0.1
v 0.3 1.9 -0.1
v 0.3 1.9 -0.2
v 0.3 2.3 0.3
v 0.3 2.3 -0.2
v 0.3 2.5 0.3
v 0.3 2.5 0.2
v 0.3 2.7 0.3
v 0.3 2.7 0.2
v 0.3 2.8 0.3
v 0.3 2.8 0.2
v 0.3 2.8 -0.1
v 0.3 2.8 -0.2
v 0.3 2.9 0.2
v 0.3 2.9 -0.1
v 0.4 0 0.3
v 0.4 0 -0.2
v 0.4 0.1 0.3
v 0.4 0.1 0
v 0.4 0.1 -0.2
v 0.4 0.4 0.1
v 0.4 0.4 0
v 0.4 0.5 -0.1
v 0.4 0.5 -0.2
v 0.4 1.1 0.1
v 0.4 1.1 -0.1
v 0.4 1.2 0.1
v 0.4 1.2 -0.1
v 0.4 1.7 0.1
v 0.4 1.7 -0.1
v 0.4 2 0.1
v 0.4 2 -0.1
v 0.4 2.1 0.1
v 0.4 2.1 -0.1
v 0.6 1.1 0
v 0.6 1.1 -0.1
v 0.6 1.2 0
v 0.6 1.2 -0.1
v 0.6 1.9 0.1
v 0.6 1.9 -0.1
v 0.6 2 0.1
v 0.6 2 -0.1
v 0.7 1 0.2
v 0.7 1 0
v 0.7 1.2 0.2
v 0.7 1.2 0.1
v 0.7 1.2 0
v 0.7 1.2 -0.1
v 0.7 1.9 0.1
v 0.7 1.9 -0.1
v -0.4 0 0.3
v -0.4 0.1 0.3
v -0.3 2.3 0.3
v -0.3 2.5 0.3
v -0.3 2.7 0.3
v -0.3 2.8 0.3
v -0.2 0 0.3
v -0.2 0.1 0.3
v -0.2 2.2 0.3
v -0.2 2.3 0.3
v -0.2 2.5 0.3
v -0.2 2.6 0.3
v -0.2 2.8 0.3
v -0.2 2.9 0.3
v -0.1 2.3 0.3
v -0.1 2.4 0.3
v -0.1 2.5 0.3
v -0.1 2.6 0.3
v -0.1 2.7 0.3
v 0.1 2.3 0.3
v 0.1 2.4 0.3
v 0.1 2.5 0.3
v 0.1 2.6 0.3
v 0.1 2.7 0.3
v 0.2 0 0.3
v 0.2 0.1 0.3
v 0.2 2.2 0.3
v 0.2 2.3 0.3
v 0.2 2.5 0.3
v 0.2 2.6 0.3
v 0.2 2.8 0.3
v 0.2 2.9 0.3
v 0.3 2.3 0.3
v 0.3 2.5 0.3
v 0.3 2.7 0.3
v 0.3 2.8 0.3
v 0.4 0 0.3
v 0.4 0.1 0.3
v -0.7 1 0.2
v -0.7 1.2 0.2
v -0.5 1 0.2
v -0.5 1.2 0.2
v -0.3 1.1 0.2
v -0.3 1.2 0.2
v -0.3 1.9 0.2
v -0.3 2.8 0.2
v -0.3 2.9 0.2
v -0.2 1 0.2
v -0.2 1.1 0.2
v -0.2 1.9 0.2
v -0.2 2 0.2
v -0.2 2.8 0.2
v -0.2 2.9 0.2
v -0.2 3 0.2
v -0.1 1.1 0.2
v -0.1 1.2 0.2
v 0.1 1.1 0.2
v 0.1 1.2 0.2
v 0.2 1 0.2
v 0.2 1.1 0.2
v 0.2 1.9 0.2
v 0.2 2 0.2
v 0.2 2.8 0.2
v 0.2 2.9 0.2
v 0.2 3 0.2
v 0.3 1.1 0.2
v 0.3 1.2 0.2
v 0.3 1.9 0.2
v 0.3 2.8 0.2
v 0.3 2.9 0.2
v 0.5 1 0.2
v 0.5 1.2 0.2
v 0.7 1 0.2
v 0.7 1.2 0.2
v -0.7 1.2 0.1
v -0.7 1.9 0.1
v -0.6 1.9 0.1
v -0.6 2 0.1
v -0.5 1.2 0.1
v -0.5 1.7 0.1
v -0.4 0.4 0.1
v -0.4 1.1 0.1
v -0.4 1.2 0.1
v -0.4 1.7 0.1
v -0.4 2 0.1
v -0.4 2.1 0.1
v -0.3 1.1 0.1
v -0.3 1.2 0.1
v -0.3 1.9 0.1
v -0.3 2 0.1
v -0.3 2.1 0.1
v -0.2 0.4 0.1
v -0.2 0.8 0.1
v -0.2 1 0.1
v -0.2 1.1 0.1
v -0.2 1.9 0.1
v -0.2 2 0.1
v -0.1 2 0.1
v -0.1 2.1 0.1
v -0.1 2.2 0.1
v 0.1 2 0.1
v 0.1 2.1 0.1
v 0.1 2.2 0.1
v 0.2 0.4 0.1
v 0.2 0.8 0.1
v 0.2 1 0.1
v 0.2 1.1 0.1
v 0.2 1.9 0.1
v 0.2 2 0.1
v 0.3 1.1 0.1
v 0.3 1.2 0.1
v 0.3 1.9 0.1
v 0.3 2 0.1
v 0.3 2.1 0.1
v 0.4 0.4 0.1
v 0.4 1.1 0.1
v 0.4 1.2 0.1
v 0.4 1.7 0.1
v 0.4 2 0.1
v 0.4 2.1 0.1
v 0.5 1.2 0.1
v 0.5 1.7 0.1
v 0.6 1.9 0.1
v 0.6 2 0.1
v 0.7 1.2 0.1
v 0.7 1.9 0.1
v -0.4 0.1 0
v -0.4 0.4 0
v -0.2 0.1 0
v -0.2 0.4 0
v 0.2 0.1 0
v 0.2 0.4 0
v 0.4 0.1 0
v 0.4 0.4 0
v -0.7 1 0
v -0.7 1.2 0
v -0.6 1.1 0
v -0.6 1.2 0
v -0.5 1 0
v -0.5 1.1 0
v 0.5 1 0
v 0.5 1.1 0
v 0.6 1.1 0
v 0.6 1.2 0
v 0.7 1 0
v 0.7 1.2 0
v -0.7 1.2 -0.1
v -0.7 1.9 -0.1
v -0.6 1.1 -0.1
v -0.6 1.2 -0.1
v -0.6 1.9 -0.1
v -0.6 2 -0.1
v -0.5 1.1 -0.1
v -0.5 1.7 -0.1
v -0.4 0.5 -0.1
v -0.4 1.1 -0.1
v -0.4 1.2 -0.1
v -0.4 1.7 -0.1
v -0.4 2 -0.1
v -0.4 2.1 -0.1
v -0.3 1 -0.1
v -0.3 1.1 -0.1
v -0.3 1.2 -0.1
v -0.3 1.9 -0.1
v -0.3 2 -0.1
v -0.3 2.1 -0.1
v -0.3 2.8 -0.1
v -0.3 2.9 -0.1
v -0.2 0.5 -0.1
v -0.2 0.8 -0.1
v -0.2 1.9 -0.1
v -0.2 2 -0.1
v -0.2 2.8 -0.1
v -0.2 2.9 -0.1
v -0.2 3 -0.1
v -0.1 2 -0.1
v -0.1 2.1 -0.1
v -0.1 2.2 -0.1
v 0.1 2 -0.1
v 0.1 2.1 -0.1
v 0.1 2.2 -0.1
v 0.2 0.5 -0.1
v 0.2 0.8 -0.1
v 0.2 1.9 -0.1
v 0.2 2 -0.1
v 0.2 2.8 -0.1
v 0.2 2.9 -0.1
v 0.2 3 -0.1
v 0.3 1 -0.1
v 0.3 1.1 -0.1
v 0.3 1.2 -0.1
v 0.3 1.9 -0.1
v 0.3 2 -0.1
v 0.3 2.1 -0.1
v 0.3 2.8 -0.1
v 0.3 2.9 -0.1
v 0.4 0.5 -0.1
v 0.4 1.1 -0.1
v 0.4 1.2 -0.1
v 0.4 1.7 -0.1
v 0.4 2 -0.1
v 0.4 2.1 -0.1
v 0.5 1.1 -0.1
v 0.5 1.7 -0.1
v 0.6 1.1 -0.1
v 0.6 1.2 -0.1
v 0.6 1.9 -0.1
v 0.6 2 -0.1
v 0.7 1.2 -0.1
v 0.7 1.9 -0.1
v -0.4 0 -0.2
v -0.4 0.1 -0.2
v -0.4 0.5 -0.2
v -0.3 1 -0.2
v -0.3 1.1 -0.2
v -0.3 1.2 -0.2
v -0.3 1.9 -0.2
v -0.3 2.3 -0.2
v -0.3 2.8 -0.2
v -0.2 0 -0.2
v -0.2 0.1 -0.2
v -0.2 0.5 -0.2
v -0.2 1.9 -0.2
v -0.2 2 -0.2
v -0.2 2.2 -0.2
v -0.2 2.3 -0.2
v -0.2 2.8 -0.2
v -0.2 2.9 -0.2
v 0.2 0 -0.2
v 0.2 0.1 -0.2
v 0.2 0.5 -0.2
v 0.2 1.9 -0.2
v 0.2 2 -0.2
v 0.2 2.2 -0.2
v 0.2 2.3 -0.2
v 0.2 2.8 -0.2
v 0.2 2.9 -0.2
v 0.3 1 -0.2
v 0.3 1.1 -0.2
v 0.3 1.2 -0.2
v 0.3 1.9 -0.2
v 0.3 2.3 -0.2
v 0.3 2.8 -0.2
v 0.4 0 -0.2
v 0.4 0.1 -0.2
v 0.4 0.5 -0.2
v -0.2 2.3 -0.3
v -0.2 2.8 -0.3
v 0.2 2.3 -0.3
v 0.2 2.8 -0.3
v -0.4 0 0.3
v -0.2 0 0.3
v 0.2 0 0.3
v 0.4 0 0.3
v -0.4 0 -0.2
v -0.2 0 -0.2
v 0.2 0 -0.2
v 0.4 0 -0.2
v -0.4 0.4 0.1
v -0.2 0.4 0.1
v 0.2 0.4 0.1
v 0.4 0.4 0.1
v -0.4 0.4 0
v -0.2 0.4 0
v 0.2 0.4 0
v 0.4 0.4 0
v -0.2 0.8 0.1
v 0.2 0.8 0.1
v -0.2 0.8 -0.1
v 0.2 0.8 -0.1
v -0.7 1 0.2
v -0.5 1 0.2
v -0.2 1 0.2
v 0.2 1 0.2
v 0.5 1 0.2
v 0.7 1 0.2
v -0.2 1 0.1
v 0.2 1 0.1
v -0.7 1 0
v -0.5 1 0
v 0.5 1 0
v 0.7 1 0
v -0.3 1 -0.1
v 0.3 1 -0.1
v -0.3 1 -0.2
v 0.3 1 -0.2
v -0.3 1.1 0.2
v -0.2 1.1 0.2
v 0.2 1.1 0.2
v 0.3 1.1 0.2
v -0.3 1.1 0.1
v -0.2 1.1 0.1
v 0.2 1.1 0.1
v 0.3 1.1 0.1
v -0.6 1.1 0
v -0.5 1.1 0
v 0.5 1.1 0
v 0.6 1.1 0
v -0.6 1.1 -0.1
v -0.5 1.1 -0.1
v 0.5 1.1 -0.1
v 0.6 1.1 -0.1
v -0.7 1.2 0
v -0.6 1.2 0
v 0.6 1.2 0
v 0.7 1.2 0
v -0.7 1.2 -0.1
v -0.6 1.2 -0.1
v 0.6 1.2 -0.1
v 0.7 1.2 -0.1
v -0.5 1.7 0.1
v -0.4 1.7 0.1
v 0.4 1.7 0.1
v 0.5 1.7 0.1
v -0.5 1.7 -0.1
v -0.4 1.7 -0.1
v 0.4 1.7 -0.1
v 0.5 1.7 -0.1
v -0.2 2.2 0.3
v 0.2 2.2 0.3
v -0.1 2.2 0.1
v 0.1 2.2 0.1
v -0.1 2.2 -0.1
v 0.1 2.2 -0.1
v -0.2 2.2 -0.2
v 0.2 2.2 -0.2
v -0.3 2.3 0.3
v -0.2 2.3 0.3
v 0.2 2.3 0.3
v 0.3 2.3 0.3
v -0.3 2.3 -0.2
v -0.2 2.3 -0.2
v 0.2 2.3 -0.2
v 0.3 2.3 -0.2
v -0.2 2.3 -0.3
v 0.2 2.3 -0.3
v -0.4 0.1 0.3
v -0.2 0.1 0.3
v 0.2 0.1 0.3
v 0.4 0.1 0.3
v -0.4 0.1 0
v -0.2 0.1 0
v 0.2 0.1 0
v 0.4 0.1 0
v -0.4 0.5 -0.1
v -0.2 0.5 -0.1
v 0.2 0.5 -0.1
v 0.4 0.5 -0.1
v -0.4 0.5 -0.2
v -0.2 0.5 -0.2
v 0.2 0.5 -0.2
v 0.4 0.5 -0.2
v -0.7 1.2 0.2
v -0.5 1.2 0.2
v 0.5 1.2 0.2
v 0.7 1.2 0.2
v -0.7 1.2 0.1
v -0.5 1.2 0.1
v 0.5 1.2 0.1
v 0.7 1.2 0.1
v -0.3 1.9 0.2
v -0.2 1.9 0.2
v 0.2 1.9 0.2
v 0.3 1.9 0.2
v -0.7 1.9 0.1
v -0.6 1.9 0.1
v -0.3 1.9 0.1
v -0.2 1.9 0.1
v 0.2 1.9 0.1
v 0.3 1.9 0.1
v 0.6 1.9 0.1
v 0.7 1.9 0.1
v -0.7 1.9 -0.1
v -0.6 1.9 -0.1
v -0.3 1.9 -0.1
v -0.2 1.9 -0.1
v 0.2 1.9 -0.1
v 0.3 1.9 -0.1
v 0.6 1.9 -0.1
v 0.7 1.9 -0.1
v -0.3 1.9 -0.2
v -0.2 1.9 -0.2
v 0.2 1.9 -0.2
v 0.3 1.9 -0.2
v -0.2 2 0.2
v 0.2 2 0.2
v -0.6 2 0.1
v -0.4 2 0.1
v -0.2 2 0.1
v -0.1 2 0.1
v 0.1 2 0.1
v 0.2 2 0.1
v 0.4 2 0.1
v 0.6 2 0.1
v -0.6 2 -0.1
v -0.4 2 -0.1
v -0.2 2 -0.1
v -0.1 2 -0.1
v 0.1 2 -0.1
v 0.2 2 -0.1
v 0.4 2 -0.1
v 0.6 2 -0.1
v -0.2 2 -0.2
v 0.2 2 -0.2
v -0.4 2.1 0.1
v -0.3 2.1 0.1
v -0.1 2.1 0.1
v 0.1 2.1 0.1
v 0.3 2.1 0.1
v 0.4 2.1 0.1
v -0.4 2.1 -0.1
v -0.3 2.1 -0.1
v -0.1 2.1 -0.1
v 0.1 2.1 -0.1
v 0.3 2.1 -0.1
v 0.4 2.1 -0.1
v -0.3 2.8 0.3
v -0.2 2.8 0.3
v 0.2 2.8 0.3
v 0.3 2.8 0.3
v -0.3 2.8 0.2
v -0.2 2.8 0.2
v 0.2 2.8 0.2
v 0.3 2.8 0.2
v -0.3 2.8 -0.1
v -0.2 2.8 -0.1
v 0.2 2.8 -0.1
v 0.3 2.8 -0.1
v -0.3 2.8 -0.2
v -0.2 2.8 -0.2
v 0.2 2.8 -0.2
v 0.3 2.8 -0.2
v -0.2 2.8 -0.3
v 0.2 2.8 -0.3
v -0.2 2.9 0.3
v 0.2 2.9 0.3
v -0.3 2.9 0.2
v -0.2 2.9 0.2
v 0.2 2.9 0.2
v 0.3 2.9 0.2
v -0.3 2.9 -0.1
v -0.2 2.9 -0.1
v 0.2 2.9 -0.1
v 0.3 2.9 -0.1
v -0.2 2.9 -0.2
v 0.2 2.9 -0.2
v -0.2 3 0.2
v 0.2 3 0.2
v -0.2 3 -0.1
v 0.2 3 -0.1

# faces
f 3/2/1 2/2/1 1/2/1
f 4/2/1 2/2/1 3/2/1
f 5/2/1 2/2/1 4/2/1
f 7/2/1 6/2/1 5/2/1
f 7/2/1 5/2/1 4/2/1
f 8/2/1 6/2/1 7/2/1
f 11/2/1 10/2/1 9/2/1
f 12/2/1 10/2/1 11/2/1
f 15/2/1 14/2/1 13/2/1
f 16/2/1 14/2/1 15/2/1
f 19/6/1 18/6/1 17/6/1
f 20/6/1 18/6/1 19/6/1
f 21/6/1 18/6/1 20/6/1
f 23/1/1 21/1/1 20/1/1
f 24/1/1 21/1/1 23/1/1
f 24/1/1 23/1/1 22/1/1
f 25/1/1 21/1/1 24/1/1
f 26/1/1 24/1/1 22/1/1
f 27/1/1 24/1/1 26/1/1
f 28/3/1 27/3/1 26/3/1
f 29/3/1 27/3/1 28/3/1
f 30/4/1 29/4/1 28/4/1
f 31/4/1 29/4/1 30/4/1
f 34/2/1 33/2/1 32/2/1
f 35/2/1 33/2/1 34/2/1
f 40/1/1 37/1/1 36/1/1
f 41/1/1 37/1/1 40/1/1
f 42/3/1 39/3/1 38/3/1
f 43/3/1 39/3/1 42/3/1
f 44/3/1 41/3/1 40/3/1
f 45/3/1 41/3/1 44/3/1
f 46/4/1 43/4/1 42/4/1
f 47/4/1 43/4/1 46/4/1
f 48/4/1 45/4/1 44/4/1
f 49/4/1 45/4/1 48/4/1
f 52/2/1 51/2/1 50/2/1
f 53/2/1 51/2/1 52/2/1
f 54/4/1 53/4/1 52/4/1
f 55/2/1 51/2/1 53/2/1
f 55/4/1 53/4/1 54/4/1
f 56/2/1 55/2/1 54/2/1
f 57/2/1 51/2/1 55/2/1
f 57/2/1 55/2/1 56/2/1
f 58/2/1 51/2/1 57/2/1
f 59/2/1 51/2/1 58/2/1
f 60/2/1 58/2/1 57/2/1
f 61/2/1 58/2/1 60/2/1
f 64/1/1 63/1/1 62/1/1
f 65/1/1 63/1/1 64/1/1
f 70/4/1 67/4/1 66/4/1
f 71/4/1 67/4/1 70/4/1
f 72/4/1 69/4/1 68/4/1
f 73/4/1 69/4/1 72/4/1
f 76/2/1 75/2/1 74/2/1
f 77/2/1 75/2/1 76/2/1
f 82/2/1 78/2/1 77/2/1
f 83/2/1 78/2/1 82/2/1
f 84/2/1 80/2/1 79/2/1
f 85/2/1 80/2/1 84/2/1
f 86/2/1 82/2/1 81/2/1
f 87/2/1 82/2/1 86/2/1
f 88/2/1 86/2/1 85/2/1
f 89/2/1 86/2/1 88/2/1
f 92/2/1 91/2/1 90/2/1
f 93/2/1 91/2/1 92/2/1
f 96/6/1 95/6/1 94/6/1
f 97/6/1 95/6/1 96/6/1
f 98/6/1 95/6/1 97/6/1
f 100/1/1 98/1/1 97/1/1
f 101/1/1 98/1/1 100/1/1
f 101/1/1 100/1/1 99/1/1
f 102/1/1 98/1/1 101/1/1
f 103/1/1 101/1/1 99/1/1
f 104/1/1 101/1/1 103/1/1
f 107/2/1 106/2/1 105/2/1
f 109/2/1 107/2/1 105/2/1
f 109/2/1 108/2/1 107/2/1
f 110/2/1 108/2/1 109/2/1
f 111/2/1 108/2/1 110/2/1
f 112/2/1 108/2/1 111/2/1
f 113/2/2 114/2/2 115/2/2
f 113/2/2 115/2/2 117/2/2
f 115/2/2 116/2/2 117/2/2
f 117/2/2 116/2/2 118/2/2
f 118/2/2 116/2/2 119/2/2
f 119/2/2 116/2/2 120/2/2
f 121/6/2 122/6/2 123/6/2
f 123/6/2 122/6/2 124/6/2
f 124/6/2 122/6/2 125/6/2
f 124/1/2 125/1/2 127/1/2
f 127/1/2 125/1/2 128/1/2
f 126/1/2 127/1/2 128/1/2
f 128/1/2 125/1/2 129/1/2
f 126/1/2 128/1/2 130/1/2
f 130/1/2 128/1/2 131/1/2
f 132/2/2 133/2/2 134/2/2
f 134/2/2 133/2/2 135/2/2
f 136/1/2 137/1/2 138/1/2
f 138/1/2 137/1/2 139/1/2
f 140/4/2 141/4/2 144/4/2
f 144/4/2 141/4/2 145/4/2
f 142/4/2 143/4/2 146/4/2
f 146/4/2 143/4/2 147/4/2
f 148/2/2 149/2/2 150/2/2
f 150/2/2 149/2/2 151/2/2
f 151/2/2 152/2/2 156/2/2
f 156/2/2 152/2/2 157/2/2
f 153/2/2 154/2/2 158/2/2
f 158/2/2 154/2/2 159/2/2
f 155/2/2 156/2/2 160/2/2
f 160/2/2 156/2/2 161/2/2
f 159/2/2 160/2/2 162/2/2
f 162/2/2 160/2/2 163/2/2
f 164/1/2 165/1/2 168/1/2
f 168/1/2 165/1/2 169/1/2
f 166/3/2 167/3/2 170/3/2
f 170/3/2 167/3/2 171/3/2
f 168/3/2 169/3/2 172/3/2
f 172/3/2 169/3/2 173/3/2
f 170/4/2 171/4/2 174/4/2
f 174/4/2 171/4/2 175/4/2
f 172/4/2 173/4/2 176/4/2
f 176/4/2 173/4/2 177/4/2
f 178/2/2 179/2/2 180/2/2
f 180/2/2 179/2/2 181/2/2
f 180/4/2 181/4/2 182/4/2
f 181/2/2 179/2/2 183/2/2
f 182/4/2 181/4/2 183/4/2
f 182/2/2 183/2/2 184/2/2
f 183/2/2 179/2/2 185/2/2
f 184/2/2 183/2/2 185/2/2
f 185/2/2 179/2/2 186/2/2
f 186/2/2 179/2/2 187/2/2
f 185/2/2 186/2/2 188/2/2
f 188/2/2 186/2/2 189/2/2
f 190/6/2 191/6/2 192/6/2
f 192/6/2 191/6/2 193/6/2
f 193/6/2 191/6/2 194/6/2
f 193/1/2 194/1/2 196/1/2
f 196/1/2 194/1/2 197/1/2
f 195/1/2 196/1/2 197/1/2
f 197/1/2 194/1/2 198/1/2
f 195/1/2 197/1/2 199/1/2
f 199/1/2 197/1/2 200/1/2
f 199/3/2 200/3/2 201/3/2
f 201/3/2 200/3/2 202/3/2
f 201/4/2 202/4/2 203/4/2
f 203/4/2 202/4/2 204/4/2
f 205/2/2 206/2/2 207/2/2
f 207/2/2 206/2/2 208/2/2
f 209/2/2 210/2/2 211/2/2
f 211/2/2 210/2/2 212/2/2
f 213/2/2 214/2/2 215/2/2
f 215/2/2 214/2/2 216/2/2
f 217/2/2 218/2/2 219/2/2
f 219/2/2 218/2/2 220/2/2
f 220/2/2 218/2/2 221/2/2
f 221/2/2 222/2/2 223/2/2
f 220/2/2 221/2/2 223/2/2
f 223/2/2 222/2/2 224/2/2
f 231/6/3 226/6/3 225/6/3
f 232/6/3 226/6/3 231/6/3
f 234/2/3 228/2/3 227/2/3
f 235/4/3 229/4/3 228/4/3
f 235/2/3 228/2/3 234/2/3
f 236/4/3 229/4/3 235/4/3
f 237/2/3 230/2/3 229/2/3
f 239/2/3 234/2/3 233/2/3
f 239/2/3 235/2/3 234/2/3
f 240/2/3 235/2/3 239/2/3
f 241/5/3 236/5/3 235/5/3
f 241/2/3 235/2/3 240/2/3
f 242/4/3 229/4/3 236/4/3
f 242/5/3 236/5/3 241/5/3
f 243/2/3 238/2/3 237/2/3
f 243/4/3 229/4/3 242/4/3
f 243/2/3 237/2/3 229/2/3
f 244/2/3 239/2/3 233/2/3
f 244/3/3 240/3/3 239/3/3
f 245/2/3 241/2/3 240/2/3
f 245/3/3 240/3/3 244/3/3
f 245/2/3 242/2/3 241/2/3
f 245/2/3 243/2/3 242/2/3
f 246/2/3 243/2/3 245/2/3
f 247/2/3 243/2/3 246/2/3
f 248/2/3 238/2/3 243/2/3
f 248/2/3 243/2/3 247/2/3
f 251/2/3 244/2/3 233/2/3
f 251/2/3 245/2/3 244/2/3
f 251/2/3 246/2/3 245/2/3
f 252/2/3 246/2/3 251/2/3
f 253/5/3 247/5/3 246/5/3
f 253/2/3 246/2/3 252/2/3
f 254/4/3 248/4/3 247/4/3
f 254/5/3 247/5/3 253/5/3
f 255/2/3 238/2/3 248/2/3
f 256/2/3 238/2/3 255/2/3
f 257/2/3 253/2/3 252/2/3
f 258/4/3 254/4/3 253/4/3
f 258/2/3 253/2/3 257/2/3
f 259/4/3 248/4/3 254/4/3
f 259/4/3 254/4/3 258/4/3
f 259/2/3 255/2/3 248/2/3
f 260/2/3 255/2/3 259/2/3
f 261/6/3 250/6/3 249/6/3
f 262/6/3 250/6/3 261/6/3
f 265/2/3 264/2/3 263/2/3
f 266/2/3 264/2/3 265/2/3
f 273/3/3 268/3/3 267/3/3
f 274/4/3 269/4/3 268/4/3
f 276/2/3 271/2/3 270/2/3
f 277/2/3 271/2/3 276/2/3
f 279/1/3 273/1/3 272/1/3
f 279/3/3 268/3/3 273/3/3
f 280/4/3 275/4/3 274/4/3
f 280/3/3 268/3/3 279/3/3
f 280/4/3 274/4/3 268/4/3
f 281/1/3 279/1/3 272/1/3
f 281/6/3 280/6/3 279/6/3
f 282/4/3 275/4/3 280/4/3
f 282/6/3 280/6/3 281/6/3
f 283/1/3 281/1/3 272/1/3
f 284/3/3 282/3/3 281/3/3
f 284/1/3 281/1/3 283/1/3
f 285/4/3 275/4/3 282/4/3
f 286/4/3 275/4/3 285/4/3
f 288/2/3 278/2/3 277/2/3
f 289/2/3 278/2/3 288/2/3
f 290/3/3 282/3/3 284/3/3
f 291/4/3 285/4/3 282/4/3
f 291/3/3 282/3/3 290/3/3
f 292/4/3 285/4/3 291/4/3
f 293/2/3 288/2/3 287/2/3
f 294/2/3 288/2/3 293/2/3
f 297/2/3 296/2/3 295/2/3
f 298/2/3 296/2/3 297/2/3
f 301/2/3 300/2/3 299/2/3
f 303/2/3 301/2/3 299/2/3
f 303/2/3 302/2/3 301/2/3
f 304/2/3 302/2/3 303/2/3
f 308/2/3 302/2/3 304/2/3
f 309/2/3 302/2/3 308/2/3
f 311/3/3 307/3/3 306/3/3
f 311/1/3 306/1/3 305/1/3
f 312/4/3 309/4/3 308/4/3
f 312/3/3 307/3/3 311/3/3
f 312/4/3 308/4/3 307/4/3
f 313/4/3 309/4/3 312/4/3
f 314/2/3 310/2/3 309/2/3
f 314/4/3 309/4/3 313/4/3
f 315/2/3 310/2/3 314/2/3
f 316/1/3 311/1/3 305/1/3
f 317/1/3 311/1/3 316/1/3
f 318/1/3 311/1/3 317/1/3
f 319/1/3 311/1/3 318/1/3
f 320/4/3 315/4/3 314/4/3
f 320/4/3 314/4/3 313/4/3
f 321/4/3 315/4/3 320/4/3
f 322/4/3 315/4/3 321/4/3
f 323/4/3 315/4/3 322/4/3
f 325/2/3 323/2/3 322/2/3
f 325/2/3 324/2/3 323/2/3
f 326/2/3 324/2/3 325/2/3
f 327/2/3 324/2/3 326/2/3
f 329/1/3 318/1/3 317/1/3
f 330/1/3 318/1/3 329/1/3
f 333/4/3 326/4/3 325/4/3
f 334/1/3 331/1/3 330/1/3
f 334/1/3 329/1/3 328/1/3
f 334/1/3 330/1/3 329/1/3
f 336/4/3 333/4/3 332/4/3
f 337/4/3 326/4/3 333/4/3
f 337/4/3 333/4/3 336/4/3
f 338/4/3 326/4/3 337/4/3
f 339/1/3 334/1/3 328/1/3
f 340/3/3 335/3/3 334/3/3
f 340/1/3 334/1/3 339/1/3
f 341/4/3 336/4/3 335/4/3
f 341/3/3 335/3/3 340/3/3
f 341/4/3 337/4/3 336/4/3
f 342/4/3 337/4/3 341/4/3
f 343/2/3 338/2/3 337/2/3
f 343/4/3 337/4/3 342/4/3
f 344/2/3 338/2/3 343/2/3
f 346/2/3 343/2/3 342/2/3
f 347/2/3 343/2/3 346/2/3
f 347/2/3 346/2/3 345/2/3
f 348/2/3 343/2/3 347/2/3
f 349/2/3 347/2/3 345/2/3
f 350/2/3 347/2/3 349/2/3
f 353/1/3 352/1/3 351/1/3
f 354/1/3 352/1/3 353/1/3
f 357/1/3 356/1/3 355/1/3
f 358/1/3 356/1/3 357/1/3
f 359/2/4 360/2/4 361/2/4
f 361/2/4 360/2/4 362/2/4
f 359/2/4 361/2/4 363/2/4
f 363/2/4 361/2/4 364/2/4
f 365/2/4 366/2/4 367/2/4
f 365/2/4 367/2/4 369/2/4
f 367/2/4 368/2/4 369/2/4
f 369/2/4 368/2/4 370/2/4
f 371/2/4 372/2/4 374/2/4
f 374/2/4 372/2/4 375/2/4
f 373/2/4 374/2/4 377/2/4
f 375/2/4 376/2/4 377/2/4
f 374/2/4 375/2/4 377/2/4
f 377/2/4 376/2/4 378/2/4
f 378/2/4 376/2/4 382/2/4
f 382/2/4 376/2/4 383/2/4
f 379/1/4 380/1/4 385/1/4
f 380/3/4 381/3/4 386/3/4
f 385/1/4 380/1/4 386/1/4
f 381/4/4 382/4/4 387/4/4
f 386/3/4 381/3/4 387/3/4
f 382/4/4 383/4/4 387/4/4
f 387/4/4 383/4/4 388/4/4
f 383/2/4 384/2/4 389/2/4
f 388/4/4 383/4/4 389/4/4
f 389/2/4 384/2/4 390/2/4
f 379/1/4 385/1/4 393/1/4
f 393/1/4 385/1/4 394/1/4
f 389/4/4 390/4/4 395/4/4
f 388/4/4 389/4/4 395/4/4
f 395/4/4 390/4/4 396/4/4
f 391/2/4 392/2/4 397/2/4
f 397/2/4 392/2/4 398/2/4
f 396/4/4 390/4/4 400/4/4
f 400/4/4 390/4/4 401/4/4
f 400/2/4 401/2/4 403/2/4
f 401/2/4 402/2/4 403/2/4
f 403/2/4 402/2/4 404/2/4
f 404/2/4 402/2/4 405/2/4
f 394/1/4 385/1/4 407/1/4
f 403/4/4 404/4/4 409/4/4
f 398/2/4 399/2/4 411/2/4
f 411/2/4 399/2/4 412/2/4
f 406/1/4 407/1/4 413/1/4
f 407/1/4 385/1/4 413/1/4
f 408/4/4 409/4/4 416/4/4
f 409/4/4 404/4/4 417/4/4
f 416/4/4 409/4/4 417/4/4
f 417/4/4 404/4/4 418/4/4
f 410/2/4 411/2/4 419/2/4
f 419/2/4 411/2/4 420/2/4
f 406/1/4 413/1/4 421/1/4
f 413/1/4 414/1/4 421/1/4
f 414/3/4 415/3/4 422/3/4
f 421/1/4 414/1/4 422/1/4
f 415/4/4 416/4/4 423/4/4
f 422/3/4 415/3/4 423/3/4
f 416/4/4 417/4/4 423/4/4
f 423/4/4 417/4/4 424/4/4
f 417/2/4 418/2/4 425/2/4
f 424/4/4 417/4/4 425/4/4
f 425/2/4 418/2/4 426/2/4
f 424/2/4 425/2/4 428/2/4
f 427/2/4 428/2/4 429/2/4
f 429/2/4 428/2/4 430/2/4
f 428/2/4 425/2/4 431/2/4
f 430/2/4 428/2/4 431/2/4
f 431/2/4 425/2/4 432/2/4
f 430/2/4 431/2/4 433/2/4
f 433/2/4 431/2/4 434/2/4
f 435/6/4 436/6/4 444/6/4
f 436/1/4 437/1/4 445/1/4
f 444/6/4 436/6/4 445/6/4
f 445/1/4 437/1/4 446/1/4
f 440/4/4 441/4/4 447/4/4
f 442/2/4 443/2/4 450/2/4
f 450/2/4 443/2/4 451/2/4
f 447/4/4 448/4/4 456/4/4
f 440/4/4 447/4/4 456/4/4
f 456/4/4 448/4/4 457/4/4
f 449/2/4 450/2/4 458/2/4
f 458/2/4 450/2/4 459/2/4
f 451/2/4 452/2/4 460/2/4
f 460/2/4 452/2/4 461/2/4
f 438/1/4 439/1/4 462/1/4
f 439/3/4 440/3/4 463/3/4
f 462/1/4 439/1/4 463/1/4
f 440/4/4 456/4/4 464/4/4
f 463/3/4 440/3/4 464/3/4
f 464/4/4 456/4/4 465/4/4
f 459/2/4 460/2/4 466/2/4
f 466/2/4 460/2/4 467/2/4
f 453/6/4 454/6/4 468/6/4
f 454/1/4 455/1/4 469/1/4
f 468/6/4 454/6/4 469/6/4
f 469/1/4 455/1/4 470/1/4
f 471/2/4 472/2/4 473/2/4
f 473/2/4 472/2/4 474/2/4
f 479/6/5 476/6/5 475/6/5
f 480/6/5 476/6/5 479/6/5
f 481/6/5 478/6/5 477/6/5
f 482/6/5 478/6/5 481/6/5
f 487/1/5 484/1/5 483/1/5
f 488/1/5 484/1/5 487/1/5
f 489/1/5 486/1/5 485/1/5
f 490/1/5 486/1/5 489/1/5
f 493/1/5 492/1/5 491/1/5
f 494/1/5 492/1/5 493/1/5
f 501/1/5 498/1/5 497/1/5
f 502/1/5 498/1/5 501/1/5
f 503/2/5 496/2/5 495/2/5
f 504/2/5 496/2/5 503/2/5
f 505/2/5 500/2/5 499/2/5
f 506/2/5 500/2/5 505/2/5
f 509/1/5 508/1/5 507/1/5
f 510/1/5 508/1/5 509/1/5
f 515/3/5 512/3/5 511/3/5
f 516/3/5 512/3/5 515/3/5
f 517/3/5 514/3/5 513/3/5
f 518/3/5 514/3/5 517/3/5
f 523/2/5 520/2/5 519/2/5
f 524/2/5 520/2/5 523/2/5
f 525/2/5 522/2/5 521/2/5
f 526/2/5 522/2/5 525/2/5
f 531/2/5 528/2/5 527/2/5
f 532/2/5 528/2/5 531/2/5
f 533/2/5 530/2/5 529/2/5
f 534/2/5 530/2/5 533/2/5
f 539/2/5 536/2/5 535/2/5
f 540/2/5 536/2/5 539/2/5
f 541/2/5 538/2/5 537/2/5
f 542/2/5 538/2/5 541/2/5
f 545/2/5 544/2/5 543/2/5
f 546/2/5 544/2/5 545/2/5
f 547/2/5 545/2/5 543/2/5
f 548/2/5 544/2/5 546/2/5
f 549/2/5 547/2/5 543/2/5
f 549/2/5 548/2/5 547/2/5
f 550/2/5 544/2/5 548/2/5
f 550/2/5 548/2/5 549/2/5
f 555/2/5 552/2/5 551/2/5
f 556/2/5 552/2/5 555/2/5
f 557/2/5 554/2/5 553/2/5
f 558/2/5 554/2/5 557/2/5
f 559/2/5 557/2/5 556/2/5
f 560/2/5 557/2/5 559/2/5
f 561/6/6 562/6/6 565/6/6
f 565/6/6 562/6/6 566/6/6
f 563/6/6 564/6/6 567/6/6
f 567/6/6 564/6/6 568/6/6
f 569/1/6 570/1/6 573/1/6
f 573/1/6 570/1/6 574/1/6
f 571/1/6 572/1/6 575/1/6
f 575/1/6 572/1/6 576/1/6
f 577/2/6 578/2/6 581/2/6
f 581/2/6 578/2/6 582/2/6
f 579/2/6 580/2/6 583/2/6
f 583/2/6 580/2/6 584/2/6
f 585/4/6 586/4/6 591/4/6
f 591/4/6 586/4/6 592/4/6
f 587/4/6 588/4/6 593/4/6
f 593/4/6 588/4/6 594/4/6
f 589/2/6 590/2/6 597/2/6
f 597/2/6 590/2/6 598/2/6
f 595/2/6 596/2/6 603/2/6
f 603/2/6 596/2/6 604/2/6
f 599/4/6 600/4/6 605/4/6
f 605/4/6 600/4/6 606/4/6
f 601/4/6 602/4/6 607/4/6
f 607/4/6 602/4/6 608/4/6
f 609/4/6 610/4/6 613/4/6
f 613/4/6 610/4/6 614/4/6
f 614/4/6 610/4/6 615/4/6
f 615/4/6 610/4/6 616/4/6
f 611/2/6 612/2/6 619/2/6
f 619/2/6 612/2/6 620/2/6
f 617/2/6 618/2/6 625/2/6
f 625/2/6 618/2/6 626/2/6
f 623/4/6 624/4/6 627/4/6
f 621/4/6 622/4/6 627/4/6
f 622/4/6 623/4/6 627/4/6
f 627/4/6 624/4/6 628/4/6
f 629/2/6 630/2/6 635/2/6
f 630/4/6 631/4/6 636/4/6
f 635/2/6 630/2/6 636/2/6
f 636/4/6 631/4/6 637/4/6
f 632/4/6 633/4/6 638/4/6
f 633/2/6 634/2/6 639/2/6
f 638/4/6 633/4/6 639/4/6
f 639/2/6 634/2/6 640/2/6
f 641/2/6 642/2/6 645/2/6
f 645/2/6 642/2/6 646/2/6
f 643/2/6 644/2/6 647/2/6
f 647/2/6 644/2/6 648/2/6
f 649/2/6 650/2/6 653/2/6
f 653/2/6 650/2/6 654/2/6
f 651/2/6 652/2/6 655/2/6
f 655/2/6 652/2/6 656/2/6
f 654/2/6 655/2/6 657/2/6
f 657/2/6 655/2/6 658/2/6
f 659/2/6 660/2/6 662/2/6
f 662/2/6 660/2/6 663/2/6
f 661/2/6 662/2/6 665/2/6
f 665/2/6 662/2/6 666/2/6
f 663/2/6 664/2/6 667/2/6
f 667/2/6 664/2/6 668/2/6
f 666/2/6 667/2/6 669/2/6
f 669/2/6 667/2/6 670/2/6
f 671/2/6 672/2/6 673/2/6
f 673/2/6 672/2/6 674/2/6
