# MagicaVoxel @ Ephtracy

# group
o 

# material
mtllib CustomerModels5.mtl
usemtl palette

# normals
vn -1 0 0
vn 1 0 0
vn 0 0 1
vn 0 0 -1
vn 0 -1 0
vn 0 1 0

# texcoords
vt 0.814453 0.5
vt 0.912109 0.5
vt 0.923828 0.5
vt 0.939453 0.5
vt 0.943359 0.5
vt 0.966797 0.5

# verts
v -0.7 1 0.2
v -0.7 1 0
v -0.7 1.2 0.2
v -0.7 1.2 0.1
v -0.7 1.2 0
v -0.7 1.2 -0.1
v -0.7 1.9 0.1
v -0.7 1.9 -0.1
v -0.6 1.1 0
v -0.6 1.1 -0.1
v -0.6 1.2 0
v -0.6 1.2 -0.1
v -0.6 1.9 0.1
v -0.6 1.9 -0.1
v -0.6 2 0.1
v -0.6 2 -0.1
v -0.4 0 0.3
v -0.4 0 -0.2
v -0.4 0.1 0.3
v -0.4 0.1 0
v -0.4 0.1 -0.2
v -0.4 0.4 0.1
v -0.4 0.4 0
v -0.4 0.5 -0.1
v -0.4 0.5 -0.2
v -0.4 1.1 0.1
v -0.4 1.1 -0.1
v -0.4 1.2 0.1
v -0.4 1.2 -0.1
v -0.4 1.7 0.1
v -0.4 1.7 -0.1
v -0.4 2 0.1
v -0.4 2 -0.1
v -0.4 2.1 0.1
v -0.4 2.1 -0.1
v -0.3 1 -0.1
v -0.3 1 -0.2
v -0.3 1.1 0.2
v -0.3 1.1 0.1
v -0.3 1.1 -0.1
v -0.3 1.1 -0.2
v -0.3 1.2 0.2
v -0.3 1.2 0.1
v -0.3 1.2 -0.1
v -0.3 1.2 -0.2
v -0.3 1.9 0.2
v -0.3 1.9 0.1
v -0.3 1.9 -0.1
v -0.3 1.9 -0.2
v -0.3 2.3 0.3
v -0.3 2.3 -0.2
v -0.3 2.5 0.3
v -0.3 2.5 0.2
v -0.3 2.7 0.3
v -0.3 2.7 0.2
v -0.3 2.8 0.3
v -0.3 2.8 0.2
v -0.3 2.8 -0.1
v -0.3 2.8 -0.2
v -0.3 2.9 0.2
v -0.3 2.9 -0.1
v -0.2 1 0.2
v -0.2 1 0.1
v -0.2 1.1 0.2
v -0.2 1.1 0.1
v -0.2 1.9 0.2
v -0.2 1.9 0.1
v -0.2 1.9 -0.1
v -0.2 1.9 -0.2
v -0.2 2 0.2
v -0.2 2 0.1
v -0.2 2 -0.1
v -0.2 2 -0.2
v -0.2 2.2 0.3
v -0.2 2.2 -0.2
v -0.2 2.3 0.3
v -0.2 2.3 -0.2
v -0.2 2.3 -0.3
v -0.2 2.8 0.3
v -0.2 2.8 0.2
v -0.2 2.8 -0.1
v -0.2 2.8 -0.2
v -0.2 2.8 -0.3
v -0.2 2.9 0.3
v -0.2 2.9 0.2
v -0.2 2.9 -0.1
v -0.2 2.9 -0.2
v -0.2 3 0.2
v -0.2 3 -0.1
v -0.1 2.1 0.1
v -0.1 2.1 -0.1
v -0.1 2.2 0.1
v -0.1 2.2 -0.1
v 0.2 0 0.3
v 0.2 0 -0.2
v 0.2 0.1 0.3
v 0.2 0.1 0
v 0.2 0.1 -0.2
v 0.2 0.4 0.1
v 0.2 0.4 0
v 0.2 0.5 -0.1
v 0.2 0.5 -0.2
v 0.2 0.8 0.1
v 0.2 0.8 -0.1
v 0.5 1 0.2
v 0.5 1 0
v 0.5 1.1 0
v 0.5 1.1 -0.1
v 0.5 1.2 0.2
v 0.5 1.2 0.1
v 0.5 1.7 0.1
v 0.5 1.7 -0.1
v -0.5 1 0.2
v -0.5 1 0
v -0.5 1.1 0
v -0.5 1.1 -0.1
v -0.5 1.2 0.2
v -0.5 1.2 0.1
v -0.5 1.7 0.1
v -0.5 1.7 -0.1
v -0.2 0 0.3
v -0.2 0 -0.2
v -0.2 0.1 0.3
v -0.2 0.1 0
v -0.2 0.1 -0.2
v -0.2 0.4 0.1
v -0.2 0.4 0
v -0.2 0.5 -0.1
v -0.2 0.5 -0.2
v -0.2 0.8 0.1
v -0.2 0.8 -0.1
v 0.1 2.1 0.1
v 0.1 2.1 -0.1
v 0.1 2.2 0.1
v 0.1 2.2 -0.1
v 0.2 1 0.2
v 0.2 1 0.1
v 0.2 1.1 0.2
v 0.2 1.1 0.1
v 0.2 1.9 0.2
v 0.2 1.9 0.1
v 0.2 1.9 -0.1
v 0.2 1.9 -0.2
v 0.2 2 0.2
v 0.2 2 0.1
v 0.2 2 -0.1
v 0.2 2 -0.2
v 0.2 2.2 0.3
v 0.2 2.2 -0.2
v 0.2 2.3 0.3
v 0.2 2.3 -0.2
v 0.2 2.3 -0.3
v 0.2 2.8 0.3
v 0.2 2.8 0.2
v 0.2 2.8 -0.1
v 0.2 2.8 -0.2
v 0.2 2.8 -0.3
v 0.2 2.9 0.3
v 0.2 2.9 0.2
v 0.2 2.9 -0.1
v 0.2 2.9 -0.2
v 0.2 3 0.2
v 0.2 3 -0.1
v 0.3 1 -0.1
v 0.3 1 -0.2
v 0.3 1.1 0.2
v 0.3 1.1 0.1
v 0.3 1.1 -0.1
v 0.3 1.1 -0.2
v 0.3 1.2 0.2
v 0.3 1.2 0.1
v 0.3 1.2 -0.1
v 0.3 1.2 -0.2
v 0.3 1.9 0.2
v 0.3 1.9 0.1
v 0.3 1.9 -0.1
v 0.3 1.9 -0.2
v 0.3 2.3 0.3
v 0.3 2.3 -0.2
v 0.3 2.5 0.3
v 0.3 2.5 0.2
v 0.3 2.7 0.3
v 0.3 2.7 0.2
v 0.3 2.8 0.3
v 0.3 2.8 0.2
v 0.3 2.8 -0.1
v 0.3 2.8 -0.2
v 0.3 2.9 0.2
v 0.3 2.9 -0.1
v 0.4 0 0.3
v 0.4 0 -0.2
v 0.4 0.1 0.3
v 0.4 0.1 0
v 0.4 0.1 -0.2
v 0.4 0.4 0.1
v 0.4 0.4 0
v 0.4 0.5 -0.1
v 0.4 0.5 -0.2
v 0.4 1.1 0.1
v 0.4 1.1 -0.1
v 0.4 1.2 0.1
v 0.4 1.2 -0.1
v 0.4 1.7 0.1
v 0.4 1.7 -0.1
v 0.4 2 0.1
v 0.4 2 -0.1
v 0.4 2.1 0.1
v 0.4 2.1 -0.1
v 0.6 1.1 0
v 0.6 1.1 -0.1
v 0.6 1.2 0
v 0.6 1.2 -0.1
v 0.6 1.9 0.1
v 0.6 1.9 -0.1
v 0.6 2 0.1
v 0.6 2 -0.1
v 0.7 1 0.2
v 0.7 1 0
v 0.7 1.2 0.2
v 0.7 1.2 0.1
v 0.7 1.2 0
v 0.7 1.2 -0.1
v 0.7 1.9 0.1
v 0.7 1.9 -0.1
v -0.4 0 0.3
v -0.4 0.1 0.3
v -0.3 2.3 0.3
v -0.3 2.5 0.3
v -0.3 2.7 0.3
v -0.3 2.8 0.3
v -0.2 0 0.3
v -0.2 0.1 0.3
v -0.2 2.2 0.3
v -0.2 2.3 0.3
v -0.2 2.5 0.3
v -0.2 2.6 0.3
v -0.2 2.8 0.3
v -0.2 2.9 0.3
v -0.1 2.3 0.3
v -0.1 2.4 0.3
v -0.1 2.5 0.3
v -0.1 2.6 0.3
v -0.1 2.7 0.3
v 0.1 2.3 0.3
v 0.1 2.4 0.3
v 0.1 2.5 0.3
v 0.1 2.6 0.3
v 0.1 2.7 0.3
v 0.2 0 0.3
v 0.2 0.1 0.3
v 0.2 2.2 0.3
v 0.2 2.3 0.3
v 0.2 2.5 0.3
v 0.2 2.6 0.3
v 0.2 2.8 0.3
v 0.2 2.9 0.3
v 0.3 2.3 0.3
v 0.3 2.5 0.3
v 0.3 2.7 0.3
v 0.3 2.8 0.3
v 0.4 0 0.3
v 0.4 0.1 0.3
v -0.7 1 0.2
v -0.7 1.2 0.2
v -0.5 1 0.2
v -0.5 1.2 0.2
v -0.3 1.1 0.2
v -0.3 1.2 0.2
v -0.3 1.9 0.2
v -0.3 2.8 0.2
v -0.3 2.9 0.2
v -0.2 1 0.2
v -0.2 1.1 0.2
v -0.2 1.9 0.2
v -0.2 2 0.2
v -0.2 2.8 0.2
v -0.2 2.9 0.2
v -0.2 3 0.2
v -0.1 1.1 0.2
v -0.1 1.2 0.2
v 0.1 1.1 0.2
v 0.1 1.2 0.2
v 0.2 1 0.2
v 0.2 1.1 0.2
v 0.2 1.9 0.2
v 0.2 2 0.2
v 0.2 2.8 0.2
v 0.2 2.9 0.2
v 0.2 3 0.2
v 0.3 1.1 0.2
v 0.3 1.2 0.2
v 0.3 1.9 0.2
v 0.3 2.8 0.2
v 0.3 2.9 0.2
v 0.5 1 0.2
v 0.5 1.2 0.2
v 0.7 1 0.2
v 0.7 1.2 0.2
v -0.7 1.2 0.1
v -0.7 1.9 0.1
v -0.6 1.9 0.1
v -0.6 2 0.1
v -0.5 1.2 0.1
v -0.5 1.7 0.1
v -0.4 0.4 0.1
v -0.4 1.1 0.1
v -0.4 1.2 0.1
v -0.4 1.7 0.1
v -0.4 2 0.1
v -0.4 2.1 0.1
v -0.3 1.1 0.1
v -0.3 1.2 0.1
v -0.3 1.9 0.1
v -0.3 2 0.1
v -0.3 2.1 0.1
v -0.2 0.4 0.1
v -0.2 0.8 0.1
v -0.2 1 0.1
v -0.2 1.1 0.1
v -0.2 1.9 0.1
v -0.2 2 0.1
v -0.1 2 0.1
v -0.1 2.1 0.1
v -0.1 2.2 0.1
v 0.1 2 0.1
v 0.1 2.1 0.1
v 0.1 2.2 0.1
v 0.2 0.4 0.1
v 0.2 0.8 0.1
v 0.2 1 0.1
v 0.2 1.1 0.1
v 0.2 1.9 0.1
v 0.2 2 0.1
v 0.3 1.1 0.1
v 0.3 1.2 0.1
v 0.3 1.9 0.1
v 0.3 2 0.1
v 0.3 2.1 0.1
v 0.4 0.4 0.1
v 0.4 1.1 0.1
v 0.4 1.2 0.1
v 0.4 1.7 0.1
v 0.4 2 0.1
v 0.4 2.1 0.1
v 0.5 1.2 0.1
v 0.5 1.7 0.1
v 0.6 1.9 0.1
v 0.6 2 0.1
v 0.7 1.2 0.1
v 0.7 1.9 0.1
v -0.4 0.1 0
v -0.4 0.4 0
v -0.2 0.1 0
v -0.2 0.4 0
v 0.2 0.1 0
v 0.2 0.4 0
v 0.4 0.1 0
v 0.4 0.4 0
v -0.7 1 0
v -0.7 1.2 0
v -0.6 1.1 0
v -0.6 1.2 0
v -0.5 1 0
v -0.5 1.1 0
v 0.5 1 0
v 0.5 1.1 0
v 0.6 1.1 0
v 0.6 1.2 0
v 0.7 1 0
v 0.7 1.2 0
v -0.7 1.2 -0.1
v -0.7 1.9 -0.1
v -0.6 1.1 -0.1
v -0.6 1.2 -0.1
v -0.6 1.9 -0.1
v -0.6 2 -0.1
v -0.5 1.1 -0.1
v -0.5 1.7 -0.1
v -0.4 0.5 -0.1
v -0.4 1.1 -0.1
v -0.4 1.2 -0.1
v -0.4 1.7 -0.1
v -0.4 2 -0.1
v -0.4 2.1 -0.1
v -0.3 1 -0.1
v -0.3 1.1 -0.1
v -0.3 1.2 -0.1
v -0.3 1.9 -0.1
v -0.3 2 -0.1
v -0.3 2.1 -0.1
v -0.3 2.8 -0.1
v -0.3 2.9 -0.1
v -0.2 0.5 -0.1
v -0.2 0.8 -0.1
v -0.2 1.9 -0.1
v -0.2 2 -0.1
v -0.2 2.8 -0.1
v -0.2 2.9 -0.1
v -0.2 3 -0.1
v -0.1 2 -0.1
v -0.1 2.1 -0.1
v -0.1 2.2 -0.1
v 0.1 2 -0.1
v 0.1 2.1 -0.1
v 0.1 2.2 -0.1
v 0.2 0.5 -0.1
v 0.2 0.8 -0.1
v 0.2 1.9 -0.1
v 0.2 2 -0.1
v 0.2 2.8 -0.1
v 0.2 2.9 -0.1
v 0.2 3 -0.1
v 0.3 1 -0.1
v 0.3 1.1 -0.1
v 0.3 1.2 -0.1
v 0.3 1.9 -0.1
v 0.3 2 -0.1
v 0.3 2.1 -0.1
v 0.3 2.8 -0.1
v 0.3 2.9 -0.1
v 0.4 0.5 -0.1
v 0.4 1.1 -0.1
v 0.4 1.2 -0.1
v 0.4 1.7 -0.1
v 0.4 2 -0.1
v 0.4 2.1 -0.1
v 0.5 1.1 -0.1
v 0.5 1.7 -0.1
v 0.6 1.1 -0.1
v 0.6 1.2 -0.1
v 0.6 1.9 -0.1
v 0.6 2 -0.1
v 0.7 1.2 -0.1
v 0.7 1.9 -0.1
v -0.4 0 -0.2
v -0.4 0.1 -0.2
v -0.4 0.5 -0.2
v -0.3 1 -0.2
v -0.3 1.1 -0.2
v -0.3 1.2 -0.2
v -0.3 1.9 -0.2
v -0.3 2.3 -0.2
v -0.3 2.8 -0.2
v -0.2 0 -0.2
v -0.2 0.1 -0.2
v -0.2 0.5 -0.2
v -0.2 1.9 -0.2
v -0.2 2 -0.2
v -0.2 2.2 -0.2
v -0.2 2.3 -0.2
v -0.2 2.8 -0.2
v -0.2 2.9 -0.2
v 0.2 0 -0.2
v 0.2 0.1 -0.2
v 0.2 0.5 -0.2
v 0.2 1.9 -0.2
v 0.2 2 -0.2
v 0.2 2.2 -0.2
v 0.2 2.3 -0.2
v 0.2 2.8 -0.2
v 0.2 2.9 -0.2
v 0.3 1 -0.2
v 0.3 1.1 -0.2
v 0.3 1.2 -0.2
v 0.3 1.9 -0.2
v 0.3 2.3 -0.2
v 0.3 2.8 -0.2
v 0.4 0 -0.2
v 0.4 0.1 -0.2
v 0.4 0.5 -0.2
v -0.2 2.3 -0.3
v -0.2 2.8 -0.3
v 0.2 2.3 -0.3
v 0.2 2.8 -0.3
v -0.4 0 0.3
v -0.2 0 0.3
v 0.2 0 0.3
v 0.4 0 0.3
v -0.4 0 -0.2
v -0.2 0 -0.2
v 0.2 0 -0.2
v 0.4 0 -0.2
v -0.4 0.4 0.1
v -0.2 0.4 0.1
v 0.2 0.4 0.1
v 0.4 0.4 0.1
v -0.4 0.4 0
v -0.2 0.4 0
v 0.2 0.4 0
v 0.4 0.4 0
v -0.2 0.8 0.1
v 0.2 0.8 0.1
v -0.2 0.8 -0.1
v 0.2 0.8 -0.1
v -0.7 1 0.2
v -0.5 1 0.2
v -0.2 1 0.2
v 0.2 1 0.2
v 0.5 1 0.2
v 0.7 1 0.2
v -0.2 1 0.1
v 0.2 1 0.1
v -0.7 1 0
v -0.5 1 0
v 0.5 1 0
v 0.7 1 0
v -0.3 1 -0.1
v 0.3 1 -0.1
v -0.3 1 -0.2
v 0.3 1 -0.2
v -0.3 1.1 0.2
v -0.2 1.1 0.2
v 0.2 1.1 0.2
v 0.3 1.1 0.2
v -0.3 1.1 0.1
v -0.2 1.1 0.1
v 0.2 1.1 0.1
v 0.3 1.1 0.1
v -0.6 1.1 0
v -0.5 1.1 0
v 0.5 1.1 0
v 0.6 1.1 0
v -0.6 1.1 -0.1
v -0.5 1.1 -0.1
v 0.5 1.1 -0.1
v 0.6 1.1 -0.1
v -0.7 1.2 0
v -0.6 1.2 0
v 0.6 1.2 0
v 0.7 1.2 0
v -0.7 1.2 -0.1
v -0.6 1.2 -0.1
v 0.6 1.2 -0.1
v 0.7 1.2 -0.1
v -0.5 1.7 0.1
v -0.4 1.7 0.1
v 0.4 1.7 0.1
v 0.5 1.7 0.1
v -0.5 1.7 -0.1
v -0.4 1.7 -0.1
v 0.4 1.7 -0.1
v 0.5 1.7 -0.1
v -0.2 2.2 0.3
v 0.2 2.2 0.3
v -0.1 2.2 0.1
v 0.1 2.2 0.1
v -0.1 2.2 -0.1
v 0.1 2.2 -0.1
v -0.2 2.2 -0.2
v 0.2 2.2 -0.2
v -0.3 2.3 0.3
v -0.2 2.3 0.3
v 0.2 2.3 0.3
v 0.3 2.3 0.3
v -0.3 2.3 -0.2
v -0.2 2.3 -0.2
v 0.2 2.3 -0.2
v 0.3 2.3 -0.2
v -0.2 2.3 -0.3
v 0.2 2.3 -0.3
v -0.4 0.1 0.3
v -0.2 0.1 0.3
v 0.2 0.1 0.3
v 0.4 0.1 0.3
v -0.4 0.1 0
v -0.2 0.1 0
v 0.2 0.1 0
v 0.4 0.1 0
v -0.4 0.5 -0.1
v -0.2 0.5 -0.1
v 0.2 0.5 -0.1
v 0.4 0.5 -0.1
v -0.4 0.5 -0.2
v -0.2 0.5 -0.2
v 0.2 0.5 -0.2
v 0.4 0.5 -0.2
v -0.7 1.2 0.2
v -0.5 1.2 0.2
v 0.5 1.2 0.2
v 0.7 1.2 0.2
v -0.7 1.2 0.1
v -0.5 1.2 0.1
v 0.5 1.2 0.1
v 0.7 1.2 0.1
v -0.3 1.9 0.2
v -0.2 1.9 0.2
v 0.2 1.9 0.2
v 0.3 1.9 0.2
v -0.7 1.9 0.1
v -0.6 1.9 0.1
v -0.3 1.9 0.1
v -0.2 1.9 0.1
v 0.2 1.9 0.1
v 0.3 1.9 0.1
v 0.6 1.9 0.1
v 0.7 1.9 0.1
v -0.7 1.9 -0.1
v -0.6 1.9 -0.1
v -0.3 1.9 -0.1
v -0.2 1.9 -0.1
v 0.2 1.9 -0.1
v 0.3 1.9 -0.1
v 0.6 1.9 -0.1
v 0.7 1.9 -0.1
v -0.3 1.9 -0.2
v -0.2 1.9 -0.2
v 0.2 1.9 -0.2
v 0.3 1.9 -0.2
v -0.2 2 0.2
v 0.2 2 0.2
v -0.6 2 0.1
v -0.4 2 0.1
v -0.2 2 0.1
v -0.1 2 0.1
v 0.1 2 0.1
v 0.2 2 0.1
v 0.4 2 0.1
v 0.6 2 0.1
v -0.6 2 -0.1
v -0.4 2 -0.1
v -0.2 2 -0.1
v -0.1 2 -0.1
v 0.1 2 -0.1
v 0.2 2 -0.1
v 0.4 2 -0.1
v 0.6 2 -0.1
v -0.2 2 -0.2
v 0.2 2 -0.2
v -0.4 2.1 0.1
v -0.3 2.1 0.1
v -0.1 2.1 0.1
v 0.1 2.1 0.1
v 0.3 2.1 0.1
v 0.4 2.1 0.1
v -0.4 2.1 -0.1
v -0.3 2.1 -0.1
v -0.1 2.1 -0.1
v 0.1 2.1 -0.1
v 0.3 2.1 -0.1
v 0.4 2.1 -0.1
v -0.3 2.8 0.3
v -0.2 2.8 0.3
v 0.2 2.8 0.3
v 0.3 2.8 0.3
v -0.3 2.8 0.2
v -0.2 2.8 0.2
v 0.2 2.8 0.2
v 0.3 2.8 0.2
v -0.3 2.8 -0.1
v -0.2 2.8 -0.1
v 0.2 2.8 -0.1
v 0.3 2.8 -0.1
v -0.3 2.8 -0.2
v -0.2 2.8 -0.2
v 0.2 2.8 -0.2
v 0.3 2.8 -0.2
v -0.2 2.8 -0.3
v 0.2 2.8 -0.3
v -0.2 2.9 0.3
v 0.2 2.9 0.3
v -0.3 2.9 0.2
v -0.2 2.9 0.2
v 0.2 2.9 0.2
v 0.3 2.9 0.2
v -0.3 2.9 -0.1
v -0.2 2.9 -0.1
v 0.2 2.9 -0.1
v 0.3 2.9 -0.1
v -0.2 2.9 -0.2
v 0.2 2.9 -0.2
v -0.2 3 0.2
v 0.2 3 0.2
v -0.2 3 -0.1
v 0.2 3 -0.1

# faces
f 3/5/1 2/5/1 1/5/1
f 4/5/1 2/5/1 3/5/1
f 5/5/1 2/5/1 4/5/1
f 7/5/1 6/5/1 5/5/1
f 7/5/1 5/5/1 4/5/1
f 8/5/1 6/5/1 7/5/1
f 11/5/1 10/5/1 9/5/1
f 12/5/1 10/5/1 11/5/1
f 15/5/1 14/5/1 13/5/1
f 16/5/1 14/5/1 15/5/1
f 19/6/1 18/6/1 17/6/1
f 20/6/1 18/6/1 19/6/1
f 21/6/1 18/6/1 20/6/1
f 23/1/1 21/1/1 20/1/1
f 24/1/1 21/1/1 23/1/1
f 24/1/1 23/1/1 22/1/1
f 25/1/1 21/1/1 24/1/1
f 26/1/1 24/1/1 22/1/1
f 27/1/1 24/1/1 26/1/1
f 28/2/1 27/2/1 26/2/1
f 29/2/1 27/2/1 28/2/1
f 30/4/1 29/4/1 28/4/1
f 31/4/1 29/4/1 30/4/1
f 34/5/1 33/5/1 32/5/1
f 35/5/1 33/5/1 34/5/1
f 40/1/1 37/1/1 36/1/1
f 41/1/1 37/1/1 40/1/1
f 42/2/1 39/2/1 38/2/1
f 43/2/1 39/2/1 42/2/1
f 44/2/1 41/2/1 40/2/1
f 45/2/1 41/2/1 44/2/1
f 46/4/1 43/4/1 42/4/1
f 47/4/1 43/4/1 46/4/1
f 48/4/1 45/4/1 44/4/1
f 49/4/1 45/4/1 48/4/1
f 52/5/1 51/5/1 50/5/1
f 53/5/1 51/5/1 52/5/1
f 54/4/1 53/4/1 52/4/1
f 55/5/1 51/5/1 53/5/1
f 55/4/1 53/4/1 54/4/1
f 56/5/1 55/5/1 54/5/1
f 57/5/1 51/5/1 55/5/1
f 57/5/1 55/5/1 56/5/1
f 58/5/1 51/5/1 57/5/1
f 59/5/1 51/5/1 58/5/1
f 60/5/1 58/5/1 57/5/1
f 61/5/1 58/5/1 60/5/1
f 64/1/1 63/1/1 62/1/1
f 65/1/1 63/1/1 64/1/1
f 70/4/1 67/4/1 66/4/1
f 71/4/1 67/4/1 70/4/1
f 72/4/1 69/4/1 68/4/1
f 73/4/1 69/4/1 72/4/1
f 76/5/1 75/5/1 74/5/1
f 77/5/1 75/5/1 76/5/1
f 82/5/1 78/5/1 77/5/1
f 83/5/1 78/5/1 82/5/1
f 84/5/1 80/5/1 79/5/1
f 85/5/1 80/5/1 84/5/1
f 86/5/1 82/5/1 81/5/1
f 87/5/1 82/5/1 86/5/1
f 88/5/1 86/5/1 85/5/1
f 89/5/1 86/5/1 88/5/1
f 92/5/1 91/5/1 90/5/1
f 93/5/1 91/5/1 92/5/1
f 96/6/1 95/6/1 94/6/1
f 97/6/1 95/6/1 96/6/1
f 98/6/1 95/6/1 97/6/1
f 100/1/1 98/1/1 97/1/1
f 101/1/1 98/1/1 100/1/1
f 101/1/1 100/1/1 99/1/1
f 102/1/1 98/1/1 101/1/1
f 103/1/1 101/1/1 99/1/1
f 104/1/1 101/1/1 103/1/1
f 107/5/1 106/5/1 105/5/1
f 109/5/1 107/5/1 105/5/1
f 109/5/1 108/5/1 107/5/1
f 110/5/1 108/5/1 109/5/1
f 111/5/1 108/5/1 110/5/1
f 112/5/1 108/5/1 111/5/1
f 113/5/2 114/5/2 115/5/2
f 113/5/2 115/5/2 117/5/2
f 115/5/2 116/5/2 117/5/2
f 117/5/2 116/5/2 118/5/2
f 118/5/2 116/5/2 119/5/2
f 119/5/2 116/5/2 120/5/2
f 121/6/2 122/6/2 123/6/2
f 123/6/2 122/6/2 124/6/2
f 124/6/2 122/6/2 125/6/2
f 124/1/2 125/1/2 127/1/2
f 127/1/2 125/1/2 128/1/2
f 126/1/2 127/1/2 128/1/2
f 128/1/2 125/1/2 129/1/2
f 126/1/2 128/1/2 130/1/2
f 130/1/2 128/1/2 131/1/2
f 132/5/2 133/5/2 134/5/2
f 134/5/2 133/5/2 135/5/2
f 136/1/2 137/1/2 138/1/2
f 138/1/2 137/1/2 139/1/2
f 140/4/2 141/4/2 144/4/2
f 144/4/2 141/4/2 145/4/2
f 142/4/2 143/4/2 146/4/2
f 146/4/2 143/4/2 147/4/2
f 148/5/2 149/5/2 150/5/2
f 150/5/2 149/5/2 151/5/2
f 151/5/2 152/5/2 156/5/2
f 156/5/2 152/5/2 157/5/2
f 153/5/2 154/5/2 158/5/2
f 158/5/2 154/5/2 159/5/2
f 155/5/2 156/5/2 160/5/2
f 160/5/2 156/5/2 161/5/2
f 159/5/2 160/5/2 162/5/2
f 162/5/2 160/5/2 163/5/2
f 164/1/2 165/1/2 168/1/2
f 168/1/2 165/1/2 169/1/2
f 166/2/2 167/2/2 170/2/2
f 170/2/2 167/2/2 171/2/2
f 168/2/2 169/2/2 172/2/2
f 172/2/2 169/2/2 173/2/2
f 170/4/2 171/4/2 174/4/2
f 174/4/2 171/4/2 175/4/2
f 172/4/2 173/4/2 176/4/2
f 176/4/2 173/4/2 177/4/2
f 178/5/2 179/5/2 180/5/2
f 180/5/2 179/5/2 181/5/2
f 180/4/2 181/4/2 182/4/2
f 181/5/2 179/5/2 183/5/2
f 182/4/2 181/4/2 183/4/2
f 182/5/2 183/5/2 184/5/2
f 183/5/2 179/5/2 185/5/2
f 184/5/2 183/5/2 185/5/2
f 185/5/2 179/5/2 186/5/2
f 186/5/2 179/5/2 187/5/2
f 185/5/2 186/5/2 188/5/2
f 188/5/2 186/5/2 189/5/2
f 190/6/2 191/6/2 192/6/2
f 192/6/2 191/6/2 193/6/2
f 193/6/2 191/6/2 194/6/2
f 193/1/2 194/1/2 196/1/2
f 196/1/2 194/1/2 197/1/2
f 195/1/2 196/1/2 197/1/2
f 197/1/2 194/1/2 198/1/2
f 195/1/2 197/1/2 199/1/2
f 199/1/2 197/1/2 200/1/2
f 199/2/2 200/2/2 201/2/2
f 201/2/2 200/2/2 202/2/2
f 201/4/2 202/4/2 203/4/2
f 203/4/2 202/4/2 204/4/2
f 205/5/2 206/5/2 207/5/2
f 207/5/2 206/5/2 208/5/2
f 209/5/2 210/5/2 211/5/2
f 211/5/2 210/5/2 212/5/2
f 213/5/2 214/5/2 215/5/2
f 215/5/2 214/5/2 216/5/2
f 217/5/2 218/5/2 219/5/2
f 219/5/2 218/5/2 220/5/2
f 220/5/2 218/5/2 221/5/2
f 221/5/2 222/5/2 223/5/2
f 220/5/2 221/5/2 223/5/2
f 223/5/2 222/5/2 224/5/2
f 231/6/3 226/6/3 225/6/3
f 232/6/3 226/6/3 231/6/3
f 234/5/3 228/5/3 227/5/3
f 235/4/3 229/4/3 228/4/3
f 235/5/3 228/5/3 234/5/3
f 236/4/3 229/4/3 235/4/3
f 237/5/3 230/5/3 229/5/3
f 239/5/3 234/5/3 233/5/3
f 239/5/3 235/5/3 234/5/3
f 240/5/3 235/5/3 239/5/3
f 241/3/3 236/3/3 235/3/3
f 241/5/3 235/5/3 240/5/3
f 242/4/3 229/4/3 236/4/3
f 242/3/3 236/3/3 241/3/3
f 243/5/3 238/5/3 237/5/3
f 243/4/3 229/4/3 242/4/3
f 243/5/3 237/5/3 229/5/3
f 244/5/3 239/5/3 233/5/3
f 244/2/3 240/2/3 239/2/3
f 245/5/3 241/5/3 240/5/3
f 245/2/3 240/2/3 244/2/3
f 245/5/3 242/5/3 241/5/3
f 245/5/3 243/5/3 242/5/3
f 246/5/3 243/5/3 245/5/3
f 247/5/3 243/5/3 246/5/3
f 248/5/3 238/5/3 243/5/3
f 248/5/3 243/5/3 247/5/3
f 251/5/3 244/5/3 233/5/3
f 251/5/3 245/5/3 244/5/3
f 251/5/3 246/5/3 245/5/3
f 252/5/3 246/5/3 251/5/3
f 253/3/3 247/3/3 246/3/3
f 253/5/3 246/5/3 252/5/3
f 254/4/3 248/4/3 247/4/3
f 254/3/3 247/3/3 253/3/3
f 255/5/3 238/5/3 248/5/3
f 256/5/3 238/5/3 255/5/3
f 257/5/3 253/5/3 252/5/3
f 258/4/3 254/4/3 253/4/3
f 258/5/3 253/5/3 257/5/3
f 259/4/3 248/4/3 254/4/3
f 259/4/3 254/4/3 258/4/3
f 259/5/3 255/5/3 248/5/3
f 260/5/3 255/5/3 259/5/3
f 261/6/3 250/6/3 249/6/3
f 262/6/3 250/6/3 261/6/3
f 265/5/3 264/5/3 263/5/3
f 266/5/3 264/5/3 265/5/3
f 273/2/3 268/2/3 267/2/3
f 274/4/3 269/4/3 268/4/3
f 276/5/3 271/5/3 270/5/3
f 277/5/3 271/5/3 276/5/3
f 279/1/3 273/1/3 272/1/3
f 279/2/3 268/2/3 273/2/3
f 280/4/3 275/4/3 274/4/3
f 280/2/3 268/2/3 279/2/3
f 280/4/3 274/4/3 268/4/3
f 281/1/3 279/1/3 272/1/3
f 281/6/3 280/6/3 279/6/3
f 282/4/3 275/4/3 280/4/3
f 282/6/3 280/6/3 281/6/3
f 283/1/3 281/1/3 272/1/3
f 284/2/3 282/2/3 281/2/3
f 284/1/3 281/1/3 283/1/3
f 285/4/3 275/4/3 282/4/3
f 286/4/3 275/4/3 285/4/3
f 288/5/3 278/5/3 277/5/3
f 289/5/3 278/5/3 288/5/3
f 290/2/3 282/2/3 284/2/3
f 291/4/3 285/4/3 282/4/3
f 291/2/3 282/2/3 290/2/3
f 292/4/3 285/4/3 291/4/3
f 293/5/3 288/5/3 287/5/3
f 294/5/3 288/5/3 293/5/3
f 297/5/3 296/5/3 295/5/3
f 298/5/3 296/5/3 297/5/3
f 301/5/3 300/5/3 299/5/3
f 303/5/3 301/5/3 299/5/3
f 303/5/3 302/5/3 301/5/3
f 304/5/3 302/5/3 303/5/3
f 308/5/3 302/5/3 304/5/3
f 309/5/3 302/5/3 308/5/3
f 311/2/3 307/2/3 306/2/3
f 311/1/3 306/1/3 305/1/3
f 312/4/3 309/4/3 308/4/3
f 312/2/3 307/2/3 311/2/3
f 312/4/3 308/4/3 307/4/3
f 313/4/3 309/4/3 312/4/3
f 314/5/3 310/5/3 309/5/3
f 314/4/3 309/4/3 313/4/3
f 315/5/3 310/5/3 314/5/3
f 316/1/3 311/1/3 305/1/3
f 317/1/3 311/1/3 316/1/3
f 318/1/3 311/1/3 317/1/3
f 319/1/3 311/1/3 318/1/3
f 320/4/3 315/4/3 314/4/3
f 320/4/3 314/4/3 313/4/3
f 321/4/3 315/4/3 320/4/3
f 322/4/3 315/4/3 321/4/3
f 323/4/3 315/4/3 322/4/3
f 325/5/3 323/5/3 322/5/3
f 325/5/3 324/5/3 323/5/3
f 326/5/3 324/5/3 325/5/3
f 327/5/3 324/5/3 326/5/3
f 329/1/3 318/1/3 317/1/3
f 330/1/3 318/1/3 329/1/3
f 333/4/3 326/4/3 325/4/3
f 334/1/3 331/1/3 330/1/3
f 334/1/3 329/1/3 328/1/3
f 334/1/3 330/1/3 329/1/3
f 336/4/3 333/4/3 332/4/3
f 337/4/3 326/4/3 333/4/3
f 337/4/3 333/4/3 336/4/3
f 338/4/3 326/4/3 337/4/3
f 339/1/3 334/1/3 328/1/3
f 340/2/3 335/2/3 334/2/3
f 340/1/3 334/1/3 339/1/3
f 341/4/3 336/4/3 335/4/3
f 341/2/3 335/2/3 340/2/3
f 341/4/3 337/4/3 336/4/3
f 342/4/3 337/4/3 341/4/3
f 343/5/3 338/5/3 337/5/3
f 343/4/3 337/4/3 342/4/3
f 344/5/3 338/5/3 343/5/3
f 346/5/3 343/5/3 342/5/3
f 347/5/3 343/5/3 346/5/3
f 347/5/3 346/5/3 345/5/3
f 348/5/3 343/5/3 347/5/3
f 349/5/3 347/5/3 345/5/3
f 350/5/3 347/5/3 349/5/3
f 353/1/3 352/1/3 351/1/3
f 354/1/3 352/1/3 353/1/3
f 357/1/3 356/1/3 355/1/3
f 358/1/3 356/1/3 357/1/3
f 359/5/4 360/5/4 361/5/4
f 361/5/4 360/5/4 362/5/4
f 359/5/4 361/5/4 363/5/4
f 363/5/4 361/5/4 364/5/4
f 365/5/4 366/5/4 367/5/4
f 365/5/4 367/5/4 369/5/4
f 367/5/4 368/5/4 369/5/4
f 369/5/4 368/5/4 370/5/4
f 371/5/4 372/5/4 374/5/4
f 374/5/4 372/5/4 375/5/4
f 373/5/4 374/5/4 377/5/4
f 375/5/4 376/5/4 377/5/4
f 374/5/4 375/5/4 377/5/4
f 377/5/4 376/5/4 378/5/4
f 378/5/4 376/5/4 382/5/4
f 382/5/4 376/5/4 383/5/4
f 379/1/4 380/1/4 385/1/4
f 380/2/4 381/2/4 386/2/4
f 385/1/4 380/1/4 386/1/4
f 381/4/4 382/4/4 387/4/4
f 386/2/4 381/2/4 387/2/4
f 382/4/4 383/4/4 387/4/4
f 387/4/4 383/4/4 388/4/4
f 383/5/4 384/5/4 389/5/4
f 388/4/4 383/4/4 389/4/4
f 389/5/4 384/5/4 390/5/4
f 379/1/4 385/1/4 393/1/4
f 393/1/4 385/1/4 394/1/4
f 389/4/4 390/4/4 395/4/4
f 388/4/4 389/4/4 395/4/4
f 395/4/4 390/4/4 396/4/4
f 391/5/4 392/5/4 397/5/4
f 397/5/4 392/5/4 398/5/4
f 396/4/4 390/4/4 400/4/4
f 400/4/4 390/4/4 401/4/4
f 400/5/4 401/5/4 403/5/4
f 401/5/4 402/5/4 403/5/4
f 403/5/4 402/5/4 404/5/4
f 404/5/4 402/5/4 405/5/4
f 394/1/4 385/1/4 407/1/4
f 403/4/4 404/4/4 409/4/4
f 398/5/4 399/5/4 411/5/4
f 411/5/4 399/5/4 412/5/4
f 406/1/4 407/1/4 413/1/4
f 407/1/4 385/1/4 413/1/4
f 408/4/4 409/4/4 416/4/4
f 409/4/4 404/4/4 417/4/4
f 416/4/4 409/4/4 417/4/4
f 417/4/4 404/4/4 418/4/4
f 410/5/4 411/5/4 419/5/4
f 419/5/4 411/5/4 420/5/4
f 406/1/4 413/1/4 421/1/4
f 413/1/4 414/1/4 421/1/4
f 414/2/4 415/2/4 422/2/4
f 421/1/4 414/1/4 422/1/4
f 415/4/4 416/4/4 423/4/4
f 422/2/4 415/2/4 423/2/4
f 416/4/4 417/4/4 423/4/4
f 423/4/4 417/4/4 424/4/4
f 417/5/4 418/5/4 425/5/4
f 424/4/4 417/4/4 425/4/4
f 425/5/4 418/5/4 426/5/4
f 424/5/4 425/5/4 428/5/4
f 427/5/4 428/5/4 429/5/4
f 429/5/4 428/5/4 430/5/4
f 428/5/4 425/5/4 431/5/4
f 430/5/4 428/5/4 431/5/4
f 431/5/4 425/5/4 432/5/4
f 430/5/4 431/5/4 433/5/4
f 433/5/4 431/5/4 434/5/4
f 435/6/4 436/6/4 444/6/4
f 436/1/4 437/1/4 445/1/4
f 444/6/4 436/6/4 445/6/4
f 445/1/4 437/1/4 446/1/4
f 440/4/4 441/4/4 447/4/4
f 442/5/4 443/5/4 450/5/4
f 450/5/4 443/5/4 451/5/4
f 447/4/4 448/4/4 456/4/4
f 440/4/4 447/4/4 456/4/4
f 456/4/4 448/4/4 457/4/4
f 449/5/4 450/5/4 458/5/4
f 458/5/4 450/5/4 459/5/4
f 451/5/4 452/5/4 460/5/4
f 460/5/4 452/5/4 461/5/4
f 438/1/4 439/1/4 462/1/4
f 439/2/4 440/2/4 463/2/4
f 462/1/4 439/1/4 463/1/4
f 440/4/4 456/4/4 464/4/4
f 463/2/4 440/2/4 464/2/4
f 464/4/4 456/4/4 465/4/4
f 459/5/4 460/5/4 466/5/4
f 466/5/4 460/5/4 467/5/4
f 453/6/4 454/6/4 468/6/4
f 454/1/4 455/1/4 469/1/4
f 468/6/4 454/6/4 469/6/4
f 469/1/4 455/1/4 470/1/4
f 471/5/4 472/5/4 473/5/4
f 473/5/4 472/5/4 474/5/4
f 479/6/5 476/6/5 475/6/5
f 480/6/5 476/6/5 479/6/5
f 481/6/5 478/6/5 477/6/5
f 482/6/5 478/6/5 481/6/5
f 487/1/5 484/1/5 483/1/5
f 488/1/5 484/1/5 487/1/5
f 489/1/5 486/1/5 485/1/5
f 490/1/5 486/1/5 489/1/5
f 493/1/5 492/1/5 491/1/5
f 494/1/5 492/1/5 493/1/5
f 501/1/5 498/1/5 497/1/5
f 502/1/5 498/1/5 501/1/5
f 503/5/5 496/5/5 495/5/5
f 504/5/5 496/5/5 503/5/5
f 505/5/5 500/5/5 499/5/5
f 506/5/5 500/5/5 505/5/5
f 509/1/5 508/1/5 507/1/5
f 510/1/5 508/1/5 509/1/5
f 515/2/5 512/2/5 511/2/5
f 516/2/5 512/2/5 515/2/5
f 517/2/5 514/2/5 513/2/5
f 518/2/5 514/2/5 517/2/5
f 523/5/5 520/5/5 519/5/5
f 524/5/5 520/5/5 523/5/5
f 525/5/5 522/5/5 521/5/5
f 526/5/5 522/5/5 525/5/5
f 531/5/5 528/5/5 527/5/5
f 532/5/5 528/5/5 531/5/5
f 533/5/5 530/5/5 529/5/5
f 534/5/5 530/5/5 533/5/5
f 539/5/5 536/5/5 535/5/5
f 540/5/5 536/5/5 539/5/5
f 541/5/5 538/5/5 537/5/5
f 542/5/5 538/5/5 541/5/5
f 545/5/5 544/5/5 543/5/5
f 546/5/5 544/5/5 545/5/5
f 547/5/5 545/5/5 543/5/5
f 548/5/5 544/5/5 546/5/5
f 549/5/5 547/5/5 543/5/5
f 549/5/5 548/5/5 547/5/5
f 550/5/5 544/5/5 548/5/5
f 550/5/5 548/5/5 549/5/5
f 555/5/5 552/5/5 551/5/5
f 556/5/5 552/5/5 555/5/5
f 557/5/5 554/5/5 553/5/5
f 558/5/5 554/5/5 557/5/5
f 559/5/5 557/5/5 556/5/5
f 560/5/5 557/5/5 559/5/5
f 561/6/6 562/6/6 565/6/6
f 565/6/6 562/6/6 566/6/6
f 563/6/6 564/6/6 567/6/6
f 567/6/6 564/6/6 568/6/6
f 569/1/6 570/1/6 573/1/6
f 573/1/6 570/1/6 574/1/6
f 571/1/6 572/1/6 575/1/6
f 575/1/6 572/1/6 576/1/6
f 577/5/6 578/5/6 581/5/6
f 581/5/6 578/5/6 582/5/6
f 579/5/6 580/5/6 583/5/6
f 583/5/6 580/5/6 584/5/6
f 585/4/6 586/4/6 591/4/6
f 591/4/6 586/4/6 592/4/6
f 587/4/6 588/4/6 593/4/6
f 593/4/6 588/4/6 594/4/6
f 589/5/6 590/5/6 597/5/6
f 597/5/6 590/5/6 598/5/6
f 595/5/6 596/5/6 603/5/6
f 603/5/6 596/5/6 604/5/6
f 599/4/6 600/4/6 605/4/6
f 605/4/6 600/4/6 606/4/6
f 601/4/6 602/4/6 607/4/6
f 607/4/6 602/4/6 608/4/6
f 609/4/6 610/4/6 613/4/6
f 613/4/6 610/4/6 614/4/6
f 614/4/6 610/4/6 615/4/6
f 615/4/6 610/4/6 616/4/6
f 611/5/6 612/5/6 619/5/6
f 619/5/6 612/5/6 620/5/6
f 617/5/6 618/5/6 625/5/6
f 625/5/6 618/5/6 626/5/6
f 623/4/6 624/4/6 627/4/6
f 621/4/6 622/4/6 627/4/6
f 622/4/6 623/4/6 627/4/6
f 627/4/6 624/4/6 628/4/6
f 629/5/6 630/5/6 635/5/6
f 630/4/6 631/4/6 636/4/6
f 635/5/6 630/5/6 636/5/6
f 636/4/6 631/4/6 637/4/6
f 632/4/6 633/4/6 638/4/6
f 633/5/6 634/5/6 639/5/6
f 638/4/6 633/4/6 639/4/6
f 639/5/6 634/5/6 640/5/6
f 641/5/6 642/5/6 645/5/6
f 645/5/6 642/5/6 646/5/6
f 643/5/6 644/5/6 647/5/6
f 647/5/6 644/5/6 648/5/6
f 649/5/6 650/5/6 653/5/6
f 653/5/6 650/5/6 654/5/6
f 651/5/6 652/5/6 655/5/6
f 655/5/6 652/5/6 656/5/6
f 654/5/6 655/5/6 657/5/6
f 657/5/6 655/5/6 658/5/6
f 659/5/6 660/5/6 662/5/6
f 662/5/6 660/5/6 663/5/6
f 661/5/6 662/5/6 665/5/6
f 665/5/6 662/5/6 666/5/6
f 663/5/6 664/5/6 667/5/6
f 667/5/6 664/5/6 668/5/6
f 666/5/6 667/5/6 669/5/6
f 669/5/6 667/5/6 670/5/6
f 671/5/6 672/5/6 673/5/6
f 673/5/6 672/5/6 674/5/6
