# MagicaVoxel @ Ephtracy

# group
o 

# material
mtllib emptyShelves.mtl
usemtl palette

# normals
vn -1 0 0
vn 1 0 0
vn 0 0 1
vn 0 0 -1
vn 0 -1 0
vn 0 1 0

# texcoords
vt 0.888672 0.5
vt 0.892578 0.5

# verts
v -0.8 0 0.6
v -0.8 0 -0.8
v -0.8 0.2 0.8
v -0.8 0.2 0.6
v -0.8 0.2 -0.6
v -0.8 0.3 0.8
v -0.8 0.3 0.7
v -0.8 0.4 0.7
v -0.8 0.4 -0.6
v -0.8 1.3 0.8
v -0.8 1.3 -0.6
v -0.8 1.4 0.8
v -0.8 1.4 0.7
v -0.8 1.5 0.7
v -0.8 1.5 -0.6
v -0.8 2.4 0.8
v -0.8 2.4 -0.6
v -0.8 2.5 0.8
v -0.8 2.5 0.7
v -0.8 2.6 0.7
v -0.8 2.6 -0.6
v -0.8 3.5 0.8
v -0.8 3.5 -0.6
v -0.8 3.6 0.8
v -0.8 3.6 0.7
v -0.8 3.7 0.7
v -0.8 3.7 -0.6
v -0.8 4.6 0.8
v -0.8 4.6 -0.6
v -0.8 4.8 0.8
v -0.8 4.8 -0.8
v 0.8 0 0.6
v 0.8 0 -0.8
v 0.8 0.2 0.8
v 0.8 0.2 0.6
v 0.8 0.2 -0.6
v 0.8 0.3 0.8
v 0.8 0.3 0.7
v 0.8 0.4 0.7
v 0.8 0.4 -0.6
v 0.8 1.3 0.8
v 0.8 1.3 -0.6
v 0.8 1.4 0.8
v 0.8 1.4 0.7
v 0.8 1.5 0.7
v 0.8 1.5 -0.6
v 0.8 2.4 0.8
v 0.8 2.4 -0.6
v 0.8 2.5 0.8
v 0.8 2.5 0.7
v 0.8 2.6 0.7
v 0.8 2.6 -0.6
v 0.8 3.5 0.8
v 0.8 3.5 -0.6
v 0.8 3.6 0.8
v 0.8 3.6 0.7
v 0.8 3.7 0.7
v 0.8 3.7 -0.6
v 0.8 4.6 0.8
v 0.8 4.6 -0.6
v 0.8 4.8 0.8
v 0.8 4.8 -0.8
v -0.8 0.2 0.8
v -0.8 0.3 0.8
v -0.8 1.3 0.8
v -0.8 1.4 0.8
v -0.8 2.4 0.8
v -0.8 2.5 0.8
v -0.8 3.5 0.8
v -0.8 3.6 0.8
v -0.8 4.6 0.8
v -0.8 4.8 0.8
v 0.8 0.2 0.8
v 0.8 0.3 0.8
v 0.8 1.3 0.8
v 0.8 1.4 0.8
v 0.8 2.4 0.8
v 0.8 2.5 0.8
v 0.8 3.5 0.8
v 0.8 3.6 0.8
v 0.8 4.6 0.8
v 0.8 4.8 0.8
v -0.8 0.3 0.7
v -0.8 0.4 0.7
v -0.8 1.4 0.7
v -0.8 1.5 0.7
v -0.8 2.5 0.7
v -0.8 2.6 0.7
v -0.8 3.6 0.7
v -0.8 3.7 0.7
v 0.8 0.3 0.7
v 0.8 0.4 0.7
v 0.8 1.4 0.7
v 0.8 1.5 0.7
v 0.8 2.5 0.7
v 0.8 2.6 0.7
v 0.8 3.6 0.7
v 0.8 3.7 0.7
v -0.8 0 0.6
v -0.8 0.2 0.6
v 0.8 0 0.6
v 0.8 0.2 0.6
v -0.8 0.4 -0.6
v -0.8 1.3 -0.6
v -0.8 1.5 -0.6
v -0.8 2.4 -0.6
v -0.8 2.6 -0.6
v -0.8 3.5 -0.6
v -0.8 3.7 -0.6
v -0.8 4.6 -0.6
v 0.8 0.4 -0.6
v 0.8 1.3 -0.6
v 0.8 1.5 -0.6
v 0.8 2.4 -0.6
v 0.8 2.6 -0.6
v 0.8 3.5 -0.6
v 0.8 3.7 -0.6
v 0.8 4.6 -0.6
v -0.8 0 -0.8
v -0.8 4.8 -0.8
v 0.8 0 -0.8
v 0.8 4.8 -0.8
v -0.8 0 0.6
v 0.8 0 0.6
v -0.8 0 -0.8
v 0.8 0 -0.8
v -0.8 0.2 0.8
v 0.8 0.2 0.8
v -0.8 0.2 0.6
v 0.8 0.2 0.6
v -0.8 1.3 0.8
v 0.8 1.3 0.8
v -0.8 1.3 -0.6
v 0.8 1.3 -0.6
v -0.8 2.4 0.8
v 0.8 2.4 0.8
v -0.8 2.4 -0.6
v 0.8 2.4 -0.6
v -0.8 3.5 0.8
v 0.8 3.5 0.8
v -0.8 3.5 -0.6
v 0.8 3.5 -0.6
v -0.8 4.6 0.8
v 0.8 4.6 0.8
v -0.8 4.6 -0.6
v 0.8 4.6 -0.6
v -0.8 0.3 0.8
v 0.8 0.3 0.8
v -0.8 0.3 0.7
v 0.8 0.3 0.7
v -0.8 0.4 0.7
v 0.8 0.4 0.7
v -0.8 0.4 -0.6
v 0.8 0.4 -0.6
v -0.8 1.4 0.8
v 0.8 1.4 0.8
v -0.8 1.4 0.7
v 0.8 1.4 0.7
v -0.8 1.5 0.7
v 0.8 1.5 0.7
v -0.8 1.5 -0.6
v 0.8 1.5 -0.6
v -0.8 2.5 0.8
v 0.8 2.5 0.8
v -0.8 2.5 0.7
v 0.8 2.5 0.7
v -0.8 2.6 0.7
v 0.8 2.6 0.7
v -0.8 2.6 -0.6
v 0.8 2.6 -0.6
v -0.8 3.6 0.8
v 0.8 3.6 0.8
v -0.8 3.6 0.7
v 0.8 3.6 0.7
v -0.8 3.7 0.7
v 0.8 3.7 0.7
v -0.8 3.7 -0.6
v 0.8 3.7 -0.6
v -0.8 4.8 0.8
v 0.8 4.8 0.8
v -0.8 4.8 -0.8
v 0.8 4.8 -0.8

# faces
f 4/1/1 2/1/1 1/1/1
f 5/1/1 2/1/1 4/1/1
f 6/2/1 4/2/1 3/2/1
f 6/2/1 5/2/1 4/2/1
f 7/2/1 5/2/1 6/2/1
f 8/2/1 5/2/1 7/2/1
f 9/1/1 2/1/1 5/1/1
f 9/2/1 5/2/1 8/2/1
f 11/1/1 2/1/1 9/1/1
f 12/2/1 11/2/1 10/2/1
f 13/2/1 11/2/1 12/2/1
f 14/2/1 11/2/1 13/2/1
f 15/1/1 2/1/1 11/1/1
f 15/2/1 11/2/1 14/2/1
f 17/1/1 2/1/1 15/1/1
f 18/2/1 17/2/1 16/2/1
f 19/2/1 17/2/1 18/2/1
f 20/2/1 17/2/1 19/2/1
f 21/1/1 2/1/1 17/1/1
f 21/2/1 17/2/1 20/2/1
f 23/1/1 2/1/1 21/1/1
f 24/2/1 23/2/1 22/2/1
f 25/2/1 23/2/1 24/2/1
f 26/2/1 23/2/1 25/2/1
f 27/1/1 2/1/1 23/1/1
f 27/2/1 23/2/1 26/2/1
f 29/1/1 2/1/1 27/1/1
f 30/1/1 29/1/1 28/1/1
f 31/1/1 2/1/1 29/1/1
f 31/1/1 29/1/1 30/1/1
f 32/1/2 33/1/2 35/1/2
f 35/1/2 33/1/2 36/1/2
f 34/2/2 35/2/2 37/2/2
f 35/2/2 36/2/2 37/2/2
f 37/2/2 36/2/2 38/2/2
f 38/2/2 36/2/2 39/2/2
f 36/1/2 33/1/2 40/1/2
f 39/2/2 36/2/2 40/2/2
f 40/1/2 33/1/2 42/1/2
f 41/2/2 42/2/2 43/2/2
f 43/2/2 42/2/2 44/2/2
f 44/2/2 42/2/2 45/2/2
f 42/1/2 33/1/2 46/1/2
f 45/2/2 42/2/2 46/2/2
f 46/1/2 33/1/2 48/1/2
f 47/2/2 48/2/2 49/2/2
f 49/2/2 48/2/2 50/2/2
f 50/2/2 48/2/2 51/2/2
f 48/1/2 33/1/2 52/1/2
f 51/2/2 48/2/2 52/2/2
f 52/1/2 33/1/2 54/1/2
f 53/2/2 54/2/2 55/2/2
f 55/2/2 54/2/2 56/2/2
f 56/2/2 54/2/2 57/2/2
f 54/1/2 33/1/2 58/1/2
f 57/2/2 54/2/2 58/2/2
f 58/1/2 33/1/2 60/1/2
f 59/1/2 60/1/2 61/1/2
f 60/1/2 33/1/2 62/1/2
f 61/1/2 60/1/2 62/1/2
f 73/2/3 64/2/3 63/2/3
f 74/2/3 64/2/3 73/2/3
f 75/2/3 66/2/3 65/2/3
f 76/2/3 66/2/3 75/2/3
f 77/2/3 68/2/3 67/2/3
f 78/2/3 68/2/3 77/2/3
f 79/2/3 70/2/3 69/2/3
f 80/2/3 70/2/3 79/2/3
f 81/1/3 72/1/3 71/1/3
f 82/1/3 72/1/3 81/1/3
f 91/2/3 84/2/3 83/2/3
f 92/2/3 84/2/3 91/2/3
f 93/2/3 86/2/3 85/2/3
f 94/2/3 86/2/3 93/2/3
f 95/2/3 88/2/3 87/2/3
f 96/2/3 88/2/3 95/2/3
f 97/2/3 90/2/3 89/2/3
f 98/2/3 90/2/3 97/2/3
f 101/1/3 100/1/3 99/1/3
f 102/1/3 100/1/3 101/1/3
f 111/1/3 104/1/3 103/1/3
f 112/1/3 104/1/3 111/1/3
f 113/1/3 106/1/3 105/1/3
f 114/1/3 106/1/3 113/1/3
f 115/1/3 108/1/3 107/1/3
f 116/1/3 108/1/3 115/1/3
f 117/1/3 110/1/3 109/1/3
f 118/1/3 110/1/3 117/1/3
f 119/1/4 120/1/4 121/1/4
f 121/1/4 120/1/4 122/1/4
f 125/1/5 124/1/5 123/1/5
f 126/1/5 124/1/5 125/1/5
f 129/2/5 128/2/5 127/2/5
f 130/2/5 128/2/5 129/2/5
f 133/2/5 132/2/5 131/2/5
f 134/2/5 132/2/5 133/2/5
f 137/2/5 136/2/5 135/2/5
f 138/2/5 136/2/5 137/2/5
f 141/2/5 140/2/5 139/2/5
f 142/2/5 140/2/5 141/2/5
f 145/1/5 144/1/5 143/1/5
f 146/1/5 144/1/5 145/1/5
f 147/2/6 148/2/6 149/2/6
f 149/2/6 148/2/6 150/2/6
f 151/2/6 152/2/6 153/2/6
f 153/2/6 152/2/6 154/2/6
f 155/2/6 156/2/6 157/2/6
f 157/2/6 156/2/6 158/2/6
f 159/2/6 160/2/6 161/2/6
f 161/2/6 160/2/6 162/2/6
f 163/2/6 164/2/6 165/2/6
f 165/2/6 164/2/6 166/2/6
f 167/2/6 168/2/6 169/2/6
f 169/2/6 168/2/6 170/2/6
f 171/2/6 172/2/6 173/2/6
f 173/2/6 172/2/6 174/2/6
f 175/2/6 176/2/6 177/2/6
f 177/2/6 176/2/6 178/2/6
f 179/1/6 180/1/6 181/1/6
f 181/1/6 180/1/6 182/1/6
