# MagicaVoxel @ Ephtracy

# group
o 

# material
mtllib WallsSimpleV1Front.mtl
usemtl palette

# normals
vn -1 0 0
vn 1 0 0
vn 0 0 1
vn 0 0 -1
vn 0 -1 0
vn 0 1 0

# texcoords
vt 0.0371094 0.5
vt 0.533203 0.5
vt 0.537109 0.5
vt 0.966797 0.5
vt 0.974609 0.5
vt 0.978516 0.5
vt 0.982422 0.5
vt 0.986328 0.5

# verts
v -0.8 0 0.8
v -0.8 0 -0.8
v -0.8 0.1 0.8
v -0.8 0.1 -0.8
v -0.8 0.5 0.8
v -0.8 0.5 -0.8
v -0.8 1.4 0.8
v -0.8 1.4 -0.8
v -0.8 1.5 0.8
v -0.8 1.5 -0.8
v -0.8 3.8 0.8
v -0.8 3.8 -0.8
v -0.8 3.9 0.8
v -0.8 3.9 -0.8
v -0.8 4.7 0.8
v -0.8 4.7 -0.8
v -0.8 4.9 0.8
v -0.8 4.9 -0.8
v -0.7 0.5 0.8
v -0.7 0.5 -0.8
v -0.7 1.4 0.8
v -0.7 1.4 -0.8
v -0.7 3.9 0.8
v -0.7 3.9 -0.8
v -0.7 4.7 0.8
v -0.7 4.7 -0.8
v -0.5 0.1 0.8
v -0.5 0.1 0.6
v -0.5 0.1 0.5
v -0.5 0.1 0
v -0.5 0.1 -0.1
v -0.5 0.1 -0.5
v -0.5 0.1 -0.6
v -0.5 0.1 -0.7
v -0.5 0.1 -0.8
v -0.5 0.3 0.8
v -0.5 0.3 0.6
v -0.5 0.3 0.5
v -0.5 0.3 0
v -0.5 0.3 -0.1
v -0.5 0.3 -0.5
v -0.5 0.3 -0.6
v -0.5 0.3 -0.8
v -0.5 0.4 0.8
v -0.5 0.4 0.4
v -0.5 0.4 0.3
v -0.5 0.4 -0.1
v -0.5 0.4 -0.2
v -0.5 0.4 -0.7
v -0.5 0.6 0.8
v -0.5 0.6 0.4
v -0.5 0.6 0.3
v -0.5 0.6 -0.1
v -0.5 0.6 -0.2
v -0.5 0.6 -0.7
v -0.5 0.7 0.8
v -0.5 0.7 0.6
v -0.5 0.7 0.5
v -0.5 0.7 0
v -0.5 0.7 -0.1
v -0.5 0.7 -0.5
v -0.5 0.7 -0.6
v -0.5 0.7 -0.8
v -0.5 0.9 0.8
v -0.5 0.9 0.6
v -0.5 0.9 0.5
v -0.5 0.9 0
v -0.5 0.9 -0.1
v -0.5 0.9 -0.5
v -0.5 0.9 -0.6
v -0.5 0.9 -0.8
v -0.5 1 0.8
v -0.5 1 0.4
v -0.5 1 0.3
v -0.5 1 -0.1
v -0.5 1 -0.2
v -0.5 1 -0.7
v -0.5 1.2 0.8
v -0.5 1.2 0.4
v -0.5 1.2 0.3
v -0.5 1.2 -0.1
v -0.5 1.2 -0.2
v -0.5 1.2 -0.7
v -0.5 1.3 0.8
v -0.5 1.3 0.6
v -0.5 1.3 0.5
v -0.5 1.3 0
v -0.5 1.3 -0.1
v -0.5 1.3 -0.5
v -0.5 1.3 -0.6
v -0.5 1.3 -0.8
v -0.5 1.4 0.8
v -0.5 1.4 0.6
v -0.5 1.4 0.5
v -0.5 1.4 0
v -0.5 1.4 -0.1
v -0.5 1.4 -0.5
v -0.5 1.4 -0.6
v -0.5 1.4 -0.8
v -0.5 3.9 0.8
v -0.5 3.9 -0.8
v -0.5 4 0.8
v -0.5 4 0.4
v -0.5 4 0.3
v -0.5 4 -0.1
v -0.5 4 -0.2
v -0.5 4 -0.7
v -0.5 4.2 0.8
v -0.5 4.2 0.4
v -0.5 4.2 0.3
v -0.5 4.2 -0.1
v -0.5 4.2 -0.2
v -0.5 4.2 -0.7
v -0.5 4.3 0.8
v -0.5 4.3 0.6
v -0.5 4.3 0.5
v -0.5 4.3 0
v -0.5 4.3 -0.1
v -0.5 4.3 -0.5
v -0.5 4.3 -0.6
v -0.5 4.3 -0.8
v -0.5 4.5 0.8
v -0.5 4.5 0.6
v -0.5 4.5 0.5
v -0.5 4.5 0
v -0.5 4.5 -0.1
v -0.5 4.5 -0.5
v -0.5 4.5 -0.6
v -0.5 4.5 -0.8
v -0.5 4.6 0.8
v -0.5 4.6 0.4
v -0.5 4.6 0.3
v -0.5 4.6 -0.1
v -0.5 4.6 -0.2
v -0.5 4.6 -0.7
v -0.5 4.8 0.8
v -0.5 4.8 0.4
v -0.5 4.8 0.3
v -0.5 4.8 -0.1
v -0.5 4.8 -0.2
v -0.5 4.8 -0.7
v -0.5 4.8 -0.8
v -0.4 1.4 0.8
v -0.4 1.4 -0.8
v -0.4 1.5 0.8
v -0.4 1.5 -0.8
v -0.4 3.8 0.8
v -0.4 3.8 -0.8
v -0.4 3.9 0.8
v -0.4 3.9 -0.8
v -0.4 4.8 0.8
v -0.4 4.8 -0.8
v -0.4 4.9 0.8
v -0.4 4.9 -0.8
v 0.8 0 0.8
v 0.8 0 -0.8
v 0.8 0.1 0.8
v 0.8 0.1 -0.8
v -0.8 0 0.8
v -0.8 0.1 0.8
v -0.8 0.5 0.8
v -0.8 1.4 0.8
v -0.8 1.5 0.8
v -0.8 3.8 0.8
v -0.8 3.9 0.8
v -0.8 4.7 0.8
v -0.8 4.9 0.8
v -0.7 0.1 0.8
v -0.7 0.5 0.8
v -0.7 1.4 0.8
v -0.7 3.9 0.8
v -0.7 4.7 0.8
v -0.7 4.8 0.8
v -0.7 4.9 0.8
v -0.6 0 0.8
v -0.6 0.1 0.8
v -0.6 0.3 0.8
v -0.6 0.4 0.8
v -0.6 0.6 0.8
v -0.6 0.7 0.8
v -0.6 0.9 0.8
v -0.6 1 0.8
v -0.6 1.2 0.8
v -0.6 1.3 0.8
v -0.6 1.4 0.8
v -0.6 3.9 0.8
v -0.6 4 0.8
v -0.6 4.2 0.8
v -0.6 4.3 0.8
v -0.6 4.5 0.8
v -0.6 4.6 0.8
v -0.6 4.8 0.8
v -0.6 4.9 0.8
v -0.5 0.1 0.8
v -0.5 0.3 0.8
v -0.5 0.4 0.8
v -0.5 0.6 0.8
v -0.5 0.7 0.8
v -0.5 0.9 0.8
v -0.5 1 0.8
v -0.5 1.2 0.8
v -0.5 1.3 0.8
v -0.5 1.4 0.8
v -0.5 3.9 0.8
v -0.5 4 0.8
v -0.5 4.2 0.8
v -0.5 4.3 0.8
v -0.5 4.5 0.8
v -0.5 4.6 0.8
v -0.5 4.8 0.8
v -0.5 4.9 0.8
v -0.4 1.4 0.8
v -0.4 1.5 0.8
v -0.4 3.8 0.8
v -0.4 3.9 0.8
v -0.4 4.8 0.8
v -0.4 4.9 0.8
v 0.7 0 0.8
v 0.7 0.1 0.8
v 0.8 0 0.8
v 0.8 0.1 0.8
v -0.8 0 -0.8
v -0.8 0.1 -0.8
v -0.8 0.5 -0.8
v -0.8 1.4 -0.8
v -0.8 1.5 -0.8
v -0.8 3.8 -0.8
v -0.8 3.9 -0.8
v -0.8 4.7 -0.8
v -0.8 4.9 -0.8
v -0.7 0.1 -0.8
v -0.7 0.5 -0.8
v -0.7 1.4 -0.8
v -0.7 3.9 -0.8
v -0.7 4.7 -0.8
v -0.7 4.8 -0.8
v -0.7 4.9 -0.8
v -0.6 0 -0.8
v -0.6 0.1 -0.8
v -0.6 0.3 -0.8
v -0.6 0.7 -0.8
v -0.6 0.9 -0.8
v -0.6 1.3 -0.8
v -0.6 1.4 -0.8
v -0.6 3.9 -0.8
v -0.6 4.3 -0.8
v -0.6 4.5 -0.8
v -0.6 4.8 -0.8
v -0.6 4.9 -0.8
v -0.5 0 -0.8
v -0.5 0.1 -0.8
v -0.5 0.3 -0.8
v -0.5 0.7 -0.8
v -0.5 0.9 -0.8
v -0.5 1.3 -0.8
v -0.5 1.4 -0.8
v -0.5 3.9 -0.8
v -0.5 4.3 -0.8
v -0.5 4.5 -0.8
v -0.5 4.8 -0.8
v -0.5 4.9 -0.8
v -0.4 1.4 -0.8
v -0.4 1.5 -0.8
v -0.4 3.8 -0.8
v -0.4 3.9 -0.8
v -0.4 4.8 -0.8
v -0.4 4.9 -0.8
v 0.8 0 -0.8
v 0.8 0.1 -0.8
v -0.8 0 0.8
v -0.6 0 0.8
v 0.7 0 0.8
v 0.8 0 0.8
v -0.5 0 -0.7
v 0.7 0 -0.7
v -0.8 0 -0.8
v -0.6 0 -0.8
v -0.5 0 -0.8
v 0.8 0 -0.8
v -0.8 1.4 0.8
v -0.7 1.4 0.8
v -0.5 1.4 0.8
v -0.4 1.4 0.8
v -0.5 1.4 0.6
v -0.5 1.4 0.5
v -0.5 1.4 0
v -0.5 1.4 -0.1
v -0.5 1.4 -0.5
v -0.5 1.4 -0.6
v -0.8 1.4 -0.8
v -0.7 1.4 -0.8
v -0.5 1.4 -0.8
v -0.4 1.4 -0.8
v -0.8 3.8 0.8
v -0.4 3.8 0.8
v -0.8 3.8 -0.8
v -0.4 3.8 -0.8
v -0.8 4.7 0.8
v -0.7 4.7 0.8
v -0.8 4.7 -0.8
v -0.7 4.7 -0.8
v -0.5 4.8 0.8
v -0.4 4.8 0.8
v -0.5 4.8 0.4
v -0.5 4.8 0.3
v -0.5 4.8 -0.1
v -0.5 4.8 -0.2
v -0.5 4.8 -0.7
v -0.5 4.8 -0.8
v -0.4 4.8 -0.8
v -0.5 0.1 0.8
v 0.7 0.1 0.8
v 0.8 0.1 0.8
v -0.5 0.1 0.6
v -0.5 0.1 0.5
v -0.5 0.1 0
v -0.5 0.1 -0.1
v -0.5 0.1 -0.5
v -0.5 0.1 -0.6
v -0.5 0.1 -0.7
v 0.7 0.1 -0.7
v -0.5 0.1 -0.8
v 0.8 0.1 -0.8
v -0.8 0.5 0.8
v -0.7 0.5 0.8
v -0.8 0.5 -0.8
v -0.7 0.5 -0.8
v -0.8 1.5 0.8
v -0.4 1.5 0.8
v -0.8 1.5 -0.8
v -0.4 1.5 -0.8
v -0.8 3.9 0.8
v -0.7 3.9 0.8
v -0.5 3.9 0.8
v -0.4 3.9 0.8
v -0.8 3.9 -0.8
v -0.7 3.9 -0.8
v -0.5 3.9 -0.8
v -0.4 3.9 -0.8
v -0.8 4.9 0.8
v -0.7 4.9 0.8
v -0.6 4.9 0.8
v -0.5 4.9 0.8
v -0.4 4.9 0.8
v -0.8 4.9 -0.8
v -0.7 4.9 -0.8
v -0.6 4.9 -0.8
v -0.5 4.9 -0.8
v -0.4 4.9 -0.8

# faces
f 3/6/1 2/6/1 1/6/1
f 4/6/1 2/6/1 3/6/1
f 5/4/1 4/4/1 3/4/1
f 6/4/1 4/4/1 5/4/1
f 9/8/1 8/8/1 7/8/1
f 10/8/1 8/8/1 9/8/1
f 13/8/1 12/8/1 11/8/1
f 14/8/1 12/8/1 13/8/1
f 17/4/1 16/4/1 15/4/1
f 18/4/1 16/4/1 17/4/1
f 21/1/1 20/1/1 19/1/1
f 22/1/1 20/1/1 21/1/1
f 25/1/1 24/1/1 23/1/1
f 26/1/1 24/1/1 25/1/1
f 27/2/2 28/2/2 36/2/2
f 28/6/2 29/6/2 37/6/2
f 36/2/2 28/2/2 37/2/2
f 29/3/2 30/3/2 38/3/2
f 37/6/2 29/6/2 38/6/2
f 30/6/2 31/6/2 39/6/2
f 38/3/2 30/3/2 39/3/2
f 31/2/2 32/2/2 40/2/2
f 39/6/2 31/6/2 40/6/2
f 32/6/2 33/6/2 41/6/2
f 40/2/2 32/2/2 41/2/2
f 34/2/2 35/2/2 42/2/2
f 41/6/2 33/6/2 42/6/2
f 33/2/2 34/2/2 42/2/2
f 42/2/2 35/2/2 43/2/2
f 40/6/2 41/6/2 44/6/2
f 36/6/2 37/6/2 44/6/2
f 42/6/2 43/6/2 44/6/2
f 41/6/2 42/6/2 44/6/2
f 39/6/2 40/6/2 44/6/2
f 38/6/2 39/6/2 44/6/2
f 37/6/2 38/6/2 44/6/2
f 44/6/2 43/6/2 45/6/2
f 45/6/2 43/6/2 46/6/2
f 46/6/2 43/6/2 47/6/2
f 47/6/2 43/6/2 48/6/2
f 48/6/2 43/6/2 49/6/2
f 44/3/2 45/3/2 50/3/2
f 45/6/2 46/6/2 51/6/2
f 50/3/2 45/3/2 51/3/2
f 46/2/2 47/2/2 52/2/2
f 51/6/2 46/6/2 52/6/2
f 47/6/2 48/6/2 53/6/2
f 52/2/2 47/2/2 53/2/2
f 48/3/2 49/3/2 54/3/2
f 53/6/2 48/6/2 54/6/2
f 49/6/2 43/6/2 55/6/2
f 54/3/2 49/3/2 55/3/2
f 53/6/2 54/6/2 56/6/2
f 50/6/2 51/6/2 56/6/2
f 54/6/2 55/6/2 56/6/2
f 52/6/2 53/6/2 56/6/2
f 51/6/2 52/6/2 56/6/2
f 56/6/2 55/6/2 57/6/2
f 57/6/2 55/6/2 58/6/2
f 58/6/2 55/6/2 59/6/2
f 59/6/2 55/6/2 60/6/2
f 60/6/2 55/6/2 61/6/2
f 61/6/2 55/6/2 62/6/2
f 55/6/2 43/6/2 63/6/2
f 62/6/2 55/6/2 63/6/2
f 56/2/2 57/2/2 64/2/2
f 57/6/2 58/6/2 65/6/2
f 64/2/2 57/2/2 65/2/2
f 58/3/2 59/3/2 66/3/2
f 65/6/2 58/6/2 66/6/2
f 59/6/2 60/6/2 67/6/2
f 66/3/2 59/3/2 67/3/2
f 60/2/2 61/2/2 68/2/2
f 67/6/2 60/6/2 68/6/2
f 61/6/2 62/6/2 69/6/2
f 68/2/2 61/2/2 69/2/2
f 62/2/2 63/2/2 70/2/2
f 69/6/2 62/6/2 70/6/2
f 70/2/2 63/2/2 71/2/2
f 67/6/2 68/6/2 72/6/2
f 64/6/2 65/6/2 72/6/2
f 70/6/2 71/6/2 72/6/2
f 69/6/2 70/6/2 72/6/2
f 68/6/2 69/6/2 72/6/2
f 66/6/2 67/6/2 72/6/2
f 65/6/2 66/6/2 72/6/2
f 72/6/2 71/6/2 73/6/2
f 73/6/2 71/6/2 74/6/2
f 74/6/2 71/6/2 75/6/2
f 75/6/2 71/6/2 76/6/2
f 76/6/2 71/6/2 77/6/2
f 72/3/2 73/3/2 78/3/2
f 73/6/2 74/6/2 79/6/2
f 78/3/2 73/3/2 79/3/2
f 74/2/2 75/2/2 80/2/2
f 79/6/2 74/6/2 80/6/2
f 75/6/2 76/6/2 81/6/2
f 80/2/2 75/2/2 81/2/2
f 76/3/2 77/3/2 82/3/2
f 81/6/2 76/6/2 82/6/2
f 77/6/2 71/6/2 83/6/2
f 82/3/2 77/3/2 83/3/2
f 81/6/2 82/6/2 84/6/2
f 78/6/2 79/6/2 84/6/2
f 82/6/2 83/6/2 84/6/2
f 80/6/2 81/6/2 84/6/2
f 79/6/2 80/6/2 84/6/2
f 84/6/2 83/6/2 85/6/2
f 85/6/2 83/6/2 86/6/2
f 86/6/2 83/6/2 87/6/2
f 87/6/2 83/6/2 88/6/2
f 88/6/2 83/6/2 89/6/2
f 89/6/2 83/6/2 90/6/2
f 83/6/2 71/6/2 91/6/2
f 90/6/2 83/6/2 91/6/2
f 84/2/2 85/2/2 92/2/2
f 85/6/2 86/6/2 93/6/2
f 92/2/2 85/2/2 93/2/2
f 86/3/2 87/3/2 94/3/2
f 93/6/2 86/6/2 94/6/2
f 87/6/2 88/6/2 95/6/2
f 94/3/2 87/3/2 95/3/2
f 88/2/2 89/2/2 96/2/2
f 95/6/2 88/6/2 96/6/2
f 89/6/2 90/6/2 97/6/2
f 96/2/2 89/2/2 97/2/2
f 90/2/2 91/2/2 98/2/2
f 97/6/2 90/6/2 98/6/2
f 98/2/2 91/2/2 99/2/2
f 100/6/2 101/6/2 102/6/2
f 102/6/2 101/6/2 103/6/2
f 103/6/2 101/6/2 104/6/2
f 104/6/2 101/6/2 105/6/2
f 105/6/2 101/6/2 106/6/2
f 106/6/2 101/6/2 107/6/2
f 102/3/2 103/3/2 108/3/2
f 103/6/2 104/6/2 109/6/2
f 108/3/2 103/3/2 109/3/2
f 104/2/2 105/2/2 110/2/2
f 109/6/2 104/6/2 110/6/2
f 105/6/2 106/6/2 111/6/2
f 110/2/2 105/2/2 111/2/2
f 106/3/2 107/3/2 112/3/2
f 111/6/2 106/6/2 112/6/2
f 107/6/2 101/6/2 113/6/2
f 112/3/2 107/3/2 113/3/2
f 111/6/2 112/6/2 114/6/2
f 108/6/2 109/6/2 114/6/2
f 112/6/2 113/6/2 114/6/2
f 110/6/2 111/6/2 114/6/2
f 109/6/2 110/6/2 114/6/2
f 114/6/2 113/6/2 115/6/2
f 115/6/2 113/6/2 116/6/2
f 116/6/2 113/6/2 117/6/2
f 117/6/2 113/6/2 118/6/2
f 118/6/2 113/6/2 119/6/2
f 119/6/2 113/6/2 120/6/2
f 113/6/2 101/6/2 121/6/2
f 120/6/2 113/6/2 121/6/2
f 114/2/2 115/2/2 122/2/2
f 115/6/2 116/6/2 123/6/2
f 122/2/2 115/2/2 123/2/2
f 116/3/2 117/3/2 124/3/2
f 123/6/2 116/6/2 124/6/2
f 117/6/2 118/6/2 125/6/2
f 124/3/2 117/3/2 125/3/2
f 118/2/2 119/2/2 126/2/2
f 125/6/2 118/6/2 126/6/2
f 119/6/2 120/6/2 127/6/2
f 126/2/2 119/2/2 127/2/2
f 120/2/2 121/2/2 128/2/2
f 127/6/2 120/6/2 128/6/2
f 128/2/2 121/2/2 129/2/2
f 125/6/2 126/6/2 130/6/2
f 122/6/2 123/6/2 130/6/2
f 128/6/2 129/6/2 130/6/2
f 127/6/2 128/6/2 130/6/2
f 126/6/2 127/6/2 130/6/2
f 124/6/2 125/6/2 130/6/2
f 123/6/2 124/6/2 130/6/2
f 130/6/2 129/6/2 131/6/2
f 131/6/2 129/6/2 132/6/2
f 132/6/2 129/6/2 133/6/2
f 133/6/2 129/6/2 134/6/2
f 134/6/2 129/6/2 135/6/2
f 130/3/2 131/3/2 136/3/2
f 131/6/2 132/6/2 137/6/2
f 136/3/2 131/3/2 137/3/2
f 132/2/2 133/2/2 138/2/2
f 137/6/2 132/6/2 138/6/2
f 133/6/2 134/6/2 139/6/2
f 138/2/2 133/2/2 139/2/2
f 134/3/2 135/3/2 140/3/2
f 139/6/2 134/6/2 140/6/2
f 135/6/2 129/6/2 141/6/2
f 140/3/2 135/3/2 141/3/2
f 141/6/2 129/6/2 142/6/2
f 143/8/2 144/8/2 145/8/2
f 145/8/2 144/8/2 146/8/2
f 147/8/2 148/8/2 149/8/2
f 149/8/2 148/8/2 150/8/2
f 151/8/2 152/8/2 153/8/2
f 153/8/2 152/8/2 154/8/2
f 155/7/2 156/7/2 157/7/2
f 157/7/2 156/7/2 158/7/2
f 168/6/3 160/6/3 159/6/3
f 168/4/3 161/4/3 160/4/3
f 169/4/3 161/4/3 168/4/3
f 170/8/3 163/8/3 162/8/3
f 171/8/3 165/8/3 164/8/3
f 172/4/3 167/4/3 166/4/3
f 173/4/3 167/4/3 172/4/3
f 174/4/3 167/4/3 173/4/3
f 175/6/3 168/6/3 159/6/3
f 176/1/3 170/1/3 169/1/3
f 176/6/3 168/6/3 175/6/3
f 176/1/3 169/1/3 168/1/3
f 177/1/3 170/1/3 176/1/3
f 178/1/3 170/1/3 177/1/3
f 179/1/3 170/1/3 178/1/3
f 180/1/3 170/1/3 179/1/3
f 181/1/3 170/1/3 180/1/3
f 182/1/3 170/1/3 181/1/3
f 183/1/3 170/1/3 182/1/3
f 184/1/3 170/1/3 183/1/3
f 185/8/3 163/8/3 170/8/3
f 185/1/3 170/1/3 184/1/3
f 186/8/3 171/8/3 164/8/3
f 186/1/3 172/1/3 171/1/3
f 186/1/3 173/1/3 172/1/3
f 187/1/3 173/1/3 186/1/3
f 188/1/3 173/1/3 187/1/3
f 189/1/3 173/1/3 188/1/3
f 190/1/3 173/1/3 189/1/3
f 191/1/3 173/1/3 190/1/3
f 192/5/3 174/5/3 173/5/3
f 192/1/3 173/1/3 191/1/3
f 193/5/3 174/5/3 192/5/3
f 194/5/3 176/5/3 175/5/3
f 194/2/3 177/2/3 176/2/3
f 195/6/3 178/6/3 177/6/3
f 195/2/3 177/2/3 194/2/3
f 196/3/3 179/3/3 178/3/3
f 196/6/3 178/6/3 195/6/3
f 197/6/3 180/6/3 179/6/3
f 197/3/3 179/3/3 196/3/3
f 198/2/3 181/2/3 180/2/3
f 198/6/3 180/6/3 197/6/3
f 199/6/3 182/6/3 181/6/3
f 199/2/3 181/2/3 198/2/3
f 200/3/3 183/3/3 182/3/3
f 200/6/3 182/6/3 199/6/3
f 201/6/3 184/6/3 183/6/3
f 201/3/3 183/3/3 200/3/3
f 202/2/3 185/2/3 184/2/3
f 202/6/3 184/6/3 201/6/3
f 203/8/3 163/8/3 185/8/3
f 203/2/3 185/2/3 202/2/3
f 204/8/3 186/8/3 164/8/3
f 204/6/3 187/6/3 186/6/3
f 205/3/3 188/3/3 187/3/3
f 205/6/3 187/6/3 204/6/3
f 206/6/3 189/6/3 188/6/3
f 206/3/3 188/3/3 205/3/3
f 207/2/3 190/2/3 189/2/3
f 207/6/3 189/6/3 206/6/3
f 208/6/3 191/6/3 190/6/3
f 208/2/3 190/2/3 207/2/3
f 209/3/3 192/3/3 191/3/3
f 209/6/3 191/6/3 208/6/3
f 210/6/3 193/6/3 192/6/3
f 210/3/3 192/3/3 209/3/3
f 211/6/3 193/6/3 210/6/3
f 212/8/3 163/8/3 203/8/3
f 213/8/3 163/8/3 212/8/3
f 214/8/3 204/8/3 164/8/3
f 215/8/3 204/8/3 214/8/3
f 216/8/3 211/8/3 210/8/3
f 217/8/3 211/8/3 216/8/3
f 218/5/3 194/5/3 175/5/3
f 219/5/3 194/5/3 218/5/3
f 220/7/3 219/7/3 218/7/3
f 221/7/3 219/7/3 220/7/3
f 222/6/4 223/6/4 231/6/4
f 223/4/4 224/4/4 231/4/4
f 231/4/4 224/4/4 232/4/4
f 225/8/4 226/8/4 233/8/4
f 227/8/4 228/8/4 234/8/4
f 229/4/4 230/4/4 235/4/4
f 235/4/4 230/4/4 236/4/4
f 236/4/4 230/4/4 237/4/4
f 222/6/4 231/6/4 238/6/4
f 232/1/4 233/1/4 239/1/4
f 238/6/4 231/6/4 239/6/4
f 231/1/4 232/1/4 239/1/4
f 239/1/4 233/1/4 240/1/4
f 240/1/4 233/1/4 241/1/4
f 241/1/4 233/1/4 242/1/4
f 242/1/4 233/1/4 243/1/4
f 233/8/4 226/8/4 244/8/4
f 243/1/4 233/1/4 244/1/4
f 227/8/4 234/8/4 245/8/4
f 234/1/4 235/1/4 245/1/4
f 235/1/4 236/1/4 245/1/4
f 245/1/4 236/1/4 246/1/4
f 246/1/4 236/1/4 247/1/4
f 236/5/4 237/5/4 248/5/4
f 247/1/4 236/1/4 248/1/4
f 248/5/4 237/5/4 249/5/4
f 238/5/4 239/5/4 250/5/4
f 239/2/4 240/2/4 251/2/4
f 250/5/4 239/5/4 251/5/4
f 240/6/4 241/6/4 252/6/4
f 251/2/4 240/2/4 252/2/4
f 241/2/4 242/2/4 253/2/4
f 252/6/4 241/6/4 253/6/4
f 242/6/4 243/6/4 254/6/4
f 253/2/4 242/2/4 254/2/4
f 243/2/4 244/2/4 255/2/4
f 254/6/4 243/6/4 255/6/4
f 244/8/4 226/8/4 256/8/4
f 255/2/4 244/2/4 256/2/4
f 227/8/4 245/8/4 257/8/4
f 245/6/4 246/6/4 257/6/4
f 246/2/4 247/2/4 258/2/4
f 257/6/4 246/6/4 258/6/4
f 247/6/4 248/6/4 259/6/4
f 258/2/4 247/2/4 259/2/4
f 248/6/4 249/6/4 259/6/4
f 259/6/4 249/6/4 260/6/4
f 260/6/4 249/6/4 261/6/4
f 256/8/4 226/8/4 262/8/4
f 262/8/4 226/8/4 263/8/4
f 227/8/4 257/8/4 264/8/4
f 264/8/4 257/8/4 265/8/4
f 260/8/4 261/8/4 266/8/4
f 266/8/4 261/8/4 267/8/4
f 250/7/4 251/7/4 268/7/4
f 268/7/4 251/7/4 269/7/4
f 274/5/5 272/5/5 271/5/5
f 275/7/5 273/7/5 272/7/5
f 275/5/5 272/5/5 274/5/5
f 276/6/5 271/6/5 270/6/5
f 277/5/5 274/5/5 271/5/5
f 277/6/5 271/6/5 276/6/5
f 278/7/5 275/7/5 274/7/5
f 278/5/5 274/5/5 277/5/5
f 279/7/5 273/7/5 275/7/5
f 279/7/5 275/7/5 278/7/5
f 284/8/5 283/8/5 282/8/5
f 285/8/5 283/8/5 284/8/5
f 286/8/5 283/8/5 285/8/5
f 287/8/5 283/8/5 286/8/5
f 288/8/5 283/8/5 287/8/5
f 289/8/5 283/8/5 288/8/5
f 290/8/5 281/8/5 280/8/5
f 291/8/5 281/8/5 290/8/5
f 292/8/5 283/8/5 289/8/5
f 293/8/5 283/8/5 292/8/5
f 296/8/5 295/8/5 294/8/5
f 297/8/5 295/8/5 296/8/5
f 300/4/5 299/4/5 298/4/5
f 301/4/5 299/4/5 300/4/5
f 304/8/5 303/8/5 302/8/5
f 305/8/5 303/8/5 304/8/5
f 306/8/5 303/8/5 305/8/5
f 307/8/5 303/8/5 306/8/5
f 308/8/5 303/8/5 307/8/5
f 309/8/5 303/8/5 308/8/5
f 310/8/5 303/8/5 309/8/5
f 311/5/6 312/5/6 314/5/6
f 314/5/6 312/5/6 315/5/6
f 315/5/6 312/5/6 316/5/6
f 316/5/6 312/5/6 317/5/6
f 317/5/6 312/5/6 318/5/6
f 318/5/6 312/5/6 319/5/6
f 319/5/6 312/5/6 320/5/6
f 312/7/6 313/7/6 321/7/6
f 320/5/6 312/5/6 321/5/6
f 320/7/6 321/7/6 322/7/6
f 321/7/6 313/7/6 323/7/6
f 322/7/6 321/7/6 323/7/6
f 324/4/6 325/4/6 326/4/6
f 326/4/6 325/4/6 327/4/6
f 328/8/6 329/8/6 330/8/6
f 330/8/6 329/8/6 331/8/6
f 332/8/6 333/8/6 336/8/6
f 336/8/6 333/8/6 337/8/6
f 334/8/6 335/8/6 338/8/6
f 338/8/6 335/8/6 339/8/6
f 340/4/6 341/4/6 345/4/6
f 341/5/6 342/5/6 346/5/6
f 345/4/6 341/4/6 346/4/6
f 342/6/6 343/6/6 347/6/6
f 346/5/6 342/5/6 347/5/6
f 343/8/6 344/8/6 348/8/6
f 347/6/6 343/6/6 348/6/6
f 348/8/6 344/8/6 349/8/6
