# MagicaVoxel @ Ephtracy

# group
o 

# material
mtllib WallsSimpleV1Corner.mtl
usemtl palette

# normals
vn -1 0 0
vn 1 0 0
vn 0 0 1
vn 0 0 -1
vn 0 -1 0
vn 0 1 0

# texcoords
vt 0.0371094 0.5
vt 0.533203 0.5
vt 0.537109 0.5
vt 0.962891 0.5
vt 0.966797 0.5
vt 0.974609 0.5
vt 0.978516 0.5

# verts
v -0.8 0 0.8
v -0.8 0 0.7
v -0.8 0 0.6
v -0.8 0 0.5
v -0.8 0.2 0.6
v -0.8 0.2 0.5
v -0.8 0.3 0.6
v -0.8 0.3 0.5
v -0.8 0.4 0.8
v -0.8 0.4 0.7
v -0.8 0.5 0.6
v -0.8 0.5 0.5
v -0.8 0.6 0.6
v -0.8 0.6 0.5
v -0.8 0.8 0.6
v -0.8 0.8 0.5
v -0.8 0.9 0.6
v -0.8 0.9 0.5
v -0.8 1.1 0.6
v -0.8 1.1 0.5
v -0.8 1.2 0.6
v -0.8 1.2 0.5
v -0.8 1.4 0.6
v -0.8 1.4 0.5
v -0.8 1.5 0.6
v -0.8 1.5 0.5
v -0.8 1.7 0.6
v -0.8 1.7 0.5
v -0.8 1.8 0.6
v -0.8 1.8 0.5
v -0.8 2 0.6
v -0.8 2 0.5
v -0.8 2.1 0.6
v -0.8 2.1 0.5
v -0.8 2.3 0.6
v -0.8 2.3 0.5
v -0.8 2.4 0.6
v -0.8 2.4 0.5
v -0.8 2.6 0.6
v -0.8 2.6 0.5
v -0.8 2.7 0.6
v -0.8 2.7 0.5
v -0.8 2.9 0.6
v -0.8 2.9 0.5
v -0.8 3 0.6
v -0.8 3 0.5
v -0.8 3.2 0.6
v -0.8 3.2 0.5
v -0.8 3.3 0.6
v -0.8 3.3 0.5
v -0.8 3.5 0.6
v -0.8 3.5 0.5
v -0.8 3.6 0.6
v -0.8 3.6 0.5
v -0.8 3.8 0.6
v -0.8 3.8 0.5
v -0.8 3.9 0.6
v -0.8 3.9 0.5
v -0.8 4.1 0.6
v -0.8 4.1 0.5
v -0.8 4.2 0.6
v -0.8 4.2 0.5
v -0.8 4.4 0.6
v -0.8 4.4 0.5
v -0.8 4.5 0.6
v -0.8 4.5 0.5
v -0.8 4.6 0.8
v -0.8 4.6 0.7
v -0.8 4.7 0.7
v -0.8 4.7 0.6
v -0.8 4.7 0.5
v -0.8 4.8 0.8
v -0.8 4.8 0.7
v -0.8 4.8 0.6
v -0.8 4.8 0.5
v -0.7 0.4 0.8
v -0.7 0.4 0.7
v -0.7 4.6 0.8
v -0.7 4.6 0.7
v -0.5 0 0.8
v -0.5 0 0.7
v -0.5 0 0.5
v -0.5 0.2 0.7
v -0.5 0.2 0.5
v -0.5 0.3 0.8
v -0.5 0.3 0.6
v -0.5 0.5 0.8
v -0.5 0.5 0.6
v -0.5 0.6 0.7
v -0.5 0.6 0.5
v -0.5 0.8 0.7
v -0.5 0.8 0.5
v -0.5 0.9 0.8
v -0.5 0.9 0.6
v -0.5 1.1 0.8
v -0.5 1.1 0.6
v -0.5 1.2 0.7
v -0.5 1.2 0.5
v -0.5 1.4 0.7
v -0.5 1.4 0.5
v -0.5 1.5 0.8
v -0.5 1.5 0.6
v -0.5 1.7 0.8
v -0.5 1.7 0.6
v -0.5 1.8 0.7
v -0.5 1.8 0.5
v -0.5 2 0.7
v -0.5 2 0.5
v -0.5 2.1 0.8
v -0.5 2.1 0.6
v -0.5 2.3 0.8
v -0.5 2.3 0.6
v -0.5 2.4 0.7
v -0.5 2.4 0.5
v -0.5 2.6 0.7
v -0.5 2.6 0.5
v -0.5 2.7 0.8
v -0.5 2.7 0.6
v -0.5 2.9 0.8
v -0.5 2.9 0.6
v -0.5 3 0.7
v -0.5 3 0.5
v -0.5 3.2 0.7
v -0.5 3.2 0.5
v -0.5 3.3 0.8
v -0.5 3.3 0.6
v -0.5 3.5 0.8
v -0.5 3.5 0.6
v -0.5 3.6 0.7
v -0.5 3.6 0.5
v -0.5 3.8 0.7
v -0.5 3.8 0.5
v -0.5 3.9 0.8
v -0.5 3.9 0.6
v -0.5 4.1 0.8
v -0.5 4.1 0.6
v -0.5 4.2 0.7
v -0.5 4.2 0.5
v -0.5 4.4 0.7
v -0.5 4.4 0.5
v -0.5 4.5 0.8
v -0.5 4.5 0.6
v -0.5 4.7 0.8
v -0.5 4.7 0.6
v -0.5 4.8 0.8
v -0.5 4.8 0.5
v -0.8 0 0.8
v -0.8 0.4 0.8
v -0.8 4.6 0.8
v -0.8 4.8 0.8
v -0.7 0 0.8
v -0.7 0.4 0.8
v -0.7 4.6 0.8
v -0.7 4.7 0.8
v -0.7 4.8 0.8
v -0.6 0 0.8
v -0.6 0.3 0.8
v -0.6 0.5 0.8
v -0.6 0.9 0.8
v -0.6 1.1 0.8
v -0.6 1.5 0.8
v -0.6 1.7 0.8
v -0.6 2.1 0.8
v -0.6 2.3 0.8
v -0.6 2.7 0.8
v -0.6 2.9 0.8
v -0.6 3.3 0.8
v -0.6 3.5 0.8
v -0.6 3.9 0.8
v -0.6 4.1 0.8
v -0.6 4.5 0.8
v -0.6 4.7 0.8
v -0.6 4.8 0.8
v -0.5 0 0.8
v -0.5 0.3 0.8
v -0.5 0.5 0.8
v -0.5 0.9 0.8
v -0.5 1.1 0.8
v -0.5 1.5 0.8
v -0.5 1.7 0.8
v -0.5 2.1 0.8
v -0.5 2.3 0.8
v -0.5 2.7 0.8
v -0.5 2.9 0.8
v -0.5 3.3 0.8
v -0.5 3.5 0.8
v -0.5 3.9 0.8
v -0.5 4.1 0.8
v -0.5 4.5 0.8
v -0.5 4.7 0.8
v -0.5 4.8 0.8
v -0.8 0.4 0.7
v -0.8 4.6 0.7
v -0.7 0.4 0.7
v -0.7 4.6 0.7
v -0.8 0 0.5
v -0.8 0.2 0.5
v -0.8 0.3 0.5
v -0.8 0.5 0.5
v -0.8 0.6 0.5
v -0.8 0.8 0.5
v -0.8 0.9 0.5
v -0.8 1.1 0.5
v -0.8 1.2 0.5
v -0.8 1.4 0.5
v -0.8 1.5 0.5
v -0.8 1.7 0.5
v -0.8 1.8 0.5
v -0.8 2 0.5
v -0.8 2.1 0.5
v -0.8 2.3 0.5
v -0.8 2.4 0.5
v -0.8 2.6 0.5
v -0.8 2.7 0.5
v -0.8 2.9 0.5
v -0.8 3 0.5
v -0.8 3.2 0.5
v -0.8 3.3 0.5
v -0.8 3.5 0.5
v -0.8 3.6 0.5
v -0.8 3.8 0.5
v -0.8 3.9 0.5
v -0.8 4.1 0.5
v -0.8 4.2 0.5
v -0.8 4.4 0.5
v -0.8 4.5 0.5
v -0.8 4.7 0.5
v -0.8 4.8 0.5
v -0.6 0.3 0.5
v -0.6 0.5 0.5
v -0.6 0.9 0.5
v -0.6 1.1 0.5
v -0.6 1.5 0.5
v -0.6 1.7 0.5
v -0.6 2.1 0.5
v -0.6 2.3 0.5
v -0.6 2.7 0.5
v -0.6 2.9 0.5
v -0.6 3.3 0.5
v -0.6 3.5 0.5
v -0.6 3.9 0.5
v -0.6 4.1 0.5
v -0.6 4.5 0.5
v -0.6 4.7 0.5
v -0.5 0 0.5
v -0.5 0.2 0.5
v -0.5 0.6 0.5
v -0.5 0.8 0.5
v -0.5 1.2 0.5
v -0.5 1.4 0.5
v -0.5 1.8 0.5
v -0.5 2 0.5
v -0.5 2.4 0.5
v -0.5 2.6 0.5
v -0.5 3 0.5
v -0.5 3.2 0.5
v -0.5 3.6 0.5
v -0.5 3.8 0.5
v -0.5 4.2 0.5
v -0.5 4.4 0.5
v -0.5 4.8 0.5
v -0.8 0 0.8
v -0.7 0 0.8
v -0.6 0 0.8
v -0.5 0 0.8
v -0.8 0 0.7
v -0.7 0 0.7
v -0.6 0 0.7
v -0.5 0 0.7
v -0.8 0 0.6
v -0.6 0 0.6
v -0.8 0 0.5
v -0.5 0 0.5
v -0.8 4.6 0.8
v -0.7 4.6 0.8
v -0.8 4.6 0.7
v -0.7 4.6 0.7
v -0.8 0.4 0.8
v -0.7 0.4 0.8
v -0.8 0.4 0.7
v -0.7 0.4 0.7
v -0.8 4.8 0.8
v -0.7 4.8 0.8
v -0.6 4.8 0.8
v -0.5 4.8 0.8
v -0.8 4.8 0.7
v -0.7 4.8 0.7
v -0.8 4.8 0.6
v -0.6 4.8 0.6
v -0.8 4.8 0.5
v -0.5 4.8 0.5

# faces
f 5/1/1 3/1/1 2/1/1
f 5/3/1 4/3/1 3/3/1
f 6/3/1 4/3/1 5/3/1
f 7/1/1 5/1/1 2/1/1
f 7/7/1 6/7/1 5/7/1
f 8/7/1 6/7/1 7/7/1
f 9/4/1 2/4/1 1/4/1
f 10/1/1 7/1/1 2/1/1
f 10/4/1 2/4/1 9/4/1
f 11/2/1 8/2/1 7/2/1
f 11/1/1 7/1/1 10/1/1
f 12/2/1 8/2/1 11/2/1
f 13/1/1 11/1/1 10/1/1
f 13/7/1 12/7/1 11/7/1
f 14/7/1 12/7/1 13/7/1
f 15/1/1 13/1/1 10/1/1
f 15/3/1 14/3/1 13/3/1
f 16/3/1 14/3/1 15/3/1
f 17/1/1 15/1/1 10/1/1
f 17/7/1 16/7/1 15/7/1
f 18/7/1 16/7/1 17/7/1
f 19/1/1 17/1/1 10/1/1
f 19/2/1 18/2/1 17/2/1
f 20/2/1 18/2/1 19/2/1
f 21/1/1 19/1/1 10/1/1
f 21/7/1 20/7/1 19/7/1
f 22/7/1 20/7/1 21/7/1
f 23/1/1 21/1/1 10/1/1
f 23/3/1 22/3/1 21/3/1
f 24/3/1 22/3/1 23/3/1
f 25/1/1 23/1/1 10/1/1
f 25/7/1 24/7/1 23/7/1
f 26/7/1 24/7/1 25/7/1
f 27/1/1 25/1/1 10/1/1
f 27/2/1 26/2/1 25/2/1
f 28/2/1 26/2/1 27/2/1
f 29/1/1 27/1/1 10/1/1
f 29/7/1 28/7/1 27/7/1
f 30/7/1 28/7/1 29/7/1
f 31/1/1 29/1/1 10/1/1
f 31/3/1 30/3/1 29/3/1
f 32/3/1 30/3/1 31/3/1
f 33/1/1 31/1/1 10/1/1
f 33/7/1 32/7/1 31/7/1
f 34/7/1 32/7/1 33/7/1
f 35/1/1 33/1/1 10/1/1
f 35/2/1 34/2/1 33/2/1
f 36/2/1 34/2/1 35/2/1
f 37/1/1 35/1/1 10/1/1
f 37/7/1 36/7/1 35/7/1
f 38/7/1 36/7/1 37/7/1
f 39/1/1 37/1/1 10/1/1
f 39/3/1 38/3/1 37/3/1
f 40/3/1 38/3/1 39/3/1
f 41/1/1 39/1/1 10/1/1
f 41/7/1 40/7/1 39/7/1
f 42/7/1 40/7/1 41/7/1
f 43/1/1 41/1/1 10/1/1
f 43/2/1 42/2/1 41/2/1
f 44/2/1 42/2/1 43/2/1
f 45/1/1 43/1/1 10/1/1
f 45/7/1 44/7/1 43/7/1
f 46/7/1 44/7/1 45/7/1
f 47/1/1 45/1/1 10/1/1
f 47/3/1 46/3/1 45/3/1
f 48/3/1 46/3/1 47/3/1
f 49/1/1 47/1/1 10/1/1
f 49/7/1 48/7/1 47/7/1
f 50/7/1 48/7/1 49/7/1
f 51/1/1 49/1/1 10/1/1
f 51/2/1 50/2/1 49/2/1
f 52/2/1 50/2/1 51/2/1
f 53/1/1 51/1/1 10/1/1
f 53/7/1 52/7/1 51/7/1
f 54/7/1 52/7/1 53/7/1
f 55/1/1 53/1/1 10/1/1
f 55/3/1 54/3/1 53/3/1
f 56/3/1 54/3/1 55/3/1
f 57/1/1 55/1/1 10/1/1
f 57/7/1 56/7/1 55/7/1
f 58/7/1 56/7/1 57/7/1
f 59/1/1 57/1/1 10/1/1
f 59/2/1 58/2/1 57/2/1
f 60/2/1 58/2/1 59/2/1
f 61/1/1 59/1/1 10/1/1
f 61/7/1 60/7/1 59/7/1
f 62/7/1 60/7/1 61/7/1
f 63/1/1 61/1/1 10/1/1
f 63/3/1 62/3/1 61/3/1
f 64/3/1 62/3/1 63/3/1
f 65/1/1 63/1/1 10/1/1
f 65/7/1 64/7/1 63/7/1
f 66/7/1 64/7/1 65/7/1
f 68/1/1 65/1/1 10/1/1
f 69/1/1 65/1/1 68/1/1
f 69/5/1 68/5/1 67/5/1
f 70/2/1 66/2/1 65/2/1
f 70/1/1 65/1/1 69/1/1
f 71/2/1 66/2/1 70/2/1
f 72/5/1 69/5/1 67/5/1
f 73/6/1 70/6/1 69/6/1
f 73/5/1 69/5/1 72/5/1
f 74/7/1 71/7/1 70/7/1
f 74/6/1 70/6/1 73/6/1
f 75/7/1 71/7/1 74/7/1
f 78/1/1 77/1/1 76/1/1
f 79/1/1 77/1/1 78/1/1
f 80/7/2 81/7/2 83/7/2
f 81/3/2 82/3/2 83/3/2
f 83/3/2 82/3/2 84/3/2
f 80/7/2 83/7/2 85/7/2
f 83/7/2 84/7/2 85/7/2
f 85/7/2 84/7/2 86/7/2
f 85/2/2 86/2/2 87/2/2
f 86/7/2 84/7/2 88/7/2
f 87/2/2 86/2/2 88/2/2
f 87/7/2 88/7/2 89/7/2
f 88/7/2 84/7/2 90/7/2
f 89/7/2 88/7/2 90/7/2
f 87/7/2 89/7/2 91/7/2
f 89/3/2 90/3/2 91/3/2
f 91/3/2 90/3/2 92/3/2
f 87/7/2 91/7/2 93/7/2
f 91/7/2 92/7/2 93/7/2
f 93/7/2 92/7/2 94/7/2
f 93/2/2 94/2/2 95/2/2
f 94/7/2 92/7/2 96/7/2
f 95/2/2 94/2/2 96/2/2
f 95/7/2 96/7/2 97/7/2
f 96/7/2 92/7/2 98/7/2
f 97/7/2 96/7/2 98/7/2
f 95/7/2 97/7/2 99/7/2
f 97/3/2 98/3/2 99/3/2
f 99/3/2 98/3/2 100/3/2
f 95/7/2 99/7/2 101/7/2
f 99/7/2 100/7/2 101/7/2
f 101/7/2 100/7/2 102/7/2
f 101/2/2 102/2/2 103/2/2
f 102/7/2 100/7/2 104/7/2
f 103/2/2 102/2/2 104/2/2
f 103/7/2 104/7/2 105/7/2
f 104/7/2 100/7/2 106/7/2
f 105/7/2 104/7/2 106/7/2
f 103/7/2 105/7/2 107/7/2
f 105/3/2 106/3/2 107/3/2
f 107/3/2 106/3/2 108/3/2
f 103/7/2 107/7/2 109/7/2
f 107/7/2 108/7/2 109/7/2
f 109/7/2 108/7/2 110/7/2
f 109/2/2 110/2/2 111/2/2
f 110/7/2 108/7/2 112/7/2
f 111/2/2 110/2/2 112/2/2
f 111/7/2 112/7/2 113/7/2
f 112/7/2 108/7/2 114/7/2
f 113/7/2 112/7/2 114/7/2
f 111/7/2 113/7/2 115/7/2
f 113/3/2 114/3/2 115/3/2
f 115/3/2 114/3/2 116/3/2
f 111/7/2 115/7/2 117/7/2
f 115/7/2 116/7/2 117/7/2
f 117/7/2 116/7/2 118/7/2
f 117/2/2 118/2/2 119/2/2
f 118/7/2 116/7/2 120/7/2
f 119/2/2 118/2/2 120/2/2
f 119/7/2 120/7/2 121/7/2
f 120/7/2 116/7/2 122/7/2
f 121/7/2 120/7/2 122/7/2
f 119/7/2 121/7/2 123/7/2
f 121/3/2 122/3/2 123/3/2
f 123/3/2 122/3/2 124/3/2
f 119/7/2 123/7/2 125/7/2
f 123/7/2 124/7/2 125/7/2
f 125/7/2 124/7/2 126/7/2
f 125/2/2 126/2/2 127/2/2
f 126/7/2 124/7/2 128/7/2
f 127/2/2 126/2/2 128/2/2
f 127/7/2 128/7/2 129/7/2
f 128/7/2 124/7/2 130/7/2
f 129/7/2 128/7/2 130/7/2
f 127/7/2 129/7/2 131/7/2
f 129/3/2 130/3/2 131/3/2
f 131/3/2 130/3/2 132/3/2
f 127/7/2 131/7/2 133/7/2
f 131/7/2 132/7/2 133/7/2
f 133/7/2 132/7/2 134/7/2
f 133/2/2 134/2/2 135/2/2
f 134/7/2 132/7/2 136/7/2
f 135/2/2 134/2/2 136/2/2
f 135/7/2 136/7/2 137/7/2
f 136/7/2 132/7/2 138/7/2
f 137/7/2 136/7/2 138/7/2
f 135/7/2 137/7/2 139/7/2
f 137/3/2 138/3/2 139/3/2
f 139/3/2 138/3/2 140/3/2
f 135/7/2 139/7/2 141/7/2
f 139/7/2 140/7/2 141/7/2
f 141/7/2 140/7/2 142/7/2
f 141/2/2 142/2/2 143/2/2
f 142/7/2 140/7/2 144/7/2
f 143/2/2 142/2/2 144/2/2
f 143/7/2 144/7/2 145/7/2
f 144/7/2 140/7/2 146/7/2
f 145/7/2 144/7/2 146/7/2
f 151/4/3 148/4/3 147/4/3
f 152/4/3 148/4/3 151/4/3
f 153/5/3 150/5/3 149/5/3
f 154/5/3 150/5/3 153/5/3
f 155/5/3 150/5/3 154/5/3
f 156/1/3 152/1/3 151/1/3
f 156/1/3 153/1/3 152/1/3
f 156/1/3 154/1/3 153/1/3
f 157/1/3 154/1/3 156/1/3
f 158/1/3 154/1/3 157/1/3
f 159/1/3 154/1/3 158/1/3
f 160/1/3 154/1/3 159/1/3
f 161/1/3 154/1/3 160/1/3
f 162/1/3 154/1/3 161/1/3
f 163/1/3 154/1/3 162/1/3
f 164/1/3 154/1/3 163/1/3
f 165/1/3 154/1/3 164/1/3
f 166/1/3 154/1/3 165/1/3
f 167/1/3 154/1/3 166/1/3
f 168/1/3 154/1/3 167/1/3
f 169/1/3 154/1/3 168/1/3
f 170/1/3 154/1/3 169/1/3
f 171/1/3 154/1/3 170/1/3
f 172/6/3 155/6/3 154/6/3
f 172/1/3 154/1/3 171/1/3
f 173/6/3 155/6/3 172/6/3
f 174/7/3 157/7/3 156/7/3
f 175/2/3 158/2/3 157/2/3
f 175/7/3 157/7/3 174/7/3
f 176/7/3 159/7/3 158/7/3
f 176/2/3 158/2/3 175/2/3
f 177/2/3 160/2/3 159/2/3
f 177/7/3 159/7/3 176/7/3
f 178/7/3 161/7/3 160/7/3
f 178/2/3 160/2/3 177/2/3
f 179/2/3 162/2/3 161/2/3
f 179/7/3 161/7/3 178/7/3
f 180/7/3 163/7/3 162/7/3
f 180/2/3 162/2/3 179/2/3
f 181/2/3 164/2/3 163/2/3
f 181/7/3 163/7/3 180/7/3
f 182/7/3 165/7/3 164/7/3
f 182/2/3 164/2/3 181/2/3
f 183/2/3 166/2/3 165/2/3
f 183/7/3 165/7/3 182/7/3
f 184/7/3 167/7/3 166/7/3
f 184/2/3 166/2/3 183/2/3
f 185/2/3 168/2/3 167/2/3
f 185/7/3 167/7/3 184/7/3
f 186/7/3 169/7/3 168/7/3
f 186/2/3 168/2/3 185/2/3
f 187/2/3 170/2/3 169/2/3
f 187/7/3 169/7/3 186/7/3
f 188/7/3 171/7/3 170/7/3
f 188/2/3 170/2/3 187/2/3
f 189/2/3 172/2/3 171/2/3
f 189/7/3 171/7/3 188/7/3
f 190/7/3 173/7/3 172/7/3
f 190/2/3 172/2/3 189/2/3
f 191/7/3 173/7/3 190/7/3
f 194/1/3 193/1/3 192/1/3
f 195/1/3 193/1/3 194/1/3
f 197/7/4 198/7/4 229/7/4
f 198/2/4 199/2/4 229/2/4
f 199/7/4 200/7/4 230/7/4
f 229/2/4 199/2/4 230/2/4
f 201/7/4 202/7/4 231/7/4
f 202/2/4 203/2/4 231/2/4
f 203/7/4 204/7/4 232/7/4
f 231/2/4 203/2/4 232/2/4
f 205/7/4 206/7/4 233/7/4
f 206/2/4 207/2/4 233/2/4
f 207/7/4 208/7/4 234/7/4
f 233/2/4 207/2/4 234/2/4
f 209/7/4 210/7/4 235/7/4
f 210/2/4 211/2/4 235/2/4
f 211/7/4 212/7/4 236/7/4
f 235/2/4 211/2/4 236/2/4
f 213/7/4 214/7/4 237/7/4
f 214/2/4 215/2/4 237/2/4
f 215/7/4 216/7/4 238/7/4
f 237/2/4 215/2/4 238/2/4
f 217/7/4 218/7/4 239/7/4
f 218/2/4 219/2/4 239/2/4
f 219/7/4 220/7/4 240/7/4
f 239/2/4 219/2/4 240/2/4
f 221/7/4 222/7/4 241/7/4
f 222/2/4 223/2/4 241/2/4
f 223/7/4 224/7/4 242/7/4
f 241/2/4 223/2/4 242/2/4
f 226/2/4 227/2/4 243/2/4
f 225/7/4 226/7/4 243/7/4
f 227/7/4 228/7/4 244/7/4
f 243/2/4 227/2/4 244/2/4
f 196/3/4 197/3/4 245/3/4
f 197/7/4 229/7/4 246/7/4
f 245/3/4 197/3/4 246/3/4
f 229/7/4 230/7/4 246/7/4
f 200/3/4 201/3/4 247/3/4
f 246/7/4 230/7/4 247/7/4
f 230/7/4 200/7/4 247/7/4
f 201/7/4 231/7/4 248/7/4
f 247/3/4 201/3/4 248/3/4
f 231/7/4 232/7/4 248/7/4
f 204/3/4 205/3/4 249/3/4
f 248/7/4 232/7/4 249/7/4
f 232/7/4 204/7/4 249/7/4
f 205/7/4 233/7/4 250/7/4
f 249/3/4 205/3/4 250/3/4
f 233/7/4 234/7/4 250/7/4
f 208/3/4 209/3/4 251/3/4
f 250/7/4 234/7/4 251/7/4
f 234/7/4 208/7/4 251/7/4
f 209/7/4 235/7/4 252/7/4
f 251/3/4 209/3/4 252/3/4
f 235/7/4 236/7/4 252/7/4
f 212/3/4 213/3/4 253/3/4
f 252/7/4 236/7/4 253/7/4
f 236/7/4 212/7/4 253/7/4
f 213/7/4 237/7/4 254/7/4
f 253/3/4 213/3/4 254/3/4
f 237/7/4 238/7/4 254/7/4
f 216/3/4 217/3/4 255/3/4
f 254/7/4 238/7/4 255/7/4
f 238/7/4 216/7/4 255/7/4
f 239/7/4 240/7/4 256/7/4
f 255/3/4 217/3/4 256/3/4
f 217/7/4 239/7/4 256/7/4
f 240/7/4 220/7/4 257/7/4
f 256/7/4 240/7/4 257/7/4
f 220/3/4 221/3/4 257/3/4
f 241/7/4 242/7/4 258/7/4
f 257/3/4 221/3/4 258/3/4
f 221/7/4 241/7/4 258/7/4
f 242/7/4 224/7/4 259/7/4
f 258/7/4 242/7/4 259/7/4
f 224/3/4 225/3/4 259/3/4
f 225/7/4 243/7/4 260/7/4
f 259/3/4 225/3/4 260/3/4
f 243/7/4 244/7/4 260/7/4
f 244/7/4 228/7/4 261/7/4
f 260/7/4 244/7/4 261/7/4
f 266/4/5 263/4/5 262/4/5
f 267/1/5 264/1/5 263/1/5
f 267/4/5 263/4/5 266/4/5
f 268/7/5 265/7/5 264/7/5
f 268/1/5 264/1/5 267/1/5
f 269/7/5 265/7/5 268/7/5
f 270/1/5 267/1/5 266/1/5
f 270/1/5 268/1/5 267/1/5
f 271/3/5 269/3/5 268/3/5
f 271/1/5 268/1/5 270/1/5
f 272/3/5 271/3/5 270/3/5
f 273/3/5 269/3/5 271/3/5
f 273/3/5 271/3/5 272/3/5
f 276/5/5 275/5/5 274/5/5
f 277/5/5 275/5/5 276/5/5
f 278/4/6 279/4/6 280/4/6
f 280/4/6 279/4/6 281/4/6
f 282/5/6 283/5/6 286/5/6
f 283/6/6 284/6/6 287/6/6
f 286/5/6 283/5/6 287/5/6
f 286/6/6 287/6/6 288/6/6
f 284/7/6 285/7/6 289/7/6
f 288/6/6 287/6/6 289/6/6
f 287/6/6 284/6/6 289/6/6
f 288/7/6 289/7/6 290/7/6
f 289/7/6 285/7/6 291/7/6
f 290/7/6 289/7/6 291/7/6
