# MagicaVoxel @ Ephtracy

# group
o 

# material
mtllib WallsSimpleV1Door.mtl
usemtl palette

# normals
vn -1 0 0
vn 1 0 0
vn 0 0 1
vn 0 0 -1
vn 0 -1 0
vn 0 1 0

# texcoords
vt 0.0371094 0.5
vt 0.306641 0.5
vt 0.533203 0.5
vt 0.537109 0.5
vt 0.966797 0.5
vt 0.974609 0.5
vt 0.978516 0.5

# verts
v -0.8 0 -0.5
v -0.8 0 -0.6
v -0.8 0 -0.7
v -0.8 0 -0.8
v -0.8 0.3 -0.5
v -0.8 0.3 -0.6
v -0.8 0.5 -0.5
v -0.8 0.5 -0.6
v -0.8 0.9 -0.5
v -0.8 0.9 -0.6
v -0.8 1.1 -0.5
v -0.8 1.1 -0.6
v -0.8 1.5 -0.5
v -0.8 1.5 -0.6
v -0.8 1.7 -0.5
v -0.8 1.7 -0.6
v -0.8 2.1 -0.5
v -0.8 2.1 -0.6
v -0.8 2.3 -0.5
v -0.8 2.3 -0.6
v -0.8 2.7 -0.5
v -0.8 2.7 -0.6
v -0.8 2.9 -0.5
v -0.8 2.9 -0.6
v -0.8 3.3 -0.5
v -0.8 3.3 -0.6
v -0.8 3.5 -0.5
v -0.8 3.5 -0.6
v -0.8 3.9 -0.5
v -0.8 3.9 -0.6
v -0.8 4.1 -0.5
v -0.8 4.1 -0.6
v -0.8 4.2 -0.7
v -0.8 4.2 -0.8
v -0.8 4.5 -0.5
v -0.8 4.5 -0.6
v -0.8 4.6 -0.7
v -0.8 4.6 -0.8
v -0.8 4.7 -0.5
v -0.8 4.7 -0.6
v -0.8 4.7 -0.7
v -0.8 4.8 -0.5
v -0.8 4.8 -0.6
v -0.8 4.8 -0.7
v -0.8 4.8 -0.8
v -0.5 2 -0.7
v -0.5 2 -0.8
v -0.5 2.1 -0.7
v -0.5 2.1 -0.8
v 0.6 0 -0.7
v 0.6 0 -0.8
v 0.6 0.6 -0.7
v 0.6 4 -0.7
v 0.6 4 -0.8
v -0.6 0 -0.7
v -0.6 0 -0.8
v -0.6 0.6 -0.7
v -0.6 4 -0.7
v -0.6 4 -0.8
v -0.1 2 -0.7
v -0.1 2 -0.8
v -0.1 2.1 -0.7
v -0.1 2.1 -0.8
v 0.8 0 -0.5
v 0.8 0 -0.6
v 0.8 0 -0.7
v 0.8 0 -0.8
v 0.8 0.2 -0.5
v 0.8 0.2 -0.6
v 0.8 0.3 -0.5
v 0.8 0.3 -0.6
v 0.8 0.5 -0.5
v 0.8 0.5 -0.6
v 0.8 0.6 -0.5
v 0.8 0.6 -0.6
v 0.8 0.8 -0.5
v 0.8 0.8 -0.6
v 0.8 0.9 -0.5
v 0.8 0.9 -0.6
v 0.8 1.1 -0.5
v 0.8 1.1 -0.6
v 0.8 1.2 -0.5
v 0.8 1.2 -0.6
v 0.8 1.4 -0.5
v 0.8 1.4 -0.6
v 0.8 1.5 -0.5
v 0.8 1.5 -0.6
v 0.8 1.7 -0.5
v 0.8 1.7 -0.6
v 0.8 1.8 -0.5
v 0.8 1.8 -0.6
v 0.8 2 -0.5
v 0.8 2 -0.6
v 0.8 2.1 -0.5
v 0.8 2.1 -0.6
v 0.8 2.3 -0.5
v 0.8 2.3 -0.6
v 0.8 2.4 -0.5
v 0.8 2.4 -0.6
v 0.8 2.6 -0.5
v 0.8 2.6 -0.6
v 0.8 2.7 -0.5
v 0.8 2.7 -0.6
v 0.8 2.9 -0.5
v 0.8 2.9 -0.6
v 0.8 3 -0.5
v 0.8 3 -0.6
v 0.8 3.2 -0.5
v 0.8 3.2 -0.6
v 0.8 3.3 -0.5
v 0.8 3.3 -0.6
v 0.8 3.5 -0.5
v 0.8 3.5 -0.6
v 0.8 3.6 -0.5
v 0.8 3.6 -0.6
v 0.8 3.8 -0.5
v 0.8 3.8 -0.6
v 0.8 3.9 -0.5
v 0.8 3.9 -0.6
v 0.8 4.1 -0.5
v 0.8 4.1 -0.6
v 0.8 4.2 -0.5
v 0.8 4.2 -0.6
v 0.8 4.2 -0.7
v 0.8 4.2 -0.8
v 0.8 4.4 -0.5
v 0.8 4.4 -0.6
v 0.8 4.5 -0.5
v 0.8 4.5 -0.6
v 0.8 4.6 -0.7
v 0.8 4.6 -0.8
v 0.8 4.7 -0.5
v 0.8 4.7 -0.6
v 0.8 4.7 -0.7
v 0.8 4.8 -0.5
v 0.8 4.8 -0.6
v 0.8 4.8 -0.7
v 0.8 4.8 -0.8
v -0.8 0 -0.5
v -0.8 0.3 -0.5
v -0.8 0.5 -0.5
v -0.8 0.9 -0.5
v -0.8 1.1 -0.5
v -0.8 1.5 -0.5
v -0.8 1.7 -0.5
v -0.8 2.1 -0.5
v -0.8 2.3 -0.5
v -0.8 2.7 -0.5
v -0.8 2.9 -0.5
v -0.8 3.3 -0.5
v -0.8 3.5 -0.5
v -0.8 3.9 -0.5
v -0.8 4.1 -0.5
v -0.8 4.5 -0.5
v -0.8 4.7 -0.5
v -0.8 4.8 -0.5
v -0.7 0 -0.5
v -0.7 0.2 -0.5
v -0.7 0.6 -0.5
v -0.7 0.8 -0.5
v -0.7 1.2 -0.5
v -0.7 1.4 -0.5
v -0.7 1.8 -0.5
v -0.7 2 -0.5
v -0.7 2.4 -0.5
v -0.7 2.6 -0.5
v -0.7 3 -0.5
v -0.7 3.2 -0.5
v -0.7 3.6 -0.5
v -0.7 3.8 -0.5
v -0.7 4.2 -0.5
v -0.7 4.4 -0.5
v -0.6 0.3 -0.5
v -0.6 0.5 -0.5
v -0.6 0.9 -0.5
v -0.6 1.1 -0.5
v -0.6 1.5 -0.5
v -0.6 1.7 -0.5
v -0.6 2.1 -0.5
v -0.6 2.3 -0.5
v -0.6 2.7 -0.5
v -0.6 2.9 -0.5
v -0.6 3.3 -0.5
v -0.6 3.5 -0.5
v -0.6 3.9 -0.5
v -0.6 4.1 -0.5
v -0.6 4.5 -0.5
v -0.6 4.7 -0.5
v -0.5 0.3 -0.5
v -0.5 0.5 -0.5
v -0.5 0.9 -0.5
v -0.5 1.1 -0.5
v -0.5 1.5 -0.5
v -0.5 1.7 -0.5
v -0.5 2.1 -0.5
v -0.5 2.3 -0.5
v -0.5 2.7 -0.5
v -0.5 2.9 -0.5
v -0.5 3.3 -0.5
v -0.5 3.5 -0.5
v -0.5 3.9 -0.5
v -0.5 4.1 -0.5
v -0.5 4.5 -0.5
v -0.5 4.7 -0.5
v -0.4 0 -0.5
v -0.4 0.2 -0.5
v -0.4 0.6 -0.5
v -0.4 0.8 -0.5
v -0.4 1.2 -0.5
v -0.4 1.4 -0.5
v -0.4 1.8 -0.5
v -0.4 2 -0.5
v -0.4 2.4 -0.5
v -0.4 2.6 -0.5
v -0.4 3 -0.5
v -0.4 3.2 -0.5
v -0.4 3.6 -0.5
v -0.4 3.8 -0.5
v -0.4 4.2 -0.5
v -0.4 4.4 -0.5
v -0.3 0 -0.5
v -0.3 0.2 -0.5
v -0.3 0.6 -0.5
v -0.3 0.8 -0.5
v -0.3 1.2 -0.5
v -0.3 1.4 -0.5
v -0.3 1.8 -0.5
v -0.3 2 -0.5
v -0.3 2.4 -0.5
v -0.3 2.6 -0.5
v -0.3 3 -0.5
v -0.3 3.2 -0.5
v -0.3 3.6 -0.5
v -0.3 3.8 -0.5
v -0.3 4.2 -0.5
v -0.3 4.4 -0.5
v -0.1 0.3 -0.5
v -0.1 0.5 -0.5
v -0.1 0.9 -0.5
v -0.1 1.1 -0.5
v -0.1 1.5 -0.5
v -0.1 1.7 -0.5
v -0.1 2.1 -0.5
v -0.1 2.3 -0.5
v -0.1 2.7 -0.5
v -0.1 2.9 -0.5
v -0.1 3.3 -0.5
v -0.1 3.5 -0.5
v -0.1 3.9 -0.5
v -0.1 4.1 -0.5
v -0.1 4.5 -0.5
v -0.1 4.7 -0.5
v 0 0.3 -0.5
v 0 0.5 -0.5
v 0 0.9 -0.5
v 0 1.1 -0.5
v 0 1.5 -0.5
v 0 1.7 -0.5
v 0 2.1 -0.5
v 0 2.3 -0.5
v 0 2.7 -0.5
v 0 2.9 -0.5
v 0 3.3 -0.5
v 0 3.5 -0.5
v 0 3.9 -0.5
v 0 4.1 -0.5
v 0 4.5 -0.5
v 0 4.7 -0.5
v 0.2 0 -0.5
v 0.2 0.2 -0.5
v 0.2 0.6 -0.5
v 0.2 0.8 -0.5
v 0.2 1.2 -0.5
v 0.2 1.4 -0.5
v 0.2 1.8 -0.5
v 0.2 2 -0.5
v 0.2 2.4 -0.5
v 0.2 2.6 -0.5
v 0.2 3 -0.5
v 0.2 3.2 -0.5
v 0.2 3.6 -0.5
v 0.2 3.8 -0.5
v 0.2 4.2 -0.5
v 0.2 4.4 -0.5
v 0.3 0 -0.5
v 0.3 0.2 -0.5
v 0.3 0.6 -0.5
v 0.3 0.8 -0.5
v 0.3 1.2 -0.5
v 0.3 1.4 -0.5
v 0.3 1.8 -0.5
v 0.3 2 -0.5
v 0.3 2.4 -0.5
v 0.3 2.6 -0.5
v 0.3 3 -0.5
v 0.3 3.2 -0.5
v 0.3 3.6 -0.5
v 0.3 3.8 -0.5
v 0.3 4.2 -0.5
v 0.3 4.4 -0.5
v 0.5 0.3 -0.5
v 0.5 0.5 -0.5
v 0.5 0.9 -0.5
v 0.5 1.1 -0.5
v 0.5 1.5 -0.5
v 0.5 1.7 -0.5
v 0.5 2.1 -0.5
v 0.5 2.3 -0.5
v 0.5 2.7 -0.5
v 0.5 2.9 -0.5
v 0.5 3.3 -0.5
v 0.5 3.5 -0.5
v 0.5 3.9 -0.5
v 0.5 4.1 -0.5
v 0.5 4.5 -0.5
v 0.5 4.7 -0.5
v 0.6 0.3 -0.5
v 0.6 0.5 -0.5
v 0.6 0.9 -0.5
v 0.6 1.1 -0.5
v 0.6 1.5 -0.5
v 0.6 1.7 -0.5
v 0.6 2.1 -0.5
v 0.6 2.3 -0.5
v 0.6 2.7 -0.5
v 0.6 2.9 -0.5
v 0.6 3.3 -0.5
v 0.6 3.5 -0.5
v 0.6 3.9 -0.5
v 0.6 4.1 -0.5
v 0.6 4.5 -0.5
v 0.6 4.7 -0.5
v 0.8 0 -0.5
v 0.8 0.2 -0.5
v 0.8 0.3 -0.5
v 0.8 0.5 -0.5
v 0.8 0.6 -0.5
v 0.8 0.8 -0.5
v 0.8 0.9 -0.5
v 0.8 1.1 -0.5
v 0.8 1.2 -0.5
v 0.8 1.4 -0.5
v 0.8 1.5 -0.5
v 0.8 1.7 -0.5
v 0.8 1.8 -0.5
v 0.8 2 -0.5
v 0.8 2.1 -0.5
v 0.8 2.3 -0.5
v 0.8 2.4 -0.5
v 0.8 2.6 -0.5
v 0.8 2.7 -0.5
v 0.8 2.9 -0.5
v 0.8 3 -0.5
v 0.8 3.2 -0.5
v 0.8 3.3 -0.5
v 0.8 3.5 -0.5
v 0.8 3.6 -0.5
v 0.8 3.8 -0.5
v 0.8 3.9 -0.5
v 0.8 4.1 -0.5
v 0.8 4.2 -0.5
v 0.8 4.4 -0.5
v 0.8 4.5 -0.5
v 0.8 4.7 -0.5
v 0.8 4.8 -0.5
v -0.8 4.2 -0.7
v -0.8 4.6 -0.7
v -0.6 0 -0.7
v -0.6 0.6 -0.7
v -0.6 4 -0.7
v -0.5 2 -0.7
v -0.5 2.1 -0.7
v -0.1 2 -0.7
v -0.1 2.1 -0.7
v 0.6 0 -0.7
v 0.6 0.6 -0.7
v 0.6 4 -0.7
v 0.8 4.2 -0.7
v 0.8 4.6 -0.7
v -0.8 0 -0.8
v -0.8 4.2 -0.8
v -0.8 4.6 -0.8
v -0.8 4.8 -0.8
v -0.6 0 -0.8
v -0.6 4 -0.8
v -0.5 2 -0.8
v -0.5 2.1 -0.8
v -0.1 2 -0.8
v -0.1 2.1 -0.8
v 0.6 0 -0.8
v 0.6 4 -0.8
v 0.8 0 -0.8
v 0.8 4.2 -0.8
v 0.8 4.6 -0.8
v 0.8 4.8 -0.8
v -0.8 0 -0.5
v -0.7 0 -0.5
v -0.4 0 -0.5
v -0.3 0 -0.5
v 0.2 0 -0.5
v 0.3 0 -0.5
v 0.8 0 -0.5
v -0.8 0 -0.6
v -0.7 0 -0.6
v -0.4 0 -0.6
v -0.3 0 -0.6
v 0.2 0 -0.6
v 0.3 0 -0.6
v 0.7 0 -0.6
v 0.8 0 -0.6
v -0.8 0 -0.7
v -0.7 0 -0.7
v -0.6 0 -0.7
v 0.6 0 -0.7
v 0.7 0 -0.7
v 0.8 0 -0.7
v -0.8 0 -0.8
v -0.6 0 -0.8
v 0.6 0 -0.8
v 0.8 0 -0.8
v -0.5 2 -0.7
v -0.1 2 -0.7
v -0.5 2 -0.8
v -0.1 2 -0.8
v -0.6 4 -0.7
v 0.6 4 -0.7
v -0.6 4 -0.8
v 0.6 4 -0.8
v -0.8 4.6 -0.7
v 0.8 4.6 -0.7
v -0.8 4.6 -0.8
v 0.8 4.6 -0.8
v -0.5 2.1 -0.7
v -0.1 2.1 -0.7
v -0.5 2.1 -0.8
v -0.1 2.1 -0.8
v -0.8 4.2 -0.7
v 0.8 4.2 -0.7
v -0.8 4.2 -0.8
v 0.8 4.2 -0.8
v -0.8 4.8 -0.5
v 0.8 4.8 -0.5
v -0.8 4.8 -0.6
v 0.8 4.8 -0.6
v -0.8 4.8 -0.7
v 0.8 4.8 -0.7
v -0.8 4.8 -0.8
v 0.8 4.8 -0.8

# faces
f 5/7/1 2/7/1 1/7/1
f 6/1/1 3/1/1 2/1/1
f 6/7/1 2/7/1 5/7/1
f 7/3/1 6/3/1 5/3/1
f 8/1/1 3/1/1 6/1/1
f 8/3/1 6/3/1 7/3/1
f 9/7/1 8/7/1 7/7/1
f 10/1/1 3/1/1 8/1/1
f 10/7/1 8/7/1 9/7/1
f 11/3/1 10/3/1 9/3/1
f 12/1/1 3/1/1 10/1/1
f 12/3/1 10/3/1 11/3/1
f 13/7/1 12/7/1 11/7/1
f 14/1/1 3/1/1 12/1/1
f 14/7/1 12/7/1 13/7/1
f 15/3/1 14/3/1 13/3/1
f 16/1/1 3/1/1 14/1/1
f 16/3/1 14/3/1 15/3/1
f 17/7/1 16/7/1 15/7/1
f 18/1/1 3/1/1 16/1/1
f 18/7/1 16/7/1 17/7/1
f 19/3/1 18/3/1 17/3/1
f 20/1/1 3/1/1 18/1/1
f 20/3/1 18/3/1 19/3/1
f 21/7/1 20/7/1 19/7/1
f 22/1/1 3/1/1 20/1/1
f 22/7/1 20/7/1 21/7/1
f 23/3/1 22/3/1 21/3/1
f 24/1/1 3/1/1 22/1/1
f 24/3/1 22/3/1 23/3/1
f 25/7/1 24/7/1 23/7/1
f 26/1/1 3/1/1 24/1/1
f 26/7/1 24/7/1 25/7/1
f 27/3/1 26/3/1 25/3/1
f 28/1/1 3/1/1 26/1/1
f 28/3/1 26/3/1 27/3/1
f 29/7/1 28/7/1 27/7/1
f 30/1/1 3/1/1 28/1/1
f 30/7/1 28/7/1 29/7/1
f 31/3/1 30/3/1 29/3/1
f 32/1/1 3/1/1 30/1/1
f 32/3/1 30/3/1 31/3/1
f 33/5/1 4/5/1 3/5/1
f 33/1/1 3/1/1 32/1/1
f 34/5/1 4/5/1 33/5/1
f 35/7/1 32/7/1 31/7/1
f 36/1/1 33/1/1 32/1/1
f 36/7/1 32/7/1 35/7/1
f 37/1/1 33/1/1 36/1/1
f 39/3/1 36/3/1 35/3/1
f 40/1/1 37/1/1 36/1/1
f 40/3/1 36/3/1 39/3/1
f 41/5/1 38/5/1 37/5/1
f 41/1/1 37/1/1 40/1/1
f 42/7/1 40/7/1 39/7/1
f 43/6/1 41/6/1 40/6/1
f 43/7/1 40/7/1 42/7/1
f 44/5/1 38/5/1 41/5/1
f 44/6/1 41/6/1 43/6/1
f 45/5/1 38/5/1 44/5/1
f 48/7/1 47/7/1 46/7/1
f 49/7/1 47/7/1 48/7/1
f 52/5/1 51/5/1 50/5/1
f 53/5/1 51/5/1 52/5/1
f 54/5/1 51/5/1 53/5/1
f 55/5/2 56/5/2 57/5/2
f 57/5/2 56/5/2 58/5/2
f 58/5/2 56/5/2 59/5/2
f 60/7/2 61/7/2 62/7/2
f 62/7/2 61/7/2 63/7/2
f 64/4/2 65/4/2 68/4/2
f 65/1/2 66/1/2 69/1/2
f 68/4/2 65/4/2 69/4/2
f 68/7/2 69/7/2 70/7/2
f 69/1/2 66/1/2 71/1/2
f 70/7/2 69/7/2 71/7/2
f 70/3/2 71/3/2 72/3/2
f 71/1/2 66/1/2 73/1/2
f 72/3/2 71/3/2 73/3/2
f 72/7/2 73/7/2 74/7/2
f 73/1/2 66/1/2 75/1/2
f 74/7/2 73/7/2 75/7/2
f 74/4/2 75/4/2 76/4/2
f 75/1/2 66/1/2 77/1/2
f 76/4/2 75/4/2 77/4/2
f 76/7/2 77/7/2 78/7/2
f 77/1/2 66/1/2 79/1/2
f 78/7/2 77/7/2 79/7/2
f 78/3/2 79/3/2 80/3/2
f 79/1/2 66/1/2 81/1/2
f 80/3/2 79/3/2 81/3/2
f 80/7/2 81/7/2 82/7/2
f 81/1/2 66/1/2 83/1/2
f 82/7/2 81/7/2 83/7/2
f 82/4/2 83/4/2 84/4/2
f 83/1/2 66/1/2 85/1/2
f 84/4/2 83/4/2 85/4/2
f 84/7/2 85/7/2 86/7/2
f 85/1/2 66/1/2 87/1/2
f 86/7/2 85/7/2 87/7/2
f 86/3/2 87/3/2 88/3/2
f 87/1/2 66/1/2 89/1/2
f 88/3/2 87/3/2 89/3/2
f 88/7/2 89/7/2 90/7/2
f 89/1/2 66/1/2 91/1/2
f 90/7/2 89/7/2 91/7/2
f 90/4/2 91/4/2 92/4/2
f 91/1/2 66/1/2 93/1/2
f 92/4/2 91/4/2 93/4/2
f 92/7/2 93/7/2 94/7/2
f 93/1/2 66/1/2 95/1/2
f 94/7/2 93/7/2 95/7/2
f 94/3/2 95/3/2 96/3/2
f 95/1/2 66/1/2 97/1/2
f 96/3/2 95/3/2 97/3/2
f 96/7/2 97/7/2 98/7/2
f 97/1/2 66/1/2 99/1/2
f 98/7/2 97/7/2 99/7/2
f 98/4/2 99/4/2 100/4/2
f 99/1/2 66/1/2 101/1/2
f 100/4/2 99/4/2 101/4/2
f 100/7/2 101/7/2 102/7/2
f 101/1/2 66/1/2 103/1/2
f 102/7/2 101/7/2 103/7/2
f 102/3/2 103/3/2 104/3/2
f 103/1/2 66/1/2 105/1/2
f 104/3/2 103/3/2 105/3/2
f 104/7/2 105/7/2 106/7/2
f 105/1/2 66/1/2 107/1/2
f 106/7/2 105/7/2 107/7/2
f 106/4/2 107/4/2 108/4/2
f 107/1/2 66/1/2 109/1/2
f 108/4/2 107/4/2 109/4/2
f 108/7/2 109/7/2 110/7/2
f 109/1/2 66/1/2 111/1/2
f 110/7/2 109/7/2 111/7/2
f 110/3/2 111/3/2 112/3/2
f 111/1/2 66/1/2 113/1/2
f 112/3/2 111/3/2 113/3/2
f 112/7/2 113/7/2 114/7/2
f 113/1/2 66/1/2 115/1/2
f 114/7/2 113/7/2 115/7/2
f 114/4/2 115/4/2 116/4/2
f 115/1/2 66/1/2 117/1/2
f 116/4/2 115/4/2 117/4/2
f 116/7/2 117/7/2 118/7/2
f 117/1/2 66/1/2 119/1/2
f 118/7/2 117/7/2 119/7/2
f 118/3/2 119/3/2 120/3/2
f 119/1/2 66/1/2 121/1/2
f 120/3/2 119/3/2 121/3/2
f 120/7/2 121/7/2 122/7/2
f 121/1/2 66/1/2 123/1/2
f 122/7/2 121/7/2 123/7/2
f 66/5/2 67/5/2 124/5/2
f 123/1/2 66/1/2 124/1/2
f 124/5/2 67/5/2 125/5/2
f 122/4/2 123/4/2 126/4/2
f 123/1/2 124/1/2 127/1/2
f 126/4/2 123/4/2 127/4/2
f 126/7/2 127/7/2 128/7/2
f 127/1/2 124/1/2 129/1/2
f 128/7/2 127/7/2 129/7/2
f 129/1/2 124/1/2 130/1/2
f 128/3/2 129/3/2 132/3/2
f 129/1/2 130/1/2 133/1/2
f 132/3/2 129/3/2 133/3/2
f 130/5/2 131/5/2 134/5/2
f 133/1/2 130/1/2 134/1/2
f 132/7/2 133/7/2 135/7/2
f 133/6/2 134/6/2 136/6/2
f 135/7/2 133/7/2 136/7/2
f 134/5/2 131/5/2 137/5/2
f 136/6/2 134/6/2 137/6/2
f 137/5/2 131/5/2 138/5/2
f 157/7/3 140/7/3 139/7/3
f 158/7/3 140/7/3 157/7/3
f 159/7/3 142/7/3 141/7/3
f 160/7/3 142/7/3 159/7/3
f 161/7/3 144/7/3 143/7/3
f 162/7/3 144/7/3 161/7/3
f 163/7/3 146/7/3 145/7/3
f 164/7/3 146/7/3 163/7/3
f 165/7/3 148/7/3 147/7/3
f 166/7/3 148/7/3 165/7/3
f 167/7/3 150/7/3 149/7/3
f 168/7/3 150/7/3 167/7/3
f 169/7/3 152/7/3 151/7/3
f 170/7/3 152/7/3 169/7/3
f 171/7/3 154/7/3 153/7/3
f 172/7/3 154/7/3 171/7/3
f 173/3/3 141/3/3 140/3/3
f 173/7/3 140/7/3 158/7/3
f 174/7/3 159/7/3 141/7/3
f 174/3/3 141/3/3 173/3/3
f 175/3/3 143/3/3 142/3/3
f 175/7/3 142/7/3 160/7/3
f 176/7/3 161/7/3 143/7/3
f 176/3/3 143/3/3 175/3/3
f 177/3/3 145/3/3 144/3/3
f 177/7/3 144/7/3 162/7/3
f 178/7/3 163/7/3 145/7/3
f 178/3/3 145/3/3 177/3/3
f 179/3/3 147/3/3 146/3/3
f 179/7/3 146/7/3 164/7/3
f 180/7/3 165/7/3 147/7/3
f 180/3/3 147/3/3 179/3/3
f 181/3/3 149/3/3 148/3/3
f 181/7/3 148/7/3 166/7/3
f 182/7/3 167/7/3 149/7/3
f 182/3/3 149/3/3 181/3/3
f 183/3/3 151/3/3 150/3/3
f 183/7/3 150/7/3 168/7/3
f 184/7/3 169/7/3 151/7/3
f 184/3/3 151/3/3 183/3/3
f 185/3/3 153/3/3 152/3/3
f 185/7/3 152/7/3 170/7/3
f 186/7/3 171/7/3 153/7/3
f 186/3/3 153/3/3 185/3/3
f 187/7/3 154/7/3 172/7/3
f 187/3/3 155/3/3 154/3/3
f 188/7/3 156/7/3 155/7/3
f 188/3/3 155/3/3 187/3/3
f 189/7/3 174/7/3 173/7/3
f 189/7/3 173/7/3 158/7/3
f 190/7/3 159/7/3 174/7/3
f 190/7/3 174/7/3 189/7/3
f 191/7/3 176/7/3 175/7/3
f 191/7/3 175/7/3 160/7/3
f 192/7/3 161/7/3 176/7/3
f 192/7/3 176/7/3 191/7/3
f 193/7/3 178/7/3 177/7/3
f 193/7/3 177/7/3 162/7/3
f 194/7/3 163/7/3 178/7/3
f 194/7/3 178/7/3 193/7/3
f 195/7/3 180/7/3 179/7/3
f 195/7/3 179/7/3 164/7/3
f 196/7/3 165/7/3 180/7/3
f 196/7/3 180/7/3 195/7/3
f 197/7/3 182/7/3 181/7/3
f 197/7/3 181/7/3 166/7/3
f 198/7/3 167/7/3 182/7/3
f 198/7/3 182/7/3 197/7/3
f 199/7/3 184/7/3 183/7/3
f 199/7/3 183/7/3 168/7/3
f 200/7/3 169/7/3 184/7/3
f 200/7/3 184/7/3 199/7/3
f 201/7/3 186/7/3 185/7/3
f 201/7/3 185/7/3 170/7/3
f 202/7/3 171/7/3 186/7/3
f 202/7/3 186/7/3 201/7/3
f 203/7/3 187/7/3 172/7/3
f 203/7/3 188/7/3 187/7/3
f 204/7/3 156/7/3 188/7/3
f 204/7/3 188/7/3 203/7/3
f 205/4/3 158/4/3 157/4/3
f 206/7/3 189/7/3 158/7/3
f 206/4/3 158/4/3 205/4/3
f 207/7/3 159/7/3 190/7/3
f 207/4/3 160/4/3 159/4/3
f 208/7/3 191/7/3 160/7/3
f 208/4/3 160/4/3 207/4/3
f 209/7/3 161/7/3 192/7/3
f 209/4/3 162/4/3 161/4/3
f 210/7/3 193/7/3 162/7/3
f 210/4/3 162/4/3 209/4/3
f 211/7/3 163/7/3 194/7/3
f 211/4/3 164/4/3 163/4/3
f 212/7/3 195/7/3 164/7/3
f 212/4/3 164/4/3 211/4/3
f 213/7/3 165/7/3 196/7/3
f 213/4/3 166/4/3 165/4/3
f 214/7/3 197/7/3 166/7/3
f 214/4/3 166/4/3 213/4/3
f 215/7/3 167/7/3 198/7/3
f 215/4/3 168/4/3 167/4/3
f 216/7/3 199/7/3 168/7/3
f 216/4/3 168/4/3 215/4/3
f 217/7/3 169/7/3 200/7/3
f 217/4/3 170/4/3 169/4/3
f 218/7/3 201/7/3 170/7/3
f 218/4/3 170/4/3 217/4/3
f 219/7/3 171/7/3 202/7/3
f 219/4/3 172/4/3 171/4/3
f 220/7/3 203/7/3 172/7/3
f 220/4/3 172/4/3 219/4/3
f 221/7/3 206/7/3 205/7/3
f 222/7/3 189/7/3 206/7/3
f 222/7/3 206/7/3 221/7/3
f 223/7/3 207/7/3 190/7/3
f 223/7/3 208/7/3 207/7/3
f 224/7/3 191/7/3 208/7/3
f 224/7/3 208/7/3 223/7/3
f 225/7/3 209/7/3 192/7/3
f 225/7/3 210/7/3 209/7/3
f 226/7/3 193/7/3 210/7/3
f 226/7/3 210/7/3 225/7/3
f 227/7/3 211/7/3 194/7/3
f 227/7/3 212/7/3 211/7/3
f 228/7/3 195/7/3 212/7/3
f 228/7/3 212/7/3 227/7/3
f 229/7/3 213/7/3 196/7/3
f 229/7/3 214/7/3 213/7/3
f 230/7/3 197/7/3 214/7/3
f 230/7/3 214/7/3 229/7/3
f 231/7/3 215/7/3 198/7/3
f 231/7/3 216/7/3 215/7/3
f 232/7/3 199/7/3 216/7/3
f 232/7/3 216/7/3 231/7/3
f 233/7/3 217/7/3 200/7/3
f 233/7/3 218/7/3 217/7/3
f 234/7/3 201/7/3 218/7/3
f 234/7/3 218/7/3 233/7/3
f 235/7/3 219/7/3 202/7/3
f 235/7/3 220/7/3 219/7/3
f 236/7/3 203/7/3 220/7/3
f 236/7/3 220/7/3 235/7/3
f 237/7/3 189/7/3 222/7/3
f 237/4/3 190/4/3 189/4/3
f 238/7/3 223/7/3 190/7/3
f 238/4/3 190/4/3 237/4/3
f 239/7/3 191/7/3 224/7/3
f 239/4/3 192/4/3 191/4/3
f 240/7/3 225/7/3 192/7/3
f 240/4/3 192/4/3 239/4/3
f 241/7/3 193/7/3 226/7/3
f 241/4/3 194/4/3 193/4/3
f 242/7/3 227/7/3 194/7/3
f 242/4/3 194/4/3 241/4/3
f 243/7/3 195/7/3 228/7/3
f 243/4/3 196/4/3 195/4/3
f 244/7/3 229/7/3 196/7/3
f 244/4/3 196/4/3 243/4/3
f 245/7/3 197/7/3 230/7/3
f 245/4/3 198/4/3 197/4/3
f 246/7/3 231/7/3 198/7/3
f 246/4/3 198/4/3 245/4/3
f 247/7/3 199/7/3 232/7/3
f 247/4/3 200/4/3 199/4/3
f 248/7/3 233/7/3 200/7/3
f 248/4/3 200/4/3 247/4/3
f 249/7/3 201/7/3 234/7/3
f 249/4/3 202/4/3 201/4/3
f 250/7/3 235/7/3 202/7/3
f 250/4/3 202/4/3 249/4/3
f 251/7/3 203/7/3 236/7/3
f 251/4/3 204/4/3 203/4/3
f 252/7/3 156/7/3 204/7/3
f 252/4/3 204/4/3 251/4/3
f 253/7/3 237/7/3 222/7/3
f 253/7/3 238/7/3 237/7/3
f 254/7/3 223/7/3 238/7/3
f 254/7/3 238/7/3 253/7/3
f 255/7/3 239/7/3 224/7/3
f 255/7/3 240/7/3 239/7/3
f 256/7/3 225/7/3 240/7/3
f 256/7/3 240/7/3 255/7/3
f 257/7/3 241/7/3 226/7/3
f 257/7/3 242/7/3 241/7/3
f 258/7/3 227/7/3 242/7/3
f 258/7/3 242/7/3 257/7/3
f 259/7/3 243/7/3 228/7/3
f 259/7/3 244/7/3 243/7/3
f 260/7/3 229/7/3 244/7/3
f 260/7/3 244/7/3 259/7/3
f 261/7/3 245/7/3 230/7/3
f 261/7/3 246/7/3 245/7/3
f 262/7/3 231/7/3 246/7/3
f 262/7/3 246/7/3 261/7/3
f 263/7/3 247/7/3 232/7/3
f 263/7/3 248/7/3 247/7/3
f 264/7/3 233/7/3 248/7/3
f 264/7/3 248/7/3 263/7/3
f 265/7/3 249/7/3 234/7/3
f 265/7/3 250/7/3 249/7/3
f 266/7/3 235/7/3 250/7/3
f 266/7/3 250/7/3 265/7/3
f 267/7/3 251/7/3 236/7/3
f 267/7/3 252/7/3 251/7/3
f 268/7/3 156/7/3 252/7/3
f 268/7/3 252/7/3 267/7/3
f 269/3/3 222/3/3 221/3/3
f 270/7/3 253/7/3 222/7/3
f 270/3/3 222/3/3 269/3/3
f 271/7/3 223/7/3 254/7/3
f 271/3/3 224/3/3 223/3/3
f 272/7/3 255/7/3 224/7/3
f 272/3/3 224/3/3 271/3/3
f 273/7/3 225/7/3 256/7/3
f 273/3/3 226/3/3 225/3/3
f 274/7/3 257/7/3 226/7/3
f 274/3/3 226/3/3 273/3/3
f 275/7/3 227/7/3 258/7/3
f 275/3/3 228/3/3 227/3/3
f 276/7/3 259/7/3 228/7/3
f 276/3/3 228/3/3 275/3/3
f 277/7/3 229/7/3 260/7/3
f 277/3/3 230/3/3 229/3/3
f 278/7/3 261/7/3 230/7/3
f 278/3/3 230/3/3 277/3/3
f 279/7/3 231/7/3 262/7/3
f 279/3/3 232/3/3 231/3/3
f 280/7/3 263/7/3 232/7/3
f 280/3/3 232/3/3 279/3/3
f 281/7/3 233/7/3 264/7/3
f 281/3/3 234/3/3 233/3/3
f 282/7/3 265/7/3 234/7/3
f 282/3/3 234/3/3 281/3/3
f 283/7/3 235/7/3 266/7/3
f 283/3/3 236/3/3 235/3/3
f 284/7/3 267/7/3 236/7/3
f 284/3/3 236/3/3 283/3/3
f 285/7/3 270/7/3 269/7/3
f 286/7/3 253/7/3 270/7/3
f 286/7/3 270/7/3 285/7/3
f 287/7/3 271/7/3 254/7/3
f 287/7/3 272/7/3 271/7/3
f 288/7/3 255/7/3 272/7/3
f 288/7/3 272/7/3 287/7/3
f 289/7/3 273/7/3 256/7/3
f 289/7/3 274/7/3 273/7/3
f 290/7/3 257/7/3 274/7/3
f 290/7/3 274/7/3 289/7/3
f 291/7/3 275/7/3 258/7/3
f 291/7/3 276/7/3 275/7/3
f 292/7/3 259/7/3 276/7/3
f 292/7/3 276/7/3 291/7/3
f 293/7/3 277/7/3 260/7/3
f 293/7/3 278/7/3 277/7/3
f 294/7/3 261/7/3 278/7/3
f 294/7/3 278/7/3 293/7/3
f 295/7/3 279/7/3 262/7/3
f 295/7/3 280/7/3 279/7/3
f 296/7/3 263/7/3 280/7/3
f 296/7/3 280/7/3 295/7/3
f 297/7/3 281/7/3 264/7/3
f 297/7/3 282/7/3 281/7/3
f 298/7/3 265/7/3 282/7/3
f 298/7/3 282/7/3 297/7/3
f 299/7/3 283/7/3 266/7/3
f 299/7/3 284/7/3 283/7/3
f 300/7/3 267/7/3 284/7/3
f 300/7/3 284/7/3 299/7/3
f 301/7/3 253/7/3 286/7/3
f 301/4/3 254/4/3 253/4/3
f 302/7/3 287/7/3 254/7/3
f 302/4/3 254/4/3 301/4/3
f 303/7/3 255/7/3 288/7/3
f 303/4/3 256/4/3 255/4/3
f 304/7/3 289/7/3 256/7/3
f 304/4/3 256/4/3 303/4/3
f 305/7/3 257/7/3 290/7/3
f 305/4/3 258/4/3 257/4/3
f 306/7/3 291/7/3 258/7/3
f 306/4/3 258/4/3 305/4/3
f 307/7/3 259/7/3 292/7/3
f 307/4/3 260/4/3 259/4/3
f 308/7/3 293/7/3 260/7/3
f 308/4/3 260/4/3 307/4/3
f 309/7/3 261/7/3 294/7/3
f 309/4/3 262/4/3 261/4/3
f 310/7/3 295/7/3 262/7/3
f 310/4/3 262/4/3 309/4/3
f 311/7/3 263/7/3 296/7/3
f 311/4/3 264/4/3 263/4/3
f 312/7/3 297/7/3 264/7/3
f 312/4/3 264/4/3 311/4/3
f 313/7/3 265/7/3 298/7/3
f 313/4/3 266/4/3 265/4/3
f 314/7/3 299/7/3 266/7/3
f 314/4/3 266/4/3 313/4/3
f 315/7/3 267/7/3 300/7/3
f 315/4/3 268/4/3 267/4/3
f 316/7/3 156/7/3 268/7/3
f 316/4/3 268/4/3 315/4/3
f 317/7/3 301/7/3 286/7/3
f 317/7/3 302/7/3 301/7/3
f 318/7/3 287/7/3 302/7/3
f 318/7/3 302/7/3 317/7/3
f 319/7/3 303/7/3 288/7/3
f 319/7/3 304/7/3 303/7/3
f 320/7/3 289/7/3 304/7/3
f 320/7/3 304/7/3 319/7/3
f 321/7/3 305/7/3 290/7/3
f 321/7/3 306/7/3 305/7/3
f 322/7/3 291/7/3 306/7/3
f 322/7/3 306/7/3 321/7/3
f 323/7/3 307/7/3 292/7/3
f 323/7/3 308/7/3 307/7/3
f 324/7/3 293/7/3 308/7/3
f 324/7/3 308/7/3 323/7/3
f 325/7/3 309/7/3 294/7/3
f 325/7/3 310/7/3 309/7/3
f 326/7/3 295/7/3 310/7/3
f 326/7/3 310/7/3 325/7/3
f 327/7/3 311/7/3 296/7/3
f 327/7/3 312/7/3 311/7/3
f 328/7/3 297/7/3 312/7/3
f 328/7/3 312/7/3 327/7/3
f 329/7/3 313/7/3 298/7/3
f 329/7/3 314/7/3 313/7/3
f 330/7/3 299/7/3 314/7/3
f 330/7/3 314/7/3 329/7/3
f 331/7/3 315/7/3 300/7/3
f 331/7/3 316/7/3 315/7/3
f 332/7/3 156/7/3 316/7/3
f 332/7/3 316/7/3 331/7/3
f 333/4/3 286/4/3 285/4/3
f 334/7/3 317/7/3 286/7/3
f 334/4/3 286/4/3 333/4/3
f 335/3/3 318/3/3 317/3/3
f 335/7/3 317/7/3 334/7/3
f 336/7/3 287/7/3 318/7/3
f 336/3/3 318/3/3 335/3/3
f 337/4/3 288/4/3 287/4/3
f 337/7/3 287/7/3 336/7/3
f 338/7/3 319/7/3 288/7/3
f 338/4/3 288/4/3 337/4/3
f 339/3/3 320/3/3 319/3/3
f 339/7/3 319/7/3 338/7/3
f 340/7/3 289/7/3 320/7/3
f 340/3/3 320/3/3 339/3/3
f 341/4/3 290/4/3 289/4/3
f 341/7/3 289/7/3 340/7/3
f 342/7/3 321/7/3 290/7/3
f 342/4/3 290/4/3 341/4/3
f 343/3/3 322/3/3 321/3/3
f 343/7/3 321/7/3 342/7/3
f 344/7/3 291/7/3 322/7/3
f 344/3/3 322/3/3 343/3/3
f 345/4/3 292/4/3 291/4/3
f 345/7/3 291/7/3 344/7/3
f 346/7/3 323/7/3 292/7/3
f 346/4/3 292/4/3 345/4/3
f 347/3/3 324/3/3 323/3/3
f 347/7/3 323/7/3 346/7/3
f 348/7/3 293/7/3 324/7/3
f 348/3/3 324/3/3 347/3/3
f 349/4/3 294/4/3 293/4/3
f 349/7/3 293/7/3 348/7/3
f 350/7/3 325/7/3 294/7/3
f 350/4/3 294/4/3 349/4/3
f 351/3/3 326/3/3 325/3/3
f 351/7/3 325/7/3 350/7/3
f 352/7/3 295/7/3 326/7/3
f 352/3/3 326/3/3 351/3/3
f 353/4/3 296/4/3 295/4/3
f 353/7/3 295/7/3 352/7/3
f 354/7/3 327/7/3 296/7/3
f 354/4/3 296/4/3 353/4/3
f 355/3/3 328/3/3 327/3/3
f 355/7/3 327/7/3 354/7/3
f 356/7/3 297/7/3 328/7/3
f 356/3/3 328/3/3 355/3/3
f 357/4/3 298/4/3 297/4/3
f 357/7/3 297/7/3 356/7/3
f 358/7/3 329/7/3 298/7/3
f 358/4/3 298/4/3 357/4/3
f 359/3/3 330/3/3 329/3/3
f 359/7/3 329/7/3 358/7/3
f 360/7/3 299/7/3 330/7/3
f 360/3/3 330/3/3 359/3/3
f 361/4/3 300/4/3 299/4/3
f 361/7/3 299/7/3 360/7/3
f 362/7/3 331/7/3 300/7/3
f 362/4/3 300/4/3 361/4/3
f 363/3/3 332/3/3 331/3/3
f 363/7/3 331/7/3 362/7/3
f 364/7/3 156/7/3 332/7/3
f 364/3/3 332/3/3 363/3/3
f 365/7/3 156/7/3 364/7/3
f 369/2/4 370/2/4 371/2/4
f 371/2/4 370/2/4 372/2/4
f 369/2/4 371/2/4 373/2/4
f 372/2/4 370/2/4 374/2/4
f 368/6/4 369/6/4 375/6/4
f 373/2/4 374/2/4 376/2/4
f 375/6/4 369/6/4 376/6/4
f 369/2/4 373/2/4 376/2/4
f 374/2/4 370/2/4 377/2/4
f 376/2/4 374/2/4 377/2/4
f 366/1/4 367/1/4 378/1/4
f 378/1/4 367/1/4 379/1/4
f 380/5/4 381/5/4 384/5/4
f 384/5/4 381/5/4 385/5/4
f 386/7/4 387/7/4 388/7/4
f 388/7/4 387/7/4 389/7/4
f 385/5/4 381/5/4 391/5/4
f 390/5/4 391/5/4 392/5/4
f 391/5/4 381/5/4 393/5/4
f 392/5/4 391/5/4 393/5/4
f 382/5/4 383/5/4 394/5/4
f 394/5/4 383/5/4 395/5/4
f 403/7/5 397/7/5 396/7/5
f 404/4/5 398/4/5 397/4/5
f 404/7/5 397/7/5 403/7/5
f 405/7/5 399/7/5 398/7/5
f 405/4/5 398/4/5 404/4/5
f 406/3/5 400/3/5 399/3/5
f 406/7/5 399/7/5 405/7/5
f 407/7/5 401/7/5 400/7/5
f 407/3/5 400/3/5 406/3/5
f 408/4/5 402/4/5 401/4/5
f 408/7/5 401/7/5 407/7/5
f 409/4/5 402/4/5 408/4/5
f 410/4/5 402/4/5 409/4/5
f 411/1/5 404/1/5 403/1/5
f 412/6/5 407/6/5 406/6/5
f 412/1/5 404/1/5 411/1/5
f 412/6/5 405/6/5 404/6/5
f 412/6/5 406/6/5 405/6/5
f 412/6/5 409/6/5 408/6/5
f 412/6/5 408/6/5 407/6/5
f 413/6/5 409/6/5 412/6/5
f 414/6/5 409/6/5 413/6/5
f 415/1/5 410/1/5 409/1/5
f 415/6/5 409/6/5 414/6/5
f 416/1/5 410/1/5 415/1/5
f 417/5/5 412/5/5 411/5/5
f 417/5/5 413/5/5 412/5/5
f 418/5/5 413/5/5 417/5/5
f 419/5/5 416/5/5 415/5/5
f 419/5/5 415/5/5 414/5/5
f 420/5/5 416/5/5 419/5/5
f 423/7/5 422/7/5 421/7/5
f 424/7/5 422/7/5 423/7/5
f 427/5/5 426/5/5 425/5/5
f 428/5/5 426/5/5 427/5/5
f 431/5/5 430/5/5 429/5/5
f 432/5/5 430/5/5 431/5/5
f 433/7/6 434/7/6 435/7/6
f 435/7/6 434/7/6 436/7/6
f 437/5/6 438/5/6 439/5/6
f 439/5/6 438/5/6 440/5/6
f 441/7/6 442/7/6 443/7/6
f 443/7/6 442/7/6 444/7/6
f 443/6/6 444/6/6 445/6/6
f 445/6/6 444/6/6 446/6/6
f 445/5/6 446/5/6 447/5/6
f 447/5/6 446/5/6 448/5/6
