# MagicaVoxel @ Ephtracy

# group
o 

# material
mtllib WallsSimpleV1FrontDoorRight.mtl
usemtl palette

# normals
vn -1 0 0
vn 1 0 0
vn 0 0 1
vn 0 0 -1
vn 0 -1 0
vn 0 1 0

# texcoords
vt 0.0371094 0.5
vt 0.533203 0.5
vt 0.537109 0.5
vt 0.966797 0.5
vt 0.974609 0.5
vt 0.978516 0.5
vt 0.982422 0.5
vt 0.986328 0.5

# verts
v -0.8 0 0.8
v -0.8 0 -0.8
v -0.8 0.1 0.6
v -0.8 0.1 -0.8
v -0.8 3.8 0.6
v -0.8 3.8 -0.8
v -0.8 4 0.8
v -0.8 4 -0.8
v -0.8 4.7 0.8
v -0.8 4.7 -0.8
v -0.8 4.9 0.8
v -0.8 4.9 -0.8
v -0.7 4 0.8
v -0.7 4 -0.8
v -0.7 4.7 0.8
v -0.7 4.7 -0.8
v -0.5 3.9 0.8
v -0.5 3.9 -0.8
v -0.5 4 0.8
v -0.5 4 0.4
v -0.5 4 0.3
v -0.5 4 -0.1
v -0.5 4 -0.2
v -0.5 4 -0.7
v -0.5 4.2 0.8
v -0.5 4.2 0.4
v -0.5 4.2 0.3
v -0.5 4.2 -0.1
v -0.5 4.2 -0.2
v -0.5 4.2 -0.7
v -0.5 4.3 0.8
v -0.5 4.3 0.6
v -0.5 4.3 0.5
v -0.5 4.3 0
v -0.5 4.3 -0.1
v -0.5 4.3 -0.5
v -0.5 4.3 -0.6
v -0.5 4.3 -0.8
v -0.5 4.5 0.8
v -0.5 4.5 0.6
v -0.5 4.5 0.5
v -0.5 4.5 0
v -0.5 4.5 -0.1
v -0.5 4.5 -0.5
v -0.5 4.5 -0.6
v -0.5 4.5 -0.8
v -0.5 4.6 0.8
v -0.5 4.6 0.4
v -0.5 4.6 0.3
v -0.5 4.6 -0.1
v -0.5 4.6 -0.2
v -0.5 4.6 -0.7
v -0.5 4.8 0.8
v -0.5 4.8 0.4
v -0.5 4.8 0.3
v -0.5 4.8 -0.1
v -0.5 4.8 -0.2
v -0.5 4.8 -0.7
v -0.5 4.8 -0.8
v -0.4 0.1 0.8
v -0.4 0.1 0.6
v -0.4 3.8 0.6
v -0.4 3.8 -0.8
v -0.4 3.9 0.8
v -0.4 3.9 -0.8
v -0.4 4.8 0.8
v -0.4 4.8 -0.8
v -0.4 4.9 0.8
v -0.4 4.9 -0.8
v 0.8 0 0.8
v 0.8 0 -0.8
v 0.8 0.1 0.8
v 0.8 0.1 -0.8
v -0.8 0 0.8
v -0.8 4 0.8
v -0.8 4.7 0.8
v -0.8 4.9 0.8
v -0.7 3.9 0.8
v -0.7 4 0.8
v -0.7 4.7 0.8
v -0.7 4.8 0.8
v -0.7 4.9 0.8
v -0.6 3.9 0.8
v -0.6 4 0.8
v -0.6 4.2 0.8
v -0.6 4.3 0.8
v -0.6 4.5 0.8
v -0.6 4.6 0.8
v -0.6 4.8 0.8
v -0.6 4.9 0.8
v -0.5 3.9 0.8
v -0.5 4 0.8
v -0.5 4.2 0.8
v -0.5 4.3 0.8
v -0.5 4.5 0.8
v -0.5 4.6 0.8
v -0.5 4.8 0.8
v -0.5 4.9 0.8
v -0.4 0 0.8
v -0.4 0.1 0.8
v -0.4 3.9 0.8
v -0.4 4.8 0.8
v -0.4 4.9 0.8
v 0.7 0 0.8
v 0.7 0.1 0.8
v 0.8 0 0.8
v 0.8 0.1 0.8
v -0.8 0.1 0.6
v -0.8 3.8 0.6
v -0.4 0.1 0.6
v -0.4 3.8 0.6
v -0.8 0 -0.8
v -0.8 0.1 -0.8
v -0.8 3.8 -0.8
v -0.8 4 -0.8
v -0.8 4.7 -0.8
v -0.8 4.9 -0.8
v -0.7 3.9 -0.8
v -0.7 4 -0.8
v -0.7 4.7 -0.8
v -0.7 4.8 -0.8
v -0.7 4.9 -0.8
v -0.6 3.9 -0.8
v -0.6 4.3 -0.8
v -0.6 4.5 -0.8
v -0.6 4.8 -0.8
v -0.6 4.9 -0.8
v -0.5 3.9 -0.8
v -0.5 4.3 -0.8
v -0.5 4.5 -0.8
v -0.5 4.8 -0.8
v -0.5 4.9 -0.8
v -0.4 0 -0.8
v -0.4 0.1 -0.8
v -0.4 3.8 -0.8
v -0.4 3.9 -0.8
v -0.4 4.8 -0.8
v -0.4 4.9 -0.8
v 0.8 0 -0.8
v 0.8 0.1 -0.8
v -0.8 0 0.8
v -0.4 0 0.8
v 0.7 0 0.8
v 0.8 0 0.8
v -0.4 0 -0.7
v 0.7 0 -0.7
v -0.8 0 -0.8
v -0.4 0 -0.8
v 0.8 0 -0.8
v -0.8 3.8 0.6
v -0.4 3.8 0.6
v -0.8 3.8 -0.8
v -0.4 3.8 -0.8
v -0.8 4.7 0.8
v -0.7 4.7 0.8
v -0.8 4.7 -0.8
v -0.7 4.7 -0.8
v -0.5 4.8 0.8
v -0.4 4.8 0.8
v -0.5 4.8 0.4
v -0.5 4.8 0.3
v -0.5 4.8 -0.1
v -0.5 4.8 -0.2
v -0.5 4.8 -0.7
v -0.5 4.8 -0.8
v -0.4 4.8 -0.8
v -0.4 0.1 0.8
v 0.7 0.1 0.8
v 0.8 0.1 0.8
v -0.8 0.1 0.6
v -0.4 0.1 0.6
v -0.4 0.1 -0.7
v 0.7 0.1 -0.7
v -0.8 0.1 -0.8
v -0.4 0.1 -0.8
v 0.8 0.1 -0.8
v -0.5 3.9 0.8
v -0.4 3.9 0.8
v -0.5 3.9 -0.8
v -0.4 3.9 -0.8
v -0.8 4 0.8
v -0.7 4 0.8
v -0.8 4 -0.8
v -0.7 4 -0.8
v -0.8 4.9 0.8
v -0.7 4.9 0.8
v -0.6 4.9 0.8
v -0.5 4.9 0.8
v -0.4 4.9 0.8
v -0.8 4.9 -0.8
v -0.7 4.9 -0.8
v -0.6 4.9 -0.8
v -0.5 4.9 -0.8
v -0.4 4.9 -0.8

# faces
f 3/8/1 2/8/1 1/8/1
f 4/8/1 2/8/1 3/8/1
f 5/8/1 3/8/1 1/8/1
f 7/8/1 5/8/1 1/8/1
f 7/8/1 6/8/1 5/8/1
f 8/8/1 6/8/1 7/8/1
f 11/4/1 10/4/1 9/4/1
f 12/4/1 10/4/1 11/4/1
f 15/1/1 14/1/1 13/1/1
f 16/1/1 14/1/1 15/1/1
f 17/6/2 18/6/2 19/6/2
f 19/6/2 18/6/2 20/6/2
f 20/6/2 18/6/2 21/6/2
f 21/6/2 18/6/2 22/6/2
f 22/6/2 18/6/2 23/6/2
f 23/6/2 18/6/2 24/6/2
f 19/3/2 20/3/2 25/3/2
f 20/6/2 21/6/2 26/6/2
f 25/3/2 20/3/2 26/3/2
f 21/2/2 22/2/2 27/2/2
f 26/6/2 21/6/2 27/6/2
f 22/6/2 23/6/2 28/6/2
f 27/2/2 22/2/2 28/2/2
f 23/3/2 24/3/2 29/3/2
f 28/6/2 23/6/2 29/6/2
f 24/6/2 18/6/2 30/6/2
f 29/3/2 24/3/2 30/3/2
f 28/6/2 29/6/2 31/6/2
f 25/6/2 26/6/2 31/6/2
f 29/6/2 30/6/2 31/6/2
f 27/6/2 28/6/2 31/6/2
f 26/6/2 27/6/2 31/6/2
f 31/6/2 30/6/2 32/6/2
f 32/6/2 30/6/2 33/6/2
f 33/6/2 30/6/2 34/6/2
f 34/6/2 30/6/2 35/6/2
f 35/6/2 30/6/2 36/6/2
f 36/6/2 30/6/2 37/6/2
f 30/6/2 18/6/2 38/6/2
f 37/6/2 30/6/2 38/6/2
f 31/2/2 32/2/2 39/2/2
f 32/6/2 33/6/2 40/6/2
f 39/2/2 32/2/2 40/2/2
f 33/3/2 34/3/2 41/3/2
f 40/6/2 33/6/2 41/6/2
f 34/6/2 35/6/2 42/6/2
f 41/3/2 34/3/2 42/3/2
f 35/2/2 36/2/2 43/2/2
f 42/6/2 35/6/2 43/6/2
f 36/6/2 37/6/2 44/6/2
f 43/2/2 36/2/2 44/2/2
f 37/2/2 38/2/2 45/2/2
f 44/6/2 37/6/2 45/6/2
f 45/2/2 38/2/2 46/2/2
f 42/6/2 43/6/2 47/6/2
f 39/6/2 40/6/2 47/6/2
f 45/6/2 46/6/2 47/6/2
f 44/6/2 45/6/2 47/6/2
f 43/6/2 44/6/2 47/6/2
f 41/6/2 42/6/2 47/6/2
f 40/6/2 41/6/2 47/6/2
f 47/6/2 46/6/2 48/6/2
f 48/6/2 46/6/2 49/6/2
f 49/6/2 46/6/2 50/6/2
f 50/6/2 46/6/2 51/6/2
f 51/6/2 46/6/2 52/6/2
f 47/3/2 48/3/2 53/3/2
f 48/6/2 49/6/2 54/6/2
f 53/3/2 48/3/2 54/3/2
f 49/2/2 50/2/2 55/2/2
f 54/6/2 49/6/2 55/6/2
f 50/6/2 51/6/2 56/6/2
f 55/2/2 50/2/2 56/2/2
f 51/3/2 52/3/2 57/3/2
f 56/6/2 51/6/2 57/6/2
f 52/6/2 46/6/2 58/6/2
f 57/3/2 52/3/2 58/3/2
f 58/6/2 46/6/2 59/6/2
f 60/8/2 61/8/2 62/8/2
f 60/8/2 62/8/2 64/8/2
f 62/8/2 63/8/2 64/8/2
f 64/8/2 63/8/2 65/8/2
f 66/8/2 67/8/2 68/8/2
f 68/8/2 67/8/2 69/8/2
f 70/7/2 71/7/2 72/7/2
f 72/7/2 71/7/2 73/7/2
f 78/8/3 75/8/3 74/8/3
f 79/8/3 75/8/3 78/8/3
f 80/4/3 77/4/3 76/4/3
f 81/4/3 77/4/3 80/4/3
f 82/4/3 77/4/3 81/4/3
f 83/1/3 79/1/3 78/1/3
f 83/8/3 78/8/3 74/8/3
f 83/1/3 80/1/3 79/1/3
f 83/1/3 81/1/3 80/1/3
f 84/1/3 81/1/3 83/1/3
f 85/1/3 81/1/3 84/1/3
f 86/1/3 81/1/3 85/1/3
f 87/1/3 81/1/3 86/1/3
f 88/1/3 81/1/3 87/1/3
f 89/5/3 82/5/3 81/5/3
f 89/1/3 81/1/3 88/1/3
f 90/5/3 82/5/3 89/5/3
f 91/8/3 83/8/3 74/8/3
f 91/6/3 84/6/3 83/6/3
f 92/3/3 85/3/3 84/3/3
f 92/6/3 84/6/3 91/6/3
f 93/6/3 86/6/3 85/6/3
f 93/3/3 85/3/3 92/3/3
f 94/2/3 87/2/3 86/2/3
f 94/6/3 86/6/3 93/6/3
f 95/6/3 88/6/3 87/6/3
f 95/2/3 87/2/3 94/2/3
f 96/3/3 89/3/3 88/3/3
f 96/6/3 88/6/3 95/6/3
f 97/6/3 90/6/3 89/6/3
f 97/3/3 89/3/3 96/3/3
f 98/6/3 90/6/3 97/6/3
f 99/8/3 91/8/3 74/8/3
f 100/8/3 91/8/3 99/8/3
f 101/8/3 91/8/3 100/8/3
f 102/8/3 98/8/3 97/8/3
f 103/8/3 98/8/3 102/8/3
f 104/5/3 100/5/3 99/5/3
f 105/5/3 100/5/3 104/5/3
f 106/7/3 105/7/3 104/7/3
f 107/7/3 105/7/3 106/7/3
f 108/8/4 109/8/4 110/8/4
f 110/8/4 109/8/4 111/8/4
f 114/8/4 115/8/4 118/8/4
f 118/8/4 115/8/4 119/8/4
f 116/4/4 117/4/4 120/4/4
f 120/4/4 117/4/4 121/4/4
f 121/4/4 117/4/4 122/4/4
f 118/1/4 119/1/4 123/1/4
f 114/8/4 118/8/4 123/8/4
f 119/1/4 120/1/4 123/1/4
f 120/1/4 121/1/4 123/1/4
f 123/1/4 121/1/4 124/1/4
f 124/1/4 121/1/4 125/1/4
f 121/5/4 122/5/4 126/5/4
f 125/1/4 121/1/4 126/1/4
f 126/5/4 122/5/4 127/5/4
f 114/8/4 123/8/4 128/8/4
f 123/6/4 124/6/4 128/6/4
f 124/2/4 125/2/4 129/2/4
f 128/6/4 124/6/4 129/6/4
f 126/6/4 127/6/4 130/6/4
f 129/2/4 125/2/4 130/2/4
f 125/6/4 126/6/4 130/6/4
f 130/6/4 127/6/4 131/6/4
f 131/6/4 127/6/4 132/6/4
f 112/8/4 113/8/4 133/8/4
f 133/8/4 113/8/4 134/8/4
f 114/8/4 128/8/4 135/8/4
f 135/8/4 128/8/4 136/8/4
f 131/8/4 132/8/4 137/8/4
f 137/8/4 132/8/4 138/8/4
f 133/7/4 134/7/4 139/7/4
f 139/7/4 134/7/4 140/7/4
f 145/8/5 142/8/5 141/8/5
f 145/5/5 143/5/5 142/5/5
f 146/7/5 144/7/5 143/7/5
f 146/5/5 143/5/5 145/5/5
f 147/8/5 145/8/5 141/8/5
f 148/7/5 146/7/5 145/7/5
f 148/8/5 145/8/5 147/8/5
f 149/7/5 144/7/5 146/7/5
f 149/7/5 146/7/5 148/7/5
f 152/8/5 151/8/5 150/8/5
f 153/8/5 151/8/5 152/8/5
f 156/4/5 155/4/5 154/4/5
f 157/4/5 155/4/5 156/4/5
f 160/8/5 159/8/5 158/8/5
f 161/8/5 159/8/5 160/8/5
f 162/8/5 159/8/5 161/8/5
f 163/8/5 159/8/5 162/8/5
f 164/8/5 159/8/5 163/8/5
f 165/8/5 159/8/5 164/8/5
f 166/8/5 159/8/5 165/8/5
f 167/5/6 168/5/6 171/5/6
f 171/5/6 168/5/6 172/5/6
f 170/8/6 171/8/6 172/8/6
f 168/7/6 169/7/6 173/7/6
f 172/5/6 168/5/6 173/5/6
f 170/8/6 172/8/6 174/8/6
f 172/7/6 173/7/6 175/7/6
f 174/8/6 172/8/6 175/8/6
f 173/7/6 169/7/6 176/7/6
f 175/7/6 173/7/6 176/7/6
f 177/8/6 178/8/6 179/8/6
f 179/8/6 178/8/6 180/8/6
f 181/8/6 182/8/6 183/8/6
f 183/8/6 182/8/6 184/8/6
f 185/4/6 186/4/6 190/4/6
f 186/5/6 187/5/6 191/5/6
f 190/4/6 186/4/6 191/4/6
f 187/6/6 188/6/6 192/6/6
f 191/5/6 187/5/6 192/5/6
f 188/8/6 189/8/6 193/8/6
f 192/6/6 188/6/6 193/6/6
f 193/8/6 189/8/6 194/8/6
