# MagicaVoxel @ Ephtracy

# group
o 

# material
mtllib CeilingBitsFrontCorner1.mtl
usemtl palette

# normals
vn -1 0 0
vn 1 0 0
vn 0 0 1
vn 0 0 -1
vn 0 -1 0
vn 0 1 0

# texcoords
vt 0.533203 0.5
vt 0.537109 0.5
vt 0.962891 0.5
vt 0.966797 0.5
vt 0.970703 0.5
vt 0.978516 0.5
vt 0.982422 0.5
vt 0.986328 0.5

# verts
v -0.8 1.2 -0.6
v -0.8 1.2 -0.8
v -0.8 1.3 -0.5
v -0.8 1.3 -0.6
v -0.8 1.3 -0.8
v -0.8 1.4 -0.5
v -0.8 1.4 -0.6
v -0.8 1.5 -0.5
v -0.8 1.5 -0.6
v -0.8 1.5 -0.8
v -0.8 1.6 -0.6
v -0.8 1.6 -0.8
v -0.8 1.7 -0.6
v -0.8 1.7 -0.8
v -0.6 1.2 -0.5
v -0.6 1.2 -0.6
v -0.6 1.3 -0.5
v -0.6 1.3 -0.6
v -0.2 1.2 -0.5
v -0.2 1.2 -0.6
v -0.2 1.3 -0.5
v -0.2 1.3 -0.6
v 0.2 1.2 -0.5
v 0.2 1.2 -0.6
v 0.2 1.3 -0.5
v 0.2 1.3 -0.6
v 0.6 1.2 -0.5
v 0.6 1.2 -0.6
v 0.6 1.3 -0.5
v 0.6 1.3 -0.6
v 0.6 1.5 -0.5
v 0.6 1.5 -0.6
v 0.6 1.6 -0.6
v 0.6 1.7 -0.5
v 0.6 1.7 -0.6
v -0.4 1.2 -0.5
v -0.4 1.2 -0.6
v -0.4 1.3 -0.5
v -0.4 1.3 -0.6
v 0 1.2 -0.5
v 0 1.2 -0.6
v 0 1.3 -0.5
v 0 1.3 -0.6
v 0.4 1.2 -0.5
v 0.4 1.2 -0.6
v 0.4 1.3 -0.5
v 0.4 1.3 -0.6
v 0.8 1.2 -0.5
v 0.8 1.2 -0.8
v 0.8 1.3 -0.5
v 0.8 1.3 -0.8
v 0.8 1.5 -0.5
v 0.8 1.5 -0.8
v 0.8 1.6 -0.6
v 0.8 1.6 -0.8
v 0.8 1.7 -0.5
v 0.8 1.7 -0.6
v 0.8 1.7 -0.8
v -0.8 1.3 -0.5
v -0.8 1.4 -0.5
v -0.8 1.5 -0.5
v -0.7 1.4 -0.5
v -0.7 1.5 -0.5
v -0.6 1.2 -0.5
v -0.6 1.3 -0.5
v -0.6 1.4 -0.5
v -0.6 1.5 -0.5
v -0.5 1.4 -0.5
v -0.5 1.5 -0.5
v -0.4 1.2 -0.5
v -0.4 1.3 -0.5
v -0.4 1.4 -0.5
v -0.4 1.5 -0.5
v -0.3 1.4 -0.5
v -0.3 1.5 -0.5
v -0.2 1.2 -0.5
v -0.2 1.3 -0.5
v 0 1.2 -0.5
v 0 1.3 -0.5
v 0.1 1.4 -0.5
v 0.1 1.5 -0.5
v 0.2 1.2 -0.5
v 0.2 1.3 -0.5
v 0.2 1.4 -0.5
v 0.2 1.5 -0.5
v 0.3 1.4 -0.5
v 0.3 1.5 -0.5
v 0.4 1.2 -0.5
v 0.4 1.3 -0.5
v 0.5 1.4 -0.5
v 0.5 1.5 -0.5
v 0.6 1.2 -0.5
v 0.6 1.3 -0.5
v 0.6 1.4 -0.5
v 0.6 1.5 -0.5
v 0.6 1.7 -0.5
v 0.7 1.3 -0.5
v 0.7 1.4 -0.5
v 0.7 1.5 -0.5
v 0.8 1.2 -0.5
v 0.8 1.3 -0.5
v 0.8 1.5 -0.5
v 0.8 1.7 -0.5
v -0.8 1.2 -0.6
v -0.8 1.3 -0.6
v -0.8 1.5 -0.6
v -0.8 1.6 -0.6
v -0.8 1.7 -0.6
v -0.7 1.5 -0.6
v -0.6 1.2 -0.6
v -0.6 1.3 -0.6
v -0.6 1.5 -0.6
v -0.6 1.6 -0.6
v -0.6 1.7 -0.6
v -0.5 1.5 -0.6
v -0.5 1.6 -0.6
v -0.5 1.7 -0.6
v -0.4 1.2 -0.6
v -0.4 1.3 -0.6
v -0.4 1.5 -0.6
v -0.3 1.5 -0.6
v -0.2 1.2 -0.6
v -0.2 1.3 -0.6
v -0.2 1.6 -0.6
v -0.2 1.7 -0.6
v -0.1 1.6 -0.6
v -0.1 1.7 -0.6
v 0 1.2 -0.6
v 0 1.3 -0.6
v 0.1 1.5 -0.6
v 0.2 1.2 -0.6
v 0.2 1.3 -0.6
v 0.2 1.5 -0.6
v 0.3 1.5 -0.6
v 0.3 1.6 -0.6
v 0.3 1.7 -0.6
v 0.4 1.2 -0.6
v 0.4 1.3 -0.6
v 0.4 1.6 -0.6
v 0.4 1.7 -0.6
v 0.5 1.5 -0.6
v 0.6 1.2 -0.6
v 0.6 1.3 -0.6
v 0.6 1.5 -0.6
v 0.6 1.6 -0.6
v 0.6 1.7 -0.6
v -0.8 1.2 -0.8
v -0.8 1.3 -0.8
v -0.8 1.5 -0.8
v -0.8 1.6 -0.8
v -0.8 1.7 -0.8
v -0.6 1.6 -0.8
v -0.6 1.7 -0.8
v -0.5 1.6 -0.8
v -0.5 1.7 -0.8
v -0.4 1.3 -0.8
v -0.4 1.5 -0.8
v -0.3 1.3 -0.8
v -0.3 1.5 -0.8
v -0.2 1.6 -0.8
v -0.2 1.7 -0.8
v -0.1 1.6 -0.8
v -0.1 1.7 -0.8
v 0 1.3 -0.8
v 0 1.5 -0.8
v 0.1 1.3 -0.8
v 0.1 1.5 -0.8
v 0.3 1.6 -0.8
v 0.3 1.7 -0.8
v 0.4 1.6 -0.8
v 0.4 1.7 -0.8
v 0.5 1.3 -0.8
v 0.5 1.5 -0.8
v 0.6 1.3 -0.8
v 0.6 1.5 -0.8
v 0.8 1.2 -0.8
v 0.8 1.3 -0.8
v 0.8 1.5 -0.8
v 0.8 1.6 -0.8
v 0.8 1.7 -0.8
v -0.6 1.2 -0.5
v -0.4 1.2 -0.5
v -0.2 1.2 -0.5
v 0 1.2 -0.5
v 0.2 1.2 -0.5
v 0.4 1.2 -0.5
v 0.6 1.2 -0.5
v 0.8 1.2 -0.5
v -0.8 1.2 -0.6
v -0.6 1.2 -0.6
v -0.4 1.2 -0.6
v -0.2 1.2 -0.6
v 0 1.2 -0.6
v 0.2 1.2 -0.6
v 0.4 1.2 -0.6
v 0.6 1.2 -0.6
v -0.8 1.2 -0.8
v 0.8 1.2 -0.8
v -0.8 1.3 -0.5
v -0.6 1.3 -0.5
v -0.4 1.3 -0.5
v -0.2 1.3 -0.5
v 0 1.3 -0.5
v 0.2 1.3 -0.5
v 0.4 1.3 -0.5
v 0.6 1.3 -0.5
v -0.8 1.3 -0.6
v -0.6 1.3 -0.6
v -0.4 1.3 -0.6
v -0.2 1.3 -0.6
v 0 1.3 -0.6
v 0.2 1.3 -0.6
v 0.4 1.3 -0.6
v 0.6 1.3 -0.6
v -0.8 1.5 -0.5
v -0.7 1.5 -0.5
v -0.6 1.5 -0.5
v -0.5 1.5 -0.5
v -0.4 1.5 -0.5
v -0.3 1.5 -0.5
v 0.1 1.5 -0.5
v 0.2 1.5 -0.5
v 0.3 1.5 -0.5
v 0.5 1.5 -0.5
v 0.6 1.5 -0.5
v -0.8 1.5 -0.6
v -0.7 1.5 -0.6
v -0.6 1.5 -0.6
v -0.5 1.5 -0.6
v -0.4 1.5 -0.6
v -0.3 1.5 -0.6
v 0.1 1.5 -0.6
v 0.2 1.5 -0.6
v 0.3 1.5 -0.6
v 0.5 1.5 -0.6
v 0.6 1.5 -0.6
v 0.6 1.7 -0.5
v 0.8 1.7 -0.5
v -0.8 1.7 -0.6
v -0.6 1.7 -0.6
v -0.5 1.7 -0.6
v -0.2 1.7 -0.6
v -0.1 1.7 -0.6
v 0.3 1.7 -0.6
v 0.4 1.7 -0.6
v 0.6 1.7 -0.6
v 0.8 1.7 -0.6
v -0.8 1.7 -0.8
v -0.6 1.7 -0.8
v -0.5 1.7 -0.8
v -0.2 1.7 -0.8
v -0.1 1.7 -0.8
v 0.3 1.7 -0.8
v 0.4 1.7 -0.8
v 0.8 1.7 -0.8

# faces
f 4/6/1 2/6/1 1/6/1
f 5/6/1 2/6/1 4/6/1
f 6/5/1 4/5/1 3/5/1
f 7/2/1 5/2/1 4/2/1
f 7/5/1 4/5/1 6/5/1
f 8/7/1 7/7/1 6/7/1
f 9/2/1 5/2/1 7/2/1
f 9/7/1 7/7/1 8/7/1
f 10/2/1 5/2/1 9/2/1
f 11/6/1 10/6/1 9/6/1
f 12/6/1 10/6/1 11/6/1
f 13/1/1 12/1/1 11/1/1
f 14/1/1 12/1/1 13/1/1
f 17/3/1 16/3/1 15/3/1
f 18/3/1 16/3/1 17/3/1
f 21/3/1 20/3/1 19/3/1
f 22/3/1 20/3/1 21/3/1
f 25/3/1 24/3/1 23/3/1
f 26/3/1 24/3/1 25/3/1
f 29/6/1 28/6/1 27/6/1
f 30/6/1 28/6/1 29/6/1
f 33/6/1 32/6/1 31/6/1
f 34/6/1 33/6/1 31/6/1
f 35/6/1 33/6/1 34/6/1
f 36/3/2 37/3/2 38/3/2
f 38/3/2 37/3/2 39/3/2
f 40/3/2 41/3/2 42/3/2
f 42/3/2 41/3/2 43/3/2
f 44/3/2 45/3/2 46/3/2
f 46/3/2 45/3/2 47/3/2
f 48/6/2 49/6/2 50/6/2
f 50/6/2 49/6/2 51/6/2
f 50/2/2 51/2/2 52/2/2
f 52/2/2 51/2/2 53/2/2
f 52/6/2 53/6/2 54/6/2
f 54/6/2 53/6/2 55/6/2
f 52/6/2 54/6/2 56/6/2
f 54/1/2 55/1/2 57/1/2
f 56/6/2 54/6/2 57/6/2
f 57/1/2 55/1/2 58/1/2
f 62/5/3 60/5/3 59/5/3
f 62/7/3 61/7/3 60/7/3
f 63/7/3 61/7/3 62/7/3
f 65/5/3 62/5/3 59/5/3
f 66/6/3 63/6/3 62/6/3
f 66/5/3 62/5/3 65/5/3
f 67/6/3 63/6/3 66/6/3
f 68/4/3 66/4/3 65/4/3
f 68/8/3 67/8/3 66/8/3
f 69/8/3 67/8/3 68/8/3
f 70/3/3 65/3/3 64/3/3
f 71/4/3 68/4/3 65/4/3
f 71/3/3 65/3/3 70/3/3
f 72/6/3 69/6/3 68/6/3
f 72/4/3 68/4/3 71/4/3
f 73/6/3 69/6/3 72/6/3
f 74/4/3 72/4/3 71/4/3
f 74/7/3 73/7/3 72/7/3
f 75/7/3 73/7/3 74/7/3
f 77/4/3 74/4/3 71/4/3
f 78/3/3 77/3/3 76/3/3
f 79/4/3 74/4/3 77/4/3
f 79/3/3 77/3/3 78/3/3
f 80/6/3 75/6/3 74/6/3
f 80/4/3 74/4/3 79/4/3
f 81/6/3 75/6/3 80/6/3
f 83/4/3 80/4/3 79/4/3
f 84/7/3 81/7/3 80/7/3
f 84/4/3 80/4/3 83/4/3
f 85/7/3 81/7/3 84/7/3
f 86/4/3 84/4/3 83/4/3
f 86/8/3 85/8/3 84/8/3
f 87/8/3 85/8/3 86/8/3
f 88/3/3 83/3/3 82/3/3
f 89/4/3 86/4/3 83/4/3
f 89/3/3 83/3/3 88/3/3
f 90/6/3 87/6/3 86/6/3
f 90/4/3 86/4/3 89/4/3
f 91/6/3 87/6/3 90/6/3
f 93/4/3 90/4/3 89/4/3
f 94/8/3 91/8/3 90/8/3
f 94/4/3 90/4/3 93/4/3
f 95/8/3 91/8/3 94/8/3
f 97/4/3 94/4/3 93/4/3
f 97/6/3 93/6/3 92/6/3
f 98/1/3 95/1/3 94/1/3
f 98/4/3 94/4/3 97/4/3
f 99/6/3 96/6/3 95/6/3
f 99/1/3 95/1/3 98/1/3
f 100/6/3 97/6/3 92/6/3
f 101/2/3 98/2/3 97/2/3
f 101/6/3 97/6/3 100/6/3
f 101/2/3 99/2/3 98/2/3
f 102/6/3 96/6/3 99/6/3
f 102/2/3 99/2/3 101/2/3
f 103/6/3 96/6/3 102/6/3
f 109/6/3 107/6/3 106/6/3
f 110/6/3 105/6/3 104/6/3
f 111/6/3 105/6/3 110/6/3
f 112/6/3 107/6/3 109/6/3
f 113/1/3 108/1/3 107/1/3
f 113/6/3 107/6/3 112/6/3
f 114/1/3 108/1/3 113/1/3
f 115/6/3 113/6/3 112/6/3
f 115/6/3 114/6/3 113/6/3
f 116/6/3 114/6/3 115/6/3
f 117/6/3 114/6/3 116/6/3
f 120/6/3 116/6/3 115/6/3
f 121/6/3 116/6/3 120/6/3
f 122/6/3 119/6/3 118/6/3
f 123/6/3 119/6/3 122/6/3
f 124/6/3 116/6/3 121/6/3
f 124/2/3 117/2/3 116/2/3
f 125/2/3 117/2/3 124/2/3
f 126/6/3 124/6/3 121/6/3
f 126/6/3 125/6/3 124/6/3
f 127/6/3 125/6/3 126/6/3
f 130/6/3 126/6/3 121/6/3
f 131/6/3 129/6/3 128/6/3
f 132/6/3 129/6/3 131/6/3
f 133/6/3 126/6/3 130/6/3
f 134/6/3 126/6/3 133/6/3
f 135/2/3 127/2/3 126/2/3
f 135/6/3 126/6/3 134/6/3
f 136/2/3 127/2/3 135/2/3
f 139/6/3 135/6/3 134/6/3
f 139/6/3 136/6/3 135/6/3
f 140/6/3 136/6/3 139/6/3
f 141/6/3 139/6/3 134/6/3
f 142/6/3 138/6/3 137/6/3
f 143/6/3 138/6/3 142/6/3
f 144/6/3 139/6/3 141/6/3
f 145/1/3 140/1/3 139/1/3
f 145/6/3 139/6/3 144/6/3
f 146/1/3 140/1/3 145/1/3
f 149/6/4 150/6/4 152/6/4
f 150/1/4 151/1/4 152/1/4
f 152/1/4 151/1/4 153/1/4
f 149/6/4 152/6/4 154/6/4
f 152/6/4 153/6/4 154/6/4
f 154/6/4 153/6/4 155/6/4
f 147/6/4 148/6/4 156/6/4
f 148/2/4 149/2/4 156/2/4
f 149/6/4 154/6/4 157/6/4
f 156/2/4 149/2/4 157/2/4
f 147/6/4 156/6/4 158/6/4
f 156/6/4 157/6/4 158/6/4
f 157/6/4 154/6/4 159/6/4
f 158/6/4 157/6/4 159/6/4
f 154/2/4 155/2/4 160/2/4
f 159/6/4 154/6/4 160/6/4
f 160/2/4 155/2/4 161/2/4
f 159/6/4 160/6/4 162/6/4
f 160/6/4 161/6/4 162/6/4
f 162/6/4 161/6/4 163/6/4
f 158/2/4 159/2/4 164/2/4
f 147/6/4 158/6/4 164/6/4
f 159/6/4 162/6/4 165/6/4
f 164/2/4 159/2/4 165/2/4
f 147/6/4 164/6/4 166/6/4
f 164/6/4 165/6/4 166/6/4
f 165/6/4 162/6/4 167/6/4
f 166/6/4 165/6/4 167/6/4
f 162/2/4 163/2/4 168/2/4
f 167/6/4 162/6/4 168/6/4
f 168/2/4 163/2/4 169/2/4
f 167/6/4 168/6/4 170/6/4
f 168/6/4 169/6/4 170/6/4
f 170/6/4 169/6/4 171/6/4
f 166/1/4 167/1/4 172/1/4
f 147/6/4 166/6/4 172/6/4
f 167/6/4 170/6/4 173/6/4
f 172/1/4 167/1/4 173/1/4
f 147/6/4 172/6/4 174/6/4
f 172/6/4 173/6/4 174/6/4
f 173/6/4 170/6/4 175/6/4
f 174/6/4 173/6/4 175/6/4
f 147/6/4 174/6/4 176/6/4
f 174/2/4 175/2/4 177/2/4
f 176/6/4 174/6/4 177/6/4
f 175/6/4 170/6/4 178/6/4
f 177/2/4 175/2/4 178/2/4
f 170/1/4 171/1/4 179/1/4
f 178/6/4 170/6/4 179/6/4
f 179/1/4 171/1/4 180/1/4
f 190/3/5 182/3/5 181/3/5
f 191/3/5 182/3/5 190/3/5
f 192/3/5 184/3/5 183/3/5
f 193/3/5 184/3/5 192/3/5
f 194/3/5 186/3/5 185/3/5
f 195/3/5 186/3/5 194/3/5
f 196/6/5 188/6/5 187/6/5
f 197/6/5 195/6/5 194/6/5
f 197/6/5 196/6/5 195/6/5
f 197/6/5 191/6/5 190/6/5
f 197/6/5 193/6/5 192/6/5
f 197/6/5 194/6/5 193/6/5
f 197/6/5 190/6/5 189/6/5
f 197/6/5 192/6/5 191/6/5
f 198/6/5 188/6/5 196/6/5
f 198/6/5 196/6/5 197/6/5
f 207/5/5 200/5/5 199/5/5
f 208/5/5 200/5/5 207/5/5
f 209/4/5 202/4/5 201/4/5
f 210/4/5 202/4/5 209/4/5
f 211/4/5 204/4/5 203/4/5
f 212/4/5 204/4/5 211/4/5
f 213/4/5 206/4/5 205/4/5
f 214/4/5 206/4/5 213/4/5
f 215/7/6 216/7/6 226/7/6
f 216/6/6 217/6/6 227/6/6
f 226/7/6 216/7/6 227/7/6
f 217/8/6 218/8/6 228/8/6
f 227/6/6 217/6/6 228/6/6
f 218/6/6 219/6/6 229/6/6
f 228/8/6 218/8/6 229/8/6
f 219/7/6 220/7/6 230/7/6
f 229/6/6 219/6/6 230/6/6
f 220/6/6 221/6/6 231/6/6
f 230/7/6 220/7/6 231/7/6
f 221/7/6 222/7/6 232/7/6
f 231/6/6 221/6/6 232/6/6
f 222/8/6 223/8/6 233/8/6
f 232/7/6 222/7/6 233/7/6
f 223/6/6 224/6/6 234/6/6
f 233/8/6 223/8/6 234/8/6
f 224/8/6 225/8/6 235/8/6
f 234/6/6 224/6/6 235/6/6
f 235/8/6 225/8/6 236/8/6
f 237/6/6 238/6/6 246/6/6
f 246/6/6 238/6/6 247/6/6
f 239/1/6 240/1/6 248/1/6
f 240/6/6 241/6/6 249/6/6
f 248/1/6 240/1/6 249/1/6
f 241/2/6 242/2/6 250/2/6
f 249/6/6 241/6/6 250/6/6
f 242/6/6 243/6/6 251/6/6
f 250/2/6 242/2/6 251/2/6
f 243/2/6 244/2/6 252/2/6
f 251/6/6 243/6/6 252/6/6
f 244/6/6 245/6/6 253/6/6
f 252/2/6 244/2/6 253/2/6
f 245/1/6 246/1/6 254/1/6
f 253/6/6 245/6/6 254/6/6
f 246/1/6 247/1/6 254/1/6
f 254/1/6 247/1/6 255/1/6
