# MagicaVoxel @ Ephtracy

# group
o 

# material
mtllib CeilingBitsFront2.mtl
usemtl palette

# normals
vn -1 0 0
vn 1 0 0
vn 0 0 1
vn 0 0 -1
vn 0 -1 0
vn 0 1 0

# texcoords
vt 0.533203 0.5
vt 0.537109 0.5
vt 0.962891 0.5
vt 0.966797 0.5
vt 0.978516 0.5
vt 0.982422 0.5
vt 0.986328 0.5

# verts
v -0.8 1.2 0.8
v -0.8 1.2 -0.8
v -0.8 1.3 0.8
v -0.8 1.3 0.4
v -0.8 1.3 0.3
v -0.8 1.3 0
v -0.8 1.3 -0.1
v -0.8 1.3 -0.5
v -0.8 1.3 -0.6
v -0.8 1.3 -0.8
v -0.8 1.5 0.8
v -0.8 1.5 0.4
v -0.8 1.5 0.3
v -0.8 1.5 0
v -0.8 1.5 -0.1
v -0.8 1.5 -0.5
v -0.8 1.5 -0.6
v -0.8 1.5 -0.8
v -0.8 1.6 0.8
v -0.8 1.6 0.6
v -0.8 1.6 0.5
v -0.8 1.6 0.2
v -0.8 1.6 0.1
v -0.8 1.6 -0.3
v -0.8 1.6 -0.4
v -0.8 1.6 -0.8
v -0.8 1.7 0.8
v -0.8 1.7 0.6
v -0.8 1.7 0.5
v -0.8 1.7 0.2
v -0.8 1.7 0.1
v -0.8 1.7 -0.3
v -0.8 1.7 -0.4
v -0.8 1.7 -0.8
v -0.4 1.2 0.8
v -0.4 1.2 -0.6
v -0.4 1.3 0.8
v -0.4 1.3 -0.6
v 0 1.2 0.8
v 0 1.2 -0.6
v 0 1.3 0.8
v 0 1.3 -0.6
v 0.4 1.2 0.8
v 0.4 1.2 -0.6
v 0.4 1.3 0.8
v 0.4 1.3 -0.6
v 0.6 1.5 0.8
v 0.6 1.5 0.7
v 0.6 1.5 0.6
v 0.6 1.5 0.4
v 0.6 1.5 0.2
v 0.6 1.5 0.1
v 0.6 1.5 0
v 0.6 1.5 -0.1
v 0.6 1.5 -0.2
v 0.6 1.5 -0.3
v 0.6 1.5 -0.4
v 0.6 1.5 -0.5
v 0.6 1.5 -0.6
v 0.6 1.6 0.8
v 0.6 1.6 0.4
v 0.6 1.6 0.3
v 0.6 1.6 -0.1
v 0.6 1.6 -0.2
v 0.6 1.6 -0.5
v 0.6 1.6 -0.6
v 0.6 1.7 0.8
v 0.6 1.7 0.4
v 0.6 1.7 0.3
v 0.6 1.7 -0.1
v 0.6 1.7 -0.2
v 0.6 1.7 -0.5
v 0.6 1.7 -0.6
v -0.6 1.2 0.8
v -0.6 1.2 -0.6
v -0.6 1.3 0.8
v -0.6 1.3 -0.6
v -0.6 1.5 0.8
v -0.6 1.5 0.7
v -0.6 1.5 0.6
v -0.6 1.5 0.5
v -0.6 1.5 0.2
v -0.6 1.5 -0.1
v -0.6 1.5 -0.2
v -0.6 1.5 -0.3
v -0.6 1.5 -0.4
v -0.6 1.5 -0.5
v -0.6 1.5 -0.6
v -0.6 1.6 0.8
v -0.6 1.6 0.6
v -0.6 1.6 0.5
v -0.6 1.6 0.2
v -0.6 1.6 0.1
v -0.6 1.6 -0.3
v -0.6 1.6 -0.4
v -0.6 1.6 -0.6
v -0.6 1.7 0.8
v -0.6 1.7 0.6
v -0.6 1.7 0.5
v -0.6 1.7 0.2
v -0.6 1.7 0.1
v -0.6 1.7 -0.3
v -0.6 1.7 -0.4
v -0.6 1.7 -0.6
v -0.2 1.2 0.8
v -0.2 1.2 -0.6
v -0.2 1.3 0.8
v -0.2 1.3 -0.6
v 0.2 1.2 0.8
v 0.2 1.2 -0.6
v 0.2 1.3 0.8
v 0.2 1.3 -0.6
v 0.8 1.2 0.8
v 0.8 1.2 -0.8
v 0.8 1.3 0.8
v 0.8 1.3 0.6
v 0.8 1.3 0.5
v 0.8 1.3 0.1
v 0.8 1.3 0
v 0.8 1.3 -0.3
v 0.8 1.3 -0.4
v 0.8 1.3 -0.8
v 0.8 1.5 0.8
v 0.8 1.5 0.6
v 0.8 1.5 0.5
v 0.8 1.5 0.1
v 0.8 1.5 0
v 0.8 1.5 -0.3
v 0.8 1.5 -0.4
v 0.8 1.5 -0.8
v 0.8 1.6 0.8
v 0.8 1.6 0.4
v 0.8 1.6 0.3
v 0.8 1.6 -0.1
v 0.8 1.6 -0.2
v 0.8 1.6 -0.5
v 0.8 1.6 -0.6
v 0.8 1.6 -0.8
v 0.8 1.7 0.8
v 0.8 1.7 0.4
v 0.8 1.7 0.3
v 0.8 1.7 -0.1
v 0.8 1.7 -0.2
v 0.8 1.7 -0.5
v 0.8 1.7 -0.6
v 0.8 1.7 -0.8
v -0.8 1.2 0.8
v -0.8 1.3 0.8
v -0.8 1.5 0.8
v -0.8 1.6 0.8
v -0.8 1.7 0.8
v -0.6 1.2 0.8
v -0.6 1.3 0.8
v -0.6 1.4 0.8
v -0.6 1.5 0.8
v -0.6 1.6 0.8
v -0.6 1.7 0.8
v -0.5 1.4 0.8
v -0.5 1.5 0.8
v -0.4 1.2 0.8
v -0.4 1.3 0.8
v -0.4 1.4 0.8
v -0.4 1.5 0.8
v -0.2 1.2 0.8
v -0.2 1.3 0.8
v -0.2 1.4 0.8
v -0.2 1.5 0.8
v -0.1 1.4 0.8
v -0.1 1.5 0.8
v 0 1.2 0.8
v 0 1.3 0.8
v 0.1 1.4 0.8
v 0.1 1.5 0.8
v 0.2 1.2 0.8
v 0.2 1.3 0.8
v 0.2 1.4 0.8
v 0.2 1.5 0.8
v 0.3 1.4 0.8
v 0.3 1.5 0.8
v 0.4 1.2 0.8
v 0.4 1.3 0.8
v 0.4 1.4 0.8
v 0.4 1.5 0.8
v 0.6 1.2 0.8
v 0.6 1.3 0.8
v 0.6 1.4 0.8
v 0.6 1.5 0.8
v 0.6 1.6 0.8
v 0.6 1.7 0.8
v 0.8 1.2 0.8
v 0.8 1.3 0.8
v 0.8 1.5 0.8
v 0.8 1.6 0.8
v 0.8 1.7 0.8
v -0.6 1.2 -0.6
v -0.6 1.3 -0.6
v -0.6 1.5 -0.6
v -0.6 1.6 -0.6
v -0.6 1.7 -0.6
v -0.5 1.5 -0.6
v -0.5 1.6 -0.6
v -0.5 1.7 -0.6
v -0.4 1.2 -0.6
v -0.4 1.3 -0.6
v -0.4 1.5 -0.6
v -0.3 1.5 -0.6
v -0.2 1.2 -0.6
v -0.2 1.3 -0.6
v -0.2 1.6 -0.6
v -0.2 1.7 -0.6
v -0.1 1.6 -0.6
v -0.1 1.7 -0.6
v 0 1.2 -0.6
v 0 1.3 -0.6
v 0.1 1.5 -0.6
v 0.2 1.2 -0.6
v 0.2 1.3 -0.6
v 0.2 1.5 -0.6
v 0.3 1.5 -0.6
v 0.3 1.6 -0.6
v 0.3 1.7 -0.6
v 0.4 1.2 -0.6
v 0.4 1.3 -0.6
v 0.4 1.6 -0.6
v 0.4 1.7 -0.6
v 0.5 1.5 -0.6
v 0.6 1.5 -0.6
v 0.6 1.6 -0.6
v 0.6 1.7 -0.6
v -0.8 1.2 -0.8
v -0.8 1.3 -0.8
v -0.8 1.5 -0.8
v -0.8 1.6 -0.8
v -0.8 1.7 -0.8
v -0.6 1.6 -0.8
v -0.6 1.7 -0.8
v -0.5 1.6 -0.8
v -0.5 1.7 -0.8
v -0.4 1.3 -0.8
v -0.4 1.5 -0.8
v -0.3 1.3 -0.8
v -0.3 1.5 -0.8
v -0.2 1.6 -0.8
v -0.2 1.7 -0.8
v -0.1 1.6 -0.8
v -0.1 1.7 -0.8
v 0 1.3 -0.8
v 0 1.5 -0.8
v 0.1 1.3 -0.8
v 0.1 1.5 -0.8
v 0.3 1.6 -0.8
v 0.3 1.7 -0.8
v 0.4 1.6 -0.8
v 0.4 1.7 -0.8
v 0.5 1.3 -0.8
v 0.5 1.5 -0.8
v 0.6 1.3 -0.8
v 0.6 1.5 -0.8
v 0.8 1.2 -0.8
v 0.8 1.3 -0.8
v 0.8 1.5 -0.8
v 0.8 1.6 -0.8
v 0.8 1.7 -0.8
v -0.8 1.2 0.8
v -0.6 1.2 0.8
v -0.4 1.2 0.8
v -0.2 1.2 0.8
v 0 1.2 0.8
v 0.2 1.2 0.8
v 0.4 1.2 0.8
v 0.6 1.2 0.8
v 0.8 1.2 0.8
v -0.6 1.2 -0.6
v -0.4 1.2 -0.6
v -0.2 1.2 -0.6
v 0 1.2 -0.6
v 0.2 1.2 -0.6
v 0.4 1.2 -0.6
v 0.6 1.2 -0.6
v -0.8 1.2 -0.8
v 0.8 1.2 -0.8
v -0.6 1.3 0.8
v -0.4 1.3 0.8
v -0.2 1.3 0.8
v 0 1.3 0.8
v 0.2 1.3 0.8
v 0.4 1.3 0.8
v -0.6 1.3 -0.6
v -0.4 1.3 -0.6
v -0.2 1.3 -0.6
v 0 1.3 -0.6
v 0.2 1.3 -0.6
v 0.4 1.3 -0.6
v -0.6 1.5 0.8
v -0.5 1.5 0.8
v -0.4 1.5 0.8
v -0.2 1.5 0.8
v -0.1 1.5 0.8
v 0.1 1.5 0.8
v 0.2 1.5 0.8
v 0.3 1.5 0.8
v 0.4 1.5 0.8
v 0.6 1.5 0.8
v -0.6 1.5 0.7
v -0.5 1.5 0.7
v -0.4 1.5 0.7
v -0.3 1.5 0.7
v -0.2 1.5 0.7
v -0.1 1.5 0.7
v 0.1 1.5 0.7
v 0.2 1.5 0.7
v 0.3 1.5 0.7
v 0.5 1.5 0.7
v 0.6 1.5 0.7
v -0.6 1.5 0.6
v -0.5 1.5 0.6
v -0.4 1.5 0.6
v -0.3 1.5 0.6
v -0.2 1.5 0.6
v -0.1 1.5 0.6
v 0 1.5 0.6
v 0.1 1.5 0.6
v 0.2 1.5 0.6
v 0.3 1.5 0.6
v 0.4 1.5 0.6
v 0.5 1.5 0.6
v 0.6 1.5 0.6
v -0.6 1.5 0.5
v -0.5 1.5 0.5
v -0.4 1.5 0.5
v -0.2 1.5 0.5
v -0.1 1.5 0.5
v 0 1.5 0.5
v 0.1 1.5 0.5
v 0.2 1.5 0.5
v 0.3 1.5 0.5
v 0.4 1.5 0.5
v -0.2 1.5 0.4
v -0.1 1.5 0.4
v 0 1.5 0.4
v 0.1 1.5 0.4
v 0.2 1.5 0.4
v 0.4 1.5 0.4
v 0.5 1.5 0.4
v 0.6 1.5 0.4
v -0.5 1.5 0.3
v -0.4 1.5 0.3
v -0.3 1.5 0.3
v -0.2 1.5 0.3
v -0.1 1.5 0.3
v 0 1.5 0.3
v 0.1 1.5 0.3
v 0.2 1.5 0.3
v 0.3 1.5 0.3
v 0.5 1.5 0.3
v -0.6 1.5 0.2
v -0.5 1.5 0.2
v -0.3 1.5 0.2
v -0.2 1.5 0.2
v -0.1 1.5 0.2
v 0 1.5 0.2
v 0.1 1.5 0.2
v 0.2 1.5 0.2
v 0.3 1.5 0.2
v 0.4 1.5 0.2
v 0.5 1.5 0.2
v 0.6 1.5 0.2
v -0.5 1.5 0.1
v -0.4 1.5 0.1
v -0.3 1.5 0.1
v -0.2 1.5 0.1
v -0.1 1.5 0.1
v 0 1.5 0.1
v 0.1 1.5 0.1
v 0.2 1.5 0.1
v 0.3 1.5 0.1
v 0.4 1.5 0.1
v 0.5 1.5 0.1
v 0.6 1.5 0.1
v -0.4 1.5 0
v -0.3 1.5 0
v -0.2 1.5 0
v -0.1 1.5 0
v 0 1.5 0
v 0.1 1.5 0
v 0.2 1.5 0
v 0.3 1.5 0
v 0.4 1.5 0
v 0.5 1.5 0
v 0.6 1.5 0
v -0.6 1.5 -0.1
v -0.5 1.5 -0.1
v -0.4 1.5 -0.1
v -0.3 1.5 -0.1
v -0.2 1.5 -0.1
v -0.1 1.5 -0.1
v 0 1.5 -0.1
v 0.1 1.5 -0.1
v 0.2 1.5 -0.1
v 0.3 1.5 -0.1
v 0.4 1.5 -0.1
v 0.5 1.5 -0.1
v 0.6 1.5 -0.1
v -0.6 1.5 -0.2
v -0.5 1.5 -0.2
v -0.4 1.5 -0.2
v -0.3 1.5 -0.2
v -0.2 1.5 -0.2
v 0 1.5 -0.2
v 0.1 1.5 -0.2
v 0.2 1.5 -0.2
v 0.3 1.5 -0.2
v 0.4 1.5 -0.2
v 0.5 1.5 -0.2
v 0.6 1.5 -0.2
v -0.6 1.5 -0.3
v -0.5 1.5 -0.3
v -0.4 1.5 -0.3
v -0.3 1.5 -0.3
v -0.2 1.5 -0.3
v -0.1 1.5 -0.3
v 0 1.5 -0.3
v 0.1 1.5 -0.3
v 0.2 1.5 -0.3
v 0.3 1.5 -0.3
v 0.4 1.5 -0.3
v 0.5 1.5 -0.3
v 0.6 1.5 -0.3
v -0.6 1.5 -0.4
v -0.5 1.5 -0.4
v -0.4 1.5 -0.4
v -0.3 1.5 -0.4
v -0.2 1.5 -0.4
v -0.1 1.5 -0.4
v 0 1.5 -0.4
v 0.1 1.5 -0.4
v 0.2 1.5 -0.4
v 0.3 1.5 -0.4
v 0.4 1.5 -0.4
v 0.5 1.5 -0.4
v 0.6 1.5 -0.4
v -0.6 1.5 -0.5
v -0.5 1.5 -0.5
v -0.4 1.5 -0.5
v -0.3 1.5 -0.5
v 0 1.5 -0.5
v 0.1 1.5 -0.5
v 0.2 1.5 -0.5
v 0.3 1.5 -0.5
v 0.4 1.5 -0.5
v 0.5 1.5 -0.5
v 0.6 1.5 -0.5
v -0.6 1.5 -0.6
v -0.5 1.5 -0.6
v -0.4 1.5 -0.6
v -0.3 1.5 -0.6
v 0.1 1.5 -0.6
v 0.2 1.5 -0.6
v 0.3 1.5 -0.6
v 0.5 1.5 -0.6
v 0.6 1.5 -0.6
v -0.8 1.7 0.8
v -0.6 1.7 0.8
v 0.6 1.7 0.8
v 0.8 1.7 0.8
v -0.8 1.7 0.6
v -0.6 1.7 0.6
v -0.8 1.7 0.5
v -0.6 1.7 0.5
v 0.6 1.7 0.4
v 0.8 1.7 0.4
v 0.6 1.7 0.3
v 0.8 1.7 0.3
v -0.8 1.7 0.2
v -0.6 1.7 0.2
v -0.8 1.7 0.1
v -0.6 1.7 0.1
v 0.6 1.7 -0.1
v 0.8 1.7 -0.1
v 0.6 1.7 -0.2
v 0.8 1.7 -0.2
v -0.8 1.7 -0.3
v -0.6 1.7 -0.3
v -0.8 1.7 -0.4
v -0.6 1.7 -0.4
v 0.6 1.7 -0.5
v 0.8 1.7 -0.5
v -0.6 1.7 -0.6
v -0.5 1.7 -0.6
v -0.2 1.7 -0.6
v -0.1 1.7 -0.6
v 0.3 1.7 -0.6
v 0.4 1.7 -0.6
v 0.6 1.7 -0.6
v 0.8 1.7 -0.6
v -0.8 1.7 -0.8
v -0.6 1.7 -0.8
v -0.5 1.7 -0.8
v -0.2 1.7 -0.8
v -0.1 1.7 -0.8
v 0.3 1.7 -0.8
v 0.4 1.7 -0.8
v 0.8 1.7 -0.8

# faces
f 3/5/1 2/5/1 1/5/1
f 4/5/1 2/5/1 3/5/1
f 5/5/1 2/5/1 4/5/1
f 6/5/1 2/5/1 5/5/1
f 7/5/1 2/5/1 6/5/1
f 8/5/1 2/5/1 7/5/1
f 9/5/1 2/5/1 8/5/1
f 10/5/1 2/5/1 9/5/1
f 11/1/1 4/1/1 3/1/1
f 12/5/1 5/5/1 4/5/1
f 12/1/1 4/1/1 11/1/1
f 13/1/1 6/1/1 5/1/1
f 13/5/1 5/5/1 12/5/1
f 14/5/1 7/5/1 6/5/1
f 14/1/1 6/1/1 13/1/1
f 15/2/1 8/2/1 7/2/1
f 15/5/1 7/5/1 14/5/1
f 16/5/1 9/5/1 8/5/1
f 16/2/1 8/2/1 15/2/1
f 17/2/1 10/2/1 9/2/1
f 17/5/1 9/5/1 16/5/1
f 18/2/1 10/2/1 17/2/1
f 19/5/1 12/5/1 11/5/1
f 19/5/1 13/5/1 12/5/1
f 19/5/1 18/5/1 17/5/1
f 19/5/1 17/5/1 16/5/1
f 19/5/1 16/5/1 15/5/1
f 19/5/1 15/5/1 14/5/1
f 19/5/1 14/5/1 13/5/1
f 20/5/1 18/5/1 19/5/1
f 21/5/1 18/5/1 20/5/1
f 22/5/1 18/5/1 21/5/1
f 23/5/1 18/5/1 22/5/1
f 24/5/1 18/5/1 23/5/1
f 25/5/1 18/5/1 24/5/1
f 26/5/1 18/5/1 25/5/1
f 27/1/1 20/1/1 19/1/1
f 28/5/1 21/5/1 20/5/1
f 28/1/1 20/1/1 27/1/1
f 29/1/1 22/1/1 21/1/1
f 29/5/1 21/5/1 28/5/1
f 30/5/1 23/5/1 22/5/1
f 30/1/1 22/1/1 29/1/1
f 31/2/1 24/2/1 23/2/1
f 31/5/1 23/5/1 30/5/1
f 32/5/1 25/5/1 24/5/1
f 32/2/1 24/2/1 31/2/1
f 33/1/1 26/1/1 25/1/1
f 33/5/1 25/5/1 32/5/1
f 34/1/1 26/1/1 33/1/1
f 37/3/1 36/3/1 35/3/1
f 38/3/1 36/3/1 37/3/1
f 41/3/1 40/3/1 39/3/1
f 42/3/1 40/3/1 41/3/1
f 45/3/1 44/3/1 43/3/1
f 46/3/1 44/3/1 45/3/1
f 60/5/1 48/5/1 47/5/1
f 60/5/1 59/5/1 58/5/1
f 60/5/1 58/5/1 57/5/1
f 60/5/1 57/5/1 56/5/1
f 60/5/1 56/5/1 55/5/1
f 60/5/1 55/5/1 54/5/1
f 60/5/1 54/5/1 53/5/1
f 60/5/1 53/5/1 52/5/1
f 60/5/1 52/5/1 51/5/1
f 60/5/1 51/5/1 50/5/1
f 60/5/1 50/5/1 49/5/1
f 60/5/1 49/5/1 48/5/1
f 61/5/1 59/5/1 60/5/1
f 62/5/1 59/5/1 61/5/1
f 63/5/1 59/5/1 62/5/1
f 64/5/1 59/5/1 63/5/1
f 65/5/1 59/5/1 64/5/1
f 66/5/1 59/5/1 65/5/1
f 67/2/1 61/2/1 60/2/1
f 68/5/1 62/5/1 61/5/1
f 68/2/1 61/2/1 67/2/1
f 69/1/1 63/1/1 62/1/1
f 69/5/1 62/5/1 68/5/1
f 70/5/1 64/5/1 63/5/1
f 70/1/1 63/1/1 69/1/1
f 71/2/1 65/2/1 64/2/1
f 71/5/1 64/5/1 70/5/1
f 72/5/1 66/5/1 65/5/1
f 72/2/1 65/2/1 71/2/1
f 73/5/1 66/5/1 72/5/1
f 74/5/2 75/5/2 76/5/2
f 76/5/2 75/5/2 77/5/2
f 78/5/2 79/5/2 89/5/2
f 87/5/2 88/5/2 89/5/2
f 86/5/2 87/5/2 89/5/2
f 85/5/2 86/5/2 89/5/2
f 84/5/2 85/5/2 89/5/2
f 83/5/2 84/5/2 89/5/2
f 82/5/2 83/5/2 89/5/2
f 81/5/2 82/5/2 89/5/2
f 80/5/2 81/5/2 89/5/2
f 79/5/2 80/5/2 89/5/2
f 89/5/2 88/5/2 90/5/2
f 90/5/2 88/5/2 91/5/2
f 91/5/2 88/5/2 92/5/2
f 92/5/2 88/5/2 93/5/2
f 93/5/2 88/5/2 94/5/2
f 94/5/2 88/5/2 95/5/2
f 95/5/2 88/5/2 96/5/2
f 89/1/2 90/1/2 97/1/2
f 90/5/2 91/5/2 98/5/2
f 97/1/2 90/1/2 98/1/2
f 91/1/2 92/1/2 99/1/2
f 98/5/2 91/5/2 99/5/2
f 92/5/2 93/5/2 100/5/2
f 99/1/2 92/1/2 100/1/2
f 93/2/2 94/2/2 101/2/2
f 100/5/2 93/5/2 101/5/2
f 94/5/2 95/5/2 102/5/2
f 101/2/2 94/2/2 102/2/2
f 95/1/2 96/1/2 103/1/2
f 102/5/2 95/5/2 103/5/2
f 103/1/2 96/1/2 104/1/2
f 105/3/2 106/3/2 107/3/2
f 107/3/2 106/3/2 108/3/2
f 109/3/2 110/3/2 111/3/2
f 111/3/2 110/3/2 112/3/2
f 113/5/2 114/5/2 115/5/2
f 115/5/2 114/5/2 116/5/2
f 116/5/2 114/5/2 117/5/2
f 117/5/2 114/5/2 118/5/2
f 118/5/2 114/5/2 119/5/2
f 119/5/2 114/5/2 120/5/2
f 120/5/2 114/5/2 121/5/2
f 121/5/2 114/5/2 122/5/2
f 115/1/2 116/1/2 123/1/2
f 116/5/2 117/5/2 124/5/2
f 123/1/2 116/1/2 124/1/2
f 117/2/2 118/2/2 125/2/2
f 124/5/2 117/5/2 125/5/2
f 118/5/2 119/5/2 126/5/2
f 125/2/2 118/2/2 126/2/2
f 119/1/2 120/1/2 127/1/2
f 126/5/2 119/5/2 127/5/2
f 120/5/2 121/5/2 128/5/2
f 127/1/2 120/1/2 128/1/2
f 121/2/2 122/2/2 129/2/2
f 128/5/2 121/5/2 129/5/2
f 129/2/2 122/2/2 130/2/2
f 123/5/2 124/5/2 131/5/2
f 124/5/2 125/5/2 131/5/2
f 129/5/2 130/5/2 131/5/2
f 128/5/2 129/5/2 131/5/2
f 127/5/2 128/5/2 131/5/2
f 126/5/2 127/5/2 131/5/2
f 125/5/2 126/5/2 131/5/2
f 131/5/2 130/5/2 132/5/2
f 132/5/2 130/5/2 133/5/2
f 133/5/2 130/5/2 134/5/2
f 134/5/2 130/5/2 135/5/2
f 135/5/2 130/5/2 136/5/2
f 136/5/2 130/5/2 137/5/2
f 137/5/2 130/5/2 138/5/2
f 131/2/2 132/2/2 139/2/2
f 132/5/2 133/5/2 140/5/2
f 139/2/2 132/2/2 140/2/2
f 133/1/2 134/1/2 141/1/2
f 140/5/2 133/5/2 141/5/2
f 134/5/2 135/5/2 142/5/2
f 141/1/2 134/1/2 142/1/2
f 135/2/2 136/2/2 143/2/2
f 142/5/2 135/5/2 143/5/2
f 136/5/2 137/5/2 144/5/2
f 143/2/2 136/2/2 144/2/2
f 137/1/2 138/1/2 145/1/2
f 144/5/2 137/5/2 145/5/2
f 145/1/2 138/1/2 146/1/2
f 152/5/3 148/5/3 147/5/3
f 153/1/3 149/1/3 148/1/3
f 153/5/3 148/5/3 152/5/3
f 154/1/3 149/1/3 153/1/3
f 155/5/3 150/5/3 149/5/3
f 155/1/3 149/1/3 154/1/3
f 156/1/3 151/1/3 150/1/3
f 156/5/3 150/5/3 155/5/3
f 157/1/3 151/1/3 156/1/3
f 158/5/3 155/5/3 154/5/3
f 158/4/3 154/4/3 153/4/3
f 159/5/3 155/5/3 158/5/3
f 161/4/3 158/4/3 153/4/3
f 162/6/3 159/6/3 158/6/3
f 162/4/3 158/4/3 161/4/3
f 163/6/3 159/6/3 162/6/3
f 164/3/3 161/3/3 160/3/3
f 165/4/3 162/4/3 161/4/3
f 165/3/3 161/3/3 164/3/3
f 166/5/3 163/5/3 162/5/3
f 166/4/3 162/4/3 165/4/3
f 167/5/3 163/5/3 166/5/3
f 168/4/3 166/4/3 165/4/3
f 168/7/3 167/7/3 166/7/3
f 169/7/3 167/7/3 168/7/3
f 171/4/3 168/4/3 165/4/3
f 172/6/3 169/6/3 168/6/3
f 172/4/3 168/4/3 171/4/3
f 173/6/3 169/6/3 172/6/3
f 174/3/3 171/3/3 170/3/3
f 175/4/3 172/4/3 171/4/3
f 175/3/3 171/3/3 174/3/3
f 176/5/3 173/5/3 172/5/3
f 176/4/3 172/4/3 175/4/3
f 177/5/3 173/5/3 176/5/3
f 178/4/3 176/4/3 175/4/3
f 178/6/3 177/6/3 176/6/3
f 179/6/3 177/6/3 178/6/3
f 181/4/3 178/4/3 175/4/3
f 182/5/3 179/5/3 178/5/3
f 182/4/3 178/4/3 181/4/3
f 183/5/3 179/5/3 182/5/3
f 184/3/3 181/3/3 180/3/3
f 185/4/3 182/4/3 181/4/3
f 185/3/3 181/3/3 184/3/3
f 186/7/3 183/7/3 182/7/3
f 186/4/3 182/4/3 185/4/3
f 187/7/3 183/7/3 186/7/3
f 190/5/3 185/5/3 184/5/3
f 191/1/3 187/1/3 186/1/3
f 191/5/3 185/5/3 190/5/3
f 191/1/3 186/1/3 185/1/3
f 192/5/3 188/5/3 187/5/3
f 192/1/3 187/1/3 191/1/3
f 193/2/3 189/2/3 188/2/3
f 193/5/3 188/5/3 192/5/3
f 194/2/3 189/2/3 193/2/3
f 200/5/3 198/5/3 197/5/3
f 200/5/3 199/5/3 198/5/3
f 201/5/3 199/5/3 200/5/3
f 202/5/3 199/5/3 201/5/3
f 203/5/3 196/5/3 195/5/3
f 204/5/3 196/5/3 203/5/3
f 205/5/3 201/5/3 200/5/3
f 206/5/3 201/5/3 205/5/3
f 209/2/3 202/2/3 201/2/3
f 209/5/3 201/5/3 206/5/3
f 210/2/3 202/2/3 209/2/3
f 211/5/3 209/5/3 206/5/3
f 211/5/3 210/5/3 209/5/3
f 212/5/3 210/5/3 211/5/3
f 213/5/3 208/5/3 207/5/3
f 214/5/3 208/5/3 213/5/3
f 215/5/3 211/5/3 206/5/3
f 218/5/3 211/5/3 215/5/3
f 219/5/3 211/5/3 218/5/3
f 220/2/3 212/2/3 211/2/3
f 220/5/3 211/5/3 219/5/3
f 221/2/3 212/2/3 220/2/3
f 222/5/3 217/5/3 216/5/3
f 223/5/3 217/5/3 222/5/3
f 224/5/3 220/5/3 219/5/3
f 224/5/3 221/5/3 220/5/3
f 225/5/3 221/5/3 224/5/3
f 226/5/3 224/5/3 219/5/3
f 227/5/3 224/5/3 226/5/3
f 228/1/3 225/1/3 224/1/3
f 228/5/3 224/5/3 227/5/3
f 229/1/3 225/1/3 228/1/3
f 232/5/4 233/5/4 235/5/4
f 233/1/4 234/1/4 235/1/4
f 235/1/4 234/1/4 236/1/4
f 232/5/4 235/5/4 237/5/4
f 235/5/4 236/5/4 237/5/4
f 237/5/4 236/5/4 238/5/4
f 230/5/4 231/5/4 239/5/4
f 231/2/4 232/2/4 239/2/4
f 232/5/4 237/5/4 240/5/4
f 239/2/4 232/2/4 240/2/4
f 230/5/4 239/5/4 241/5/4
f 239/5/4 240/5/4 241/5/4
f 240/5/4 237/5/4 242/5/4
f 241/5/4 240/5/4 242/5/4
f 237/2/4 238/2/4 243/2/4
f 242/5/4 237/5/4 243/5/4
f 243/2/4 238/2/4 244/2/4
f 242/5/4 243/5/4 245/5/4
f 243/5/4 244/5/4 245/5/4
f 245/5/4 244/5/4 246/5/4
f 241/2/4 242/2/4 247/2/4
f 230/5/4 241/5/4 247/5/4
f 242/5/4 245/5/4 248/5/4
f 247/2/4 242/2/4 248/2/4
f 230/5/4 247/5/4 249/5/4
f 247/5/4 248/5/4 249/5/4
f 248/5/4 245/5/4 250/5/4
f 249/5/4 248/5/4 250/5/4
f 245/2/4 246/2/4 251/2/4
f 250/5/4 245/5/4 251/5/4
f 251/2/4 246/2/4 252/2/4
f 250/5/4 251/5/4 253/5/4
f 251/5/4 252/5/4 253/5/4
f 253/5/4 252/5/4 254/5/4
f 249/1/4 250/1/4 255/1/4
f 230/5/4 249/5/4 255/5/4
f 250/5/4 253/5/4 256/5/4
f 255/1/4 250/1/4 256/1/4
f 230/5/4 255/5/4 257/5/4
f 255/5/4 256/5/4 257/5/4
f 256/5/4 253/5/4 258/5/4
f 257/5/4 256/5/4 258/5/4
f 230/5/4 257/5/4 259/5/4
f 257/2/4 258/2/4 260/2/4
f 259/5/4 257/5/4 260/5/4
f 258/5/4 253/5/4 261/5/4
f 260/2/4 258/2/4 261/2/4
f 253/1/4 254/1/4 262/1/4
f 261/5/4 253/5/4 262/5/4
f 262/1/4 254/1/4 263/1/4
f 273/5/5 265/5/5 264/5/5
f 274/3/5 267/3/5 266/3/5
f 275/3/5 267/3/5 274/3/5
f 276/3/5 269/3/5 268/3/5
f 277/3/5 269/3/5 276/3/5
f 278/3/5 271/3/5 270/3/5
f 279/5/5 272/5/5 271/5/5
f 279/3/5 271/3/5 278/3/5
f 280/5/5 278/5/5 277/5/5
f 280/5/5 273/5/5 264/5/5
f 280/5/5 279/5/5 278/5/5
f 280/5/5 275/5/5 274/5/5
f 280/5/5 276/5/5 275/5/5
f 280/5/5 277/5/5 276/5/5
f 280/5/5 274/5/5 273/5/5
f 281/5/5 272/5/5 279/5/5
f 281/5/5 279/5/5 280/5/5
f 288/4/5 283/4/5 282/4/5
f 289/4/5 283/4/5 288/4/5
f 290/4/5 285/4/5 284/4/5
f 291/4/5 285/4/5 290/4/5
f 292/4/5 287/4/5 286/4/5
f 293/4/5 287/4/5 292/4/5
f 294/5/6 295/5/6 304/5/6
f 295/6/6 296/6/6 305/6/6
f 304/5/6 295/5/6 305/5/6
f 296/5/6 297/5/6 306/5/6
f 305/6/6 296/6/6 306/6/6
f 306/5/6 297/5/6 307/5/6
f 297/7/6 298/7/6 308/7/6
f 307/5/6 297/5/6 308/5/6
f 298/6/6 299/6/6 309/6/6
f 308/7/6 298/7/6 309/7/6
f 299/5/6 300/5/6 310/5/6
f 309/6/6 299/6/6 310/6/6
f 300/6/6 301/6/6 311/6/6
f 310/5/6 300/5/6 311/5/6
f 301/5/6 302/5/6 312/5/6
f 311/6/6 301/6/6 312/6/6
f 302/7/6 303/7/6 313/7/6
f 313/7/6 303/7/6 314/7/6
f 304/6/6 305/6/6 315/6/6
f 306/5/6 307/5/6 316/5/6
f 315/6/6 305/6/6 316/6/6
f 305/5/6 306/5/6 316/5/6
f 316/5/6 307/5/6 317/5/6
f 307/6/6 308/6/6 318/6/6
f 317/5/6 307/5/6 318/5/6
f 308/7/6 309/7/6 319/7/6
f 318/6/6 308/6/6 319/6/6
f 309/5/6 310/5/6 320/5/6
f 319/7/6 309/7/6 320/7/6
f 320/5/6 310/5/6 321/5/6
f 310/7/6 311/7/6 322/7/6
f 321/5/6 310/5/6 322/5/6
f 311/5/6 312/5/6 323/5/6
f 322/7/6 311/7/6 323/7/6
f 312/5/6 302/5/6 324/5/6
f 323/5/6 312/5/6 324/5/6
f 302/7/6 313/7/6 325/7/6
f 324/5/6 302/5/6 325/5/6
f 313/5/6 314/5/6 326/5/6
f 325/7/6 313/7/6 326/7/6
f 326/5/6 314/5/6 327/5/6
f 315/5/6 316/5/6 328/5/6
f 316/7/6 317/7/6 329/7/6
f 328/5/6 316/5/6 329/5/6
f 317/6/6 318/6/6 330/6/6
f 329/7/6 317/7/6 330/7/6
f 318/5/6 319/5/6 331/5/6
f 319/5/6 320/5/6 331/5/6
f 320/6/6 321/6/6 332/6/6
f 331/5/6 320/5/6 332/5/6
f 321/5/6 322/5/6 333/5/6
f 332/6/6 321/6/6 333/6/6
f 322/6/6 323/6/6 334/6/6
f 333/5/6 322/5/6 334/5/6
f 323/7/6 324/7/6 335/7/6
f 334/6/6 323/6/6 335/6/6
f 324/5/6 325/5/6 336/5/6
f 335/7/6 324/7/6 336/7/6
f 325/5/6 326/5/6 336/5/6
f 336/5/6 326/5/6 337/5/6
f 318/5/6 331/5/6 338/5/6
f 331/7/6 332/7/6 338/7/6
f 332/5/6 333/5/6 339/5/6
f 338/7/6 332/7/6 339/7/6
f 333/7/6 334/7/6 340/7/6
f 339/5/6 333/5/6 340/5/6
f 334/5/6 335/5/6 341/5/6
f 340/7/6 334/7/6 341/7/6
f 335/5/6 336/5/6 341/5/6
f 341/5/6 336/5/6 342/5/6
f 337/5/6 326/5/6 343/5/6
f 336/6/6 337/6/6 343/6/6
f 326/6/6 327/6/6 344/6/6
f 343/5/6 326/5/6 344/5/6
f 344/6/6 327/6/6 345/6/6
f 328/6/6 329/6/6 346/6/6
f 329/5/6 330/5/6 346/5/6
f 330/6/6 318/6/6 347/6/6
f 346/5/6 330/5/6 347/5/6
f 318/5/6 338/5/6 348/5/6
f 347/6/6 318/6/6 348/6/6
f 338/6/6 339/6/6 349/6/6
f 348/5/6 338/5/6 349/5/6
f 339/7/6 340/7/6 350/7/6
f 349/6/6 339/6/6 350/6/6
f 340/5/6 341/5/6 351/5/6
f 350/7/6 340/7/6 351/7/6
f 341/7/6 342/7/6 352/7/6
f 351/5/6 341/5/6 352/5/6
f 342/5/6 336/5/6 353/5/6
f 352/7/6 342/7/6 353/7/6
f 336/6/6 343/6/6 354/6/6
f 353/5/6 336/5/6 354/5/6
f 343/6/6 344/6/6 354/6/6
f 344/7/6 345/7/6 355/7/6
f 354/6/6 344/6/6 355/6/6
f 328/6/6 346/6/6 356/6/6
f 346/7/6 347/7/6 357/7/6
f 356/6/6 346/6/6 357/6/6
f 348/7/6 349/7/6 358/7/6
f 347/5/6 348/5/6 358/5/6
f 350/5/6 351/5/6 359/5/6
f 358/7/6 349/7/6 359/7/6
f 349/5/6 350/5/6 359/5/6
f 359/5/6 351/5/6 360/5/6
f 351/6/6 352/6/6 361/6/6
f 360/5/6 351/5/6 361/5/6
f 352/5/6 353/5/6 362/5/6
f 361/6/6 352/6/6 362/6/6
f 353/7/6 354/7/6 363/7/6
f 362/5/6 353/5/6 363/5/6
f 354/5/6 355/5/6 364/5/6
f 363/7/6 354/7/6 364/7/6
f 364/5/6 355/5/6 365/5/6
f 355/7/6 345/7/6 366/7/6
f 365/5/6 355/5/6 366/5/6
f 366/7/6 345/7/6 367/7/6
f 357/7/6 347/7/6 368/7/6
f 356/5/6 357/5/6 368/5/6
f 347/5/6 358/5/6 369/5/6
f 368/7/6 347/7/6 369/7/6
f 358/5/6 359/5/6 369/5/6
f 369/5/6 359/5/6 370/5/6
f 359/7/6 360/7/6 371/7/6
f 370/5/6 359/5/6 371/5/6
f 360/6/6 361/6/6 372/6/6
f 371/7/6 360/7/6 372/7/6
f 361/5/6 362/5/6 373/5/6
f 372/6/6 361/6/6 373/6/6
f 362/6/6 363/6/6 374/6/6
f 373/5/6 362/5/6 374/5/6
f 363/7/6 364/7/6 375/7/6
f 374/6/6 363/6/6 375/6/6
f 364/6/6 365/6/6 376/6/6
f 375/7/6 364/7/6 376/7/6
f 365/5/6 366/5/6 377/5/6
f 376/6/6 365/6/6 377/6/6
f 366/6/6 367/6/6 378/6/6
f 377/5/6 366/5/6 378/5/6
f 378/6/6 367/6/6 379/6/6
f 369/5/6 370/5/6 380/5/6
f 368/6/6 369/6/6 380/6/6
f 370/7/6 371/7/6 381/7/6
f 380/5/6 370/5/6 381/5/6
f 371/6/6 372/6/6 382/6/6
f 381/7/6 371/7/6 382/7/6
f 374/5/6 375/5/6 383/5/6
f 382/6/6 372/6/6 383/6/6
f 372/5/6 373/5/6 383/5/6
f 373/5/6 374/5/6 383/5/6
f 383/5/6 375/5/6 384/5/6
f 384/5/6 375/5/6 385/5/6
f 375/7/6 376/7/6 386/7/6
f 385/5/6 375/5/6 386/5/6
f 376/5/6 377/5/6 387/5/6
f 386/7/6 376/7/6 387/7/6
f 377/5/6 378/5/6 387/5/6
f 387/5/6 378/5/6 388/5/6
f 378/7/6 379/7/6 389/7/6
f 388/5/6 378/5/6 389/5/6
f 389/7/6 379/7/6 390/7/6
f 356/5/6 368/5/6 391/5/6
f 380/6/6 381/6/6 392/6/6
f 391/5/6 368/5/6 392/5/6
f 368/6/6 380/6/6 392/6/6
f 392/6/6 381/6/6 393/6/6
f 381/5/6 382/5/6 394/5/6
f 393/6/6 381/6/6 394/6/6
f 382/5/6 383/5/6 394/5/6
f 394/5/6 383/5/6 395/5/6
f 383/7/6 384/7/6 396/7/6
f 395/5/6 383/5/6 396/5/6
f 384/5/6 385/5/6 397/5/6
f 396/7/6 384/7/6 397/7/6
f 385/7/6 386/7/6 398/7/6
f 397/5/6 385/5/6 398/5/6
f 386/6/6 387/6/6 399/6/6
f 398/7/6 386/7/6 399/7/6
f 387/5/6 388/5/6 400/5/6
f 399/6/6 387/6/6 400/6/6
f 388/6/6 389/6/6 401/6/6
f 400/5/6 388/5/6 401/5/6
f 389/5/6 390/5/6 402/5/6
f 401/6/6 389/6/6 402/6/6
f 402/5/6 390/5/6 403/5/6
f 391/7/6 392/7/6 404/7/6
f 392/5/6 393/5/6 405/5/6
f 404/7/6 392/7/6 405/7/6
f 393/7/6 394/7/6 406/7/6
f 405/5/6 393/5/6 406/5/6
f 394/5/6 395/5/6 407/5/6
f 406/7/6 394/7/6 407/7/6
f 395/7/6 396/7/6 408/7/6
f 407/5/6 395/5/6 408/5/6
f 396/5/6 397/5/6 409/5/6
f 397/6/6 398/6/6 409/6/6
f 400/5/6 401/5/6 410/5/6
f 409/6/6 398/6/6 410/6/6
f 398/5/6 399/5/6 410/5/6
f 399/5/6 400/5/6 410/5/6
f 401/5/6 402/5/6 410/5/6
f 410/5/6 402/5/6 411/5/6
f 411/5/6 402/5/6 412/5/6
f 412/5/6 402/5/6 413/5/6
f 402/7/6 403/7/6 414/7/6
f 413/5/6 402/5/6 414/5/6
f 414/7/6 403/7/6 415/7/6
f 405/5/6 406/5/6 416/5/6
f 406/5/6 407/5/6 416/5/6
f 404/5/6 405/5/6 416/5/6
f 416/5/6 407/5/6 417/5/6
f 417/5/6 407/5/6 418/5/6
f 407/6/6 408/6/6 419/6/6
f 418/5/6 407/5/6 419/5/6
f 408/7/6 396/7/6 420/7/6
f 419/6/6 408/6/6 420/6/6
f 396/5/6 409/5/6 421/5/6
f 420/7/6 396/7/6 421/7/6
f 409/5/6 410/5/6 421/5/6
f 421/5/6 410/5/6 422/5/6
f 410/7/6 411/7/6 423/7/6
f 422/5/6 410/5/6 423/5/6
f 411/6/6 412/6/6 424/6/6
f 423/7/6 411/7/6 424/7/6
f 412/5/6 413/5/6 425/5/6
f 424/6/6 412/6/6 425/6/6
f 413/7/6 414/7/6 426/7/6
f 425/5/6 413/5/6 426/5/6
f 414/5/6 415/5/6 427/5/6
f 426/7/6 414/7/6 427/7/6
f 427/5/6 415/5/6 428/5/6
f 416/7/6 417/7/6 429/7/6
f 417/5/6 418/5/6 430/5/6
f 429/7/6 417/7/6 430/7/6
f 418/7/6 419/7/6 431/7/6
f 430/5/6 418/5/6 431/5/6
f 419/7/6 420/7/6 431/7/6
f 431/7/6 420/7/6 432/7/6
f 420/5/6 421/5/6 433/5/6
f 432/7/6 420/7/6 433/7/6
f 421/7/6 422/7/6 434/7/6
f 433/5/6 421/5/6 434/5/6
f 422/6/6 423/6/6 435/6/6
f 434/7/6 422/7/6 435/7/6
f 423/5/6 424/5/6 436/5/6
f 435/6/6 423/6/6 436/6/6
f 424/5/6 425/5/6 436/5/6
f 436/5/6 425/5/6 437/5/6
f 425/6/6 426/6/6 438/6/6
f 437/5/6 425/5/6 438/5/6
f 426/5/6 427/5/6 439/5/6
f 438/6/6 426/6/6 439/6/6
f 427/6/6 428/6/6 440/6/6
f 439/5/6 427/5/6 440/5/6
f 440/6/6 428/6/6 441/6/6
f 429/5/6 430/5/6 442/5/6
f 430/6/6 431/6/6 443/6/6
f 442/5/6 430/5/6 443/5/6
f 431/5/6 432/5/6 444/5/6
f 443/6/6 431/6/6 444/6/6
f 434/6/6 435/6/6 445/6/6
f 444/5/6 432/5/6 445/5/6
f 432/6/6 433/6/6 445/6/6
f 433/6/6 434/6/6 445/6/6
f 435/7/6 436/7/6 446/7/6
f 445/6/6 435/6/6 446/6/6
f 436/6/6 437/6/6 447/6/6
f 446/7/6 436/7/6 447/7/6
f 437/5/6 438/5/6 448/5/6
f 447/6/6 437/6/6 448/6/6
f 438/7/6 439/7/6 449/7/6
f 448/5/6 438/5/6 449/5/6
f 439/6/6 440/6/6 450/6/6
f 449/7/6 439/7/6 450/7/6
f 440/5/6 441/5/6 451/5/6
f 450/6/6 440/6/6 451/6/6
f 451/5/6 441/5/6 452/5/6
f 442/7/6 443/7/6 453/7/6
f 443/5/6 444/5/6 454/5/6
f 453/7/6 443/7/6 454/7/6
f 444/6/6 445/6/6 455/6/6
f 454/5/6 444/5/6 455/5/6
f 445/5/6 446/5/6 456/5/6
f 455/6/6 445/6/6 456/6/6
f 446/5/6 447/5/6 456/5/6
f 447/6/6 448/6/6 457/6/6
f 456/5/6 447/5/6 457/5/6
f 448/7/6 449/7/6 458/7/6
f 457/6/6 448/6/6 458/6/6
f 449/5/6 450/5/6 459/5/6
f 458/7/6 449/7/6 459/7/6
f 450/5/6 451/5/6 459/5/6
f 451/7/6 452/7/6 460/7/6
f 459/5/6 451/5/6 460/5/6
f 460/7/6 452/7/6 461/7/6
f 462/1/6 463/1/6 466/1/6
f 466/1/6 463/1/6 467/1/6
f 466/5/6 467/5/6 468/5/6
f 468/5/6 467/5/6 469/5/6
f 464/2/6 465/2/6 470/2/6
f 470/2/6 465/2/6 471/2/6
f 470/5/6 471/5/6 472/5/6
f 472/5/6 471/5/6 473/5/6
f 468/1/6 469/1/6 474/1/6
f 474/1/6 469/1/6 475/1/6
f 474/5/6 475/5/6 476/5/6
f 476/5/6 475/5/6 477/5/6
f 472/1/6 473/1/6 478/1/6
f 478/1/6 473/1/6 479/1/6
f 478/5/6 479/5/6 480/5/6
f 480/5/6 479/5/6 481/5/6
f 476/2/6 477/2/6 482/2/6
f 482/2/6 477/2/6 483/2/6
f 482/5/6 483/5/6 484/5/6
f 484/5/6 483/5/6 485/5/6
f 480/2/6 481/2/6 486/2/6
f 486/2/6 481/2/6 487/2/6
f 484/1/6 485/1/6 488/1/6
f 486/5/6 487/5/6 494/5/6
f 494/5/6 487/5/6 495/5/6
f 484/1/6 488/1/6 496/1/6
f 488/5/6 489/5/6 497/5/6
f 496/1/6 488/1/6 497/1/6
f 489/2/6 490/2/6 498/2/6
f 497/5/6 489/5/6 498/5/6
f 490/5/6 491/5/6 499/5/6
f 498/2/6 490/2/6 499/2/6
f 491/2/6 492/2/6 500/2/6
f 499/5/6 491/5/6 500/5/6
f 492/5/6 493/5/6 501/5/6
f 500/2/6 492/2/6 501/2/6
f 493/1/6 494/1/6 502/1/6
f 501/5/6 493/5/6 502/5/6
f 494/1/6 495/1/6 502/1/6
f 502/1/6 495/1/6 503/1/6
