# MagicaVoxel @ Ephtracy

# group
o 

# material
mtllib WallsSimpleV1BrickSmall.mtl
usemtl palette

# normals
vn -1 0 0
vn 1 0 0
vn 0 0 1
vn 0 0 -1
vn 0 -1 0
vn 0 1 0

# texcoords
vt 0.0371094 0.5
vt 0.533203 0.5
vt 0.537109 0.5
vt 0.978516 0.5

# verts
v -0.8 0.3 0.8
v -0.8 0.3 0.6
v -0.8 0.3 0.5
v -0.8 0.3 0.1
v -0.8 0.3 0
v -0.8 0.3 -0.3
v -0.8 0.3 -0.4
v -0.8 0.3 -0.8
v -0.8 0.5 0.8
v -0.8 0.5 0.6
v -0.8 0.5 0.5
v -0.8 0.5 0.1
v -0.8 0.5 0
v -0.8 0.5 -0.3
v -0.8 0.5 -0.4
v -0.8 0.5 -0.8
v -0.8 0.6 0.8
v -0.8 0.6 0.4
v -0.8 0.6 0.3
v -0.8 0.6 -0.1
v -0.8 0.6 -0.2
v -0.8 0.6 -0.5
v -0.8 0.6 -0.6
v -0.8 0.6 -0.8
v -0.8 0.8 0.8
v -0.8 0.8 0.4
v -0.8 0.8 0.3
v -0.8 0.8 -0.1
v -0.8 0.8 -0.2
v -0.8 0.8 -0.5
v -0.8 0.8 -0.6
v -0.8 0.8 -0.8
v -0.8 0.9 0.8
v -0.8 0.9 0.6
v -0.8 0.9 0.5
v -0.8 0.9 0.1
v -0.8 0.9 0
v -0.8 0.9 -0.3
v -0.8 0.9 -0.4
v -0.8 0.9 -0.8
v -0.8 1.1 0.8
v -0.8 1.1 0.6
v -0.8 1.1 0.5
v -0.8 1.1 0.1
v -0.8 1.1 0
v -0.8 1.1 -0.3
v -0.8 1.1 -0.4
v -0.8 1.1 -0.8
v -0.8 1.2 0.8
v -0.8 1.2 0.4
v -0.8 1.2 0.3
v -0.8 1.2 -0.1
v -0.8 1.2 -0.2
v -0.8 1.2 -0.5
v -0.8 1.2 -0.6
v -0.8 1.2 -0.8
v -0.8 1.4 0.8
v -0.8 1.4 0.4
v -0.8 1.4 0.3
v -0.8 1.4 -0.1
v -0.8 1.4 -0.2
v -0.8 1.4 -0.5
v -0.8 1.4 -0.6
v -0.8 1.4 -0.8
v -0.8 1.5 0.8
v -0.8 1.5 -0.8
v 0.8 0.3 0.8
v 0.8 0.3 0.4
v 0.8 0.3 0.3
v 0.8 0.3 -0.1
v 0.8 0.3 -0.2
v 0.8 0.3 -0.5
v 0.8 0.3 -0.6
v 0.8 0.3 -0.8
v 0.8 0.5 0.8
v 0.8 0.5 0.4
v 0.8 0.5 0.3
v 0.8 0.5 -0.1
v 0.8 0.5 -0.2
v 0.8 0.5 -0.5
v 0.8 0.5 -0.6
v 0.8 0.5 -0.8
v 0.8 0.6 0.8
v 0.8 0.6 0.6
v 0.8 0.6 0.5
v 0.8 0.6 0.1
v 0.8 0.6 0
v 0.8 0.6 -0.3
v 0.8 0.6 -0.4
v 0.8 0.6 -0.8
v 0.8 0.8 0.8
v 0.8 0.8 0.6
v 0.8 0.8 0.5
v 0.8 0.8 0.1
v 0.8 0.8 0
v 0.8 0.8 -0.3
v 0.8 0.8 -0.4
v 0.8 0.8 -0.8
v 0.8 0.9 0.8
v 0.8 0.9 0.4
v 0.8 0.9 0.3
v 0.8 0.9 -0.1
v 0.8 0.9 -0.2
v 0.8 0.9 -0.5
v 0.8 0.9 -0.6
v 0.8 0.9 -0.8
v 0.8 1.1 0.8
v 0.8 1.1 0.4
v 0.8 1.1 0.3
v 0.8 1.1 -0.1
v 0.8 1.1 -0.2
v 0.8 1.1 -0.5
v 0.8 1.1 -0.6
v 0.8 1.1 -0.8
v 0.8 1.2 0.8
v 0.8 1.2 0.6
v 0.8 1.2 0.5
v 0.8 1.2 0.1
v 0.8 1.2 0
v 0.8 1.2 -0.3
v 0.8 1.2 -0.4
v 0.8 1.2 -0.8
v 0.8 1.4 0.8
v 0.8 1.4 0.6
v 0.8 1.4 0.5
v 0.8 1.4 0.1
v 0.8 1.4 0
v 0.8 1.4 -0.3
v 0.8 1.4 -0.4
v 0.8 1.4 -0.8
v 0.8 1.5 0.8
v 0.8 1.5 -0.8
v -0.8 0.3 0.8
v -0.8 0.5 0.8
v -0.8 0.6 0.8
v -0.8 0.8 0.8
v -0.8 0.9 0.8
v -0.8 1.1 0.8
v -0.8 1.2 0.8
v -0.8 1.4 0.8
v -0.8 1.5 0.8
v -0.6 0.6 0.8
v -0.6 0.8 0.8
v -0.6 1.2 0.8
v -0.6 1.4 0.8
v -0.5 0.6 0.8
v -0.5 0.8 0.8
v -0.5 1.2 0.8
v -0.5 1.4 0.8
v -0.4 0.3 0.8
v -0.4 0.5 0.8
v -0.4 0.9 0.8
v -0.4 1.1 0.8
v -0.3 0.3 0.8
v -0.3 0.5 0.8
v -0.3 0.9 0.8
v -0.3 1.1 0.8
v -0.1 0.6 0.8
v -0.1 0.8 0.8
v -0.1 1.2 0.8
v -0.1 1.4 0.8
v 0 0.6 0.8
v 0 0.8 0.8
v 0 1.2 0.8
v 0 1.4 0.8
v 0.1 0.3 0.8
v 0.1 0.5 0.8
v 0.1 0.9 0.8
v 0.1 1.1 0.8
v 0.2 0.3 0.8
v 0.2 0.5 0.8
v 0.2 0.9 0.8
v 0.2 1.1 0.8
v 0.3 0.6 0.8
v 0.3 0.8 0.8
v 0.3 1.2 0.8
v 0.3 1.4 0.8
v 0.4 0.6 0.8
v 0.4 0.8 0.8
v 0.4 1.2 0.8
v 0.4 1.4 0.8
v 0.5 0.3 0.8
v 0.5 0.5 0.8
v 0.5 0.9 0.8
v 0.5 1.1 0.8
v 0.6 0.3 0.8
v 0.6 0.5 0.8
v 0.6 0.9 0.8
v 0.6 1.1 0.8
v 0.8 0.3 0.8
v 0.8 0.5 0.8
v 0.8 0.6 0.8
v 0.8 0.8 0.8
v 0.8 0.9 0.8
v 0.8 1.1 0.8
v 0.8 1.2 0.8
v 0.8 1.4 0.8
v 0.8 1.5 0.8
v -0.8 0.3 -0.8
v -0.8 0.5 -0.8
v -0.8 0.6 -0.8
v -0.8 0.8 -0.8
v -0.8 0.9 -0.8
v -0.8 1.1 -0.8
v -0.8 1.2 -0.8
v -0.8 1.4 -0.8
v -0.8 1.5 -0.8
v -0.6 0.3 -0.8
v -0.6 0.5 -0.8
v -0.6 0.9 -0.8
v -0.6 1.1 -0.8
v -0.5 0.3 -0.8
v -0.5 0.5 -0.8
v -0.5 0.9 -0.8
v -0.5 1.1 -0.8
v -0.4 0.6 -0.8
v -0.4 0.8 -0.8
v -0.4 1.2 -0.8
v -0.4 1.4 -0.8
v -0.3 0.6 -0.8
v -0.3 0.8 -0.8
v -0.3 1.2 -0.8
v -0.3 1.4 -0.8
v -0.2 0.3 -0.8
v -0.2 0.5 -0.8
v -0.2 0.9 -0.8
v -0.2 1.1 -0.8
v -0.1 0.3 -0.8
v -0.1 0.5 -0.8
v -0.1 0.9 -0.8
v -0.1 1.1 -0.8
v 0 0.6 -0.8
v 0 0.8 -0.8
v 0 1.2 -0.8
v 0 1.4 -0.8
v 0.1 0.6 -0.8
v 0.1 0.8 -0.8
v 0.1 1.2 -0.8
v 0.1 1.4 -0.8
v 0.3 0.3 -0.8
v 0.3 0.5 -0.8
v 0.3 0.9 -0.8
v 0.3 1.1 -0.8
v 0.4 0.3 -0.8
v 0.4 0.5 -0.8
v 0.4 0.9 -0.8
v 0.4 1.1 -0.8
v 0.5 0.6 -0.8
v 0.5 0.8 -0.8
v 0.5 1.2 -0.8
v 0.5 1.4 -0.8
v 0.6 0.6 -0.8
v 0.6 0.8 -0.8
v 0.6 1.2 -0.8
v 0.6 1.4 -0.8
v 0.8 0.3 -0.8
v 0.8 0.5 -0.8
v 0.8 0.6 -0.8
v 0.8 0.8 -0.8
v 0.8 0.9 -0.8
v 0.8 1.1 -0.8
v 0.8 1.2 -0.8
v 0.8 1.4 -0.8
v 0.8 1.5 -0.8
v -0.8 0.3 0.8
v -0.4 0.3 0.8
v -0.3 0.3 0.8
v 0.1 0.3 0.8
v 0.2 0.3 0.8
v 0.5 0.3 0.8
v 0.6 0.3 0.8
v 0.8 0.3 0.8
v -0.7 0.3 0.7
v -0.4 0.3 0.7
v -0.3 0.3 0.7
v 0.1 0.3 0.7
v 0.2 0.3 0.7
v 0.5 0.3 0.7
v 0.6 0.3 0.7
v 0.7 0.3 0.7
v -0.8 0.3 0.6
v -0.7 0.3 0.6
v -0.8 0.3 0.5
v -0.7 0.3 0.5
v 0.7 0.3 0.4
v 0.8 0.3 0.4
v 0.7 0.3 0.3
v 0.8 0.3 0.3
v -0.8 0.3 0.1
v -0.7 0.3 0.1
v -0.8 0.3 0
v -0.7 0.3 0
v 0.7 0.3 -0.1
v 0.8 0.3 -0.1
v 0.7 0.3 -0.2
v 0.8 0.3 -0.2
v -0.8 0.3 -0.3
v -0.7 0.3 -0.3
v -0.8 0.3 -0.4
v -0.7 0.3 -0.4
v 0.7 0.3 -0.5
v 0.8 0.3 -0.5
v -0.7 0.3 -0.6
v 0.7 0.3 -0.6
v 0.8 0.3 -0.6
v -0.7 0.3 -0.7
v -0.6 0.3 -0.7
v -0.5 0.3 -0.7
v -0.2 0.3 -0.7
v -0.1 0.3 -0.7
v 0.3 0.3 -0.7
v 0.4 0.3 -0.7
v 0.7 0.3 -0.7
v -0.8 0.3 -0.8
v -0.6 0.3 -0.8
v -0.5 0.3 -0.8
v -0.2 0.3 -0.8
v -0.1 0.3 -0.8
v 0.3 0.3 -0.8
v 0.4 0.3 -0.8
v 0.8 0.3 -0.8
v -0.8 1.5 0.8
v 0.8 1.5 0.8
v -0.7 1.5 0.7
v 0.7 1.5 0.7
v -0.7 1.5 -0.7
v 0.7 1.5 -0.7
v -0.8 1.5 -0.8
v 0.8 1.5 -0.8

# faces
f 9/3/1 2/3/1 1/3/1
f 10/4/1 3/4/1 2/4/1
f 10/3/1 2/3/1 9/3/1
f 11/2/1 4/2/1 3/2/1
f 11/4/1 3/4/1 10/4/1
f 12/4/1 5/4/1 4/4/1
f 12/2/1 4/2/1 11/2/1
f 13/3/1 6/3/1 5/3/1
f 13/4/1 5/4/1 12/4/1
f 14/4/1 7/4/1 6/4/1
f 14/3/1 6/3/1 13/3/1
f 15/2/1 8/2/1 7/2/1
f 15/4/1 7/4/1 14/4/1
f 16/2/1 8/2/1 15/2/1
f 17/4/1 14/4/1 13/4/1
f 17/4/1 10/4/1 9/4/1
f 17/4/1 16/4/1 15/4/1
f 17/4/1 15/4/1 14/4/1
f 17/4/1 13/4/1 12/4/1
f 17/4/1 12/4/1 11/4/1
f 17/4/1 11/4/1 10/4/1
f 18/4/1 16/4/1 17/4/1
f 19/4/1 16/4/1 18/4/1
f 20/4/1 16/4/1 19/4/1
f 21/4/1 16/4/1 20/4/1
f 22/4/1 16/4/1 21/4/1
f 23/4/1 16/4/1 22/4/1
f 24/4/1 16/4/1 23/4/1
f 25/2/1 18/2/1 17/2/1
f 26/4/1 19/4/1 18/4/1
f 26/2/1 18/2/1 25/2/1
f 27/3/1 20/3/1 19/3/1
f 27/4/1 19/4/1 26/4/1
f 28/4/1 21/4/1 20/4/1
f 28/3/1 20/3/1 27/3/1
f 29/2/1 22/2/1 21/2/1
f 29/4/1 21/4/1 28/4/1
f 30/4/1 23/4/1 22/4/1
f 30/2/1 22/2/1 29/2/1
f 31/3/1 24/3/1 23/3/1
f 31/4/1 23/4/1 30/4/1
f 32/3/1 24/3/1 31/3/1
f 33/4/1 26/4/1 25/4/1
f 33/4/1 27/4/1 26/4/1
f 33/4/1 32/4/1 31/4/1
f 33/4/1 31/4/1 30/4/1
f 33/4/1 30/4/1 29/4/1
f 33/4/1 29/4/1 28/4/1
f 33/4/1 28/4/1 27/4/1
f 34/4/1 32/4/1 33/4/1
f 35/4/1 32/4/1 34/4/1
f 36/4/1 32/4/1 35/4/1
f 37/4/1 32/4/1 36/4/1
f 38/4/1 32/4/1 37/4/1
f 39/4/1 32/4/1 38/4/1
f 40/4/1 32/4/1 39/4/1
f 41/3/1 34/3/1 33/3/1
f 42/4/1 35/4/1 34/4/1
f 42/3/1 34/3/1 41/3/1
f 43/2/1 36/2/1 35/2/1
f 43/4/1 35/4/1 42/4/1
f 44/4/1 37/4/1 36/4/1
f 44/2/1 36/2/1 43/2/1
f 45/3/1 38/3/1 37/3/1
f 45/4/1 37/4/1 44/4/1
f 46/4/1 39/4/1 38/4/1
f 46/3/1 38/3/1 45/3/1
f 47/2/1 40/2/1 39/2/1
f 47/4/1 39/4/1 46/4/1
f 48/2/1 40/2/1 47/2/1
f 49/4/1 42/4/1 41/4/1
f 49/4/1 43/4/1 42/4/1
f 49/4/1 48/4/1 47/4/1
f 49/4/1 47/4/1 46/4/1
f 49/4/1 46/4/1 45/4/1
f 49/4/1 45/4/1 44/4/1
f 49/4/1 44/4/1 43/4/1
f 50/4/1 48/4/1 49/4/1
f 51/4/1 48/4/1 50/4/1
f 52/4/1 48/4/1 51/4/1
f 53/4/1 48/4/1 52/4/1
f 54/4/1 48/4/1 53/4/1
f 55/4/1 48/4/1 54/4/1
f 56/4/1 48/4/1 55/4/1
f 57/2/1 50/2/1 49/2/1
f 58/4/1 51/4/1 50/4/1
f 58/2/1 50/2/1 57/2/1
f 59/3/1 52/3/1 51/3/1
f 59/4/1 51/4/1 58/4/1
f 60/4/1 53/4/1 52/4/1
f 60/3/1 52/3/1 59/3/1
f 61/2/1 54/2/1 53/2/1
f 61/4/1 53/4/1 60/4/1
f 62/4/1 55/4/1 54/4/1
f 62/2/1 54/2/1 61/2/1
f 63/3/1 56/3/1 55/3/1
f 63/4/1 55/4/1 62/4/1
f 64/3/1 56/3/1 63/3/1
f 65/4/1 58/4/1 57/4/1
f 65/4/1 59/4/1 58/4/1
f 65/4/1 64/4/1 63/4/1
f 65/4/1 63/4/1 62/4/1
f 65/4/1 62/4/1 61/4/1
f 65/4/1 61/4/1 60/4/1
f 65/4/1 60/4/1 59/4/1
f 66/4/1 64/4/1 65/4/1
f 67/3/2 68/3/2 75/3/2
f 68/4/2 69/4/2 76/4/2
f 75/3/2 68/3/2 76/3/2
f 69/2/2 70/2/2 77/2/2
f 76/4/2 69/4/2 77/4/2
f 70/4/2 71/4/2 78/4/2
f 77/2/2 70/2/2 78/2/2
f 71/3/2 72/3/2 79/3/2
f 78/4/2 71/4/2 79/4/2
f 72/4/2 73/4/2 80/4/2
f 79/3/2 72/3/2 80/3/2
f 73/2/2 74/2/2 81/2/2
f 80/4/2 73/4/2 81/4/2
f 81/2/2 74/2/2 82/2/2
f 79/4/2 80/4/2 83/4/2
f 75/4/2 76/4/2 83/4/2
f 81/4/2 82/4/2 83/4/2
f 80/4/2 81/4/2 83/4/2
f 78/4/2 79/4/2 83/4/2
f 77/4/2 78/4/2 83/4/2
f 76/4/2 77/4/2 83/4/2
f 83/4/2 82/4/2 84/4/2
f 84/4/2 82/4/2 85/4/2
f 85/4/2 82/4/2 86/4/2
f 86/4/2 82/4/2 87/4/2
f 87/4/2 82/4/2 88/4/2
f 88/4/2 82/4/2 89/4/2
f 89/4/2 82/4/2 90/4/2
f 83/2/2 84/2/2 91/2/2
f 84/4/2 85/4/2 92/4/2
f 91/2/2 84/2/2 92/2/2
f 85/3/2 86/3/2 93/3/2
f 92/4/2 85/4/2 93/4/2
f 86/4/2 87/4/2 94/4/2
f 93/3/2 86/3/2 94/3/2
f 87/2/2 88/2/2 95/2/2
f 94/4/2 87/4/2 95/4/2
f 88/4/2 89/4/2 96/4/2
f 95/2/2 88/2/2 96/2/2
f 89/3/2 90/3/2 97/3/2
f 96/4/2 89/4/2 97/4/2
f 97/3/2 90/3/2 98/3/2
f 91/4/2 92/4/2 99/4/2
f 92/4/2 93/4/2 99/4/2
f 97/4/2 98/4/2 99/4/2
f 96/4/2 97/4/2 99/4/2
f 95/4/2 96/4/2 99/4/2
f 94/4/2 95/4/2 99/4/2
f 93/4/2 94/4/2 99/4/2
f 99/4/2 98/4/2 100/4/2
f 100/4/2 98/4/2 101/4/2
f 101/4/2 98/4/2 102/4/2
f 102/4/2 98/4/2 103/4/2
f 103/4/2 98/4/2 104/4/2
f 104/4/2 98/4/2 105/4/2
f 105/4/2 98/4/2 106/4/2
f 99/3/2 100/3/2 107/3/2
f 100/4/2 101/4/2 108/4/2
f 107/3/2 100/3/2 108/3/2
f 101/2/2 102/2/2 109/2/2
f 108/4/2 101/4/2 109/4/2
f 102/4/2 103/4/2 110/4/2
f 109/2/2 102/2/2 110/2/2
f 103/3/2 104/3/2 111/3/2
f 110/4/2 103/4/2 111/4/2
f 104/4/2 105/4/2 112/4/2
f 111/3/2 104/3/2 112/3/2
f 105/2/2 106/2/2 113/2/2
f 112/4/2 105/4/2 113/4/2
f 113/2/2 106/2/2 114/2/2
f 107/4/2 108/4/2 115/4/2
f 108/4/2 109/4/2 115/4/2
f 113/4/2 114/4/2 115/4/2
f 112/4/2 113/4/2 115/4/2
f 111/4/2 112/4/2 115/4/2
f 110/4/2 111/4/2 115/4/2
f 109/4/2 110/4/2 115/4/2
f 115/4/2 114/4/2 116/4/2
f 116/4/2 114/4/2 117/4/2
f 117/4/2 114/4/2 118/4/2
f 118/4/2 114/4/2 119/4/2
f 119/4/2 114/4/2 120/4/2
f 120/4/2 114/4/2 121/4/2
f 121/4/2 114/4/2 122/4/2
f 115/2/2 116/2/2 123/2/2
f 116/4/2 117/4/2 124/4/2
f 123/2/2 116/2/2 124/2/2
f 117/3/2 118/3/2 125/3/2
f 124/4/2 117/4/2 125/4/2
f 118/4/2 119/4/2 126/4/2
f 125/3/2 118/3/2 126/3/2
f 119/2/2 120/2/2 127/2/2
f 126/4/2 119/4/2 127/4/2
f 120/4/2 121/4/2 128/4/2
f 127/2/2 120/2/2 128/2/2
f 121/3/2 122/3/2 129/3/2
f 128/4/2 121/4/2 129/4/2
f 129/3/2 122/3/2 130/3/2
f 123/4/2 124/4/2 131/4/2
f 124/4/2 125/4/2 131/4/2
f 129/4/2 130/4/2 131/4/2
f 128/4/2 129/4/2 131/4/2
f 127/4/2 128/4/2 131/4/2
f 126/4/2 127/4/2 131/4/2
f 125/4/2 126/4/2 131/4/2
f 131/4/2 130/4/2 132/4/2
f 142/4/3 135/4/3 134/4/3
f 142/2/3 136/2/3 135/2/3
f 143/4/3 137/4/3 136/4/3
f 143/2/3 136/2/3 142/2/3
f 144/2/3 140/2/3 139/2/3
f 144/4/3 139/4/3 138/4/3
f 145/4/3 141/4/3 140/4/3
f 145/2/3 140/2/3 144/2/3
f 146/4/3 142/4/3 134/4/3
f 146/4/3 143/4/3 142/4/3
f 147/4/3 137/4/3 143/4/3
f 147/4/3 143/4/3 146/4/3
f 148/4/3 144/4/3 138/4/3
f 148/4/3 145/4/3 144/4/3
f 149/4/3 141/4/3 145/4/3
f 149/4/3 145/4/3 148/4/3
f 150/3/3 134/3/3 133/3/3
f 151/4/3 146/4/3 134/4/3
f 151/3/3 134/3/3 150/3/3
f 152/4/3 137/4/3 147/4/3
f 152/3/3 138/3/3 137/3/3
f 153/4/3 148/4/3 138/4/3
f 153/3/3 138/3/3 152/3/3
f 154/4/3 151/4/3 150/4/3
f 155/4/3 146/4/3 151/4/3
f 155/4/3 151/4/3 154/4/3
f 156/4/3 152/4/3 147/4/3
f 156/4/3 153/4/3 152/4/3
f 157/4/3 148/4/3 153/4/3
f 157/4/3 153/4/3 156/4/3
f 158/4/3 146/4/3 155/4/3
f 158/3/3 147/3/3 146/3/3
f 159/4/3 156/4/3 147/4/3
f 159/3/3 147/3/3 158/3/3
f 160/4/3 148/4/3 157/4/3
f 160/3/3 149/3/3 148/3/3
f 161/4/3 141/4/3 149/4/3
f 161/3/3 149/3/3 160/3/3
f 162/4/3 158/4/3 155/4/3
f 162/4/3 159/4/3 158/4/3
f 163/4/3 156/4/3 159/4/3
f 163/4/3 159/4/3 162/4/3
f 164/4/3 160/4/3 157/4/3
f 164/4/3 161/4/3 160/4/3
f 165/4/3 141/4/3 161/4/3
f 165/4/3 161/4/3 164/4/3
f 166/2/3 155/2/3 154/2/3
f 167/4/3 162/4/3 155/4/3
f 167/2/3 155/2/3 166/2/3
f 168/4/3 156/4/3 163/4/3
f 168/2/3 157/2/3 156/2/3
f 169/4/3 164/4/3 157/4/3
f 169/2/3 157/2/3 168/2/3
f 170/4/3 167/4/3 166/4/3
f 171/4/3 162/4/3 167/4/3
f 171/4/3 167/4/3 170/4/3
f 172/4/3 168/4/3 163/4/3
f 172/4/3 169/4/3 168/4/3
f 173/4/3 164/4/3 169/4/3
f 173/4/3 169/4/3 172/4/3
f 174/4/3 162/4/3 171/4/3
f 174/3/3 163/3/3 162/3/3
f 175/4/3 172/4/3 163/4/3
f 175/3/3 163/3/3 174/3/3
f 176/4/3 164/4/3 173/4/3
f 176/3/3 165/3/3 164/3/3
f 177/4/3 141/4/3 165/4/3
f 177/3/3 165/3/3 176/3/3
f 178/4/3 174/4/3 171/4/3
f 178/4/3 175/4/3 174/4/3
f 179/4/3 172/4/3 175/4/3
f 179/4/3 175/4/3 178/4/3
f 180/4/3 176/4/3 173/4/3
f 180/4/3 177/4/3 176/4/3
f 181/4/3 141/4/3 177/4/3
f 181/4/3 177/4/3 180/4/3
f 182/3/3 171/3/3 170/3/3
f 183/4/3 178/4/3 171/4/3
f 183/3/3 171/3/3 182/3/3
f 184/3/3 173/3/3 172/3/3
f 184/4/3 172/4/3 179/4/3
f 185/4/3 180/4/3 173/4/3
f 185/3/3 173/3/3 184/3/3
f 186/4/3 183/4/3 182/4/3
f 187/4/3 178/4/3 183/4/3
f 187/4/3 183/4/3 186/4/3
f 188/4/3 184/4/3 179/4/3
f 188/4/3 185/4/3 184/4/3
f 189/4/3 180/4/3 185/4/3
f 189/4/3 185/4/3 188/4/3
f 190/3/3 187/3/3 186/3/3
f 191/4/3 178/4/3 187/4/3
f 191/3/3 187/3/3 190/3/3
f 192/2/3 179/2/3 178/2/3
f 192/4/3 178/4/3 191/4/3
f 193/4/3 188/4/3 179/4/3
f 193/2/3 179/2/3 192/2/3
f 194/3/3 189/3/3 188/3/3
f 194/4/3 188/4/3 193/4/3
f 195/4/3 180/4/3 189/4/3
f 195/3/3 189/3/3 194/3/3
f 196/2/3 181/2/3 180/2/3
f 196/4/3 180/4/3 195/4/3
f 197/4/3 141/4/3 181/4/3
f 197/2/3 181/2/3 196/2/3
f 198/4/3 141/4/3 197/4/3
f 199/2/4 200/2/4 208/2/4
f 200/4/4 201/4/4 209/4/4
f 208/2/4 200/2/4 209/2/4
f 202/4/4 203/4/4 210/4/4
f 203/2/4 204/2/4 210/2/4
f 204/4/4 205/4/4 211/4/4
f 210/2/4 204/2/4 211/2/4
f 208/4/4 209/4/4 212/4/4
f 209/4/4 201/4/4 213/4/4
f 212/4/4 209/4/4 213/4/4
f 202/4/4 210/4/4 214/4/4
f 210/4/4 211/4/4 214/4/4
f 211/4/4 205/4/4 215/4/4
f 214/4/4 211/4/4 215/4/4
f 201/3/4 202/3/4 216/3/4
f 213/4/4 201/4/4 216/4/4
f 202/4/4 214/4/4 217/4/4
f 216/3/4 202/3/4 217/3/4
f 215/4/4 205/4/4 218/4/4
f 205/3/4 206/3/4 218/3/4
f 206/4/4 207/4/4 219/4/4
f 218/3/4 206/3/4 219/3/4
f 213/4/4 216/4/4 220/4/4
f 216/4/4 217/4/4 220/4/4
f 217/4/4 214/4/4 221/4/4
f 220/4/4 217/4/4 221/4/4
f 215/4/4 218/4/4 222/4/4
f 218/4/4 219/4/4 222/4/4
f 219/4/4 207/4/4 223/4/4
f 222/4/4 219/4/4 223/4/4
f 212/3/4 213/3/4 224/3/4
f 213/4/4 220/4/4 225/4/4
f 224/3/4 213/3/4 225/3/4
f 221/4/4 214/4/4 226/4/4
f 214/3/4 215/3/4 226/3/4
f 215/4/4 222/4/4 227/4/4
f 226/3/4 215/3/4 227/3/4
f 224/4/4 225/4/4 228/4/4
f 225/4/4 220/4/4 229/4/4
f 228/4/4 225/4/4 229/4/4
f 221/4/4 226/4/4 230/4/4
f 226/4/4 227/4/4 230/4/4
f 227/4/4 222/4/4 231/4/4
f 230/4/4 227/4/4 231/4/4
f 229/4/4 220/4/4 232/4/4
f 220/3/4 221/3/4 232/3/4
f 221/4/4 230/4/4 233/4/4
f 232/3/4 221/3/4 233/3/4
f 231/4/4 222/4/4 234/4/4
f 222/3/4 223/3/4 234/3/4
f 223/4/4 207/4/4 235/4/4
f 234/3/4 223/3/4 235/3/4
f 229/4/4 232/4/4 236/4/4
f 232/4/4 233/4/4 236/4/4
f 233/4/4 230/4/4 237/4/4
f 236/4/4 233/4/4 237/4/4
f 231/4/4 234/4/4 238/4/4
f 234/4/4 235/4/4 238/4/4
f 235/4/4 207/4/4 239/4/4
f 238/4/4 235/4/4 239/4/4
f 228/3/4 229/3/4 240/3/4
f 229/4/4 236/4/4 241/4/4
f 240/3/4 229/3/4 241/3/4
f 230/3/4 231/3/4 242/3/4
f 237/4/4 230/4/4 242/4/4
f 231/4/4 238/4/4 243/4/4
f 242/3/4 231/3/4 243/3/4
f 240/4/4 241/4/4 244/4/4
f 241/4/4 236/4/4 245/4/4
f 244/4/4 241/4/4 245/4/4
f 237/4/4 242/4/4 246/4/4
f 242/4/4 243/4/4 246/4/4
f 243/4/4 238/4/4 247/4/4
f 246/4/4 243/4/4 247/4/4
f 245/4/4 236/4/4 248/4/4
f 236/2/4 237/2/4 248/2/4
f 237/4/4 246/4/4 249/4/4
f 248/2/4 237/2/4 249/2/4
f 247/4/4 238/4/4 250/4/4
f 238/2/4 239/2/4 250/2/4
f 239/4/4 207/4/4 251/4/4
f 250/2/4 239/2/4 251/2/4
f 245/4/4 248/4/4 252/4/4
f 248/4/4 249/4/4 252/4/4
f 249/4/4 246/4/4 253/4/4
f 252/4/4 249/4/4 253/4/4
f 247/4/4 250/4/4 254/4/4
f 250/4/4 251/4/4 254/4/4
f 251/4/4 207/4/4 255/4/4
f 254/4/4 251/4/4 255/4/4
f 244/2/4 245/2/4 256/2/4
f 245/4/4 252/4/4 257/4/4
f 256/2/4 245/2/4 257/2/4
f 252/3/4 253/3/4 258/3/4
f 257/4/4 252/4/4 258/4/4
f 253/4/4 246/4/4 259/4/4
f 258/3/4 253/3/4 259/3/4
f 246/2/4 247/2/4 260/2/4
f 259/4/4 246/4/4 260/4/4
f 247/4/4 254/4/4 261/4/4
f 260/2/4 247/2/4 261/2/4
f 254/3/4 255/3/4 262/3/4
f 261/4/4 254/4/4 262/4/4
f 255/4/4 207/4/4 263/4/4
f 262/3/4 255/3/4 263/3/4
f 263/4/4 207/4/4 264/4/4
f 273/3/5 266/3/5 265/3/5
f 274/4/5 267/4/5 266/4/5
f 274/3/5 266/3/5 273/3/5
f 275/2/5 268/2/5 267/2/5
f 275/4/5 267/4/5 274/4/5
f 276/4/5 269/4/5 268/4/5
f 276/2/5 268/2/5 275/2/5
f 277/3/5 270/3/5 269/3/5
f 277/4/5 269/4/5 276/4/5
f 278/4/5 271/4/5 270/4/5
f 278/3/5 270/3/5 277/3/5
f 279/3/5 272/3/5 271/3/5
f 279/4/5 271/4/5 278/4/5
f 280/3/5 272/3/5 279/3/5
f 281/3/5 273/3/5 265/3/5
f 282/1/5 278/1/5 277/1/5
f 282/3/5 273/3/5 281/3/5
f 282/1/5 274/1/5 273/1/5
f 282/1/5 280/1/5 279/1/5
f 282/1/5 279/1/5 278/1/5
f 282/1/5 277/1/5 276/1/5
f 282/1/5 276/1/5 275/1/5
f 282/1/5 275/1/5 274/1/5
f 283/4/5 282/4/5 281/4/5
f 284/1/5 280/1/5 282/1/5
f 284/4/5 282/4/5 283/4/5
f 285/3/5 272/3/5 280/3/5
f 285/1/5 280/1/5 284/1/5
f 286/3/5 272/3/5 285/3/5
f 287/1/5 285/1/5 284/1/5
f 287/4/5 286/4/5 285/4/5
f 288/4/5 286/4/5 287/4/5
f 289/2/5 284/2/5 283/2/5
f 290/1/5 287/1/5 284/1/5
f 290/2/5 284/2/5 289/2/5
f 291/4/5 290/4/5 289/4/5
f 292/1/5 287/1/5 290/1/5
f 292/4/5 290/4/5 291/4/5
f 293/2/5 288/2/5 287/2/5
f 293/1/5 287/1/5 292/1/5
f 294/2/5 288/2/5 293/2/5
f 295/1/5 293/1/5 292/1/5
f 295/4/5 294/4/5 293/4/5
f 296/4/5 294/4/5 295/4/5
f 297/3/5 292/3/5 291/3/5
f 298/1/5 295/1/5 292/1/5
f 298/3/5 292/3/5 297/3/5
f 299/4/5 298/4/5 297/4/5
f 300/1/5 295/1/5 298/1/5
f 300/4/5 298/4/5 299/4/5
f 301/3/5 296/3/5 295/3/5
f 301/1/5 295/1/5 300/1/5
f 302/3/5 296/3/5 301/3/5
f 303/2/5 300/2/5 299/2/5
f 303/1/5 301/1/5 300/1/5
f 304/4/5 302/4/5 301/4/5
f 304/1/5 301/1/5 303/1/5
f 305/4/5 302/4/5 304/4/5
f 306/2/5 303/2/5 299/2/5
f 306/4/5 304/4/5 303/4/5
f 307/4/5 304/4/5 306/4/5
f 308/4/5 304/4/5 307/4/5
f 309/4/5 304/4/5 308/4/5
f 310/4/5 304/4/5 309/4/5
f 311/4/5 304/4/5 310/4/5
f 312/4/5 304/4/5 311/4/5
f 313/2/5 305/2/5 304/2/5
f 313/4/5 304/4/5 312/4/5
f 314/2/5 306/2/5 299/2/5
f 314/2/5 307/2/5 306/2/5
f 315/4/5 308/4/5 307/4/5
f 315/2/5 307/2/5 314/2/5
f 316/3/5 309/3/5 308/3/5
f 316/4/5 308/4/5 315/4/5
f 317/4/5 310/4/5 309/4/5
f 317/3/5 309/3/5 316/3/5
f 318/3/5 311/3/5 310/3/5
f 318/4/5 310/4/5 317/4/5
f 319/4/5 312/4/5 311/4/5
f 319/3/5 311/3/5 318/3/5
f 320/2/5 313/2/5 312/2/5
f 320/4/5 312/4/5 319/4/5
f 321/2/5 305/2/5 313/2/5
f 321/2/5 313/2/5 320/2/5
f 322/4/6 323/4/6 324/4/6
f 324/4/6 323/4/6 325/4/6
f 322/4/6 324/4/6 326/4/6
f 324/1/6 325/1/6 326/1/6
f 325/4/6 323/4/6 327/4/6
f 326/1/6 325/1/6 327/1/6
f 322/4/6 326/4/6 328/4/6
f 326/4/6 327/4/6 328/4/6
f 327/4/6 323/4/6 329/4/6
f 328/4/6 327/4/6 329/4/6
