# MagicaVoxel @ Ephtracy

# group
o 

# material
mtllib WallsSimpleV1CornerFront2Low.mtl
usemtl palette

# normals
vn -1 0 0
vn 1 0 0
vn 0 0 1
vn 0 0 -1
vn 0 -1 0
vn 0 1 0

# texcoords
vt 0.0371094 0.5
vt 0.533203 0.5
vt 0.537109 0.5
vt 0.966797 0.5
vt 0.974609 0.5
vt 0.978516 0.5

# verts
v -0.8 3.4 0.7
v -0.8 3.4 0.6
v -0.8 3.4 0.5
v -0.8 3.4 0.4
v -0.8 3.4 0
v -0.8 3.4 -0.1
v -0.8 3.4 -0.5
v -0.8 3.4 -0.6
v -0.8 3.4 -0.8
v -0.8 3.6 0.6
v -0.8 3.6 0.5
v -0.8 3.6 0.4
v -0.8 3.6 0
v -0.8 3.6 -0.1
v -0.8 3.6 -0.5
v -0.8 3.6 -0.6
v -0.8 3.6 -0.8
v -0.8 3.7 0.6
v -0.8 3.7 0.2
v -0.8 3.7 0.1
v -0.8 3.7 -0.3
v -0.8 3.7 -0.4
v -0.8 3.7 -0.8
v -0.8 3.9 0.6
v -0.8 3.9 0.2
v -0.8 3.9 0.1
v -0.8 3.9 -0.3
v -0.8 3.9 -0.4
v -0.8 3.9 -0.8
v -0.8 4 0.6
v -0.8 4 0.5
v -0.8 4 0.4
v -0.8 4 0
v -0.8 4 -0.1
v -0.8 4 -0.5
v -0.8 4 -0.6
v -0.8 4 -0.8
v -0.8 4.2 0.6
v -0.8 4.2 0.5
v -0.8 4.2 0.4
v -0.8 4.2 0
v -0.8 4.2 -0.1
v -0.8 4.2 -0.5
v -0.8 4.2 -0.6
v -0.8 4.2 -0.8
v -0.8 4.3 0.6
v -0.8 4.3 0.2
v -0.8 4.3 0.1
v -0.8 4.3 -0.3
v -0.8 4.3 -0.4
v -0.8 4.3 -0.8
v -0.8 4.5 0.6
v -0.8 4.5 0.2
v -0.8 4.5 0.1
v -0.8 4.5 -0.3
v -0.8 4.5 -0.4
v -0.8 4.5 -0.8
v -0.8 4.6 0.6
v -0.8 4.6 0.5
v -0.8 4.6 0.4
v -0.8 4.6 0
v -0.8 4.6 -0.1
v -0.8 4.6 -0.5
v -0.8 4.6 -0.6
v -0.8 4.6 -0.8
v -0.8 4.7 0.8
v -0.8 4.7 0.7
v -0.8 4.8 0.7
v -0.8 4.8 0.6
v -0.8 4.8 0.5
v -0.8 4.8 0.4
v -0.8 4.8 0
v -0.8 4.8 -0.1
v -0.8 4.8 -0.5
v -0.8 4.8 -0.6
v -0.8 4.8 -0.8
v -0.8 4.9 0.8
v -0.8 4.9 0.7
v -0.8 4.9 0.6
v -0.8 4.9 -0.8
v -0.7 3.4 0.8
v -0.7 3.4 0.7
v -0.7 4.7 0.8
v -0.7 4.7 0.7
v -0.5 3.4 0.8
v -0.5 3.4 0.6
v -0.5 3.4 0.5
v -0.5 3.4 0.2
v -0.5 3.4 0.1
v -0.5 3.4 -0.3
v -0.5 3.4 -0.4
v -0.5 3.4 -0.8
v -0.5 3.6 0.8
v -0.5 3.6 0.6
v -0.5 3.6 0.5
v -0.5 3.6 0.2
v -0.5 3.6 0.1
v -0.5 3.6 -0.3
v -0.5 3.6 -0.4
v -0.5 3.6 -0.8
v -0.5 3.7 0.8
v -0.5 3.7 0.4
v -0.5 3.7 0.3
v -0.5 3.7 0
v -0.5 3.7 -0.1
v -0.5 3.7 -0.5
v -0.5 3.7 -0.6
v -0.5 3.7 -0.8
v -0.5 3.9 0.8
v -0.5 3.9 0.4
v -0.5 3.9 0.3
v -0.5 3.9 0
v -0.5 3.9 -0.1
v -0.5 3.9 -0.5
v -0.5 3.9 -0.6
v -0.5 3.9 -0.8
v -0.5 4 0.8
v -0.5 4 0.6
v -0.5 4 0.5
v -0.5 4 0.2
v -0.5 4 0.1
v -0.5 4 -0.3
v -0.5 4 -0.4
v -0.5 4 -0.8
v -0.5 4.2 0.8
v -0.5 4.2 0.6
v -0.5 4.2 0.5
v -0.5 4.2 0.2
v -0.5 4.2 0.1
v -0.5 4.2 -0.3
v -0.5 4.2 -0.4
v -0.5 4.2 -0.8
v -0.5 4.3 0.8
v -0.5 4.3 0.4
v -0.5 4.3 0.3
v -0.5 4.3 0
v -0.5 4.3 -0.1
v -0.5 4.3 -0.5
v -0.5 4.3 -0.6
v -0.5 4.3 -0.8
v -0.5 4.5 0.8
v -0.5 4.5 0.4
v -0.5 4.5 0.3
v -0.5 4.5 0
v -0.5 4.5 -0.1
v -0.5 4.5 -0.5
v -0.5 4.5 -0.6
v -0.5 4.5 -0.8
v -0.5 4.6 0.8
v -0.5 4.6 0.6
v -0.5 4.6 0.5
v -0.5 4.6 0.2
v -0.5 4.6 0.1
v -0.5 4.6 -0.3
v -0.5 4.6 -0.4
v -0.5 4.6 -0.8
v -0.5 4.8 0.8
v -0.5 4.8 0.6
v -0.5 4.8 0.5
v -0.5 4.8 0.2
v -0.5 4.8 0.1
v -0.5 4.8 -0.3
v -0.5 4.8 -0.4
v -0.5 4.8 -0.8
v -0.5 4.9 0.8
v -0.5 4.9 -0.8
v -0.8 4.7 0.8
v -0.8 4.9 0.8
v -0.7 3.4 0.8
v -0.7 4.7 0.8
v -0.7 4.8 0.8
v -0.7 4.9 0.8
v -0.6 3.4 0.8
v -0.6 3.6 0.8
v -0.6 3.7 0.8
v -0.6 3.9 0.8
v -0.6 4 0.8
v -0.6 4.2 0.8
v -0.6 4.3 0.8
v -0.6 4.5 0.8
v -0.6 4.6 0.8
v -0.6 4.8 0.8
v -0.6 4.9 0.8
v -0.5 3.4 0.8
v -0.5 3.6 0.8
v -0.5 3.7 0.8
v -0.5 3.9 0.8
v -0.5 4 0.8
v -0.5 4.2 0.8
v -0.5 4.3 0.8
v -0.5 4.5 0.8
v -0.5 4.6 0.8
v -0.5 4.8 0.8
v -0.5 4.9 0.8
v -0.8 3.4 0.7
v -0.8 4.7 0.7
v -0.7 3.4 0.7
v -0.7 4.7 0.7
v -0.8 3.4 -0.8
v -0.8 3.6 -0.8
v -0.8 3.7 -0.8
v -0.8 3.9 -0.8
v -0.8 4 -0.8
v -0.8 4.2 -0.8
v -0.8 4.3 -0.8
v -0.8 4.5 -0.8
v -0.8 4.6 -0.8
v -0.8 4.8 -0.8
v -0.8 4.9 -0.8
v -0.6 3.4 -0.8
v -0.6 3.6 -0.8
v -0.6 3.7 -0.8
v -0.6 3.9 -0.8
v -0.6 4 -0.8
v -0.6 4.2 -0.8
v -0.6 4.3 -0.8
v -0.6 4.5 -0.8
v -0.6 4.6 -0.8
v -0.6 4.8 -0.8
v -0.5 3.4 -0.8
v -0.5 3.6 -0.8
v -0.5 3.7 -0.8
v -0.5 3.9 -0.8
v -0.5 4 -0.8
v -0.5 4.2 -0.8
v -0.5 4.3 -0.8
v -0.5 4.5 -0.8
v -0.5 4.6 -0.8
v -0.5 4.8 -0.8
v -0.5 4.9 -0.8
v -0.7 3.4 0.8
v -0.6 3.4 0.8
v -0.5 3.4 0.8
v -0.8 3.4 0.7
v -0.7 3.4 0.7
v -0.8 3.4 0.6
v -0.7 3.4 0.6
v -0.6 3.4 0.6
v -0.5 3.4 0.6
v -0.8 3.4 0.5
v -0.7 3.4 0.5
v -0.6 3.4 0.5
v -0.5 3.4 0.5
v -0.8 3.4 0.4
v -0.7 3.4 0.4
v -0.6 3.4 0.2
v -0.5 3.4 0.2
v -0.6 3.4 0.1
v -0.5 3.4 0.1
v -0.8 3.4 0
v -0.7 3.4 0
v -0.8 3.4 -0.1
v -0.7 3.4 -0.1
v -0.6 3.4 -0.3
v -0.5 3.4 -0.3
v -0.6 3.4 -0.4
v -0.5 3.4 -0.4
v -0.8 3.4 -0.5
v -0.7 3.4 -0.5
v -0.8 3.4 -0.6
v -0.7 3.4 -0.6
v -0.7 3.4 -0.7
v -0.6 3.4 -0.7
v -0.8 3.4 -0.8
v -0.6 3.4 -0.8
v -0.5 3.4 -0.8
v -0.8 4.7 0.8
v -0.7 4.7 0.8
v -0.8 4.7 0.7
v -0.7 4.7 0.7
v -0.8 4.9 0.8
v -0.7 4.9 0.8
v -0.6 4.9 0.8
v -0.5 4.9 0.8
v -0.8 4.9 0.7
v -0.7 4.9 0.7
v -0.8 4.9 0.6
v -0.7 4.9 0.6
v -0.6 4.9 0.6
v -0.7 4.9 -0.7
v -0.6 4.9 -0.7
v -0.8 4.9 -0.8
v -0.5 4.9 -0.8

# faces
f 10/1/1 2/1/1 1/1/1
f 10/2/1 3/2/1 2/2/1
f 11/6/1 4/6/1 3/6/1
f 11/2/1 3/2/1 10/2/1
f 12/3/1 5/3/1 4/3/1
f 12/6/1 4/6/1 11/6/1
f 13/6/1 6/6/1 5/6/1
f 13/3/1 5/3/1 12/3/1
f 14/2/1 7/2/1 6/2/1
f 14/6/1 6/6/1 13/6/1
f 15/6/1 8/6/1 7/6/1
f 15/2/1 7/2/1 14/2/1
f 16/3/1 9/3/1 8/3/1
f 16/6/1 8/6/1 15/6/1
f 17/3/1 9/3/1 16/3/1
f 18/6/1 15/6/1 14/6/1
f 18/6/1 14/6/1 13/6/1
f 18/6/1 17/6/1 16/6/1
f 18/6/1 16/6/1 15/6/1
f 18/6/1 13/6/1 12/6/1
f 18/6/1 12/6/1 11/6/1
f 18/6/1 11/6/1 10/6/1
f 18/1/1 10/1/1 1/1/1
f 19/6/1 17/6/1 18/6/1
f 20/6/1 17/6/1 19/6/1
f 21/6/1 17/6/1 20/6/1
f 22/6/1 17/6/1 21/6/1
f 23/6/1 17/6/1 22/6/1
f 24/1/1 18/1/1 1/1/1
f 24/2/1 19/2/1 18/2/1
f 25/6/1 20/6/1 19/6/1
f 25/2/1 19/2/1 24/2/1
f 26/3/1 21/3/1 20/3/1
f 26/6/1 20/6/1 25/6/1
f 27/6/1 22/6/1 21/6/1
f 27/3/1 21/3/1 26/3/1
f 28/2/1 23/2/1 22/2/1
f 28/6/1 22/6/1 27/6/1
f 29/2/1 23/2/1 28/2/1
f 30/6/1 27/6/1 26/6/1
f 30/1/1 24/1/1 1/1/1
f 30/6/1 29/6/1 28/6/1
f 30/6/1 28/6/1 27/6/1
f 30/6/1 26/6/1 25/6/1
f 30/6/1 25/6/1 24/6/1
f 31/6/1 29/6/1 30/6/1
f 32/6/1 29/6/1 31/6/1
f 33/6/1 29/6/1 32/6/1
f 34/6/1 29/6/1 33/6/1
f 35/6/1 29/6/1 34/6/1
f 36/6/1 29/6/1 35/6/1
f 37/6/1 29/6/1 36/6/1
f 38/1/1 30/1/1 1/1/1
f 38/2/1 31/2/1 30/2/1
f 39/6/1 32/6/1 31/6/1
f 39/2/1 31/2/1 38/2/1
f 40/3/1 33/3/1 32/3/1
f 40/6/1 32/6/1 39/6/1
f 41/6/1 34/6/1 33/6/1
f 41/3/1 33/3/1 40/3/1
f 42/2/1 35/2/1 34/2/1
f 42/6/1 34/6/1 41/6/1
f 43/6/1 36/6/1 35/6/1
f 43/2/1 35/2/1 42/2/1
f 44/3/1 37/3/1 36/3/1
f 44/6/1 36/6/1 43/6/1
f 45/3/1 37/3/1 44/3/1
f 46/6/1 43/6/1 42/6/1
f 46/1/1 38/1/1 1/1/1
f 46/6/1 45/6/1 44/6/1
f 46/6/1 44/6/1 43/6/1
f 46/6/1 42/6/1 41/6/1
f 46/6/1 41/6/1 40/6/1
f 46/6/1 40/6/1 39/6/1
f 46/6/1 39/6/1 38/6/1
f 47/6/1 45/6/1 46/6/1
f 48/6/1 45/6/1 47/6/1
f 49/6/1 45/6/1 48/6/1
f 50/6/1 45/6/1 49/6/1
f 51/6/1 45/6/1 50/6/1
f 52/1/1 46/1/1 1/1/1
f 52/2/1 47/2/1 46/2/1
f 53/6/1 48/6/1 47/6/1
f 53/2/1 47/2/1 52/2/1
f 54/3/1 49/3/1 48/3/1
f 54/6/1 48/6/1 53/6/1
f 55/6/1 50/6/1 49/6/1
f 55/3/1 49/3/1 54/3/1
f 56/2/1 51/2/1 50/2/1
f 56/6/1 50/6/1 55/6/1
f 57/2/1 51/2/1 56/2/1
f 58/6/1 55/6/1 54/6/1
f 58/1/1 52/1/1 1/1/1
f 58/6/1 57/6/1 56/6/1
f 58/6/1 56/6/1 55/6/1
f 58/6/1 54/6/1 53/6/1
f 58/6/1 53/6/1 52/6/1
f 59/6/1 57/6/1 58/6/1
f 60/6/1 57/6/1 59/6/1
f 61/6/1 57/6/1 60/6/1
f 62/6/1 57/6/1 61/6/1
f 63/6/1 57/6/1 62/6/1
f 64/6/1 57/6/1 63/6/1
f 65/6/1 57/6/1 64/6/1
f 67/1/1 58/1/1 1/1/1
f 68/1/1 58/1/1 67/1/1
f 68/4/1 67/4/1 66/4/1
f 69/2/1 59/2/1 58/2/1
f 69/1/1 58/1/1 68/1/1
f 70/6/1 60/6/1 59/6/1
f 70/2/1 59/2/1 69/2/1
f 71/3/1 61/3/1 60/3/1
f 71/6/1 60/6/1 70/6/1
f 72/6/1 62/6/1 61/6/1
f 72/3/1 61/3/1 71/3/1
f 73/2/1 63/2/1 62/2/1
f 73/6/1 62/6/1 72/6/1
f 74/6/1 64/6/1 63/6/1
f 74/2/1 63/2/1 73/2/1
f 75/3/1 65/3/1 64/3/1
f 75/6/1 64/6/1 74/6/1
f 76/3/1 65/3/1 75/3/1
f 77/4/1 68/4/1 66/4/1
f 78/5/1 69/5/1 68/5/1
f 78/4/1 68/4/1 77/4/1
f 79/6/1 70/6/1 69/6/1
f 79/5/1 69/5/1 78/5/1
f 79/6/1 71/6/1 70/6/1
f 79/6/1 76/6/1 75/6/1
f 79/6/1 75/6/1 74/6/1
f 79/6/1 72/6/1 71/6/1
f 79/6/1 74/6/1 73/6/1
f 79/6/1 73/6/1 72/6/1
f 80/6/1 76/6/1 79/6/1
f 83/1/1 82/1/1 81/1/1
f 84/1/1 82/1/1 83/1/1
f 85/3/2 86/3/2 93/3/2
f 86/6/2 87/6/2 94/6/2
f 93/3/2 86/3/2 94/3/2
f 87/2/2 88/2/2 95/2/2
f 94/6/2 87/6/2 95/6/2
f 88/6/2 89/6/2 96/6/2
f 95/2/2 88/2/2 96/2/2
f 89/3/2 90/3/2 97/3/2
f 96/6/2 89/6/2 97/6/2
f 90/6/2 91/6/2 98/6/2
f 97/3/2 90/3/2 98/3/2
f 91/2/2 92/2/2 99/2/2
f 98/6/2 91/6/2 99/6/2
f 99/2/2 92/2/2 100/2/2
f 97/6/2 98/6/2 101/6/2
f 93/6/2 94/6/2 101/6/2
f 99/6/2 100/6/2 101/6/2
f 98/6/2 99/6/2 101/6/2
f 96/6/2 97/6/2 101/6/2
f 95/6/2 96/6/2 101/6/2
f 94/6/2 95/6/2 101/6/2
f 101/6/2 100/6/2 102/6/2
f 102/6/2 100/6/2 103/6/2
f 103/6/2 100/6/2 104/6/2
f 104/6/2 100/6/2 105/6/2
f 105/6/2 100/6/2 106/6/2
f 106/6/2 100/6/2 107/6/2
f 107/6/2 100/6/2 108/6/2
f 101/2/2 102/2/2 109/2/2
f 102/6/2 103/6/2 110/6/2
f 109/2/2 102/2/2 110/2/2
f 103/3/2 104/3/2 111/3/2
f 110/6/2 103/6/2 111/6/2
f 104/6/2 105/6/2 112/6/2
f 111/3/2 104/3/2 112/3/2
f 105/2/2 106/2/2 113/2/2
f 112/6/2 105/6/2 113/6/2
f 106/6/2 107/6/2 114/6/2
f 113/2/2 106/2/2 114/2/2
f 107/3/2 108/3/2 115/3/2
f 114/6/2 107/6/2 115/6/2
f 115/3/2 108/3/2 116/3/2
f 109/6/2 110/6/2 117/6/2
f 110/6/2 111/6/2 117/6/2
f 115/6/2 116/6/2 117/6/2
f 114/6/2 115/6/2 117/6/2
f 113/6/2 114/6/2 117/6/2
f 112/6/2 113/6/2 117/6/2
f 111/6/2 112/6/2 117/6/2
f 117/6/2 116/6/2 118/6/2
f 118/6/2 116/6/2 119/6/2
f 119/6/2 116/6/2 120/6/2
f 120/6/2 116/6/2 121/6/2
f 121/6/2 116/6/2 122/6/2
f 122/6/2 116/6/2 123/6/2
f 123/6/2 116/6/2 124/6/2
f 117/3/2 118/3/2 125/3/2
f 118/6/2 119/6/2 126/6/2
f 125/3/2 118/3/2 126/3/2
f 119/2/2 120/2/2 127/2/2
f 126/6/2 119/6/2 127/6/2
f 120/6/2 121/6/2 128/6/2
f 127/2/2 120/2/2 128/2/2
f 121/3/2 122/3/2 129/3/2
f 128/6/2 121/6/2 129/6/2
f 122/6/2 123/6/2 130/6/2
f 129/3/2 122/3/2 130/3/2
f 123/2/2 124/2/2 131/2/2
f 130/6/2 123/6/2 131/6/2
f 131/2/2 124/2/2 132/2/2
f 125/6/2 126/6/2 133/6/2
f 126/6/2 127/6/2 133/6/2
f 131/6/2 132/6/2 133/6/2
f 130/6/2 131/6/2 133/6/2
f 129/6/2 130/6/2 133/6/2
f 128/6/2 129/6/2 133/6/2
f 127/6/2 128/6/2 133/6/2
f 133/6/2 132/6/2 134/6/2
f 134/6/2 132/6/2 135/6/2
f 135/6/2 132/6/2 136/6/2
f 136/6/2 132/6/2 137/6/2
f 137/6/2 132/6/2 138/6/2
f 138/6/2 132/6/2 139/6/2
f 139/6/2 132/6/2 140/6/2
f 133/2/2 134/2/2 141/2/2
f 134/6/2 135/6/2 142/6/2
f 141/2/2 134/2/2 142/2/2
f 135/3/2 136/3/2 143/3/2
f 142/6/2 135/6/2 143/6/2
f 136/6/2 137/6/2 144/6/2
f 143/3/2 136/3/2 144/3/2
f 137/2/2 138/2/2 145/2/2
f 144/6/2 137/6/2 145/6/2
f 138/6/2 139/6/2 146/6/2
f 145/2/2 138/2/2 146/2/2
f 139/3/2 140/3/2 147/3/2
f 146/6/2 139/6/2 147/6/2
f 147/3/2 140/3/2 148/3/2
f 141/6/2 142/6/2 149/6/2
f 142/6/2 143/6/2 149/6/2
f 147/6/2 148/6/2 149/6/2
f 146/6/2 147/6/2 149/6/2
f 145/6/2 146/6/2 149/6/2
f 144/6/2 145/6/2 149/6/2
f 143/6/2 144/6/2 149/6/2
f 149/6/2 148/6/2 150/6/2
f 150/6/2 148/6/2 151/6/2
f 151/6/2 148/6/2 152/6/2
f 152/6/2 148/6/2 153/6/2
f 153/6/2 148/6/2 154/6/2
f 154/6/2 148/6/2 155/6/2
f 155/6/2 148/6/2 156/6/2
f 149/3/2 150/3/2 157/3/2
f 150/6/2 151/6/2 158/6/2
f 157/3/2 150/3/2 158/3/2
f 151/2/2 152/2/2 159/2/2
f 158/6/2 151/6/2 159/6/2
f 152/6/2 153/6/2 160/6/2
f 159/2/2 152/2/2 160/2/2
f 153/3/2 154/3/2 161/3/2
f 160/6/2 153/6/2 161/6/2
f 154/6/2 155/6/2 162/6/2
f 161/3/2 154/3/2 162/3/2
f 155/2/2 156/2/2 163/2/2
f 162/6/2 155/6/2 163/6/2
f 163/2/2 156/2/2 164/2/2
f 157/6/2 158/6/2 165/6/2
f 158/6/2 159/6/2 165/6/2
f 163/6/2 164/6/2 165/6/2
f 162/6/2 163/6/2 165/6/2
f 161/6/2 162/6/2 165/6/2
f 160/6/2 161/6/2 165/6/2
f 159/6/2 160/6/2 165/6/2
f 165/6/2 164/6/2 166/6/2
f 170/4/3 168/4/3 167/4/3
f 171/4/3 168/4/3 170/4/3
f 172/4/3 168/4/3 171/4/3
f 173/1/3 170/1/3 169/1/3
f 173/1/3 171/1/3 170/1/3
f 174/1/3 171/1/3 173/1/3
f 175/1/3 171/1/3 174/1/3
f 176/1/3 171/1/3 175/1/3
f 177/1/3 171/1/3 176/1/3
f 178/1/3 171/1/3 177/1/3
f 179/1/3 171/1/3 178/1/3
f 180/1/3 171/1/3 179/1/3
f 181/1/3 171/1/3 180/1/3
f 182/5/3 172/5/3 171/5/3
f 182/1/3 171/1/3 181/1/3
f 183/5/3 172/5/3 182/5/3
f 184/3/3 174/3/3 173/3/3
f 185/6/3 175/6/3 174/6/3
f 185/3/3 174/3/3 184/3/3
f 186/2/3 176/2/3 175/2/3
f 186/6/3 175/6/3 185/6/3
f 187/6/3 177/6/3 176/6/3
f 187/2/3 176/2/3 186/2/3
f 188/3/3 178/3/3 177/3/3
f 188/6/3 177/6/3 187/6/3
f 189/6/3 179/6/3 178/6/3
f 189/3/3 178/3/3 188/3/3
f 190/2/3 180/2/3 179/2/3
f 190/6/3 179/6/3 189/6/3
f 191/6/3 181/6/3 180/6/3
f 191/2/3 180/2/3 190/2/3
f 192/3/3 182/3/3 181/3/3
f 192/6/3 181/6/3 191/6/3
f 193/6/3 183/6/3 182/6/3
f 193/3/3 182/3/3 192/3/3
f 194/6/3 183/6/3 193/6/3
f 197/1/3 196/1/3 195/1/3
f 198/1/3 196/1/3 197/1/3
f 199/3/4 200/3/4 210/3/4
f 200/6/4 201/6/4 211/6/4
f 210/3/4 200/3/4 211/3/4
f 201/2/4 202/2/4 212/2/4
f 211/6/4 201/6/4 212/6/4
f 202/6/4 203/6/4 213/6/4
f 212/2/4 202/2/4 213/2/4
f 203/3/4 204/3/4 214/3/4
f 213/6/4 203/6/4 214/6/4
f 204/6/4 205/6/4 215/6/4
f 214/3/4 204/3/4 215/3/4
f 205/2/4 206/2/4 216/2/4
f 215/6/4 205/6/4 216/6/4
f 206/6/4 207/6/4 217/6/4
f 216/2/4 206/2/4 217/2/4
f 207/3/4 208/3/4 218/3/4
f 217/6/4 207/6/4 218/6/4
f 208/6/4 209/6/4 219/6/4
f 218/3/4 208/3/4 219/3/4
f 210/2/4 211/2/4 220/2/4
f 211/6/4 212/6/4 221/6/4
f 220/2/4 211/2/4 221/2/4
f 212/3/4 213/3/4 222/3/4
f 221/6/4 212/6/4 222/6/4
f 213/6/4 214/6/4 223/6/4
f 222/3/4 213/3/4 223/3/4
f 214/2/4 215/2/4 224/2/4
f 223/6/4 214/6/4 224/6/4
f 215/6/4 216/6/4 225/6/4
f 224/2/4 215/2/4 225/2/4
f 216/3/4 217/3/4 226/3/4
f 225/6/4 216/6/4 226/6/4
f 217/6/4 218/6/4 227/6/4
f 226/3/4 217/3/4 227/3/4
f 218/2/4 219/2/4 228/2/4
f 227/6/4 218/6/4 228/6/4
f 219/6/4 209/6/4 229/6/4
f 228/2/4 219/2/4 229/2/4
f 229/6/4 209/6/4 230/6/4
f 235/1/5 232/1/5 231/1/5
f 236/1/5 235/1/5 234/1/5
f 237/1/5 232/1/5 235/1/5
f 237/1/5 235/1/5 236/1/5
f 238/3/5 233/3/5 232/3/5
f 238/1/5 232/1/5 237/1/5
f 239/3/5 233/3/5 238/3/5
f 240/2/5 237/2/5 236/2/5
f 241/6/5 238/6/5 237/6/5
f 241/2/5 237/2/5 240/2/5
f 241/6/5 239/6/5 238/6/5
f 242/6/5 239/6/5 241/6/5
f 243/6/5 239/6/5 242/6/5
f 244/6/5 241/6/5 240/6/5
f 244/6/5 242/6/5 241/6/5
f 245/6/5 242/6/5 244/6/5
f 246/2/5 243/2/5 242/2/5
f 246/6/5 242/6/5 245/6/5
f 247/2/5 243/2/5 246/2/5
f 248/6/5 246/6/5 245/6/5
f 248/6/5 247/6/5 246/6/5
f 249/6/5 247/6/5 248/6/5
f 250/3/5 245/3/5 244/3/5
f 251/6/5 248/6/5 245/6/5
f 251/3/5 245/3/5 250/3/5
f 252/6/5 251/6/5 250/6/5
f 253/6/5 248/6/5 251/6/5
f 253/6/5 251/6/5 252/6/5
f 254/3/5 249/3/5 248/3/5
f 254/6/5 248/6/5 253/6/5
f 255/3/5 249/3/5 254/3/5
f 256/6/5 254/6/5 253/6/5
f 256/6/5 255/6/5 254/6/5
f 257/6/5 255/6/5 256/6/5
f 258/2/5 253/2/5 252/2/5
f 259/6/5 256/6/5 253/6/5
f 259/2/5 253/2/5 258/2/5
f 260/6/5 259/6/5 258/6/5
f 261/6/5 256/6/5 259/6/5
f 261/6/5 259/6/5 260/6/5
f 262/3/5 261/3/5 260/3/5
f 262/6/5 256/6/5 261/6/5
f 263/2/5 257/2/5 256/2/5
f 263/6/5 256/6/5 262/6/5
f 264/3/5 262/3/5 260/3/5
f 264/3/5 263/3/5 262/3/5
f 265/2/5 257/2/5 263/2/5
f 265/3/5 263/3/5 264/3/5
f 266/2/5 257/2/5 265/2/5
f 269/4/5 268/4/5 267/4/5
f 270/4/5 268/4/5 269/4/5
f 271/4/6 272/4/6 275/4/6
f 272/5/6 273/5/6 276/5/6
f 275/4/6 272/4/6 276/4/6
f 275/5/6 276/5/6 277/5/6
f 276/5/6 273/5/6 278/5/6
f 277/5/6 276/5/6 278/5/6
f 273/6/6 274/6/6 279/6/6
f 278/5/6 273/5/6 279/5/6
f 277/6/6 278/6/6 280/6/6
f 278/1/6 279/1/6 280/1/6
f 279/6/6 274/6/6 281/6/6
f 280/1/6 279/1/6 281/1/6
f 277/6/6 280/6/6 282/6/6
f 280/6/6 281/6/6 282/6/6
f 281/6/6 274/6/6 283/6/6
f 282/6/6 281/6/6 283/6/6
