# MagicaVoxel @ Ephtracy

# group
o 

# material
mtllib WallsSimpleV1Small.mtl
usemtl palette

# normals
vn -1 0 0
vn 1 0 0
vn 0 0 1
vn 0 0 -1
vn 0 -1 0
vn 0 1 0

# texcoords
vt 0.0371094 0.5
vt 0.533203 0.5
vt 0.537109 0.5
vt 0.962891 0.5
vt 0.978516 0.5

# verts
v -0.8 0 0.8
v -0.8 0 0.4
v -0.8 0 0.3
v -0.8 0 -0.1
v -0.8 0 -0.2
v -0.8 0 -0.6
v -0.8 0 -0.7
v -0.8 0.2 0.8
v -0.8 0.2 0.4
v -0.8 0.2 0.3
v -0.8 0.2 -0.1
v -0.8 0.2 -0.2
v -0.8 0.2 -0.6
v -0.8 0.3 0.8
v -0.8 0.3 0.6
v -0.8 0.3 0.5
v -0.8 0.3 0.1
v -0.8 0.3 0
v -0.8 0.3 -0.4
v -0.8 0.3 -0.5
v -0.8 0.3 -0.6
v -0.8 0.5 0.8
v -0.8 0.5 0.6
v -0.8 0.5 0.5
v -0.8 0.5 0.1
v -0.8 0.5 0
v -0.8 0.5 -0.4
v -0.8 0.5 -0.5
v -0.8 0.5 -0.6
v -0.8 0.6 0.8
v -0.8 0.6 0.4
v -0.8 0.6 0.3
v -0.8 0.6 -0.1
v -0.8 0.6 -0.2
v -0.8 0.6 -0.6
v -0.8 0.8 0.8
v -0.8 0.8 0.4
v -0.8 0.8 0.3
v -0.8 0.8 -0.1
v -0.8 0.8 -0.2
v -0.8 0.8 -0.6
v -0.8 0.9 0.8
v -0.8 0.9 0.6
v -0.8 0.9 0.5
v -0.8 0.9 0.1
v -0.8 0.9 0
v -0.8 0.9 -0.4
v -0.8 0.9 -0.5
v -0.8 0.9 -0.6
v -0.8 1.1 0.8
v -0.8 1.1 0.6
v -0.8 1.1 0.5
v -0.8 1.1 0.1
v -0.8 1.1 0
v -0.8 1.1 -0.4
v -0.8 1.1 -0.5
v -0.8 1.1 -0.6
v -0.8 1.2 0.8
v -0.8 1.2 0.4
v -0.8 1.2 0.3
v -0.8 1.2 -0.1
v -0.8 1.2 -0.2
v -0.8 1.2 -0.6
v -0.8 1.3 -0.7
v -0.8 1.3 -0.8
v -0.8 1.4 0.8
v -0.8 1.4 0.4
v -0.8 1.4 0.3
v -0.8 1.4 -0.1
v -0.8 1.4 -0.2
v -0.8 1.4 -0.6
v -0.8 1.5 0.8
v -0.8 1.5 0.6
v -0.8 1.5 0.5
v -0.8 1.5 0.1
v -0.8 1.5 0
v -0.8 1.5 -0.4
v -0.8 1.5 -0.5
v -0.8 1.5 -0.6
v -0.8 1.6 0.8
v -0.8 1.6 0.6
v -0.8 1.6 0.5
v -0.8 1.6 0.1
v -0.8 1.6 0
v -0.8 1.6 -0.4
v -0.8 1.6 -0.5
v -0.8 1.6 -0.6
v -0.8 1.6 -0.7
v -0.8 1.6 -0.8
v 0.8 0 0.8
v 0.8 0 0.6
v 0.8 0 0.5
v 0.8 0 0.1
v 0.8 0 0
v 0.8 0 -0.4
v 0.8 0 -0.5
v 0.8 0 -0.6
v 0.8 0 -0.7
v 0.8 0.2 0.8
v 0.8 0.2 0.6
v 0.8 0.2 0.5
v 0.8 0.2 0.1
v 0.8 0.2 0
v 0.8 0.2 -0.4
v 0.8 0.2 -0.5
v 0.8 0.2 -0.6
v 0.8 0.3 0.8
v 0.8 0.3 0.4
v 0.8 0.3 0.3
v 0.8 0.3 -0.1
v 0.8 0.3 -0.2
v 0.8 0.3 -0.6
v 0.8 0.5 0.8
v 0.8 0.5 0.4
v 0.8 0.5 0.3
v 0.8 0.5 -0.1
v 0.8 0.5 -0.2
v 0.8 0.5 -0.6
v 0.8 0.6 0.8
v 0.8 0.6 0.6
v 0.8 0.6 0.5
v 0.8 0.6 0.1
v 0.8 0.6 0
v 0.8 0.6 -0.4
v 0.8 0.6 -0.5
v 0.8 0.6 -0.6
v 0.8 0.8 0.8
v 0.8 0.8 0.6
v 0.8 0.8 0.5
v 0.8 0.8 0.1
v 0.8 0.8 0
v 0.8 0.8 -0.4
v 0.8 0.8 -0.5
v 0.8 0.8 -0.6
v 0.8 0.9 0.8
v 0.8 0.9 0.4
v 0.8 0.9 0.3
v 0.8 0.9 -0.1
v 0.8 0.9 -0.2
v 0.8 0.9 -0.6
v 0.8 1.1 0.8
v 0.8 1.1 0.4
v 0.8 1.1 0.3
v 0.8 1.1 -0.1
v 0.8 1.1 -0.2
v 0.8 1.1 -0.6
v 0.8 1.2 0.8
v 0.8 1.2 0.6
v 0.8 1.2 0.5
v 0.8 1.2 0.1
v 0.8 1.2 0
v 0.8 1.2 -0.4
v 0.8 1.2 -0.5
v 0.8 1.2 -0.6
v 0.8 1.3 -0.7
v 0.8 1.3 -0.8
v 0.8 1.4 0.8
v 0.8 1.4 0.6
v 0.8 1.4 0.5
v 0.8 1.4 0.1
v 0.8 1.4 0
v 0.8 1.4 -0.4
v 0.8 1.4 -0.5
v 0.8 1.4 -0.6
v 0.8 1.5 0.8
v 0.8 1.5 0.4
v 0.8 1.5 0.3
v 0.8 1.5 -0.1
v 0.8 1.5 -0.2
v 0.8 1.5 -0.6
v 0.8 1.6 0.8
v 0.8 1.6 0.4
v 0.8 1.6 0.3
v 0.8 1.6 -0.1
v 0.8 1.6 -0.2
v 0.8 1.6 -0.6
v 0.8 1.6 -0.7
v 0.8 1.6 -0.8
v -0.8 0 0.8
v -0.8 0.2 0.8
v -0.8 0.3 0.8
v -0.8 0.5 0.8
v -0.8 0.6 0.8
v -0.8 0.8 0.8
v -0.8 0.9 0.8
v -0.8 1.1 0.8
v -0.8 1.2 0.8
v -0.8 1.4 0.8
v -0.8 1.5 0.8
v -0.8 1.6 0.8
v -0.6 0 0.8
v -0.6 0.2 0.8
v -0.6 0.6 0.8
v -0.6 0.8 0.8
v -0.6 1.2 0.8
v -0.6 1.4 0.8
v -0.5 0 0.8
v -0.5 0.2 0.8
v -0.5 0.6 0.8
v -0.5 0.8 0.8
v -0.5 1.2 0.8
v -0.5 1.4 0.8
v -0.4 0.3 0.8
v -0.4 0.5 0.8
v -0.4 0.9 0.8
v -0.4 1.1 0.8
v -0.4 1.5 0.8
v -0.4 1.6 0.8
v -0.3 0.3 0.8
v -0.3 0.5 0.8
v -0.3 0.9 0.8
v -0.3 1.1 0.8
v -0.3 1.5 0.8
v -0.3 1.6 0.8
v -0.1 0 0.8
v -0.1 0.2 0.8
v -0.1 0.6 0.8
v -0.1 0.8 0.8
v -0.1 1.2 0.8
v -0.1 1.4 0.8
v 0 0 0.8
v 0 0.2 0.8
v 0 0.6 0.8
v 0 0.8 0.8
v 0 1.2 0.8
v 0 1.4 0.8
v 0.1 0.3 0.8
v 0.1 0.5 0.8
v 0.1 0.9 0.8
v 0.1 1.1 0.8
v 0.1 1.5 0.8
v 0.1 1.6 0.8
v 0.2 0.3 0.8
v 0.2 0.5 0.8
v 0.2 0.9 0.8
v 0.2 1.1 0.8
v 0.2 1.5 0.8
v 0.2 1.6 0.8
v 0.3 0 0.8
v 0.3 0.2 0.8
v 0.3 0.6 0.8
v 0.3 0.8 0.8
v 0.3 1.2 0.8
v 0.3 1.4 0.8
v 0.4 0 0.8
v 0.4 0.2 0.8
v 0.4 0.6 0.8
v 0.4 0.8 0.8
v 0.4 1.2 0.8
v 0.4 1.4 0.8
v 0.5 0.3 0.8
v 0.5 0.5 0.8
v 0.5 0.9 0.8
v 0.5 1.1 0.8
v 0.5 1.5 0.8
v 0.5 1.6 0.8
v 0.6 0.3 0.8
v 0.6 0.5 0.8
v 0.6 0.9 0.8
v 0.6 1.1 0.8
v 0.6 1.5 0.8
v 0.6 1.6 0.8
v 0.8 0 0.8
v 0.8 0.2 0.8
v 0.8 0.3 0.8
v 0.8 0.5 0.8
v 0.8 0.6 0.8
v 0.8 0.8 0.8
v 0.8 0.9 0.8
v 0.8 1.1 0.8
v 0.8 1.2 0.8
v 0.8 1.4 0.8
v 0.8 1.5 0.8
v 0.8 1.6 0.8
v -0.8 0 -0.7
v -0.8 1.3 -0.7
v 0.8 0 -0.7
v 0.8 1.3 -0.7
v -0.8 1.3 -0.8
v -0.8 1.6 -0.8
v 0.8 1.3 -0.8
v 0.8 1.6 -0.8
v -0.8 0 0.8
v -0.6 0 0.8
v -0.5 0 0.8
v -0.1 0 0.8
v 0 0 0.8
v 0.3 0 0.8
v 0.4 0 0.8
v 0.8 0 0.8
v -0.7 0 0.7
v -0.6 0 0.7
v -0.5 0 0.7
v -0.1 0 0.7
v 0 0 0.7
v 0.3 0 0.7
v 0.4 0 0.7
v 0.7 0 0.7
v 0.7 0 0.6
v 0.8 0 0.6
v 0.7 0 0.5
v 0.8 0 0.5
v -0.8 0 0.4
v -0.7 0 0.4
v -0.8 0 0.3
v -0.7 0 0.3
v 0.7 0 0.1
v 0.8 0 0.1
v 0.7 0 0
v 0.8 0 0
v -0.8 0 -0.1
v -0.7 0 -0.1
v -0.8 0 -0.2
v -0.7 0 -0.2
v 0.7 0 -0.4
v 0.8 0 -0.4
v 0.7 0 -0.5
v 0.8 0 -0.5
v -0.8 0 -0.6
v -0.7 0 -0.6
v 0.7 0 -0.6
v 0.8 0 -0.6
v -0.8 0 -0.7
v 0.8 0 -0.7
v -0.8 1.3 -0.7
v 0.8 1.3 -0.7
v -0.8 1.3 -0.8
v 0.8 1.3 -0.8
v -0.8 1.6 0.8
v -0.4 1.6 0.8
v -0.3 1.6 0.8
v 0.1 1.6 0.8
v 0.2 1.6 0.8
v 0.5 1.6 0.8
v 0.6 1.6 0.8
v 0.8 1.6 0.8
v -0.7 1.6 0.7
v -0.4 1.6 0.7
v -0.3 1.6 0.7
v 0.1 1.6 0.7
v 0.2 1.6 0.7
v 0.5 1.6 0.7
v 0.6 1.6 0.7
v 0.7 1.6 0.7
v -0.8 1.6 0.6
v -0.7 1.6 0.6
v -0.8 1.6 0.5
v -0.7 1.6 0.5
v 0.7 1.6 0.4
v 0.8 1.6 0.4
v 0.7 1.6 0.3
v 0.8 1.6 0.3
v -0.8 1.6 0.1
v -0.7 1.6 0.1
v -0.8 1.6 0
v -0.7 1.6 0
v 0.7 1.6 -0.1
v 0.8 1.6 -0.1
v 0.7 1.6 -0.2
v 0.8 1.6 -0.2
v -0.8 1.6 -0.4
v -0.7 1.6 -0.4
v -0.8 1.6 -0.5
v -0.7 1.6 -0.5
v -0.8 1.6 -0.6
v -0.7 1.6 -0.6
v 0.7 1.6 -0.6
v 0.8 1.6 -0.6
v -0.8 1.6 -0.7
v 0.8 1.6 -0.7
v -0.8 1.6 -0.8
v 0.8 1.6 -0.8

# faces
f 8/2/1 2/2/1 1/2/1
f 9/5/1 3/5/1 2/5/1
f 9/2/1 2/2/1 8/2/1
f 10/3/1 4/3/1 3/3/1
f 10/5/1 3/5/1 9/5/1
f 11/5/1 5/5/1 4/5/1
f 11/3/1 4/3/1 10/3/1
f 12/2/1 6/2/1 5/2/1
f 12/5/1 5/5/1 11/5/1
f 13/1/1 7/1/1 6/1/1
f 13/2/1 6/2/1 12/2/1
f 14/5/1 12/5/1 11/5/1
f 14/5/1 9/5/1 8/5/1
f 14/5/1 13/5/1 12/5/1
f 14/5/1 11/5/1 10/5/1
f 14/5/1 10/5/1 9/5/1
f 15/5/1 13/5/1 14/5/1
f 16/5/1 13/5/1 15/5/1
f 17/5/1 13/5/1 16/5/1
f 18/5/1 13/5/1 17/5/1
f 19/5/1 13/5/1 18/5/1
f 20/5/1 13/5/1 19/5/1
f 21/1/1 7/1/1 13/1/1
f 21/5/1 13/5/1 20/5/1
f 22/3/1 15/3/1 14/3/1
f 23/5/1 16/5/1 15/5/1
f 23/3/1 15/3/1 22/3/1
f 24/2/1 17/2/1 16/2/1
f 24/5/1 16/5/1 23/5/1
f 25/5/1 18/5/1 17/5/1
f 25/2/1 17/2/1 24/2/1
f 26/3/1 19/3/1 18/3/1
f 26/5/1 18/5/1 25/5/1
f 27/5/1 20/5/1 19/5/1
f 27/3/1 19/3/1 26/3/1
f 28/2/1 21/2/1 20/2/1
f 28/5/1 20/5/1 27/5/1
f 29/1/1 7/1/1 21/1/1
f 29/2/1 21/2/1 28/2/1
f 30/5/1 26/5/1 25/5/1
f 30/5/1 28/5/1 27/5/1
f 30/5/1 29/5/1 28/5/1
f 30/5/1 27/5/1 26/5/1
f 30/5/1 25/5/1 24/5/1
f 30/5/1 24/5/1 23/5/1
f 30/5/1 23/5/1 22/5/1
f 31/5/1 29/5/1 30/5/1
f 32/5/1 29/5/1 31/5/1
f 33/5/1 29/5/1 32/5/1
f 34/5/1 29/5/1 33/5/1
f 35/1/1 7/1/1 29/1/1
f 35/5/1 29/5/1 34/5/1
f 36/2/1 31/2/1 30/2/1
f 37/5/1 32/5/1 31/5/1
f 37/2/1 31/2/1 36/2/1
f 38/3/1 33/3/1 32/3/1
f 38/5/1 32/5/1 37/5/1
f 39/5/1 34/5/1 33/5/1
f 39/3/1 33/3/1 38/3/1
f 40/2/1 35/2/1 34/2/1
f 40/5/1 34/5/1 39/5/1
f 41/1/1 7/1/1 35/1/1
f 41/2/1 35/2/1 40/2/1
f 42/5/1 38/5/1 37/5/1
f 42/5/1 40/5/1 39/5/1
f 42/5/1 41/5/1 40/5/1
f 42/5/1 39/5/1 38/5/1
f 42/5/1 37/5/1 36/5/1
f 43/5/1 41/5/1 42/5/1
f 44/5/1 41/5/1 43/5/1
f 45/5/1 41/5/1 44/5/1
f 46/5/1 41/5/1 45/5/1
f 47/5/1 41/5/1 46/5/1
f 48/5/1 41/5/1 47/5/1
f 49/1/1 7/1/1 41/1/1
f 49/5/1 41/5/1 48/5/1
f 50/3/1 43/3/1 42/3/1
f 51/5/1 44/5/1 43/5/1
f 51/3/1 43/3/1 50/3/1
f 52/2/1 45/2/1 44/2/1
f 52/5/1 44/5/1 51/5/1
f 53/5/1 46/5/1 45/5/1
f 53/2/1 45/2/1 52/2/1
f 54/3/1 47/3/1 46/3/1
f 54/5/1 46/5/1 53/5/1
f 55/5/1 48/5/1 47/5/1
f 55/3/1 47/3/1 54/3/1
f 56/2/1 49/2/1 48/2/1
f 56/5/1 48/5/1 55/5/1
f 57/1/1 7/1/1 49/1/1
f 57/2/1 49/2/1 56/2/1
f 58/5/1 54/5/1 53/5/1
f 58/5/1 56/5/1 55/5/1
f 58/5/1 57/5/1 56/5/1
f 58/5/1 55/5/1 54/5/1
f 58/5/1 53/5/1 52/5/1
f 58/5/1 52/5/1 51/5/1
f 58/5/1 51/5/1 50/5/1
f 59/5/1 57/5/1 58/5/1
f 60/5/1 57/5/1 59/5/1
f 61/5/1 57/5/1 60/5/1
f 62/5/1 57/5/1 61/5/1
f 63/1/1 7/1/1 57/1/1
f 63/5/1 57/5/1 62/5/1
f 64/1/1 7/1/1 63/1/1
f 66/2/1 59/2/1 58/2/1
f 67/5/1 60/5/1 59/5/1
f 67/2/1 59/2/1 66/2/1
f 68/3/1 61/3/1 60/3/1
f 68/5/1 60/5/1 67/5/1
f 69/5/1 62/5/1 61/5/1
f 69/3/1 61/3/1 68/3/1
f 70/2/1 63/2/1 62/2/1
f 70/5/1 62/5/1 69/5/1
f 71/1/1 64/1/1 63/1/1
f 71/2/1 63/2/1 70/2/1
f 72/5/1 68/5/1 67/5/1
f 72/5/1 67/5/1 66/5/1
f 72/5/1 71/5/1 70/5/1
f 72/5/1 70/5/1 69/5/1
f 72/5/1 69/5/1 68/5/1
f 73/5/1 71/5/1 72/5/1
f 74/5/1 71/5/1 73/5/1
f 75/5/1 71/5/1 74/5/1
f 76/5/1 71/5/1 75/5/1
f 77/5/1 71/5/1 76/5/1
f 78/5/1 71/5/1 77/5/1
f 79/1/1 64/1/1 71/1/1
f 79/5/1 71/5/1 78/5/1
f 80/3/1 73/3/1 72/3/1
f 81/5/1 74/5/1 73/5/1
f 81/3/1 73/3/1 80/3/1
f 82/2/1 75/2/1 74/2/1
f 82/5/1 74/5/1 81/5/1
f 83/5/1 76/5/1 75/5/1
f 83/2/1 75/2/1 82/2/1
f 84/3/1 77/3/1 76/3/1
f 84/5/1 76/5/1 83/5/1
f 85/5/1 78/5/1 77/5/1
f 85/3/1 77/3/1 84/3/1
f 86/2/1 79/2/1 78/2/1
f 86/5/1 78/5/1 85/5/1
f 87/1/1 64/1/1 79/1/1
f 87/2/1 79/2/1 86/2/1
f 88/4/1 65/4/1 64/4/1
f 88/1/1 64/1/1 87/1/1
f 89/4/1 65/4/1 88/4/1
f 90/2/2 91/2/2 99/2/2
f 91/5/2 92/5/2 100/5/2
f 99/2/2 91/2/2 100/2/2
f 92/3/2 93/3/2 101/3/2
f 100/5/2 92/5/2 101/5/2
f 93/5/2 94/5/2 102/5/2
f 101/3/2 93/3/2 102/3/2
f 94/2/2 95/2/2 103/2/2
f 102/5/2 94/5/2 103/5/2
f 95/5/2 96/5/2 104/5/2
f 103/2/2 95/2/2 104/2/2
f 96/3/2 97/3/2 105/3/2
f 104/5/2 96/5/2 105/5/2
f 97/1/2 98/1/2 106/1/2
f 105/3/2 97/3/2 106/3/2
f 104/5/2 105/5/2 107/5/2
f 99/5/2 100/5/2 107/5/2
f 105/5/2 106/5/2 107/5/2
f 103/5/2 104/5/2 107/5/2
f 102/5/2 103/5/2 107/5/2
f 101/5/2 102/5/2 107/5/2
f 100/5/2 101/5/2 107/5/2
f 107/5/2 106/5/2 108/5/2
f 108/5/2 106/5/2 109/5/2
f 109/5/2 106/5/2 110/5/2
f 110/5/2 106/5/2 111/5/2
f 106/1/2 98/1/2 112/1/2
f 111/5/2 106/5/2 112/5/2
f 107/3/2 108/3/2 113/3/2
f 108/5/2 109/5/2 114/5/2
f 113/3/2 108/3/2 114/3/2
f 109/2/2 110/2/2 115/2/2
f 114/5/2 109/5/2 115/5/2
f 110/5/2 111/5/2 116/5/2
f 115/2/2 110/2/2 116/2/2
f 111/3/2 112/3/2 117/3/2
f 116/5/2 111/5/2 117/5/2
f 112/1/2 98/1/2 118/1/2
f 117/3/2 112/3/2 118/3/2
f 114/5/2 115/5/2 119/5/2
f 116/5/2 117/5/2 119/5/2
f 117/5/2 118/5/2 119/5/2
f 115/5/2 116/5/2 119/5/2
f 113/5/2 114/5/2 119/5/2
f 119/5/2 118/5/2 120/5/2
f 120/5/2 118/5/2 121/5/2
f 121/5/2 118/5/2 122/5/2
f 122/5/2 118/5/2 123/5/2
f 123/5/2 118/5/2 124/5/2
f 124/5/2 118/5/2 125/5/2
f 118/1/2 98/1/2 126/1/2
f 125/5/2 118/5/2 126/5/2
f 119/2/2 120/2/2 127/2/2
f 120/5/2 121/5/2 128/5/2
f 127/2/2 120/2/2 128/2/2
f 121/3/2 122/3/2 129/3/2
f 128/5/2 121/5/2 129/5/2
f 122/5/2 123/5/2 130/5/2
f 129/3/2 122/3/2 130/3/2
f 123/2/2 124/2/2 131/2/2
f 130/5/2 123/5/2 131/5/2
f 124/5/2 125/5/2 132/5/2
f 131/2/2 124/2/2 132/2/2
f 125/3/2 126/3/2 133/3/2
f 132/5/2 125/5/2 133/5/2
f 126/1/2 98/1/2 134/1/2
f 133/3/2 126/3/2 134/3/2
f 130/5/2 131/5/2 135/5/2
f 132/5/2 133/5/2 135/5/2
f 133/5/2 134/5/2 135/5/2
f 131/5/2 132/5/2 135/5/2
f 129/5/2 130/5/2 135/5/2
f 128/5/2 129/5/2 135/5/2
f 127/5/2 128/5/2 135/5/2
f 135/5/2 134/5/2 136/5/2
f 136/5/2 134/5/2 137/5/2
f 137/5/2 134/5/2 138/5/2
f 138/5/2 134/5/2 139/5/2
f 134/1/2 98/1/2 140/1/2
f 139/5/2 134/5/2 140/5/2
f 135/3/2 136/3/2 141/3/2
f 136/5/2 137/5/2 142/5/2
f 141/3/2 136/3/2 142/3/2
f 137/2/2 138/2/2 143/2/2
f 142/5/2 137/5/2 143/5/2
f 138/5/2 139/5/2 144/5/2
f 143/2/2 138/2/2 144/2/2
f 139/3/2 140/3/2 145/3/2
f 144/5/2 139/5/2 145/5/2
f 140/1/2 98/1/2 146/1/2
f 145/3/2 140/3/2 146/3/2
f 142/5/2 143/5/2 147/5/2
f 144/5/2 145/5/2 147/5/2
f 145/5/2 146/5/2 147/5/2
f 143/5/2 144/5/2 147/5/2
f 141/5/2 142/5/2 147/5/2
f 147/5/2 146/5/2 148/5/2
f 148/5/2 146/5/2 149/5/2
f 149/5/2 146/5/2 150/5/2
f 150/5/2 146/5/2 151/5/2
f 151/5/2 146/5/2 152/5/2
f 152/5/2 146/5/2 153/5/2
f 146/1/2 98/1/2 154/1/2
f 153/5/2 146/5/2 154/5/2
f 154/1/2 98/1/2 155/1/2
f 147/2/2 148/2/2 157/2/2
f 148/5/2 149/5/2 158/5/2
f 157/2/2 148/2/2 158/2/2
f 149/3/2 150/3/2 159/3/2
f 158/5/2 149/5/2 159/5/2
f 150/5/2 151/5/2 160/5/2
f 159/3/2 150/3/2 160/3/2
f 151/2/2 152/2/2 161/2/2
f 160/5/2 151/5/2 161/5/2
f 152/5/2 153/5/2 162/5/2
f 161/2/2 152/2/2 162/2/2
f 153/3/2 154/3/2 163/3/2
f 162/5/2 153/5/2 163/5/2
f 154/1/2 155/1/2 164/1/2
f 163/3/2 154/3/2 164/3/2
f 160/5/2 161/5/2 165/5/2
f 157/5/2 158/5/2 165/5/2
f 163/5/2 164/5/2 165/5/2
f 162/5/2 163/5/2 165/5/2
f 161/5/2 162/5/2 165/5/2
f 159/5/2 160/5/2 165/5/2
f 158/5/2 159/5/2 165/5/2
f 165/5/2 164/5/2 166/5/2
f 166/5/2 164/5/2 167/5/2
f 167/5/2 164/5/2 168/5/2
f 168/5/2 164/5/2 169/5/2
f 164/1/2 155/1/2 170/1/2
f 169/5/2 164/5/2 170/5/2
f 165/3/2 166/3/2 171/3/2
f 166/5/2 167/5/2 172/5/2
f 171/3/2 166/3/2 172/3/2
f 167/2/2 168/2/2 173/2/2
f 172/5/2 167/5/2 173/5/2
f 168/5/2 169/5/2 174/5/2
f 173/2/2 168/2/2 174/2/2
f 169/3/2 170/3/2 175/3/2
f 174/5/2 169/5/2 175/5/2
f 170/1/2 155/1/2 176/1/2
f 175/3/2 170/3/2 176/3/2
f 155/4/2 156/4/2 177/4/2
f 176/1/2 155/1/2 177/1/2
f 177/4/2 156/4/2 178/4/2
f 191/2/3 180/2/3 179/2/3
f 192/5/3 181/5/3 180/5/3
f 192/2/3 180/2/3 191/2/3
f 193/5/3 183/5/3 182/5/3
f 193/2/3 184/2/3 183/2/3
f 194/5/3 185/5/3 184/5/3
f 194/2/3 184/2/3 193/2/3
f 195/5/3 187/5/3 186/5/3
f 195/2/3 188/2/3 187/2/3
f 196/5/3 189/5/3 188/5/3
f 196/2/3 188/2/3 195/2/3
f 197/5/3 192/5/3 191/5/3
f 198/5/3 181/5/3 192/5/3
f 198/5/3 192/5/3 197/5/3
f 199/5/3 193/5/3 182/5/3
f 199/5/3 194/5/3 193/5/3
f 200/5/3 185/5/3 194/5/3
f 200/5/3 194/5/3 199/5/3
f 201/5/3 195/5/3 186/5/3
f 201/5/3 196/5/3 195/5/3
f 202/5/3 189/5/3 196/5/3
f 202/5/3 196/5/3 201/5/3
f 203/3/3 182/3/3 181/3/3
f 203/5/3 181/5/3 198/5/3
f 204/5/3 199/5/3 182/5/3
f 204/3/3 182/3/3 203/3/3
f 205/3/3 186/3/3 185/3/3
f 205/5/3 185/5/3 200/5/3
f 206/5/3 201/5/3 186/5/3
f 206/3/3 186/3/3 205/3/3
f 207/3/3 190/3/3 189/3/3
f 207/5/3 189/5/3 202/5/3
f 208/3/3 190/3/3 207/3/3
f 209/5/3 203/5/3 198/5/3
f 209/5/3 204/5/3 203/5/3
f 210/5/3 199/5/3 204/5/3
f 210/5/3 204/5/3 209/5/3
f 211/5/3 206/5/3 205/5/3
f 211/5/3 205/5/3 200/5/3
f 212/5/3 201/5/3 206/5/3
f 212/5/3 206/5/3 211/5/3
f 213/5/3 208/5/3 207/5/3
f 213/5/3 207/5/3 202/5/3
f 214/5/3 208/5/3 213/5/3
f 215/3/3 198/3/3 197/3/3
f 216/5/3 209/5/3 198/5/3
f 216/3/3 198/3/3 215/3/3
f 217/5/3 199/5/3 210/5/3
f 217/3/3 200/3/3 199/3/3
f 218/5/3 211/5/3 200/5/3
f 218/3/3 200/3/3 217/3/3
f 219/3/3 202/3/3 201/3/3
f 219/5/3 201/5/3 212/5/3
f 220/5/3 213/5/3 202/5/3
f 220/3/3 202/3/3 219/3/3
f 221/5/3 216/5/3 215/5/3
f 222/5/3 209/5/3 216/5/3
f 222/5/3 216/5/3 221/5/3
f 223/5/3 217/5/3 210/5/3
f 223/5/3 218/5/3 217/5/3
f 224/5/3 211/5/3 218/5/3
f 224/5/3 218/5/3 223/5/3
f 225/5/3 219/5/3 212/5/3
f 225/5/3 220/5/3 219/5/3
f 226/5/3 213/5/3 220/5/3
f 226/5/3 220/5/3 225/5/3
f 227/5/3 209/5/3 222/5/3
f 227/2/3 210/2/3 209/2/3
f 228/5/3 223/5/3 210/5/3
f 228/2/3 210/2/3 227/2/3
f 229/2/3 212/2/3 211/2/3
f 229/5/3 211/5/3 224/5/3
f 230/5/3 225/5/3 212/5/3
f 230/2/3 212/2/3 229/2/3
f 231/5/3 213/5/3 226/5/3
f 231/2/3 214/2/3 213/2/3
f 232/2/3 214/2/3 231/2/3
f 233/5/3 227/5/3 222/5/3
f 233/5/3 228/5/3 227/5/3
f 234/5/3 223/5/3 228/5/3
f 234/5/3 228/5/3 233/5/3
f 235/5/3 229/5/3 224/5/3
f 235/5/3 230/5/3 229/5/3
f 236/5/3 225/5/3 230/5/3
f 236/5/3 230/5/3 235/5/3
f 237/5/3 232/5/3 231/5/3
f 237/5/3 231/5/3 226/5/3
f 238/5/3 232/5/3 237/5/3
f 239/3/3 222/3/3 221/3/3
f 240/5/3 233/5/3 222/5/3
f 240/3/3 222/3/3 239/3/3
f 241/5/3 223/5/3 234/5/3
f 241/3/3 224/3/3 223/3/3
f 242/5/3 235/5/3 224/5/3
f 242/3/3 224/3/3 241/3/3
f 243/3/3 226/3/3 225/3/3
f 243/5/3 225/5/3 236/5/3
f 244/5/3 237/5/3 226/5/3
f 244/3/3 226/3/3 243/3/3
f 245/5/3 240/5/3 239/5/3
f 246/5/3 233/5/3 240/5/3
f 246/5/3 240/5/3 245/5/3
f 247/5/3 241/5/3 234/5/3
f 247/5/3 242/5/3 241/5/3
f 248/5/3 235/5/3 242/5/3
f 248/5/3 242/5/3 247/5/3
f 249/5/3 243/5/3 236/5/3
f 249/5/3 244/5/3 243/5/3
f 250/5/3 237/5/3 244/5/3
f 250/5/3 244/5/3 249/5/3
f 251/5/3 233/5/3 246/5/3
f 251/3/3 234/3/3 233/3/3
f 252/5/3 247/5/3 234/5/3
f 252/3/3 234/3/3 251/3/3
f 253/3/3 236/3/3 235/3/3
f 253/5/3 235/5/3 248/5/3
f 254/5/3 249/5/3 236/5/3
f 254/3/3 236/3/3 253/3/3
f 255/5/3 237/5/3 250/5/3
f 255/3/3 238/3/3 237/3/3
f 256/3/3 238/3/3 255/3/3
f 257/5/3 251/5/3 246/5/3
f 257/5/3 252/5/3 251/5/3
f 258/5/3 247/5/3 252/5/3
f 258/5/3 252/5/3 257/5/3
f 259/5/3 253/5/3 248/5/3
f 259/5/3 254/5/3 253/5/3
f 260/5/3 249/5/3 254/5/3
f 260/5/3 254/5/3 259/5/3
f 261/5/3 256/5/3 255/5/3
f 261/5/3 255/5/3 250/5/3
f 262/5/3 256/5/3 261/5/3
f 263/2/3 246/2/3 245/2/3
f 264/5/3 257/5/3 246/5/3
f 264/2/3 246/2/3 263/2/3
f 265/3/3 258/3/3 257/3/3
f 265/5/3 257/5/3 264/5/3
f 266/5/3 247/5/3 258/5/3
f 266/3/3 258/3/3 265/3/3
f 267/2/3 248/2/3 247/2/3
f 267/5/3 247/5/3 266/5/3
f 268/5/3 259/5/3 248/5/3
f 268/2/3 248/2/3 267/2/3
f 269/3/3 260/3/3 259/3/3
f 269/5/3 259/5/3 268/5/3
f 270/5/3 249/5/3 260/5/3
f 270/3/3 260/3/3 269/3/3
f 271/2/3 250/2/3 249/2/3
f 271/5/3 249/5/3 270/5/3
f 272/5/3 261/5/3 250/5/3
f 272/2/3 250/2/3 271/2/3
f 273/3/3 262/3/3 261/3/3
f 273/5/3 261/5/3 272/5/3
f 274/3/3 262/3/3 273/3/3
f 275/1/4 276/1/4 277/1/4
f 277/1/4 276/1/4 278/1/4
f 279/4/4 280/4/4 281/4/4
f 281/4/4 280/4/4 282/4/4
f 291/2/5 284/2/5 283/2/5
f 292/5/5 285/5/5 284/5/5
f 292/2/5 284/2/5 291/2/5
f 293/3/5 286/3/5 285/3/5
f 293/5/5 285/5/5 292/5/5
f 294/5/5 287/5/5 286/5/5
f 294/3/5 286/3/5 293/3/5
f 295/3/5 288/3/5 287/3/5
f 295/5/5 287/5/5 294/5/5
f 296/5/5 289/5/5 288/5/5
f 296/3/5 288/3/5 295/3/5
f 297/2/5 290/2/5 289/2/5
f 297/5/5 289/5/5 296/5/5
f 298/2/5 290/2/5 297/2/5
f 299/1/5 296/1/5 295/1/5
f 299/2/5 290/2/5 298/2/5
f 299/1/5 298/1/5 297/1/5
f 299/1/5 297/1/5 296/1/5
f 299/1/5 295/1/5 294/1/5
f 299/1/5 294/1/5 293/1/5
f 299/1/5 293/1/5 292/1/5
f 299/1/5 292/1/5 291/1/5
f 300/2/5 290/2/5 299/2/5
f 301/1/5 299/1/5 291/1/5
f 301/5/5 300/5/5 299/5/5
f 302/5/5 300/5/5 301/5/5
f 303/2/5 291/2/5 283/2/5
f 304/1/5 301/1/5 291/1/5
f 304/2/5 291/2/5 303/2/5
f 305/5/5 304/5/5 303/5/5
f 306/1/5 301/1/5 304/1/5
f 306/5/5 304/5/5 305/5/5
f 307/3/5 302/3/5 301/3/5
f 307/1/5 301/1/5 306/1/5
f 308/3/5 302/3/5 307/3/5
f 309/1/5 307/1/5 306/1/5
f 309/5/5 308/5/5 307/5/5
f 310/5/5 308/5/5 309/5/5
f 311/3/5 306/3/5 305/3/5
f 312/1/5 309/1/5 306/1/5
f 312/3/5 306/3/5 311/3/5
f 313/5/5 312/5/5 311/5/5
f 314/1/5 309/1/5 312/1/5
f 314/5/5 312/5/5 313/5/5
f 315/2/5 310/2/5 309/2/5
f 315/1/5 309/1/5 314/1/5
f 316/2/5 310/2/5 315/2/5
f 317/1/5 315/1/5 314/1/5
f 317/5/5 316/5/5 315/5/5
f 318/5/5 316/5/5 317/5/5
f 319/2/5 314/2/5 313/2/5
f 320/1/5 317/1/5 314/1/5
f 320/2/5 314/2/5 319/2/5
f 321/3/5 318/3/5 317/3/5
f 321/1/5 317/1/5 320/1/5
f 322/3/5 318/3/5 321/3/5
f 323/1/5 320/1/5 319/1/5
f 323/1/5 321/1/5 320/1/5
f 323/1/5 322/1/5 321/1/5
f 324/1/5 322/1/5 323/1/5
f 327/4/5 326/4/5 325/4/5
f 328/4/5 326/4/5 327/4/5
f 329/3/6 330/3/6 337/3/6
f 330/5/6 331/5/6 338/5/6
f 337/3/6 330/3/6 338/3/6
f 331/2/6 332/2/6 339/2/6
f 338/5/6 331/5/6 339/5/6
f 332/5/6 333/5/6 340/5/6
f 339/2/6 332/2/6 340/2/6
f 333/3/6 334/3/6 341/3/6
f 340/5/6 333/5/6 341/5/6
f 334/5/6 335/5/6 342/5/6
f 341/3/6 334/3/6 342/3/6
f 335/3/6 336/3/6 343/3/6
f 342/5/6 335/5/6 343/5/6
f 343/3/6 336/3/6 344/3/6
f 329/3/6 337/3/6 345/3/6
f 341/1/6 342/1/6 346/1/6
f 345/3/6 337/3/6 346/3/6
f 337/1/6 338/1/6 346/1/6
f 343/1/6 344/1/6 346/1/6
f 342/1/6 343/1/6 346/1/6
f 340/1/6 341/1/6 346/1/6
f 339/1/6 340/1/6 346/1/6
f 338/1/6 339/1/6 346/1/6
f 345/5/6 346/5/6 347/5/6
f 346/1/6 344/1/6 348/1/6
f 347/5/6 346/5/6 348/5/6
f 344/3/6 336/3/6 349/3/6
f 348/1/6 344/1/6 349/1/6
f 349/3/6 336/3/6 350/3/6
f 348/1/6 349/1/6 351/1/6
f 349/5/6 350/5/6 351/5/6
f 351/5/6 350/5/6 352/5/6
f 347/2/6 348/2/6 353/2/6
f 348/1/6 351/1/6 354/1/6
f 353/2/6 348/2/6 354/2/6
f 353/5/6 354/5/6 355/5/6
f 354/1/6 351/1/6 356/1/6
f 355/5/6 354/5/6 356/5/6
f 351/2/6 352/2/6 357/2/6
f 356/1/6 351/1/6 357/1/6
f 357/2/6 352/2/6 358/2/6
f 356/1/6 357/1/6 359/1/6
f 357/5/6 358/5/6 359/5/6
f 359/5/6 358/5/6 360/5/6
f 355/3/6 356/3/6 361/3/6
f 356/1/6 359/1/6 362/1/6
f 361/3/6 356/3/6 362/3/6
f 361/5/6 362/5/6 363/5/6
f 362/1/6 359/1/6 364/1/6
f 363/5/6 362/5/6 364/5/6
f 363/2/6 364/2/6 365/2/6
f 364/1/6 359/1/6 366/1/6
f 365/2/6 364/2/6 366/2/6
f 359/3/6 360/3/6 367/3/6
f 366/1/6 359/1/6 367/1/6
f 367/3/6 360/3/6 368/3/6
f 365/1/6 366/1/6 369/1/6
f 366/1/6 367/1/6 369/1/6
f 367/1/6 368/1/6 369/1/6
f 369/1/6 368/1/6 370/1/6
f 369/4/6 370/4/6 371/4/6
f 371/4/6 370/4/6 372/4/6
