# MagicaVoxel @ Ephtracy

# group
o 

# material
mtllib baseGuy.mtl
usemtl palette

# normals
vn -1 0 0
vn 1 0 0
vn 0 0 1
vn 0 0 -1
vn 0 -1 0
vn 0 1 0

# texcoords
vt 0.908203 0.5
vt 0.912109 0.5
vt 0.916016 0.5
vt 0.939453 0.5
vt 0.970703 0.5
vt 0.994141 0.5

# verts
v -0.7 1 0.2
v -0.7 1 0
v -0.7 1.2 0.2
v -0.7 1.2 0.1
v -0.7 1.2 0
v -0.7 1.2 -0.1
v -0.7 1.8 0.1
v -0.7 1.8 -0.1
v -0.6 1.1 0
v -0.6 1.1 -0.1
v -0.6 1.2 0
v -0.6 1.2 -0.1
v -0.6 1.8 0.1
v -0.6 1.8 -0.1
v -0.6 1.9 0.1
v -0.6 1.9 -0.1
v -0.5 1.9 0.1
v -0.5 1.9 -0.1
v -0.5 2 0.1
v -0.5 2 -0.1
v -0.4 0 0.3
v -0.4 0 -0.2
v -0.4 0.1 0.3
v -0.4 0.1 0
v -0.4 0.1 -0.2
v -0.4 0.4 0.1
v -0.4 0.4 0
v -0.4 0.5 -0.1
v -0.4 0.5 -0.2
v -0.4 1 -0.1
v -0.4 1 -0.2
v -0.4 1.1 0.1
v -0.4 1.1 -0.2
v -0.4 1.2 0.1
v -0.4 1.2 -0.1
v -0.4 1.2 -0.2
v -0.4 1.7 0.1
v -0.4 1.7 -0.1
v -0.4 2 0.1
v -0.4 2 -0.1
v -0.4 2.1 0.1
v -0.4 2.1 -0.1
v -0.3 0.9 -0.1
v -0.3 0.9 -0.2
v -0.3 1 -0.1
v -0.3 1 -0.2
v -0.3 2.3 0.3
v -0.3 2.3 -0.3
v -0.3 2.5 0.3
v -0.3 2.5 0.2
v -0.3 2.7 0.3
v -0.3 2.7 0.2
v -0.3 2.8 0.3
v -0.3 2.8 -0.3
v -0.2 2.2 0.3
v -0.2 2.2 -0.2
v -0.2 2.3 0.3
v -0.2 2.3 -0.2
v -0.2 2.8 0.2
v -0.2 2.8 -0.2
v -0.2 2.9 0.2
v -0.2 2.9 -0.2
v -0.1 2.1 0.1
v -0.1 2.1 -0.1
v -0.1 2.2 0.1
v -0.1 2.2 -0.1
v 0.1 0.9 -0.1
v 0.1 0.9 -0.2
v 0.1 1 -0.1
v 0.1 1 -0.2
v 0.2 0 0.3
v 0.2 0 -0.2
v 0.2 0.1 0.3
v 0.2 0.1 0
v 0.2 0.1 -0.2
v 0.2 0.4 0.1
v 0.2 0.4 0
v 0.2 0.5 -0.1
v 0.2 0.5 -0.2
v 0.2 0.8 0.1
v 0.2 0.8 -0.1
v 0.5 1 0.2
v 0.5 1 0
v 0.5 1.1 0
v 0.5 1.1 -0.1
v 0.5 1.2 0.2
v 0.5 1.2 0.1
v 0.5 1.7 0.1
v 0.5 1.7 -0.1
v -0.5 1 0.2
v -0.5 1 0
v -0.5 1.1 0
v -0.5 1.1 -0.1
v -0.5 1.2 0.2
v -0.5 1.2 0.1
v -0.5 1.7 0.1
v -0.5 1.7 -0.1
v -0.2 0 0.3
v -0.2 0 -0.2
v -0.2 0.1 0.3
v -0.2 0.1 0
v -0.2 0.1 -0.2
v -0.2 0.4 0.1
v -0.2 0.4 0
v -0.2 0.5 -0.1
v -0.2 0.5 -0.2
v -0.2 0.8 0.1
v -0.2 0.8 -0.1
v -0.1 0.9 -0.1
v -0.1 0.9 -0.2
v -0.1 1 -0.1
v -0.1 1 -0.2
v 0.1 2.1 0.1
v 0.1 2.1 -0.1
v 0.1 2.2 0.1
v 0.1 2.2 -0.1
v 0.2 2.2 0.3
v 0.2 2.2 -0.2
v 0.2 2.3 0.3
v 0.2 2.3 -0.2
v 0.2 2.8 0.2
v 0.2 2.8 -0.2
v 0.2 2.9 0.2
v 0.2 2.9 -0.2
v 0.3 0.9 -0.1
v 0.3 0.9 -0.2
v 0.3 1 -0.1
v 0.3 1 -0.2
v 0.3 2.3 0.3
v 0.3 2.3 -0.3
v 0.3 2.5 0.3
v 0.3 2.5 0.2
v 0.3 2.7 0.3
v 0.3 2.7 0.2
v 0.3 2.8 0.3
v 0.3 2.8 -0.3
v 0.4 0 0.3
v 0.4 0 -0.2
v 0.4 0.1 0.3
v 0.4 0.1 0
v 0.4 0.1 -0.2
v 0.4 0.4 0.1
v 0.4 0.4 0
v 0.4 0.5 -0.1
v 0.4 0.5 -0.2
v 0.4 1 -0.1
v 0.4 1 -0.2
v 0.4 1.1 0.1
v 0.4 1.1 -0.2
v 0.4 1.2 0.1
v 0.4 1.2 -0.1
v 0.4 1.2 -0.2
v 0.4 1.7 0.1
v 0.4 1.7 -0.1
v 0.4 2 0.1
v 0.4 2 -0.1
v 0.4 2.1 0.1
v 0.4 2.1 -0.1
v 0.5 1.9 0.1
v 0.5 1.9 -0.1
v 0.5 2 0.1
v 0.5 2 -0.1
v 0.6 1.1 0
v 0.6 1.1 -0.1
v 0.6 1.2 0
v 0.6 1.2 -0.1
v 0.6 1.8 0.1
v 0.6 1.8 -0.1
v 0.6 1.9 0.1
v 0.6 1.9 -0.1
v 0.7 1 0.2
v 0.7 1 0
v 0.7 1.2 0.2
v 0.7 1.2 0.1
v 0.7 1.2 0
v 0.7 1.2 -0.1
v 0.7 1.8 0.1
v 0.7 1.8 -0.1
v -0.4 0 0.3
v -0.4 0.1 0.3
v -0.3 2.3 0.3
v -0.3 2.5 0.3
v -0.3 2.7 0.3
v -0.3 2.8 0.3
v -0.2 0 0.3
v -0.2 0.1 0.3
v -0.2 2.2 0.3
v -0.2 2.3 0.3
v -0.2 2.5 0.3
v -0.2 2.6 0.3
v -0.1 2.3 0.3
v -0.1 2.4 0.3
v -0.1 2.5 0.3
v -0.1 2.6 0.3
v -0.1 2.7 0.3
v 0.1 2.3 0.3
v 0.1 2.4 0.3
v 0.1 2.5 0.3
v 0.1 2.6 0.3
v 0.1 2.7 0.3
v 0.2 0 0.3
v 0.2 0.1 0.3
v 0.2 2.2 0.3
v 0.2 2.3 0.3
v 0.2 2.5 0.3
v 0.2 2.6 0.3
v 0.3 2.3 0.3
v 0.3 2.5 0.3
v 0.3 2.7 0.3
v 0.3 2.8 0.3
v 0.4 0 0.3
v 0.4 0.1 0.3
v -0.7 1 0.2
v -0.7 1.2 0.2
v -0.5 1 0.2
v -0.5 1.2 0.2
v -0.2 2.8 0.2
v -0.2 2.9 0.2
v 0.2 2.8 0.2
v 0.2 2.9 0.2
v 0.5 1 0.2
v 0.5 1.2 0.2
v 0.7 1 0.2
v 0.7 1.2 0.2
v -0.7 1.2 0.1
v -0.7 1.8 0.1
v -0.6 1.8 0.1
v -0.6 1.9 0.1
v -0.5 1.2 0.1
v -0.5 1.7 0.1
v -0.5 1.9 0.1
v -0.5 2 0.1
v -0.4 0.4 0.1
v -0.4 1.1 0.1
v -0.4 1.2 0.1
v -0.4 1.7 0.1
v -0.4 2 0.1
v -0.4 2.1 0.1
v -0.2 0.4 0.1
v -0.2 0.8 0.1
v -0.2 1.7 0.1
v -0.2 1.8 0.1
v -0.1 1.1 0.1
v -0.1 1.2 0.1
v -0.1 1.7 0.1
v -0.1 1.8 0.1
v -0.1 2.1 0.1
v -0.1 2.2 0.1
v 0.1 1.1 0.1
v 0.1 1.2 0.1
v 0.1 1.7 0.1
v 0.1 1.8 0.1
v 0.1 2.1 0.1
v 0.1 2.2 0.1
v 0.2 0.4 0.1
v 0.2 0.8 0.1
v 0.2 1.7 0.1
v 0.2 1.8 0.1
v 0.4 0.4 0.1
v 0.4 1.1 0.1
v 0.4 1.2 0.1
v 0.4 1.7 0.1
v 0.4 2 0.1
v 0.4 2.1 0.1
v 0.5 1.2 0.1
v 0.5 1.7 0.1
v 0.5 1.9 0.1
v 0.5 2 0.1
v 0.6 1.8 0.1
v 0.6 1.9 0.1
v 0.7 1.2 0.1
v 0.7 1.8 0.1
v -0.4 0.1 0
v -0.4 0.4 0
v -0.2 0.1 0
v -0.2 0.4 0
v 0.2 0.1 0
v 0.2 0.4 0
v 0.4 0.1 0
v 0.4 0.4 0
v -0.7 1 0
v -0.7 1.2 0
v -0.6 1.1 0
v -0.6 1.2 0
v -0.5 1 0
v -0.5 1.1 0
v 0.5 1 0
v 0.5 1.1 0
v 0.6 1.1 0
v 0.6 1.2 0
v 0.7 1 0
v 0.7 1.2 0
v -0.7 1.2 -0.1
v -0.7 1.8 -0.1
v -0.6 1.1 -0.1
v -0.6 1.2 -0.1
v -0.6 1.8 -0.1
v -0.6 1.9 -0.1
v -0.5 1.1 -0.1
v -0.5 1.7 -0.1
v -0.5 1.9 -0.1
v -0.5 2 -0.1
v -0.4 0.5 -0.1
v -0.4 1 -0.1
v -0.4 1.2 -0.1
v -0.4 1.7 -0.1
v -0.4 2 -0.1
v -0.4 2.1 -0.1
v -0.3 0.9 -0.1
v -0.3 1 -0.1
v -0.2 0.5 -0.1
v -0.2 0.8 -0.1
v -0.1 0.9 -0.1
v -0.1 1 -0.1
v -0.1 2.1 -0.1
v -0.1 2.2 -0.1
v 0.1 0.9 -0.1
v 0.1 1 -0.1
v 0.1 2.1 -0.1
v 0.1 2.2 -0.1
v 0.2 0.5 -0.1
v 0.2 0.8 -0.1
v 0.3 0.9 -0.1
v 0.3 1 -0.1
v 0.4 0.5 -0.1
v 0.4 1 -0.1
v 0.4 1.2 -0.1
v 0.4 1.7 -0.1
v 0.4 2 -0.1
v 0.4 2.1 -0.1
v 0.5 1.1 -0.1
v 0.5 1.7 -0.1
v 0.5 1.9 -0.1
v 0.5 2 -0.1
v 0.6 1.1 -0.1
v 0.6 1.2 -0.1
v 0.6 1.8 -0.1
v 0.6 1.9 -0.1
v 0.7 1.2 -0.1
v 0.7 1.8 -0.1
v -0.4 0 -0.2
v -0.4 0.1 -0.2
v -0.4 0.5 -0.2
v -0.4 1 -0.2
v -0.4 1.1 -0.2
v -0.4 1.2 -0.2
v -0.3 0.9 -0.2
v -0.3 1 -0.2
v -0.2 0 -0.2
v -0.2 0.1 -0.2
v -0.2 0.5 -0.2
v -0.2 2.2 -0.2
v -0.2 2.3 -0.2
v -0.2 2.8 -0.2
v -0.2 2.9 -0.2
v -0.1 0.9 -0.2
v -0.1 1 -0.2
v 0.1 0.9 -0.2
v 0.1 1 -0.2
v 0.2 0 -0.2
v 0.2 0.1 -0.2
v 0.2 0.5 -0.2
v 0.2 2.2 -0.2
v 0.2 2.3 -0.2
v 0.2 2.8 -0.2
v 0.2 2.9 -0.2
v 0.3 0.9 -0.2
v 0.3 1 -0.2
v 0.4 0 -0.2
v 0.4 0.1 -0.2
v 0.4 0.5 -0.2
v 0.4 1 -0.2
v 0.4 1.1 -0.2
v 0.4 1.2 -0.2
v -0.3 2.3 -0.3
v -0.3 2.8 -0.3
v 0.3 2.3 -0.3
v 0.3 2.8 -0.3
v -0.4 0 0.3
v -0.2 0 0.3
v 0.2 0 0.3
v 0.4 0 0.3
v -0.4 0 -0.2
v -0.2 0 -0.2
v 0.2 0 -0.2
v 0.4 0 -0.2
v -0.4 0.4 0.1
v -0.2 0.4 0.1
v 0.2 0.4 0.1
v 0.4 0.4 0.1
v -0.4 0.4 0
v -0.2 0.4 0
v 0.2 0.4 0
v 0.4 0.4 0
v -0.2 0.8 0.1
v 0.2 0.8 0.1
v -0.2 0.8 -0.1
v 0.2 0.8 -0.1
v -0.3 0.9 -0.1
v -0.1 0.9 -0.1
v 0.1 0.9 -0.1
v 0.3 0.9 -0.1
v -0.3 0.9 -0.2
v -0.1 0.9 -0.2
v 0.1 0.9 -0.2
v 0.3 0.9 -0.2
v -0.7 1 0.2
v -0.5 1 0.2
v 0.5 1 0.2
v 0.7 1 0.2
v -0.7 1 0
v -0.5 1 0
v 0.5 1 0
v 0.7 1 0
v -0.4 1 -0.1
v -0.3 1 -0.1
v -0.1 1 -0.1
v 0.1 1 -0.1
v 0.3 1 -0.1
v 0.4 1 -0.1
v -0.4 1 -0.2
v -0.3 1 -0.2
v -0.1 1 -0.2
v 0.1 1 -0.2
v 0.3 1 -0.2
v 0.4 1 -0.2
v -0.6 1.1 0
v -0.5 1.1 0
v 0.5 1.1 0
v 0.6 1.1 0
v -0.6 1.1 -0.1
v -0.5 1.1 -0.1
v 0.5 1.1 -0.1
v 0.6 1.1 -0.1
v -0.7 1.2 0
v -0.6 1.2 0
v 0.6 1.2 0
v 0.7 1.2 0
v -0.7 1.2 -0.1
v -0.6 1.2 -0.1
v 0.6 1.2 -0.1
v 0.7 1.2 -0.1
v -0.5 1.7 0.1
v -0.4 1.7 0.1
v 0.4 1.7 0.1
v 0.5 1.7 0.1
v -0.5 1.7 -0.1
v -0.4 1.7 -0.1
v 0.4 1.7 -0.1
v 0.5 1.7 -0.1
v -0.2 2.2 0.3
v 0.2 2.2 0.3
v -0.1 2.2 0.1
v 0.1 2.2 0.1
v -0.1 2.2 -0.1
v 0.1 2.2 -0.1
v -0.2 2.2 -0.2
v 0.2 2.2 -0.2
v -0.3 2.3 0.3
v -0.2 2.3 0.3
v 0.2 2.3 0.3
v 0.3 2.3 0.3
v -0.2 2.3 -0.2
v 0.2 2.3 -0.2
v -0.3 2.3 -0.3
v 0.3 2.3 -0.3
v -0.4 0.1 0.3
v -0.2 0.1 0.3
v 0.2 0.1 0.3
v 0.4 0.1 0.3
v -0.4 0.1 0
v -0.2 0.1 0
v 0.2 0.1 0
v 0.4 0.1 0
v -0.4 0.5 -0.1
v -0.2 0.5 -0.1
v 0.2 0.5 -0.1
v 0.4 0.5 -0.1
v -0.4 0.5 -0.2
v -0.2 0.5 -0.2
v 0.2 0.5 -0.2
v 0.4 0.5 -0.2
v -0.7 1.2 0.2
v -0.5 1.2 0.2
v 0.5 1.2 0.2
v 0.7 1.2 0.2
v -0.7 1.2 0.1
v -0.5 1.2 0.1
v 0.5 1.2 0.1
v 0.7 1.2 0.1
v -0.4 1.2 -0.1
v 0.4 1.2 -0.1
v -0.4 1.2 -0.2
v 0.4 1.2 -0.2
v -0.7 1.8 0.1
v -0.6 1.8 0.1
v 0.6 1.8 0.1
v 0.7 1.8 0.1
v -0.7 1.8 -0.1
v -0.6 1.8 -0.1
v 0.6 1.8 -0.1
v 0.7 1.8 -0.1
v -0.6 1.9 0.1
v -0.5 1.9 0.1
v 0.5 1.9 0.1
v 0.6 1.9 0.1
v -0.6 1.9 -0.1
v -0.5 1.9 -0.1
v 0.5 1.9 -0.1
v 0.6 1.9 -0.1
v -0.5 2 0.1
v -0.4 2 0.1
v 0.4 2 0.1
v 0.5 2 0.1
v -0.5 2 -0.1
v -0.4 2 -0.1
v 0.4 2 -0.1
v 0.5 2 -0.1
v -0.4 2.1 0.1
v -0.1 2.1 0.1
v 0.1 2.1 0.1
v 0.4 2.1 0.1
v -0.4 2.1 -0.1
v -0.1 2.1 -0.1
v 0.1 2.1 -0.1
v 0.4 2.1 -0.1
v -0.3 2.8 0.3
v 0.3 2.8 0.3
v -0.2 2.8 0.2
v 0.2 2.8 0.2
v -0.2 2.8 -0.2
v 0.2 2.8 -0.2
v -0.3 2.8 -0.3
v 0.3 2.8 -0.3
v -0.2 2.9 0.2
v 0.2 2.9 0.2
v -0.2 2.9 -0.2
v 0.2 2.9 -0.2

# faces
f 3/1/1 2/1/1 1/1/1
f 4/1/1 2/1/1 3/1/1
f 5/1/1 2/1/1 4/1/1
f 7/1/1 6/1/1 5/1/1
f 7/1/1 5/1/1 4/1/1
f 8/1/1 6/1/1 7/1/1
f 11/1/1 10/1/1 9/1/1
f 12/1/1 10/1/1 11/1/1
f 15/1/1 14/1/1 13/1/1
f 16/1/1 14/1/1 15/1/1
f 19/1/1 18/1/1 17/1/1
f 20/1/1 18/1/1 19/1/1
f 23/6/1 22/6/1 21/6/1
f 24/6/1 22/6/1 23/6/1
f 25/6/1 22/6/1 24/6/1
f 27/5/1 25/5/1 24/5/1
f 28/5/1 25/5/1 27/5/1
f 28/5/1 27/5/1 26/5/1
f 29/5/1 25/5/1 28/5/1
f 30/5/1 28/5/1 26/5/1
f 32/5/1 30/5/1 26/5/1
f 32/5/1 31/5/1 30/5/1
f 33/5/1 31/5/1 32/5/1
f 34/2/1 33/2/1 32/2/1
f 35/2/1 33/2/1 34/2/1
f 36/2/1 33/2/1 35/2/1
f 37/1/1 35/1/1 34/1/1
f 38/1/1 35/1/1 37/1/1
f 41/1/1 40/1/1 39/1/1
f 42/1/1 40/1/1 41/1/1
f 45/5/1 44/5/1 43/5/1
f 46/5/1 44/5/1 45/5/1
f 49/1/1 48/1/1 47/1/1
f 50/1/1 48/1/1 49/1/1
f 51/4/1 50/4/1 49/4/1
f 52/1/1 48/1/1 50/1/1
f 52/4/1 50/4/1 51/4/1
f 53/1/1 52/1/1 51/1/1
f 54/1/1 48/1/1 52/1/1
f 54/1/1 52/1/1 53/1/1
f 57/1/1 56/1/1 55/1/1
f 58/1/1 56/1/1 57/1/1
f 61/1/1 60/1/1 59/1/1
f 62/1/1 60/1/1 61/1/1
f 65/1/1 64/1/1 63/1/1
f 66/1/1 64/1/1 65/1/1
f 69/5/1 68/5/1 67/5/1
f 70/5/1 68/5/1 69/5/1
f 73/6/1 72/6/1 71/6/1
f 74/6/1 72/6/1 73/6/1
f 75/6/1 72/6/1 74/6/1
f 77/5/1 75/5/1 74/5/1
f 78/5/1 75/5/1 77/5/1
f 78/5/1 77/5/1 76/5/1
f 79/5/1 75/5/1 78/5/1
f 80/5/1 78/5/1 76/5/1
f 81/5/1 78/5/1 80/5/1
f 84/1/1 83/1/1 82/1/1
f 86/1/1 84/1/1 82/1/1
f 86/1/1 85/1/1 84/1/1
f 87/1/1 85/1/1 86/1/1
f 88/1/1 85/1/1 87/1/1
f 89/1/1 85/1/1 88/1/1
f 90/1/2 91/1/2 92/1/2
f 90/1/2 92/1/2 94/1/2
f 92/1/2 93/1/2 94/1/2
f 94/1/2 93/1/2 95/1/2
f 95/1/2 93/1/2 96/1/2
f 96/1/2 93/1/2 97/1/2
f 98/6/2 99/6/2 100/6/2
f 100/6/2 99/6/2 101/6/2
f 101/6/2 99/6/2 102/6/2
f 101/5/2 102/5/2 104/5/2
f 104/5/2 102/5/2 105/5/2
f 103/5/2 104/5/2 105/5/2
f 105/5/2 102/5/2 106/5/2
f 103/5/2 105/5/2 107/5/2
f 107/5/2 105/5/2 108/5/2
f 109/5/2 110/5/2 111/5/2
f 111/5/2 110/5/2 112/5/2
f 113/1/2 114/1/2 115/1/2
f 115/1/2 114/1/2 116/1/2
f 117/1/2 118/1/2 119/1/2
f 119/1/2 118/1/2 120/1/2
f 121/1/2 122/1/2 123/1/2
f 123/1/2 122/1/2 124/1/2
f 125/5/2 126/5/2 127/5/2
f 127/5/2 126/5/2 128/5/2
f 129/1/2 130/1/2 131/1/2
f 131/1/2 130/1/2 132/1/2
f 131/4/2 132/4/2 133/4/2
f 132/1/2 130/1/2 134/1/2
f 133/4/2 132/4/2 134/4/2
f 133/1/2 134/1/2 135/1/2
f 134/1/2 130/1/2 136/1/2
f 135/1/2 134/1/2 136/1/2
f 137/6/2 138/6/2 139/6/2
f 139/6/2 138/6/2 140/6/2
f 140/6/2 138/6/2 141/6/2
f 140/5/2 141/5/2 143/5/2
f 143/5/2 141/5/2 144/5/2
f 142/5/2 143/5/2 144/5/2
f 144/5/2 141/5/2 145/5/2
f 142/5/2 144/5/2 146/5/2
f 142/5/2 146/5/2 148/5/2
f 146/5/2 147/5/2 148/5/2
f 148/5/2 147/5/2 149/5/2
f 148/2/2 149/2/2 150/2/2
f 150/2/2 149/2/2 151/2/2
f 151/2/2 149/2/2 152/2/2
f 150/1/2 151/1/2 153/1/2
f 153/1/2 151/1/2 154/1/2
f 155/1/2 156/1/2 157/1/2
f 157/1/2 156/1/2 158/1/2
f 159/1/2 160/1/2 161/1/2
f 161/1/2 160/1/2 162/1/2
f 163/1/2 164/1/2 165/1/2
f 165/1/2 164/1/2 166/1/2
f 167/1/2 168/1/2 169/1/2
f 169/1/2 168/1/2 170/1/2
f 171/1/2 172/1/2 173/1/2
f 173/1/2 172/1/2 174/1/2
f 174/1/2 172/1/2 175/1/2
f 175/1/2 176/1/2 177/1/2
f 174/1/2 175/1/2 177/1/2
f 177/1/2 176/1/2 178/1/2
f 185/6/3 180/6/3 179/6/3
f 186/6/3 180/6/3 185/6/3
f 188/1/3 182/1/3 181/1/3
f 189/4/3 183/4/3 182/4/3
f 189/1/3 182/1/3 188/1/3
f 190/4/3 183/4/3 189/4/3
f 191/1/3 188/1/3 187/1/3
f 191/1/3 189/1/3 188/1/3
f 192/1/3 189/1/3 191/1/3
f 193/5/3 190/5/3 189/5/3
f 193/1/3 189/1/3 192/1/3
f 194/4/3 183/4/3 190/4/3
f 194/5/3 190/5/3 193/5/3
f 195/1/3 184/1/3 183/1/3
f 195/4/3 183/4/3 194/4/3
f 196/2/3 192/2/3 191/2/3
f 196/1/3 191/1/3 187/1/3
f 197/1/3 194/1/3 193/1/3
f 197/2/3 192/2/3 196/2/3
f 197/1/3 193/1/3 192/1/3
f 197/1/3 195/1/3 194/1/3
f 198/1/3 195/1/3 197/1/3
f 199/1/3 195/1/3 198/1/3
f 200/1/3 184/1/3 195/1/3
f 200/1/3 195/1/3 199/1/3
f 203/1/3 196/1/3 187/1/3
f 203/1/3 197/1/3 196/1/3
f 203/1/3 198/1/3 197/1/3
f 204/1/3 198/1/3 203/1/3
f 205/5/3 199/5/3 198/5/3
f 205/1/3 198/1/3 204/1/3
f 206/4/3 200/4/3 199/4/3
f 206/5/3 199/5/3 205/5/3
f 207/1/3 205/1/3 204/1/3
f 208/4/3 206/4/3 205/4/3
f 208/1/3 205/1/3 207/1/3
f 209/4/3 200/4/3 206/4/3
f 209/4/3 206/4/3 208/4/3
f 209/1/3 184/1/3 200/1/3
f 210/1/3 184/1/3 209/1/3
f 211/6/3 202/6/3 201/6/3
f 212/6/3 202/6/3 211/6/3
f 215/1/3 214/1/3 213/1/3
f 216/1/3 214/1/3 215/1/3
f 219/1/3 218/1/3 217/1/3
f 220/1/3 218/1/3 219/1/3
f 223/1/3 222/1/3 221/1/3
f 224/1/3 222/1/3 223/1/3
f 227/1/3 226/1/3 225/1/3
f 229/1/3 227/1/3 225/1/3
f 229/1/3 228/1/3 227/1/3
f 230/1/3 228/1/3 229/1/3
f 231/1/3 228/1/3 230/1/3
f 236/1/3 232/1/3 231/1/3
f 236/1/3 231/1/3 230/1/3
f 237/1/3 232/1/3 236/1/3
f 239/5/3 234/5/3 233/5/3
f 240/5/3 234/5/3 239/5/3
f 241/1/3 238/1/3 237/1/3
f 241/1/3 236/1/3 235/1/3
f 241/1/3 237/1/3 236/1/3
f 242/1/3 238/1/3 241/1/3
f 243/2/3 235/2/3 234/2/3
f 243/5/3 234/5/3 240/5/3
f 244/1/3 241/1/3 235/1/3
f 244/2/3 235/2/3 243/2/3
f 245/3/3 242/3/3 241/3/3
f 245/1/3 241/1/3 244/1/3
f 246/1/3 238/1/3 242/1/3
f 246/3/3 242/3/3 245/3/3
f 247/1/3 238/1/3 246/1/3
f 249/6/3 244/6/3 243/6/3
f 249/5/3 243/5/3 240/5/3
f 250/1/3 245/1/3 244/1/3
f 250/6/3 244/6/3 249/6/3
f 250/1/3 248/1/3 247/1/3
f 250/1/3 246/1/3 245/1/3
f 250/1/3 247/1/3 246/1/3
f 251/1/3 248/1/3 250/1/3
f 252/1/3 248/1/3 251/1/3
f 253/1/3 248/1/3 252/1/3
f 254/1/3 248/1/3 253/1/3
f 256/5/3 249/5/3 240/5/3
f 257/1/3 251/1/3 250/1/3
f 257/3/3 252/3/3 251/3/3
f 258/1/3 253/1/3 252/1/3
f 258/3/3 252/3/3 257/3/3
f 259/5/3 256/5/3 255/5/3
f 260/2/3 250/2/3 249/2/3
f 260/5/3 256/5/3 259/5/3
f 260/5/3 249/5/3 256/5/3
f 261/1/3 258/1/3 257/1/3
f 261/2/3 250/2/3 260/2/3
f 261/1/3 257/1/3 250/1/3
f 262/1/3 258/1/3 261/1/3
f 263/1/3 253/1/3 258/1/3
f 263/1/3 258/1/3 262/1/3
f 264/1/3 253/1/3 263/1/3
f 266/1/3 263/1/3 262/1/3
f 267/1/3 263/1/3 266/1/3
f 268/1/3 263/1/3 267/1/3
f 269/1/3 266/1/3 265/1/3
f 269/1/3 267/1/3 266/1/3
f 270/1/3 267/1/3 269/1/3
f 271/1/3 269/1/3 265/1/3
f 272/1/3 269/1/3 271/1/3
f 275/5/3 274/5/3 273/5/3
f 276/5/3 274/5/3 275/5/3
f 279/5/3 278/5/3 277/5/3
f 280/5/3 278/5/3 279/5/3
f 281/1/4 282/1/4 283/1/4
f 283/1/4 282/1/4 284/1/4
f 281/1/4 283/1/4 285/1/4
f 285/1/4 283/1/4 286/1/4
f 287/1/4 288/1/4 289/1/4
f 287/1/4 289/1/4 291/1/4
f 289/1/4 290/1/4 291/1/4
f 291/1/4 290/1/4 292/1/4
f 293/1/4 294/1/4 296/1/4
f 296/1/4 294/1/4 297/1/4
f 295/1/4 296/1/4 299/1/4
f 297/1/4 298/1/4 299/1/4
f 296/1/4 297/1/4 299/1/4
f 299/1/4 298/1/4 300/1/4
f 300/1/4 298/1/4 301/1/4
f 301/1/4 302/1/4 306/1/4
f 300/1/4 301/1/4 306/1/4
f 306/1/4 302/1/4 307/1/4
f 303/5/4 304/5/4 309/5/4
f 309/5/4 304/5/4 310/5/4
f 303/5/4 309/5/4 311/5/4
f 311/5/4 309/5/4 312/5/4
f 312/5/4 309/5/4 313/5/4
f 307/1/4 308/1/4 315/1/4
f 305/1/4 306/1/4 315/1/4
f 306/1/4 307/1/4 315/1/4
f 313/5/4 314/5/4 317/5/4
f 312/5/4 313/5/4 317/5/4
f 317/5/4 314/5/4 318/5/4
f 315/1/4 316/1/4 319/1/4
f 305/1/4 315/1/4 319/1/4
f 319/1/4 316/1/4 320/1/4
f 312/5/4 317/5/4 322/5/4
f 322/5/4 317/5/4 323/5/4
f 321/5/4 322/5/4 323/5/4
f 321/5/4 323/5/4 325/5/4
f 323/5/4 324/5/4 325/5/4
f 325/5/4 324/5/4 326/5/4
f 305/1/4 319/1/4 327/1/4
f 327/1/4 319/1/4 328/1/4
f 328/1/4 319/1/4 329/1/4
f 329/1/4 319/1/4 330/1/4
f 328/1/4 329/1/4 332/1/4
f 332/1/4 329/1/4 333/1/4
f 333/1/4 329/1/4 334/1/4
f 331/1/4 332/1/4 335/1/4
f 332/1/4 333/1/4 335/1/4
f 335/1/4 333/1/4 336/1/4
f 336/1/4 333/1/4 337/1/4
f 337/1/4 333/1/4 338/1/4
f 336/1/4 337/1/4 339/1/4
f 339/1/4 337/1/4 340/1/4
f 344/5/4 345/5/4 348/5/4
f 341/6/4 342/6/4 349/6/4
f 342/5/4 343/5/4 350/5/4
f 349/6/4 342/6/4 350/6/4
f 350/5/4 343/5/4 351/5/4
f 347/5/4 348/5/4 356/5/4
f 348/5/4 345/5/4 357/5/4
f 356/5/4 348/5/4 357/5/4
f 357/5/4 345/5/4 359/5/4
f 352/1/4 353/1/4 363/1/4
f 363/1/4 353/1/4 364/1/4
f 354/1/4 355/1/4 365/1/4
f 365/1/4 355/1/4 366/1/4
f 358/5/4 359/5/4 367/5/4
f 359/5/4 345/5/4 368/5/4
f 367/5/4 359/5/4 368/5/4
f 360/6/4 361/6/4 369/6/4
f 361/5/4 362/5/4 370/5/4
f 369/6/4 361/6/4 370/6/4
f 370/5/4 362/5/4 371/5/4
f 368/5/4 345/5/4 372/5/4
f 345/2/4 346/2/4 373/2/4
f 372/5/4 345/5/4 373/5/4
f 373/2/4 346/2/4 374/2/4
f 375/1/4 376/1/4 377/1/4
f 377/1/4 376/1/4 378/1/4
f 383/6/5 380/6/5 379/6/5
f 384/6/5 380/6/5 383/6/5
f 385/6/5 382/6/5 381/6/5
f 386/6/5 382/6/5 385/6/5
f 391/5/5 388/5/5 387/5/5
f 392/5/5 388/5/5 391/5/5
f 393/5/5 390/5/5 389/5/5
f 394/5/5 390/5/5 393/5/5
f 397/5/5 396/5/5 395/5/5
f 398/5/5 396/5/5 397/5/5
f 403/5/5 400/5/5 399/5/5
f 404/5/5 400/5/5 403/5/5
f 405/5/5 402/5/5 401/5/5
f 406/5/5 402/5/5 405/5/5
f 411/1/5 408/1/5 407/1/5
f 412/1/5 408/1/5 411/1/5
f 413/1/5 410/1/5 409/1/5
f 414/1/5 410/1/5 413/1/5
f 421/5/5 416/5/5 415/5/5
f 422/5/5 416/5/5 421/5/5
f 423/5/5 418/5/5 417/5/5
f 424/5/5 418/5/5 423/5/5
f 425/5/5 420/5/5 419/5/5
f 426/5/5 420/5/5 425/5/5
f 431/1/5 428/1/5 427/1/5
f 432/1/5 428/1/5 431/1/5
f 433/1/5 430/1/5 429/1/5
f 434/1/5 430/1/5 433/1/5
f 439/1/5 436/1/5 435/1/5
f 440/1/5 436/1/5 439/1/5
f 441/1/5 438/1/5 437/1/5
f 442/1/5 438/1/5 441/1/5
f 447/1/5 444/1/5 443/1/5
f 448/1/5 444/1/5 447/1/5
f 449/1/5 446/1/5 445/1/5
f 450/1/5 446/1/5 449/1/5
f 453/1/5 452/1/5 451/1/5
f 454/1/5 452/1/5 453/1/5
f 455/1/5 453/1/5 451/1/5
f 456/1/5 452/1/5 454/1/5
f 457/1/5 455/1/5 451/1/5
f 457/1/5 456/1/5 455/1/5
f 458/1/5 452/1/5 456/1/5
f 458/1/5 456/1/5 457/1/5
f 463/1/5 460/1/5 459/1/5
f 464/1/5 462/1/5 461/1/5
f 465/1/5 463/1/5 459/1/5
f 465/1/5 464/1/5 463/1/5
f 466/1/5 462/1/5 464/1/5
f 466/1/5 464/1/5 465/1/5
f 467/6/6 468/6/6 471/6/6
f 471/6/6 468/6/6 472/6/6
f 469/6/6 470/6/6 473/6/6
f 473/6/6 470/6/6 474/6/6
f 475/5/6 476/5/6 479/5/6
f 479/5/6 476/5/6 480/5/6
f 477/5/6 478/5/6 481/5/6
f 481/5/6 478/5/6 482/5/6
f 483/1/6 484/1/6 487/1/6
f 487/1/6 484/1/6 488/1/6
f 485/1/6 486/1/6 489/1/6
f 489/1/6 486/1/6 490/1/6
f 491/2/6 492/2/6 493/2/6
f 493/2/6 492/2/6 494/2/6
f 495/1/6 496/1/6 499/1/6
f 499/1/6 496/1/6 500/1/6
f 497/1/6 498/1/6 501/1/6
f 501/1/6 498/1/6 502/1/6
f 503/1/6 504/1/6 507/1/6
f 507/1/6 504/1/6 508/1/6
f 505/1/6 506/1/6 509/1/6
f 509/1/6 506/1/6 510/1/6
f 511/1/6 512/1/6 515/1/6
f 515/1/6 512/1/6 516/1/6
f 513/1/6 514/1/6 517/1/6
f 517/1/6 514/1/6 518/1/6
f 519/1/6 520/1/6 523/1/6
f 523/1/6 520/1/6 524/1/6
f 521/1/6 522/1/6 525/1/6
f 525/1/6 522/1/6 526/1/6
f 527/1/6 528/1/6 529/1/6
f 529/1/6 528/1/6 530/1/6
f 527/1/6 529/1/6 531/1/6
f 530/1/6 528/1/6 532/1/6
f 527/1/6 531/1/6 533/1/6
f 531/1/6 532/1/6 533/1/6
f 532/1/6 528/1/6 534/1/6
f 533/1/6 532/1/6 534/1/6
f 535/1/6 536/1/6 537/1/6
f 537/1/6 536/1/6 538/1/6
