# MagicaVoxel @ Ephtracy

# group
o 

# material
mtllib FridgeV1.mtl
usemtl palette

# normals
vn -1 0 0
vn 1 0 0
vn 0 0 1
vn 0 0 -1
vn 0 -1 0
vn 0 1 0

# texcoords
vt 0.970703 0.5
vt 0.974609 0.5
vt 0.978516 0.5
vt 0.986328 0.5
vt 0.990234 0.5

# verts
v -0.7 0 0.5
v -0.7 0 0.4
v -0.7 0 -0.8
v -0.7 0.9 0.5
v -0.7 0.9 0.4
v -0.7 1 0.5
v -0.7 1 0.4
v -0.7 3.1 0.4
v -0.7 3.1 0.2
v -0.7 3.1 -0.8
v -0.7 3.2 0.5
v -0.7 3.2 0.4
v -0.7 3.2 0.2
v -0.6 0 0.6
v -0.6 0 0.5
v -0.6 0.8 0.6
v -0.6 0.8 0.5
v -0.6 0.9 0.6
v -0.6 0.9 0.5
v -0.6 1 0.6
v -0.6 1 0.5
v -0.6 3.2 0.6
v -0.6 3.2 0.5
v -0.5 0.8 0.7
v -0.5 0.8 0.6
v -0.5 0.9 0.7
v -0.5 0.9 0.6
v -0.4 0.8 0.8
v -0.4 0.8 0.7
v -0.4 0.9 0.8
v -0.4 0.9 0.7
v -0.2 1.3 0.7
v -0.2 1.3 0.6
v -0.2 1.5 0.8
v -0.2 1.5 0.7
v -0.2 1.5 0.6
v -0.2 1.8 0.8
v -0.2 1.8 0.7
v -0.2 1.8 0.6
v -0.2 2 0.7
v -0.2 2 0.6
v 0.1 1.3 0.7
v 0.1 1.3 0.6
v 0.1 1.5 0.8
v 0.1 1.5 0.7
v 0.1 1.5 0.6
v 0.1 1.8 0.8
v 0.1 1.8 0.7
v 0.1 1.8 0.6
v 0.1 2 0.7
v 0.1 2 0.6
v 0.3 0.8 0.7
v 0.3 0.8 0.6
v 0.3 0.9 0.7
v 0.3 0.9 0.6
v 0.4 3.1 0.4
v 0.4 3.1 0.3
v 0.4 3.2 0.4
v 0.4 3.2 0.3
v 0.5 3.1 0.3
v 0.5 3.1 0.2
v 0.5 3.2 0.3
v 0.5 3.2 0.2
v -0.5 3.1 0.3
v -0.5 3.1 0.2
v -0.5 3.2 0.3
v -0.5 3.2 0.2
v -0.4 3.1 0.4
v -0.4 3.1 0.3
v -0.4 3.2 0.4
v -0.4 3.2 0.3
v -0.3 0.8 0.7
v -0.3 0.8 0.6
v -0.3 0.9 0.7
v -0.3 0.9 0.6
v -0.1 1.3 0.7
v -0.1 1.3 0.6
v -0.1 1.5 0.8
v -0.1 1.5 0.7
v -0.1 1.5 0.6
v -0.1 1.8 0.8
v -0.1 1.8 0.7
v -0.1 1.8 0.6
v -0.1 2 0.7
v -0.1 2 0.6
v 0.2 1.3 0.7
v 0.2 1.3 0.6
v 0.2 1.5 0.8
v 0.2 1.5 0.7
v 0.2 1.5 0.6
v 0.2 1.8 0.8
v 0.2 1.8 0.7
v 0.2 1.8 0.6
v 0.2 2 0.7
v 0.2 2 0.6
v 0.4 0.8 0.8
v 0.4 0.8 0.7
v 0.4 0.9 0.8
v 0.4 0.9 0.7
v 0.5 0.8 0.7
v 0.5 0.8 0.6
v 0.5 0.9 0.7
v 0.5 0.9 0.6
v 0.6 0 0.6
v 0.6 0 0.5
v 0.6 0.8 0.6
v 0.6 0.8 0.5
v 0.6 0.9 0.6
v 0.6 0.9 0.5
v 0.6 1 0.6
v 0.6 1 0.5
v 0.6 3.2 0.6
v 0.6 3.2 0.5
v 0.7 0 0.5
v 0.7 0 0.4
v 0.7 0 -0.8
v 0.7 0.9 0.5
v 0.7 0.9 0.4
v 0.7 1 0.5
v 0.7 1 0.4
v 0.7 3.1 0.4
v 0.7 3.1 0.2
v 0.7 3.1 -0.8
v 0.7 3.2 0.5
v 0.7 3.2 0.4
v 0.7 3.2 0.2
v -0.4 0.8 0.8
v -0.4 0.9 0.8
v -0.2 1.5 0.8
v -0.2 1.8 0.8
v -0.1 1.5 0.8
v -0.1 1.8 0.8
v 0.1 1.5 0.8
v 0.1 1.8 0.8
v 0.2 1.5 0.8
v 0.2 1.8 0.8
v 0.4 0.8 0.8
v 0.4 0.9 0.8
v -0.5 0.8 0.7
v -0.5 0.9 0.7
v -0.4 0.8 0.7
v -0.4 0.9 0.7
v -0.2 1.3 0.7
v -0.2 1.5 0.7
v -0.2 1.8 0.7
v -0.2 2 0.7
v -0.1 1.3 0.7
v -0.1 1.5 0.7
v -0.1 1.8 0.7
v -0.1 2 0.7
v 0.1 1.3 0.7
v 0.1 1.5 0.7
v 0.1 1.8 0.7
v 0.1 2 0.7
v 0.2 1.3 0.7
v 0.2 1.5 0.7
v 0.2 1.8 0.7
v 0.2 2 0.7
v 0.4 0.8 0.7
v 0.4 0.9 0.7
v 0.5 0.8 0.7
v 0.5 0.9 0.7
v -0.6 0 0.6
v -0.6 0.8 0.6
v -0.6 0.9 0.6
v -0.6 1 0.6
v -0.6 3.2 0.6
v -0.5 0.8 0.6
v -0.5 0.9 0.6
v -0.3 0.8 0.6
v -0.3 0.9 0.6
v -0.2 1.3 0.6
v -0.2 1.5 0.6
v -0.2 1.8 0.6
v -0.2 2 0.6
v -0.1 1 0.6
v -0.1 1.3 0.6
v -0.1 1.5 0.6
v -0.1 1.8 0.6
v -0.1 2 0.6
v -0.1 3.2 0.6
v 0.1 1 0.6
v 0.1 1.3 0.6
v 0.1 1.5 0.6
v 0.1 1.8 0.6
v 0.1 2 0.6
v 0.1 3.2 0.6
v 0.2 1.3 0.6
v 0.2 1.5 0.6
v 0.2 1.8 0.6
v 0.2 2 0.6
v 0.3 0.8 0.6
v 0.3 0.9 0.6
v 0.5 0.8 0.6
v 0.5 0.9 0.6
v 0.6 0 0.6
v 0.6 0.8 0.6
v 0.6 0.9 0.6
v 0.6 1 0.6
v 0.6 3.2 0.6
v -0.7 0 0.5
v -0.7 0.9 0.5
v -0.7 1 0.5
v -0.7 3.2 0.5
v -0.6 0 0.5
v -0.6 0.8 0.5
v -0.6 0.9 0.5
v -0.6 1 0.5
v -0.6 3.2 0.5
v -0.1 1 0.5
v 0.1 1 0.5
v 0.6 0 0.5
v 0.6 0.8 0.5
v 0.6 0.9 0.5
v 0.6 1 0.5
v 0.6 3.2 0.5
v 0.7 0 0.5
v 0.7 0.9 0.5
v 0.7 1 0.5
v 0.7 3.2 0.5
v -0.3 0.8 0.7
v -0.3 0.9 0.7
v -0.2 1.5 0.7
v -0.2 1.8 0.7
v -0.1 1.5 0.7
v -0.1 1.8 0.7
v 0.1 1.5 0.7
v 0.1 1.8 0.7
v 0.2 1.5 0.7
v 0.2 1.8 0.7
v 0.3 0.8 0.7
v 0.3 0.9 0.7
v -0.4 3.1 0.4
v -0.4 3.2 0.4
v -0.1 3.1 0.4
v -0.1 3.2 0.4
v 0.1 3.1 0.4
v 0.1 3.2 0.4
v 0.4 3.1 0.4
v 0.4 3.2 0.4
v -0.5 3.1 0.3
v -0.5 3.2 0.3
v -0.4 3.1 0.3
v -0.4 3.2 0.3
v 0.4 3.1 0.3
v 0.4 3.2 0.3
v 0.5 3.1 0.3
v 0.5 3.2 0.3
v -0.7 3.1 0.2
v -0.7 3.2 0.2
v -0.5 3.1 0.2
v -0.5 3.2 0.2
v 0.5 3.1 0.2
v 0.5 3.2 0.2
v 0.7 3.1 0.2
v 0.7 3.2 0.2
v -0.7 0 -0.8
v -0.7 3.1 -0.8
v 0.7 0 -0.8
v 0.7 3.1 -0.8
v -0.6 0 0.6
v 0.6 0 0.6
v -0.7 0 0.5
v -0.6 0 0.5
v 0.6 0 0.5
v 0.7 0 0.5
v -0.7 0 0.4
v 0.7 0 0.4
v -0.7 0 -0.8
v 0.7 0 -0.8
v -0.4 0.8 0.8
v 0.4 0.8 0.8
v -0.5 0.8 0.7
v -0.4 0.8 0.7
v -0.3 0.8 0.7
v 0.3 0.8 0.7
v 0.4 0.8 0.7
v 0.5 0.8 0.7
v -0.5 0.8 0.6
v -0.3 0.8 0.6
v 0.3 0.8 0.6
v 0.5 0.8 0.6
v -0.6 1 0.6
v -0.1 1 0.6
v 0.1 1 0.6
v 0.6 1 0.6
v -0.6 1 0.5
v -0.1 1 0.5
v 0.1 1 0.5
v 0.6 1 0.5
v -0.2 1.3 0.7
v -0.1 1.3 0.7
v 0.1 1.3 0.7
v 0.2 1.3 0.7
v -0.2 1.3 0.6
v -0.1 1.3 0.6
v 0.1 1.3 0.6
v 0.2 1.3 0.6
v -0.2 1.5 0.8
v -0.1 1.5 0.8
v 0.1 1.5 0.8
v 0.2 1.5 0.8
v -0.2 1.5 0.7
v -0.1 1.5 0.7
v 0.1 1.5 0.7
v 0.2 1.5 0.7
v -0.2 1.8 0.7
v -0.1 1.8 0.7
v 0.1 1.8 0.7
v 0.2 1.8 0.7
v -0.2 1.8 0.6
v -0.1 1.8 0.6
v 0.1 1.8 0.6
v 0.2 1.8 0.6
v -0.4 0.9 0.8
v 0.4 0.9 0.8
v -0.5 0.9 0.7
v -0.4 0.9 0.7
v -0.3 0.9 0.7
v 0.3 0.9 0.7
v 0.4 0.9 0.7
v 0.5 0.9 0.7
v -0.6 0.9 0.6
v -0.5 0.9 0.6
v -0.3 0.9 0.6
v 0.3 0.9 0.6
v 0.5 0.9 0.6
v 0.6 0.9 0.6
v -0.6 0.9 0.5
v 0.6 0.9 0.5
v -0.2 1.5 0.7
v -0.1 1.5 0.7
v 0.1 1.5 0.7
v 0.2 1.5 0.7
v -0.2 1.5 0.6
v -0.1 1.5 0.6
v 0.1 1.5 0.6
v 0.2 1.5 0.6
v -0.2 1.8 0.8
v -0.1 1.8 0.8
v 0.1 1.8 0.8
v 0.2 1.8 0.8
v -0.2 1.8 0.7
v -0.1 1.8 0.7
v 0.1 1.8 0.7
v 0.2 1.8 0.7
v -0.2 2 0.7
v -0.1 2 0.7
v 0.1 2 0.7
v 0.2 2 0.7
v -0.2 2 0.6
v -0.1 2 0.6
v 0.1 2 0.6
v 0.2 2 0.6
v -0.4 3.1 0.4
v -0.1 3.1 0.4
v 0.1 3.1 0.4
v 0.4 3.1 0.4
v -0.5 3.1 0.3
v -0.4 3.1 0.3
v 0.4 3.1 0.3
v 0.5 3.1 0.3
v -0.7 3.1 0.2
v -0.5 3.1 0.2
v 0.5 3.1 0.2
v 0.7 3.1 0.2
v -0.7 3.1 -0.8
v 0.7 3.1 -0.8
v -0.6 3.2 0.6
v -0.1 3.2 0.6
v 0.1 3.2 0.6
v 0.6 3.2 0.6
v -0.7 3.2 0.5
v -0.6 3.2 0.5
v 0.6 3.2 0.5
v 0.7 3.2 0.5
v -0.7 3.2 0.4
v -0.4 3.2 0.4
v -0.1 3.2 0.4
v 0.1 3.2 0.4
v 0.4 3.2 0.4
v 0.7 3.2 0.4
v -0.5 3.2 0.3
v -0.4 3.2 0.3
v 0.4 3.2 0.3
v 0.5 3.2 0.3
v -0.7 3.2 0.2
v -0.5 3.2 0.2
v 0.5 3.2 0.2
v 0.7 3.2 0.2

# faces
f 4/1/1 2/1/1 1/1/1
f 5/4/1 3/4/1 2/4/1
f 5/1/1 2/1/1 4/1/1
f 6/3/1 5/3/1 4/3/1
f 7/4/1 3/4/1 5/4/1
f 7/3/1 5/3/1 6/3/1
f 8/1/1 7/1/1 6/1/1
f 8/4/1 3/4/1 7/4/1
f 9/4/1 3/4/1 8/4/1
f 10/4/1 3/4/1 9/4/1
f 11/1/1 8/1/1 6/1/1
f 12/5/1 9/5/1 8/5/1
f 12/1/1 8/1/1 11/1/1
f 13/5/1 9/5/1 12/5/1
f 16/1/1 15/1/1 14/1/1
f 17/1/1 15/1/1 16/1/1
f 18/2/1 17/2/1 16/2/1
f 19/2/1 17/2/1 18/2/1
f 22/1/1 21/1/1 20/1/1
f 23/1/1 21/1/1 22/1/1
f 26/2/1 25/2/1 24/2/1
f 27/2/1 25/2/1 26/2/1
f 30/2/1 29/2/1 28/2/1
f 31/2/1 29/2/1 30/2/1
f 35/2/1 33/2/1 32/2/1
f 36/2/1 33/2/1 35/2/1
f 37/2/1 35/2/1 34/2/1
f 38/2/1 35/2/1 37/2/1
f 40/2/1 39/2/1 38/2/1
f 41/2/1 39/2/1 40/2/1
f 45/2/1 43/2/1 42/2/1
f 46/2/1 43/2/1 45/2/1
f 47/2/1 45/2/1 44/2/1
f 48/2/1 45/2/1 47/2/1
f 50/2/1 49/2/1 48/2/1
f 51/2/1 49/2/1 50/2/1
f 54/2/1 53/2/1 52/2/1
f 55/2/1 53/2/1 54/2/1
f 58/5/1 57/5/1 56/5/1
f 59/5/1 57/5/1 58/5/1
f 62/5/1 61/5/1 60/5/1
f 63/5/1 61/5/1 62/5/1
f 64/5/2 65/5/2 66/5/2
f 66/5/2 65/5/2 67/5/2
f 68/5/2 69/5/2 70/5/2
f 70/5/2 69/5/2 71/5/2
f 72/2/2 73/2/2 74/2/2
f 74/2/2 73/2/2 75/2/2
f 76/2/2 77/2/2 79/2/2
f 79/2/2 77/2/2 80/2/2
f 78/2/2 79/2/2 81/2/2
f 81/2/2 79/2/2 82/2/2
f 82/2/2 83/2/2 84/2/2
f 84/2/2 83/2/2 85/2/2
f 86/2/2 87/2/2 89/2/2
f 89/2/2 87/2/2 90/2/2
f 88/2/2 89/2/2 91/2/2
f 91/2/2 89/2/2 92/2/2
f 92/2/2 93/2/2 94/2/2
f 94/2/2 93/2/2 95/2/2
f 96/2/2 97/2/2 98/2/2
f 98/2/2 97/2/2 99/2/2
f 100/2/2 101/2/2 102/2/2
f 102/2/2 101/2/2 103/2/2
f 104/1/2 105/1/2 106/1/2
f 106/1/2 105/1/2 107/1/2
f 106/2/2 107/2/2 108/2/2
f 108/2/2 107/2/2 109/2/2
f 110/1/2 111/1/2 112/1/2
f 112/1/2 111/1/2 113/1/2
f 114/1/2 115/1/2 117/1/2
f 115/4/2 116/4/2 118/4/2
f 117/1/2 115/1/2 118/1/2
f 117/3/2 118/3/2 119/3/2
f 118/4/2 116/4/2 120/4/2
f 119/3/2 118/3/2 120/3/2
f 119/1/2 120/1/2 121/1/2
f 120/4/2 116/4/2 121/4/2
f 121/4/2 116/4/2 122/4/2
f 122/4/2 116/4/2 123/4/2
f 119/1/2 121/1/2 124/1/2
f 121/5/2 122/5/2 125/5/2
f 124/1/2 121/1/2 125/1/2
f 125/5/2 122/5/2 126/5/2
f 131/2/3 130/2/3 129/2/3
f 132/2/3 130/2/3 131/2/3
f 135/2/3 134/2/3 133/2/3
f 136/2/3 134/2/3 135/2/3
f 137/2/3 128/2/3 127/2/3
f 138/2/3 128/2/3 137/2/3
f 141/2/3 140/2/3 139/2/3
f 142/2/3 140/2/3 141/2/3
f 147/2/3 144/2/3 143/2/3
f 148/2/3 144/2/3 147/2/3
f 149/2/3 146/2/3 145/2/3
f 150/2/3 146/2/3 149/2/3
f 155/2/3 152/2/3 151/2/3
f 156/2/3 152/2/3 155/2/3
f 157/2/3 154/2/3 153/2/3
f 158/2/3 154/2/3 157/2/3
f 161/2/3 160/2/3 159/2/3
f 162/2/3 160/2/3 161/2/3
f 168/1/3 164/1/3 163/1/3
f 168/2/3 165/2/3 164/2/3
f 169/2/3 165/2/3 168/2/3
f 170/1/3 168/1/3 163/1/3
f 172/1/3 167/1/3 166/1/3
f 173/1/3 167/1/3 172/1/3
f 174/1/3 167/1/3 173/1/3
f 175/1/3 167/1/3 174/1/3
f 176/1/3 172/1/3 166/1/3
f 177/1/3 172/1/3 176/1/3
f 178/1/3 174/1/3 173/1/3
f 179/1/3 174/1/3 178/1/3
f 180/1/3 167/1/3 175/1/3
f 181/1/3 167/1/3 180/1/3
f 182/3/3 179/3/3 178/3/3
f 182/3/3 177/3/3 176/3/3
f 182/3/3 181/3/3 180/3/3
f 182/3/3 180/3/3 179/3/3
f 182/3/3 178/3/3 177/3/3
f 183/3/3 181/3/3 182/3/3
f 184/3/3 181/3/3 183/3/3
f 185/3/3 181/3/3 184/3/3
f 186/3/3 181/3/3 185/3/3
f 187/3/3 181/3/3 186/3/3
f 188/1/3 183/1/3 182/1/3
f 189/1/3 185/1/3 184/1/3
f 190/1/3 185/1/3 189/1/3
f 191/1/3 187/1/3 186/1/3
f 192/2/3 171/2/3 170/2/3
f 192/1/3 170/1/3 163/1/3
f 193/2/3 171/2/3 192/2/3
f 194/1/3 192/1/3 163/1/3
f 196/1/3 194/1/3 163/1/3
f 197/2/3 195/2/3 194/2/3
f 197/1/3 194/1/3 196/1/3
f 198/2/3 195/2/3 197/2/3
f 199/1/3 191/1/3 190/1/3
f 199/1/3 190/1/3 189/1/3
f 199/1/3 188/1/3 182/1/3
f 199/1/3 189/1/3 188/1/3
f 200/1/3 187/1/3 191/1/3
f 200/1/3 191/1/3 199/1/3
f 205/1/3 202/1/3 201/1/3
f 206/1/3 202/1/3 205/1/3
f 207/3/3 203/3/3 202/3/3
f 207/1/3 202/1/3 206/1/3
f 208/1/3 204/1/3 203/1/3
f 208/3/3 203/3/3 207/3/3
f 209/1/3 204/1/3 208/1/3
f 210/3/3 208/3/3 207/3/3
f 211/3/3 210/3/3 207/3/3
f 214/3/3 211/3/3 207/3/3
f 215/3/3 211/3/3 214/3/3
f 217/1/3 213/1/3 212/1/3
f 217/1/3 214/1/3 213/1/3
f 218/3/3 215/3/3 214/3/3
f 218/1/3 214/1/3 217/1/3
f 219/1/3 216/1/3 215/1/3
f 219/3/3 215/3/3 218/3/3
f 220/1/3 216/1/3 219/1/3
f 223/2/4 224/2/4 225/2/4
f 225/2/4 224/2/4 226/2/4
f 227/2/4 228/2/4 229/2/4
f 229/2/4 228/2/4 230/2/4
f 221/2/4 222/2/4 231/2/4
f 231/2/4 222/2/4 232/2/4
f 233/1/4 234/1/4 235/1/4
f 235/1/4 234/1/4 236/1/4
f 235/3/4 236/3/4 237/3/4
f 237/3/4 236/3/4 238/3/4
f 237/1/4 238/1/4 239/1/4
f 239/1/4 238/1/4 240/1/4
f 241/5/4 242/5/4 243/5/4
f 243/5/4 242/5/4 244/5/4
f 245/5/4 246/5/4 247/5/4
f 247/5/4 246/5/4 248/5/4
f 249/5/4 250/5/4 251/5/4
f 251/5/4 250/5/4 252/5/4
f 253/5/4 254/5/4 255/5/4
f 255/5/4 254/5/4 256/5/4
f 257/4/4 258/4/4 259/4/4
f 259/4/4 258/4/4 260/4/4
f 264/1/5 262/1/5 261/1/5
f 265/1/5 262/1/5 264/1/5
f 267/1/5 264/1/5 263/1/5
f 267/1/5 266/1/5 265/1/5
f 267/1/5 265/1/5 264/1/5
f 268/1/5 266/1/5 267/1/5
f 269/4/5 268/4/5 267/4/5
f 270/4/5 268/4/5 269/4/5
f 274/2/5 272/2/5 271/2/5
f 275/2/5 272/2/5 274/2/5
f 276/2/5 272/2/5 275/2/5
f 277/2/5 272/2/5 276/2/5
f 279/2/5 274/2/5 273/2/5
f 279/2/5 275/2/5 274/2/5
f 280/2/5 275/2/5 279/2/5
f 281/2/5 278/2/5 277/2/5
f 281/2/5 277/2/5 276/2/5
f 282/2/5 278/2/5 281/2/5
f 287/1/5 284/1/5 283/1/5
f 288/3/5 285/3/5 284/3/5
f 288/1/5 284/1/5 287/1/5
f 289/1/5 286/1/5 285/1/5
f 289/3/5 285/3/5 288/3/5
f 290/1/5 286/1/5 289/1/5
f 295/2/5 292/2/5 291/2/5
f 296/2/5 292/2/5 295/2/5
f 297/2/5 294/2/5 293/2/5
f 298/2/5 294/2/5 297/2/5
f 303/2/5 300/2/5 299/2/5
f 304/2/5 300/2/5 303/2/5
f 305/2/5 302/2/5 301/2/5
f 306/2/5 302/2/5 305/2/5
f 311/2/5 308/2/5 307/2/5
f 312/2/5 308/2/5 311/2/5
f 313/2/5 310/2/5 309/2/5
f 314/2/5 310/2/5 313/2/5
f 315/2/6 316/2/6 318/2/6
f 318/2/6 316/2/6 319/2/6
f 319/2/6 316/2/6 320/2/6
f 320/2/6 316/2/6 321/2/6
f 317/2/6 318/2/6 324/2/6
f 318/2/6 319/2/6 324/2/6
f 324/2/6 319/2/6 325/2/6
f 320/2/6 321/2/6 326/2/6
f 321/2/6 322/2/6 326/2/6
f 326/2/6 322/2/6 327/2/6
f 324/2/6 325/2/6 329/2/6
f 327/2/6 328/2/6 329/2/6
f 326/2/6 327/2/6 329/2/6
f 325/2/6 326/2/6 329/2/6
f 323/2/6 324/2/6 329/2/6
f 329/2/6 328/2/6 330/2/6
f 331/2/6 332/2/6 335/2/6
f 335/2/6 332/2/6 336/2/6
f 333/2/6 334/2/6 337/2/6
f 337/2/6 334/2/6 338/2/6
f 339/2/6 340/2/6 343/2/6
f 343/2/6 340/2/6 344/2/6
f 341/2/6 342/2/6 345/2/6
f 345/2/6 342/2/6 346/2/6
f 347/2/6 348/2/6 351/2/6
f 351/2/6 348/2/6 352/2/6
f 349/2/6 350/2/6 353/2/6
f 353/2/6 350/2/6 354/2/6
f 355/4/6 356/4/6 360/4/6
f 357/4/6 358/4/6 360/4/6
f 356/4/6 357/4/6 360/4/6
f 360/4/6 358/4/6 361/4/6
f 359/4/6 360/4/6 364/4/6
f 361/4/6 362/4/6 364/4/6
f 360/4/6 361/4/6 364/4/6
f 364/4/6 362/4/6 365/4/6
f 363/4/6 364/4/6 367/4/6
f 365/4/6 366/4/6 367/4/6
f 364/4/6 365/4/6 367/4/6
f 367/4/6 366/4/6 368/4/6
f 369/1/6 370/1/6 374/1/6
f 371/1/6 372/1/6 375/1/6
f 373/1/6 374/1/6 377/1/6
f 374/1/6 370/1/6 378/1/6
f 377/1/6 374/1/6 378/1/6
f 370/3/6 371/3/6 379/3/6
f 378/1/6 370/1/6 379/1/6
f 375/1/6 376/1/6 380/1/6
f 379/3/6 371/3/6 380/3/6
f 371/1/6 375/1/6 380/1/6
f 380/1/6 376/1/6 381/1/6
f 381/1/6 376/1/6 382/1/6
f 377/5/6 378/5/6 383/5/6
f 383/5/6 378/5/6 384/5/6
f 381/5/6 382/5/6 385/5/6
f 385/5/6 382/5/6 386/5/6
f 377/5/6 383/5/6 387/5/6
f 387/5/6 383/5/6 388/5/6
f 386/5/6 382/5/6 389/5/6
f 389/5/6 382/5/6 390/5/6
