# MagicaVoxel @ Ephtracy

# group
o 

# material
mtllib ManagerDeskV1Mid.mtl
usemtl palette

# normals
vn -1 0 0
vn 1 0 0
vn 0 0 1
vn 0 0 -1
vn 0 -1 0
vn 0 1 0

# texcoords
vt 0.177734 0.5
vt 0.224609 0.5
vt 0.974609 0.5
vt 0.990234 0.5

# verts
v -0.8 0.2 -0.4
v -0.8 0.2 -0.7
v -0.8 0.9 0.7
v -0.8 0.9 -0.4
v -0.8 1.2 0.8
v -0.8 1.2 0.7
v -0.8 1.2 -0.7
v -0.8 1.2 -0.8
v -0.8 1.3 0.8
v -0.8 1.3 -0.8
v -0.3 1 0.8
v -0.3 1 0.7
v -0.3 1.1 0.8
v -0.3 1.1 0.7
v 0.2 1 0.8
v 0.2 1 0.7
v 0.2 1.1 0.8
v 0.2 1.1 0.7
v 0.7 0.2 -0.4
v 0.7 0.2 -0.7
v 0.7 0.9 0.7
v 0.7 0.9 -0.4
v 0.7 1.2 0.7
v 0.7 1.2 -0.7
v 0.8 1.2 0.8
v 0.8 1.2 -0.8
v 0.8 1.3 0.8
v 0.8 1.3 -0.8
v -0.8 1.2 0.8
v -0.8 1.3 0.8
v -0.3 1 0.8
v -0.3 1.1 0.8
v 0.2 1 0.8
v 0.2 1.1 0.8
v 0.8 1.2 0.8
v 0.8 1.3 0.8
v -0.8 0.9 0.7
v -0.8 1.2 0.7
v -0.7 0.9 0.7
v -0.7 1.1 0.7
v -0.3 1 0.7
v -0.3 1.1 0.7
v 0.2 1 0.7
v 0.2 1.1 0.7
v 0.6 0.9 0.7
v 0.6 1.1 0.7
v 0.7 0.9 0.7
v 0.7 1.2 0.7
v -0.8 0.2 -0.4
v -0.8 0.9 -0.4
v 0.7 0.2 -0.4
v 0.7 0.9 -0.4
v -0.8 0.2 -0.7
v -0.8 1.2 -0.7
v 0.7 0.2 -0.7
v 0.7 1.2 -0.7
v -0.8 1.2 -0.8
v -0.8 1.3 -0.8
v 0.8 1.2 -0.8
v 0.8 1.3 -0.8
v -0.8 0.2 -0.4
v 0.7 0.2 -0.4
v -0.8 0.2 -0.7
v 0.7 0.2 -0.7
v -0.8 0.9 0.7
v -0.7 0.9 0.7
v 0.6 0.9 0.7
v 0.7 0.9 0.7
v -0.7 0.9 -0.3
v 0.6 0.9 -0.3
v -0.8 0.9 -0.4
v 0.7 0.9 -0.4
v -0.3 1 0.8
v 0.2 1 0.8
v -0.3 1 0.7
v 0.2 1 0.7
v -0.8 1.2 0.8
v 0.8 1.2 0.8
v -0.8 1.2 0.7
v 0.7 1.2 0.7
v -0.8 1.2 -0.7
v 0.7 1.2 -0.7
v -0.8 1.2 -0.8
v 0.8 1.2 -0.8
v -0.3 1.1 0.8
v 0.2 1.1 0.8
v -0.3 1.1 0.7
v 0.2 1.1 0.7
v -0.8 1.3 0.8
v 0.8 1.3 0.8
v -0.8 1.3 -0.8
v 0.8 1.3 -0.8

# faces
f 4/2/1 2/2/1 1/2/1
f 6/2/1 4/2/1 3/2/1
f 7/2/1 2/2/1 4/2/1
f 7/2/1 4/2/1 6/2/1
f 9/4/1 6/4/1 5/4/1
f 9/4/1 8/4/1 7/4/1
f 9/4/1 7/4/1 6/4/1
f 10/4/1 8/4/1 9/4/1
f 13/3/1 12/3/1 11/3/1
f 14/3/1 12/3/1 13/3/1
f 15/3/2 16/3/2 17/3/2
f 17/3/2 16/3/2 18/3/2
f 19/2/2 20/2/2 22/2/2
f 21/2/2 22/2/2 23/2/2
f 22/2/2 20/2/2 24/2/2
f 23/2/2 22/2/2 24/2/2
f 25/4/2 26/4/2 27/4/2
f 27/4/2 26/4/2 28/4/2
f 33/3/3 32/3/3 31/3/3
f 34/3/3 32/3/3 33/3/3
f 35/4/3 30/4/3 29/4/3
f 36/4/3 30/4/3 35/4/3
f 39/2/3 38/2/3 37/2/3
f 40/2/3 38/2/3 39/2/3
f 41/1/3 40/1/3 39/1/3
f 42/2/3 38/2/3 40/2/3
f 42/1/3 40/1/3 41/1/3
f 43/1/3 41/1/3 39/1/3
f 44/2/3 38/2/3 42/2/3
f 45/1/3 43/1/3 39/1/3
f 45/1/3 44/1/3 43/1/3
f 46/2/3 38/2/3 44/2/3
f 46/1/3 44/1/3 45/1/3
f 47/2/3 46/2/3 45/2/3
f 48/2/3 38/2/3 46/2/3
f 48/2/3 46/2/3 47/2/3
f 51/2/3 50/2/3 49/2/3
f 52/2/3 50/2/3 51/2/3
f 53/2/4 54/2/4 55/2/4
f 55/2/4 54/2/4 56/2/4
f 57/4/4 58/4/4 59/4/4
f 59/4/4 58/4/4 60/4/4
f 63/2/5 62/2/5 61/2/5
f 64/2/5 62/2/5 63/2/5
f 69/2/5 66/2/5 65/2/5
f 69/1/5 67/1/5 66/1/5
f 70/2/5 68/2/5 67/2/5
f 70/1/5 67/1/5 69/1/5
f 71/2/5 69/2/5 65/2/5
f 71/2/5 70/2/5 69/2/5
f 72/2/5 68/2/5 70/2/5
f 72/2/5 70/2/5 71/2/5
f 75/3/5 74/3/5 73/3/5
f 76/3/5 74/3/5 75/3/5
f 79/4/5 78/4/5 77/4/5
f 80/4/5 78/4/5 79/4/5
f 82/4/5 78/4/5 80/4/5
f 83/4/5 82/4/5 81/4/5
f 84/4/5 78/4/5 82/4/5
f 84/4/5 82/4/5 83/4/5
f 85/3/6 86/3/6 87/3/6
f 87/3/6 86/3/6 88/3/6
f 89/4/6 90/4/6 91/4/6
f 91/4/6 90/4/6 92/4/6
