# MagicaVoxel @ Ephtracy

# group
o 

# material
mtllib VendingPep.mtl
usemtl palette

# normals
vn -1 0 0
vn 1 0 0
vn 0 0 1
vn 0 0 -1
vn 0 -1 0
vn 0 1 0

# texcoords
vt 0.146484 0.5
vt 0.208984 0.5
vt 0.583984 0.5
vt 0.634766 0.5
vt 0.650391 0.5
vt 0.751953 0.5
vt 0.775391 0.5
vt 0.958984 0.5
vt 0.966797 0.5
vt 0.974609 0.5
vt 0.978516 0.5
vt 0.990234 0.5

# verts
v -0.8 0.4 0.6
v -0.8 0.4 0.4
v -0.8 0.4 0.3
v -0.8 0.4 -0.5
v -0.8 0.4 -0.6
v -0.8 0.4 -0.7
v -0.8 1.9 0.1
v -0.8 1.9 -0.3
v -0.8 2 0.2
v -0.8 2 0.1
v -0.8 2 -0.3
v -0.8 2 -0.4
v -0.8 2.1 0.3
v -0.8 2.1 0.2
v -0.8 2.1 -0.4
v -0.8 2.1 -0.5
v -0.8 2.2 0.3
v -0.8 2.2 0.2
v -0.8 2.2 -0.2
v -0.8 2.2 -0.5
v -0.8 2.3 0.3
v -0.8 2.3 0.2
v -0.8 2.3 -0.2
v -0.8 2.3 -0.5
v -0.8 2.4 0.2
v -0.8 2.4 -0.2
v -0.8 2.5 0.3
v -0.8 2.5 0.2
v -0.8 2.5 -0.4
v -0.8 2.5 -0.5
v -0.8 2.6 0.2
v -0.8 2.6 0.1
v -0.8 2.6 -0.3
v -0.8 2.6 -0.4
v -0.8 2.7 0.1
v -0.8 2.7 -0.3
v -0.8 3.1 0.4
v -0.8 3.1 0.3
v -0.8 3.1 -0.5
v -0.8 3.1 -0.6
v -0.8 3.2 0.6
v -0.8 3.2 -0.7
v -0.7 0 0.5
v -0.7 0 -0.7
v -0.7 0.4 0.5
v -0.7 0.4 0.4
v -0.7 0.4 0.3
v -0.7 0.4 -0.5
v -0.7 0.4 -0.6
v -0.7 0.4 -0.7
v -0.6 2.1 0.7
v -0.6 2.1 0.6
v -0.6 2.2 0.7
v -0.6 2.2 0.6
v -0.6 2.3 0.7
v -0.6 2.3 0.6
v -0.6 2.6 0.7
v -0.6 2.6 0.6
v -0.5 2 0.7
v -0.5 2 0.6
v -0.5 2.1 0.7
v -0.5 2.1 0.6
v -0.5 2.6 0.7
v -0.5 2.6 0.6
v -0.5 2.7 0.7
v -0.5 2.7 0.6
v -0.4 1.9 0.7
v -0.4 1.9 0.6
v -0.4 2 0.7
v -0.4 2 0.6
v -0.4 2.7 0.7
v -0.4 2.7 0.6
v -0.4 2.8 0.7
v -0.4 2.8 0.6
v -0.3 1.8 0.7
v -0.3 1.8 0.6
v -0.3 1.9 0.7
v -0.3 1.9 0.6
v -0.3 2.8 0.7
v -0.3 2.8 0.6
v -0.3 2.9 0.7
v -0.3 2.9 0.6
v 0.2 1.8 0.7
v 0.2 1.8 0.6
v 0.2 1.9 0.7
v 0.2 1.9 0.6
v 0.2 2.8 0.7
v 0.2 2.8 0.6
v 0.2 2.9 0.7
v 0.2 2.9 0.6
v 0.3 1.9 0.7
v 0.3 1.9 0.6
v 0.3 2 0.7
v 0.3 2 0.6
v 0.3 2.7 0.7
v 0.3 2.7 0.6
v 0.3 2.8 0.7
v 0.3 2.8 0.6
v 0.4 2 0.7
v 0.4 2 0.6
v 0.4 2.1 0.7
v 0.4 2.1 0.6
v 0.4 2.6 0.7
v 0.4 2.6 0.6
v 0.4 2.7 0.7
v 0.4 2.7 0.6
v 0.5 2.1 0.7
v 0.5 2.1 0.6
v 0.5 2.3 0.7
v 0.5 2.3 0.6
v 0.5 2.4 0.7
v 0.5 2.4 0.6
v 0.5 2.5 0.6
v 0.5 2.6 0.7
v 0.5 2.6 0.6
v 0.7 0 0.5
v 0.7 0 -0.7
v 0.7 0.4 0.5
v 0.7 0.4 0.4
v 0.7 0.4 0.3
v 0.7 0.4 -0.5
v 0.7 0.4 -0.6
v 0.7 0.4 -0.7
v 0.8 0.4 0.6
v 0.8 0.4 0.4
v 0.8 0.4 0.3
v 0.8 0.4 -0.5
v 0.8 0.4 -0.6
v 0.8 0.4 -0.7
v 0.8 2 0.1
v 0.8 2 -0.3
v 0.8 2.1 0.2
v 0.8 2.1 0.1
v 0.8 2.1 -0.3
v 0.8 2.1 -0.4
v 0.8 2.2 0.3
v 0.8 2.2 0.2
v 0.8 2.2 -0.4
v 0.8 2.2 -0.5
v 0.8 2.3 0.3
v 0.8 2.3 0
v 0.8 2.3 -0.4
v 0.8 2.3 -0.5
v 0.8 2.4 0.3
v 0.8 2.4 0
v 0.8 2.4 -0.4
v 0.8 2.4 -0.5
v 0.8 2.5 0
v 0.8 2.5 -0.4
v 0.8 2.6 0.3
v 0.8 2.6 0.2
v 0.8 2.6 -0.4
v 0.8 2.6 -0.5
v 0.8 2.7 0.2
v 0.8 2.7 0.1
v 0.8 2.7 -0.3
v 0.8 2.7 -0.4
v 0.8 2.8 0.1
v 0.8 2.8 -0.3
v 0.8 3.1 0.4
v 0.8 3.1 0.3
v 0.8 3.1 -0.5
v 0.8 3.1 -0.6
v 0.8 3.2 0.6
v 0.8 3.2 -0.7
v -0.6 2.1 0.7
v -0.6 2.2 0.7
v -0.6 2.3 0.7
v -0.6 2.6 0.7
v -0.5 2 0.7
v -0.5 2.1 0.7
v -0.5 2.6 0.7
v -0.5 2.7 0.7
v -0.4 1.9 0.7
v -0.4 2 0.7
v -0.4 2.3 0.7
v -0.4 2.4 0.7
v -0.4 2.7 0.7
v -0.4 2.8 0.7
v -0.3 1.8 0.7
v -0.3 1.9 0.7
v -0.3 2.2 0.7
v -0.3 2.3 0.7
v -0.3 2.8 0.7
v -0.3 2.9 0.7
v -0.1 2.4 0.7
v -0.1 2.5 0.7
v 0 2.3 0.7
v 0 2.4 0.7
v 0.2 1.8 0.7
v 0.2 1.9 0.7
v 0.2 2.3 0.7
v 0.2 2.4 0.7
v 0.2 2.8 0.7
v 0.2 2.9 0.7
v 0.3 1.9 0.7
v 0.3 2 0.7
v 0.3 2.4 0.7
v 0.3 2.5 0.7
v 0.3 2.7 0.7
v 0.3 2.8 0.7
v 0.4 2 0.7
v 0.4 2.1 0.7
v 0.4 2.6 0.7
v 0.4 2.7 0.7
v 0.5 2.1 0.7
v 0.5 2.3 0.7
v 0.5 2.4 0.7
v 0.5 2.6 0.7
v -0.8 0.4 0.6
v -0.8 3.2 0.6
v -0.7 0.4 0.6
v -0.7 3.1 0.6
v -0.6 0.4 0.6
v -0.6 2.1 0.6
v -0.6 2.2 0.6
v -0.6 2.3 0.6
v -0.6 2.6 0.6
v -0.6 3.1 0.6
v -0.5 2 0.6
v -0.5 2.1 0.6
v -0.5 2.6 0.6
v -0.5 2.7 0.6
v -0.4 1.9 0.6
v -0.4 2 0.6
v -0.4 2.7 0.6
v -0.4 2.8 0.6
v -0.3 1.8 0.6
v -0.3 1.9 0.6
v -0.3 2.8 0.6
v -0.3 2.9 0.6
v 0.2 1.8 0.6
v 0.2 1.9 0.6
v 0.2 2.8 0.6
v 0.2 2.9 0.6
v 0.3 1.9 0.6
v 0.3 2 0.6
v 0.3 2.7 0.6
v 0.3 2.8 0.6
v 0.4 2 0.6
v 0.4 2.1 0.6
v 0.4 2.6 0.6
v 0.4 2.7 0.6
v 0.5 0.4 0.6
v 0.5 0.7 0.6
v 0.5 0.9 0.6
v 0.5 2.1 0.6
v 0.5 2.3 0.6
v 0.5 2.4 0.6
v 0.5 2.5 0.6
v 0.5 2.6 0.6
v 0.5 3.1 0.6
v 0.6 1.1 0.6
v 0.6 1.2 0.6
v 0.6 1.6 0.6
v 0.6 1.7 0.6
v 0.6 1.8 0.6
v 0.6 1.9 0.6
v 0.6 2 0.6
v 0.6 2.1 0.6
v 0.6 2.2 0.6
v 0.6 2.3 0.6
v 0.6 2.5 0.6
v 0.6 2.6 0.6
v 0.7 0.7 0.6
v 0.7 0.9 0.6
v 0.7 1.1 0.6
v 0.7 1.2 0.6
v 0.7 1.6 0.6
v 0.7 1.7 0.6
v 0.7 1.8 0.6
v 0.7 1.9 0.6
v 0.7 2 0.6
v 0.7 2.1 0.6
v 0.7 2.2 0.6
v 0.7 2.3 0.6
v 0.7 2.5 0.6
v 0.7 2.6 0.6
v 0.8 0.4 0.6
v 0.8 3.2 0.6
v -0.7 0 0.5
v -0.7 0.4 0.5
v -0.6 0.4 0.5
v 0.5 0.4 0.5
v 0.7 0 0.5
v 0.7 0.4 0.5
v -0.8 0.4 -0.7
v -0.8 3.2 -0.7
v -0.7 0 -0.7
v -0.7 0.4 -0.7
v -0.7 3.1 -0.7
v -0.6 0.4 -0.7
v -0.6 2.1 -0.7
v -0.6 2.3 -0.7
v -0.6 2.4 -0.7
v -0.6 2.7 -0.7
v -0.6 3.1 -0.7
v -0.5 2 -0.7
v -0.5 2.1 -0.7
v -0.5 2.7 -0.7
v -0.5 2.8 -0.7
v -0.4 1.9 -0.7
v -0.4 2 -0.7
v -0.4 2.4 -0.7
v -0.4 2.5 -0.7
v -0.4 2.8 -0.7
v -0.4 2.9 -0.7
v -0.3 1.8 -0.7
v -0.3 1.9 -0.7
v -0.3 2.3 -0.7
v -0.3 2.4 -0.7
v -0.3 2.9 -0.7
v -0.3 3 -0.7
v 0 2.3 -0.7
v 0 2.4 -0.7
v 0.1 2.4 -0.7
v 0.1 2.5 -0.7
v 0.3 1.8 -0.7
v 0.3 1.9 -0.7
v 0.3 2.2 -0.7
v 0.3 2.3 -0.7
v 0.3 2.9 -0.7
v 0.3 3 -0.7
v 0.4 1.9 -0.7
v 0.4 2 -0.7
v 0.4 2.3 -0.7
v 0.4 2.4 -0.7
v 0.4 2.8 -0.7
v 0.4 2.9 -0.7
v 0.5 2 -0.7
v 0.5 2.1 -0.7
v 0.5 2.7 -0.7
v 0.5 2.8 -0.7
v 0.6 0.4 -0.7
v 0.6 2.1 -0.7
v 0.6 2.2 -0.7
v 0.6 2.3 -0.7
v 0.6 2.7 -0.7
v 0.6 3.1 -0.7
v 0.7 0 -0.7
v 0.7 0.4 -0.7
v 0.7 3.1 -0.7
v 0.8 0.4 -0.7
v 0.8 3.2 -0.7
v -0.7 0 0.5
v 0.7 0 0.5
v -0.7 0 -0.7
v 0.7 0 -0.7
v -0.8 0.4 0.6
v -0.7 0.4 0.6
v -0.6 0.4 0.6
v 0.5 0.4 0.6
v 0.8 0.4 0.6
v -0.7 0.4 0.5
v -0.6 0.4 0.5
v 0.5 0.4 0.5
v 0.7 0.4 0.5
v -0.8 0.4 0.4
v -0.7 0.4 0.4
v 0.7 0.4 0.4
v 0.8 0.4 0.4
v -0.8 0.4 0.3
v -0.7 0.4 0.3
v 0.7 0.4 0.3
v 0.8 0.4 0.3
v -0.8 0.4 -0.5
v -0.7 0.4 -0.5
v 0.7 0.4 -0.5
v 0.8 0.4 -0.5
v -0.8 0.4 -0.6
v -0.7 0.4 -0.6
v 0.7 0.4 -0.6
v 0.8 0.4 -0.6
v -0.8 0.4 -0.7
v -0.7 0.4 -0.7
v 0.7 0.4 -0.7
v 0.8 0.4 -0.7
v -0.3 1.8 0.7
v 0.2 1.8 0.7
v -0.3 1.8 0.6
v 0.2 1.8 0.6
v -0.4 1.9 0.7
v -0.3 1.9 0.7
v 0.2 1.9 0.7
v 0.3 1.9 0.7
v -0.4 1.9 0.6
v -0.3 1.9 0.6
v 0.2 1.9 0.6
v 0.3 1.9 0.6
v -0.5 2 0.7
v -0.4 2 0.7
v 0.3 2 0.7
v 0.4 2 0.7
v -0.5 2 0.6
v -0.4 2 0.6
v 0.3 2 0.6
v 0.4 2 0.6
v -0.6 2.1 0.7
v -0.5 2.1 0.7
v 0.4 2.1 0.7
v 0.5 2.1 0.7
v -0.6 2.1 0.6
v -0.5 2.1 0.6
v 0.4 2.1 0.6
v 0.5 2.1 0.6
v -0.6 2.6 0.7
v -0.5 2.6 0.7
v 0.4 2.6 0.7
v 0.5 2.6 0.7
v -0.6 2.6 0.6
v -0.5 2.6 0.6
v 0.4 2.6 0.6
v 0.5 2.6 0.6
v -0.5 2.7 0.7
v -0.4 2.7 0.7
v 0.3 2.7 0.7
v 0.4 2.7 0.7
v -0.5 2.7 0.6
v -0.4 2.7 0.6
v 0.3 2.7 0.6
v 0.4 2.7 0.6
v -0.4 2.8 0.7
v -0.3 2.8 0.7
v 0.2 2.8 0.7
v 0.3 2.8 0.7
v -0.4 2.8 0.6
v -0.3 2.8 0.6
v 0.2 2.8 0.6
v 0.3 2.8 0.6
v -0.3 2.9 0.7
v 0.2 2.9 0.7
v -0.3 2.9 0.6
v 0.2 2.9 0.6
v -0.8 3.2 0.6
v 0.8 3.2 0.6
v -0.8 3.2 -0.7
v 0.8 3.2 -0.7

# faces
f 7/1/1 4/1/1 3/1/1
f 8/1/1 4/1/1 7/1/1
f 9/1/1 7/1/1 3/1/1
f 10/7/1 8/7/1 7/7/1
f 10/1/1 7/1/1 9/1/1
f 11/1/1 4/1/1 8/1/1
f 11/7/1 8/7/1 10/7/1
f 12/1/1 4/1/1 11/1/1
f 13/9/1 3/9/1 2/9/1
f 13/1/1 9/1/1 3/1/1
f 14/7/1 10/7/1 9/7/1
f 14/1/1 9/1/1 13/1/1
f 14/7/1 12/7/1 11/7/1
f 14/7/1 11/7/1 10/7/1
f 15/1/1 4/1/1 12/1/1
f 15/7/1 12/7/1 14/7/1
f 16/9/1 5/9/1 4/9/1
f 16/1/1 4/1/1 15/1/1
f 17/7/1 14/7/1 13/7/1
f 17/7/1 15/7/1 14/7/1
f 17/7/1 16/7/1 15/7/1
f 17/9/1 13/9/1 2/9/1
f 18/7/1 16/7/1 17/7/1
f 19/7/1 16/7/1 18/7/1
f 20/9/1 5/9/1 16/9/1
f 20/7/1 16/7/1 19/7/1
f 21/9/1 17/9/1 2/9/1
f 21/8/1 18/8/1 17/8/1
f 22/7/1 19/7/1 18/7/1
f 22/8/1 18/8/1 21/8/1
f 23/8/1 20/8/1 19/8/1
f 23/7/1 19/7/1 22/7/1
f 24/9/1 5/9/1 20/9/1
f 24/8/1 20/8/1 23/8/1
f 25/8/1 23/8/1 22/8/1
f 25/1/1 22/1/1 21/1/1
f 26/1/1 24/1/1 23/1/1
f 26/8/1 23/8/1 25/8/1
f 27/9/1 21/9/1 2/9/1
f 27/1/1 25/1/1 21/1/1
f 27/1/1 26/1/1 25/1/1
f 28/1/1 26/1/1 27/1/1
f 29/1/1 24/1/1 26/1/1
f 29/1/1 26/1/1 28/1/1
f 30/9/1 5/9/1 24/9/1
f 30/1/1 24/1/1 29/1/1
f 31/6/1 28/6/1 27/6/1
f 31/1/1 29/1/1 28/1/1
f 32/1/1 29/1/1 31/1/1
f 33/1/1 29/1/1 32/1/1
f 34/6/1 30/6/1 29/6/1
f 34/1/1 29/1/1 33/1/1
f 35/1/1 33/1/1 32/1/1
f 35/6/1 32/6/1 31/6/1
f 36/6/1 34/6/1 33/6/1
f 36/1/1 33/1/1 35/1/1
f 37/12/1 2/12/1 1/12/1
f 37/9/1 27/9/1 2/9/1
f 38/6/1 36/6/1 35/6/1
f 38/9/1 27/9/1 37/9/1
f 38/6/1 31/6/1 27/6/1
f 38/6/1 35/6/1 31/6/1
f 39/6/1 34/6/1 36/6/1
f 39/6/1 36/6/1 38/6/1
f 39/9/1 5/9/1 30/9/1
f 39/6/1 30/6/1 34/6/1
f 40/12/1 6/12/1 5/12/1
f 40/9/1 5/9/1 39/9/1
f 41/12/1 38/12/1 37/12/1
f 41/12/1 37/12/1 1/12/1
f 41/12/1 40/12/1 39/12/1
f 41/12/1 39/12/1 38/12/1
f 42/12/1 6/12/1 40/12/1
f 42/12/1 40/12/1 41/12/1
f 45/12/1 44/12/1 43/12/1
f 46/12/1 44/12/1 45/12/1
f 47/12/1 44/12/1 46/12/1
f 48/12/1 44/12/1 47/12/1
f 49/12/1 44/12/1 48/12/1
f 50/12/1 44/12/1 49/12/1
f 53/7/1 52/7/1 51/7/1
f 54/7/1 52/7/1 53/7/1
f 55/8/1 54/8/1 53/8/1
f 56/8/1 54/8/1 55/8/1
f 57/1/1 56/1/1 55/1/1
f 58/1/1 56/1/1 57/1/1
f 61/7/1 60/7/1 59/7/1
f 62/7/1 60/7/1 61/7/1
f 65/1/1 64/1/1 63/1/1
f 66/1/1 64/1/1 65/1/1
f 69/7/1 68/7/1 67/7/1
f 70/7/1 68/7/1 69/7/1
f 73/1/1 72/1/1 71/1/1
f 74/1/1 72/1/1 73/1/1
f 77/7/1 76/7/1 75/7/1
f 78/7/1 76/7/1 77/7/1
f 81/1/1 80/1/1 79/1/1
f 82/1/1 80/1/1 81/1/1
f 83/7/2 84/7/2 85/7/2
f 85/7/2 84/7/2 86/7/2
f 87/1/2 88/1/2 89/1/2
f 89/1/2 88/1/2 90/1/2
f 91/7/2 92/7/2 93/7/2
f 93/7/2 92/7/2 94/7/2
f 95/1/2 96/1/2 97/1/2
f 97/1/2 96/1/2 98/1/2
f 99/7/2 100/7/2 101/7/2
f 101/7/2 100/7/2 102/7/2
f 103/1/2 104/1/2 105/1/2
f 105/1/2 104/1/2 106/1/2
f 107/7/2 108/7/2 109/7/2
f 109/7/2 108/7/2 110/7/2
f 109/8/2 110/8/2 111/8/2
f 111/8/2 110/8/2 112/8/2
f 111/1/2 112/1/2 113/1/2
f 111/1/2 113/1/2 114/1/2
f 114/1/2 113/1/2 115/1/2
f 116/12/2 117/12/2 118/12/2
f 118/12/2 117/12/2 119/12/2
f 119/12/2 117/12/2 120/12/2
f 120/12/2 117/12/2 121/12/2
f 121/12/2 117/12/2 122/12/2
f 122/12/2 117/12/2 123/12/2
f 126/1/2 127/1/2 130/1/2
f 130/1/2 127/1/2 131/1/2
f 126/1/2 130/1/2 132/1/2
f 130/7/2 131/7/2 133/7/2
f 132/1/2 130/1/2 133/1/2
f 131/1/2 127/1/2 134/1/2
f 133/7/2 131/7/2 134/7/2
f 134/1/2 127/1/2 135/1/2
f 125/9/2 126/9/2 136/9/2
f 126/1/2 132/1/2 136/1/2
f 132/7/2 133/7/2 137/7/2
f 136/1/2 132/1/2 137/1/2
f 134/7/2 135/7/2 137/7/2
f 133/7/2 134/7/2 137/7/2
f 135/1/2 127/1/2 138/1/2
f 137/7/2 135/7/2 138/7/2
f 127/9/2 128/9/2 139/9/2
f 138/1/2 127/1/2 139/1/2
f 136/7/2 137/7/2 140/7/2
f 137/7/2 138/7/2 140/7/2
f 138/7/2 139/7/2 140/7/2
f 125/9/2 136/9/2 140/9/2
f 140/7/2 139/7/2 141/7/2
f 141/7/2 139/7/2 142/7/2
f 139/9/2 128/9/2 143/9/2
f 142/7/2 139/7/2 143/7/2
f 125/9/2 140/9/2 144/9/2
f 140/8/2 141/8/2 144/8/2
f 141/7/2 142/7/2 145/7/2
f 144/8/2 141/8/2 145/8/2
f 142/8/2 143/8/2 146/8/2
f 145/7/2 142/7/2 146/7/2
f 143/9/2 128/9/2 147/9/2
f 146/8/2 143/8/2 147/8/2
f 145/8/2 146/8/2 148/8/2
f 144/1/2 145/1/2 148/1/2
f 146/1/2 147/1/2 149/1/2
f 148/8/2 146/8/2 149/8/2
f 125/9/2 144/9/2 150/9/2
f 144/1/2 148/1/2 150/1/2
f 148/1/2 149/1/2 150/1/2
f 150/1/2 149/1/2 151/1/2
f 149/1/2 147/1/2 152/1/2
f 151/1/2 149/1/2 152/1/2
f 147/9/2 128/9/2 153/9/2
f 152/1/2 147/1/2 153/1/2
f 150/6/2 151/6/2 154/6/2
f 151/1/2 152/1/2 154/1/2
f 154/1/2 152/1/2 155/1/2
f 155/1/2 152/1/2 156/1/2
f 152/6/2 153/6/2 157/6/2
f 156/1/2 152/1/2 157/1/2
f 155/1/2 156/1/2 158/1/2
f 154/6/2 155/6/2 158/6/2
f 156/6/2 157/6/2 159/6/2
f 158/1/2 156/1/2 159/1/2
f 124/12/2 125/12/2 160/12/2
f 125/9/2 150/9/2 160/9/2
f 158/6/2 159/6/2 161/6/2
f 160/9/2 150/9/2 161/9/2
f 150/6/2 154/6/2 161/6/2
f 154/6/2 158/6/2 161/6/2
f 159/6/2 157/6/2 162/6/2
f 161/6/2 159/6/2 162/6/2
f 153/9/2 128/9/2 162/9/2
f 157/6/2 153/6/2 162/6/2
f 128/12/2 129/12/2 163/12/2
f 162/9/2 128/9/2 163/9/2
f 160/12/2 161/12/2 164/12/2
f 124/12/2 160/12/2 164/12/2
f 162/12/2 163/12/2 164/12/2
f 161/12/2 162/12/2 164/12/2
f 163/12/2 129/12/2 165/12/2
f 164/12/2 163/12/2 165/12/2
f 171/7/3 167/7/3 166/7/3
f 172/1/3 169/1/3 168/1/3
f 175/7/3 171/7/3 170/7/3
f 176/1/3 173/1/3 172/1/3
f 176/8/3 168/8/3 167/8/3
f 176/1/3 172/1/3 168/1/3
f 177/1/3 173/1/3 176/1/3
f 178/1/3 173/1/3 177/1/3
f 181/7/3 175/7/3 174/7/3
f 182/7/3 171/7/3 175/7/3
f 182/7/3 167/7/3 171/7/3
f 182/7/3 175/7/3 181/7/3
f 182/8/3 176/8/3 167/8/3
f 182/8/3 177/8/3 176/8/3
f 183/8/3 177/8/3 182/8/3
f 184/1/3 179/1/3 178/1/3
f 184/1/3 178/1/3 177/1/3
f 186/8/3 177/8/3 183/8/3
f 186/1/3 185/1/3 184/1/3
f 186/1/3 184/1/3 177/1/3
f 187/1/3 185/1/3 186/1/3
f 188/7/3 182/7/3 181/7/3
f 188/7/3 181/7/3 180/7/3
f 188/8/3 187/8/3 186/8/3
f 188/8/3 186/8/3 183/8/3
f 188/7/3 183/7/3 182/7/3
f 189/8/3 187/8/3 188/8/3
f 190/7/3 188/7/3 180/7/3
f 190/7/3 189/7/3 188/7/3
f 191/7/3 189/7/3 190/7/3
f 192/7/3 189/7/3 191/7/3
f 193/8/3 187/8/3 189/8/3
f 193/7/3 189/7/3 192/7/3
f 194/1/3 185/1/3 187/1/3
f 195/1/3 185/1/3 194/1/3
f 196/7/3 192/7/3 191/7/3
f 197/7/3 192/7/3 196/7/3
f 198/8/3 187/8/3 193/8/3
f 198/8/3 193/8/3 192/8/3
f 199/1/3 194/1/3 187/1/3
f 199/8/3 187/8/3 198/8/3
f 200/1/3 194/1/3 199/1/3
f 201/1/3 194/1/3 200/1/3
f 202/7/3 192/7/3 197/7/3
f 203/7/3 192/7/3 202/7/3
f 204/1/3 200/1/3 199/1/3
f 204/1/3 199/1/3 198/1/3
f 205/1/3 200/1/3 204/1/3
f 206/7/3 192/7/3 203/7/3
f 207/8/3 198/8/3 192/8/3
f 207/7/3 192/7/3 206/7/3
f 208/1/3 204/1/3 198/1/3
f 208/8/3 198/8/3 207/8/3
f 209/1/3 204/1/3 208/1/3
f 212/12/3 211/12/3 210/12/3
f 213/12/3 211/12/3 212/12/3
f 214/9/3 213/9/3 212/9/3
f 215/9/3 213/9/3 214/9/3
f 216/9/3 213/9/3 215/9/3
f 217/9/3 213/9/3 216/9/3
f 218/9/3 213/9/3 217/9/3
f 219/12/3 211/12/3 213/12/3
f 219/9/3 213/9/3 218/9/3
f 220/1/3 215/1/3 214/1/3
f 221/1/3 215/1/3 220/1/3
f 222/6/3 219/6/3 218/6/3
f 223/6/3 219/6/3 222/6/3
f 224/1/3 220/1/3 214/1/3
f 225/1/3 220/1/3 224/1/3
f 226/6/3 219/6/3 223/6/3
f 227/6/3 219/6/3 226/6/3
f 228/1/3 224/1/3 214/1/3
f 229/1/3 224/1/3 228/1/3
f 230/6/3 219/6/3 227/6/3
f 231/6/3 219/6/3 230/6/3
f 232/1/3 228/1/3 214/1/3
f 235/6/3 219/6/3 231/6/3
f 236/1/3 233/1/3 232/1/3
f 239/6/3 235/6/3 234/6/3
f 240/1/3 237/1/3 236/1/3
f 243/6/3 239/6/3 238/6/3
f 244/1/3 241/1/3 240/1/3
f 244/1/3 232/1/3 214/1/3
f 244/1/3 236/1/3 232/1/3
f 244/1/3 240/1/3 236/1/3
f 245/1/3 241/1/3 244/1/3
f 246/1/3 241/1/3 245/1/3
f 247/1/3 241/1/3 246/1/3
f 251/6/3 243/6/3 242/6/3
f 252/12/3 211/12/3 219/12/3
f 252/6/3 239/6/3 243/6/3
f 252/6/3 243/6/3 251/6/3
f 252/6/3 219/6/3 235/6/3
f 252/6/3 235/6/3 239/6/3
f 253/12/3 250/12/3 249/12/3
f 253/12/3 249/12/3 248/12/3
f 253/12/3 248/12/3 247/12/3
f 253/12/3 247/12/3 246/12/3
f 254/12/3 250/12/3 253/12/3
f 255/12/3 250/12/3 254/12/3
f 256/12/3 250/12/3 255/12/3
f 257/12/3 250/12/3 256/12/3
f 258/12/3 250/12/3 257/12/3
f 259/12/3 250/12/3 258/12/3
f 260/12/3 250/12/3 259/12/3
f 261/12/3 250/12/3 260/12/3
f 262/12/3 250/12/3 261/12/3
f 263/5/3 251/5/3 250/5/3
f 263/12/3 250/12/3 262/12/3
f 264/12/3 252/12/3 251/12/3
f 264/5/3 251/5/3 263/5/3
f 265/11/3 246/11/3 245/11/3
f 265/12/3 245/12/3 244/12/3
f 266/12/3 253/12/3 246/12/3
f 266/11/3 246/11/3 265/11/3
f 267/11/3 254/11/3 253/11/3
f 267/12/3 253/12/3 266/12/3
f 268/12/3 255/12/3 254/12/3
f 268/11/3 254/11/3 267/11/3
f 269/2/3 256/2/3 255/2/3
f 269/12/3 255/12/3 268/12/3
f 270/12/3 257/12/3 256/12/3
f 270/2/3 256/2/3 269/2/3
f 271/3/3 258/3/3 257/3/3
f 271/12/3 257/12/3 270/12/3
f 272/12/3 259/12/3 258/12/3
f 272/3/3 258/3/3 271/3/3
f 273/10/3 260/10/3 259/10/3
f 273/12/3 259/12/3 272/12/3
f 274/12/3 261/12/3 260/12/3
f 274/10/3 260/10/3 273/10/3
f 275/7/3 262/7/3 261/7/3
f 275/12/3 261/12/3 274/12/3
f 276/12/3 263/12/3 262/12/3
f 276/7/3 262/7/3 275/7/3
f 277/4/3 264/4/3 263/4/3
f 277/12/3 263/12/3 276/12/3
f 278/12/3 252/12/3 264/12/3
f 278/4/3 264/4/3 277/4/3
f 279/12/3 274/12/3 273/12/3
f 279/12/3 275/12/3 274/12/3
f 279/12/3 278/12/3 277/12/3
f 279/12/3 273/12/3 272/12/3
f 279/12/3 272/12/3 271/12/3
f 279/12/3 271/12/3 270/12/3
f 279/12/3 270/12/3 269/12/3
f 279/12/3 269/12/3 268/12/3
f 279/12/3 268/12/3 267/12/3
f 279/12/3 267/12/3 266/12/3
f 279/12/3 266/12/3 265/12/3
f 279/12/3 265/12/3 244/12/3
f 279/12/3 276/12/3 275/12/3
f 279/12/3 277/12/3 276/12/3
f 280/12/3 252/12/3 278/12/3
f 280/12/3 278/12/3 279/12/3
f 280/12/3 211/12/3 252/12/3
f 283/12/3 282/12/3 281/12/3
f 284/12/3 283/12/3 281/12/3
f 285/12/3 284/12/3 281/12/3
f 286/12/3 284/12/3 285/12/3
f 287/12/4 288/12/4 290/12/4
f 290/12/4 288/12/4 291/12/4
f 289/12/4 290/12/4 292/12/4
f 290/9/4 291/9/4 292/9/4
f 292/9/4 291/9/4 293/9/4
f 293/9/4 291/9/4 294/9/4
f 294/9/4 291/9/4 295/9/4
f 295/9/4 291/9/4 296/9/4
f 291/12/4 288/12/4 297/12/4
f 296/9/4 291/9/4 297/9/4
f 292/1/4 293/1/4 298/1/4
f 293/7/4 294/7/4 299/7/4
f 298/1/4 293/1/4 299/1/4
f 295/1/4 296/1/4 300/1/4
f 296/6/4 297/6/4 300/6/4
f 300/6/4 297/6/4 301/6/4
f 292/1/4 298/1/4 302/1/4
f 298/7/4 299/7/4 303/7/4
f 302/1/4 298/1/4 303/1/4
f 294/8/4 295/8/4 304/8/4
f 295/1/4 300/1/4 304/1/4
f 300/1/4 301/1/4 304/1/4
f 304/1/4 301/1/4 305/1/4
f 301/6/4 297/6/4 306/6/4
f 305/1/4 301/1/4 306/1/4
f 306/6/4 297/6/4 307/6/4
f 292/1/4 302/1/4 308/1/4
f 302/7/4 303/7/4 309/7/4
f 308/1/4 302/1/4 309/1/4
f 299/7/4 294/7/4 310/7/4
f 309/7/4 303/7/4 310/7/4
f 304/8/4 305/8/4 310/8/4
f 303/7/4 299/7/4 310/7/4
f 294/8/4 304/8/4 310/8/4
f 310/8/4 305/8/4 311/8/4
f 306/1/4 307/1/4 312/1/4
f 305/1/4 306/1/4 312/1/4
f 307/6/4 297/6/4 312/6/4
f 312/6/4 297/6/4 313/6/4
f 308/7/4 309/7/4 314/7/4
f 310/7/4 311/7/4 314/7/4
f 309/7/4 310/7/4 314/7/4
f 311/8/4 305/8/4 315/8/4
f 314/7/4 311/7/4 315/7/4
f 314/8/4 315/8/4 316/8/4
f 315/8/4 305/8/4 316/8/4
f 312/1/4 313/1/4 317/1/4
f 316/8/4 305/8/4 317/8/4
f 305/1/4 312/1/4 317/1/4
f 308/7/4 314/7/4 318/7/4
f 292/1/4 308/1/4 318/1/4
f 318/7/4 314/7/4 319/7/4
f 319/7/4 314/7/4 320/7/4
f 314/8/4 316/8/4 321/8/4
f 320/7/4 314/7/4 321/7/4
f 317/1/4 313/1/4 322/1/4
f 316/1/4 317/1/4 322/1/4
f 313/6/4 297/6/4 323/6/4
f 322/1/4 313/1/4 323/1/4
f 319/7/4 320/7/4 324/7/4
f 318/1/4 319/1/4 324/1/4
f 324/7/4 320/7/4 325/7/4
f 321/8/4 316/8/4 326/8/4
f 320/8/4 321/8/4 326/8/4
f 316/1/4 322/1/4 327/1/4
f 326/8/4 316/8/4 327/8/4
f 327/1/4 322/1/4 328/1/4
f 322/6/4 323/6/4 329/6/4
f 328/1/4 322/1/4 329/1/4
f 325/7/4 320/7/4 330/7/4
f 324/1/4 325/1/4 330/1/4
f 330/7/4 320/7/4 331/7/4
f 327/1/4 328/1/4 332/1/4
f 326/1/4 327/1/4 332/1/4
f 328/6/4 329/6/4 333/6/4
f 332/1/4 328/1/4 333/1/4
f 289/12/4 292/12/4 334/12/4
f 292/1/4 318/1/4 334/1/4
f 318/1/4 324/1/4 334/1/4
f 324/1/4 330/1/4 334/1/4
f 330/1/4 331/1/4 334/1/4
f 331/7/4 320/7/4 335/7/4
f 334/1/4 331/1/4 335/1/4
f 320/8/4 326/8/4 336/8/4
f 335/7/4 320/7/4 336/7/4
f 326/1/4 332/1/4 337/1/4
f 336/8/4 326/8/4 337/8/4
f 332/6/4 333/6/4 338/6/4
f 337/1/4 332/1/4 338/1/4
f 333/6/4 329/6/4 339/6/4
f 338/6/4 333/6/4 339/6/4
f 297/12/4 288/12/4 339/12/4
f 329/6/4 323/6/4 339/6/4
f 323/6/4 297/6/4 339/6/4
f 289/12/4 334/12/4 340/12/4
f 334/9/4 335/9/4 341/9/4
f 340/12/4 334/12/4 341/12/4
f 337/9/4 338/9/4 341/9/4
f 338/9/4 339/9/4 341/9/4
f 335/9/4 336/9/4 341/9/4
f 336/9/4 337/9/4 341/9/4
f 339/12/4 288/12/4 342/12/4
f 341/9/4 339/9/4 342/9/4
f 341/12/4 342/12/4 343/12/4
f 342/12/4 288/12/4 344/12/4
f 343/12/4 342/12/4 344/12/4
f 347/12/5 346/12/5 345/12/5
f 348/12/5 346/12/5 347/12/5
f 354/12/5 350/12/5 349/12/5
f 354/9/5 351/9/5 350/9/5
f 355/1/5 352/1/5 351/1/5
f 355/9/5 351/9/5 354/9/5
f 356/12/5 353/12/5 352/12/5
f 356/1/5 352/1/5 355/1/5
f 357/12/5 353/12/5 356/12/5
f 358/12/5 354/12/5 349/12/5
f 359/12/5 354/12/5 358/12/5
f 360/12/5 353/12/5 357/12/5
f 361/12/5 353/12/5 360/12/5
f 362/9/5 359/9/5 358/9/5
f 363/9/5 359/9/5 362/9/5
f 364/9/5 361/9/5 360/9/5
f 365/9/5 361/9/5 364/9/5
f 366/1/5 363/1/5 362/1/5
f 367/1/5 363/1/5 366/1/5
f 368/1/5 365/1/5 364/1/5
f 369/1/5 365/1/5 368/1/5
f 370/9/5 367/9/5 366/9/5
f 371/9/5 367/9/5 370/9/5
f 372/9/5 369/9/5 368/9/5
f 373/9/5 369/9/5 372/9/5
f 374/12/5 371/12/5 370/12/5
f 375/12/5 371/12/5 374/12/5
f 376/12/5 373/12/5 372/12/5
f 377/12/5 373/12/5 376/12/5
f 380/7/5 379/7/5 378/7/5
f 381/7/5 379/7/5 380/7/5
f 386/7/5 383/7/5 382/7/5
f 387/7/5 383/7/5 386/7/5
f 388/7/5 385/7/5 384/7/5
f 389/7/5 385/7/5 388/7/5
f 394/7/5 391/7/5 390/7/5
f 395/7/5 391/7/5 394/7/5
f 396/7/5 393/7/5 392/7/5
f 397/7/5 393/7/5 396/7/5
f 402/7/5 399/7/5 398/7/5
f 403/7/5 399/7/5 402/7/5
f 404/7/5 401/7/5 400/7/5
f 405/7/5 401/7/5 404/7/5
f 406/1/6 407/1/6 410/1/6
f 410/1/6 407/1/6 411/1/6
f 408/1/6 409/1/6 412/1/6
f 412/1/6 409/1/6 413/1/6
f 414/1/6 415/1/6 418/1/6
f 418/1/6 415/1/6 419/1/6
f 416/1/6 417/1/6 420/1/6
f 420/1/6 417/1/6 421/1/6
f 422/1/6 423/1/6 426/1/6
f 426/1/6 423/1/6 427/1/6
f 424/1/6 425/1/6 428/1/6
f 428/1/6 425/1/6 429/1/6
f 430/1/6 431/1/6 432/1/6
f 432/1/6 431/1/6 433/1/6
f 434/12/6 435/12/6 436/12/6
f 436/12/6 435/12/6 437/12/6
