# MagicaVoxel @ Ephtracy

# group
o 

# material
mtllib VendingPep.mtl
usemtl palette

# normals
vn -1 0 0
vn 1 0 0
vn 0 0 1
vn 0 0 -1
vn 0 -1 0
vn 0 1 0

# texcoords
vt 0.146484 0.5
vt 0.208984 0.5
vt 0.583984 0.5
vt 0.634766 0.5
vt 0.650391 0.5
vt 0.751953 0.5
vt 0.775391 0.5
vt 0.958984 0.5
vt 0.966797 0.5
vt 0.974609 0.5
vt 0.978516 0.5
vt 0.990234 0.5

# verts
v -0.8 0.4 0.6
v -0.8 0.4 0.4
v -0.8 0.4 0.3
v -0.8 0.4 -0.5
v -0.8 0.4 -0.6
v -0.8 0.4 -0.7
v -0.8 1.9 0.1
v -0.8 1.9 -0.3
v -0.8 2 0.2
v -0.8 2 0.1
v -0.8 2 -0.2
v -0.8 2 -0.3
v -0.8 2 -0.4
v -0.8 2.1 0.3
v -0.8 2.1 0.2
v -0.8 2.1 0.1
v -0.8 2.1 -0.2
v -0.8 2.1 -0.4
v -0.8 2.1 -0.5
v -0.8 2.2 0.2
v -0.8 2.2 0.1
v -0.8 2.2 0
v -0.8 2.2 -0.2
v -0.8 2.2 -0.4
v -0.8 2.2 -0.5
v -0.8 2.3 0.1
v -0.8 2.3 0
v -0.8 2.4 0.3
v -0.8 2.4 0.2
v -0.8 2.4 0.1
v -0.8 2.5 0.3
v -0.8 2.5 0.2
v -0.8 2.5 -0.4
v -0.8 2.5 -0.5
v -0.8 2.6 0.2
v -0.8 2.6 0.1
v -0.8 2.6 -0.3
v -0.8 2.6 -0.4
v -0.8 2.7 0.1
v -0.8 2.7 -0.3
v -0.8 3.1 0.4
v -0.8 3.1 0.3
v -0.8 3.1 -0.5
v -0.8 3.1 -0.6
v -0.8 3.2 0.6
v -0.8 3.2 -0.7
v -0.7 0 0.5
v -0.7 0 -0.7
v -0.7 0.4 0.5
v -0.7 0.4 0.4
v -0.7 0.4 0.3
v -0.7 0.4 -0.5
v -0.7 0.4 -0.6
v -0.7 0.4 -0.7
v -0.6 2.1 0.7
v -0.6 2.1 0.6
v -0.6 2.2 0.7
v -0.6 2.2 0.6
v -0.6 2.3 0.7
v -0.6 2.3 0.6
v -0.6 2.6 0.7
v -0.6 2.6 0.6
v -0.5 1.9 0.7
v -0.5 1.9 0.6
v -0.5 2.1 0.7
v -0.5 2.1 0.6
v -0.5 2.6 0.7
v -0.5 2.6 0.6
v -0.5 2.7 0.7
v -0.5 2.7 0.6
v -0.4 2.7 0.7
v -0.4 2.7 0.6
v -0.4 2.8 0.7
v -0.4 2.8 0.6
v -0.3 1.8 0.7
v -0.3 1.8 0.6
v -0.3 1.9 0.7
v -0.3 1.9 0.6
v -0.3 2.8 0.7
v -0.3 2.8 0.6
v -0.3 2.9 0.7
v -0.3 2.9 0.6
v 0.2 1.8 0.7
v 0.2 1.8 0.6
v 0.2 1.9 0.7
v 0.2 1.9 0.6
v 0.2 2.8 0.7
v 0.2 2.8 0.6
v 0.2 2.9 0.7
v 0.2 2.9 0.6
v 0.3 2.7 0.7
v 0.3 2.7 0.6
v 0.3 2.8 0.7
v 0.3 2.8 0.6
v 0.4 1.9 0.7
v 0.4 1.9 0.6
v 0.4 2.1 0.7
v 0.4 2.1 0.6
v 0.4 2.6 0.7
v 0.4 2.6 0.6
v 0.4 2.7 0.7
v 0.4 2.7 0.6
v 0.5 2.1 0.7
v 0.5 2.1 0.6
v 0.5 2.4 0.7
v 0.5 2.4 0.6
v 0.5 2.5 0.6
v 0.5 2.6 0.7
v 0.5 2.6 0.6
v 0.7 0 0.5
v 0.7 0 -0.7
v 0.7 0.4 0.5
v 0.7 0.4 0.4
v 0.7 0.4 0.3
v 0.7 0.4 -0.5
v 0.7 0.4 -0.6
v 0.7 0.4 -0.7
v 0.8 0.4 0.6
v 0.8 0.4 0.4
v 0.8 0.4 0.3
v 0.8 0.4 -0.5
v 0.8 0.4 -0.6
v 0.8 0.4 -0.7
v 0.8 2 0.1
v 0.8 2 -0.3
v 0.8 2.1 0.2
v 0.8 2.1 0.1
v 0.8 2.1 0
v 0.8 2.1 -0.3
v 0.8 2.1 -0.4
v 0.8 2.2 0.3
v 0.8 2.2 0.2
v 0.8 2.2 0
v 0.8 2.2 -0.3
v 0.8 2.2 -0.4
v 0.8 2.2 -0.5
v 0.8 2.3 0.3
v 0.8 2.3 0.2
v 0.8 2.3 0
v 0.8 2.3 -0.2
v 0.8 2.3 -0.3
v 0.8 2.3 -0.4
v 0.8 2.4 -0.2
v 0.8 2.4 -0.3
v 0.8 2.5 -0.3
v 0.8 2.5 -0.4
v 0.8 2.5 -0.5
v 0.8 2.6 0.3
v 0.8 2.6 0.2
v 0.8 2.6 -0.4
v 0.8 2.6 -0.5
v 0.8 2.7 0.2
v 0.8 2.7 0.1
v 0.8 2.7 -0.3
v 0.8 2.7 -0.4
v 0.8 2.8 0.1
v 0.8 2.8 -0.3
v 0.8 3.1 0.4
v 0.8 3.1 0.3
v 0.8 3.1 -0.5
v 0.8 3.1 -0.6
v 0.8 3.2 0.6
v 0.8 3.2 -0.7
v -0.6 2.1 0.7
v -0.6 2.2 0.7
v -0.6 2.3 0.7
v -0.6 2.6 0.7
v -0.5 1.9 0.7
v -0.5 2.1 0.7
v -0.5 2.2 0.7
v -0.5 2.3 0.7
v -0.5 2.6 0.7
v -0.5 2.7 0.7
v -0.4 2.7 0.7
v -0.4 2.8 0.7
v -0.3 1.8 0.7
v -0.3 1.9 0.7
v -0.3 2.8 0.7
v -0.3 2.9 0.7
v -0.2 2.2 0.7
v -0.2 2.3 0.7
v -0.1 2.1 0.7
v -0.1 2.2 0.7
v 0 2.3 0.7
v 0 2.4 0.7
v 0.2 1.8 0.7
v 0.2 1.9 0.7
v 0.2 2.2 0.7
v 0.2 2.3 0.7
v 0.2 2.4 0.7
v 0.2 2.5 0.7
v 0.2 2.8 0.7
v 0.2 2.9 0.7
v 0.3 2.3 0.7
v 0.3 2.4 0.7
v 0.3 2.7 0.7
v 0.3 2.8 0.7
v 0.4 1.9 0.7
v 0.4 2.1 0.7
v 0.4 2.5 0.7
v 0.4 2.6 0.7
v 0.4 2.7 0.7
v 0.5 2.1 0.7
v 0.5 2.4 0.7
v 0.5 2.6 0.7
v -0.8 0.4 0.6
v -0.8 3.2 0.6
v -0.7 0.4 0.6
v -0.7 3.1 0.6
v -0.6 0.4 0.6
v -0.6 2.1 0.6
v -0.6 2.2 0.6
v -0.6 2.3 0.6
v -0.6 2.6 0.6
v -0.6 3.1 0.6
v -0.5 1.9 0.6
v -0.5 2.1 0.6
v -0.5 2.6 0.6
v -0.5 2.7 0.6
v -0.4 2.7 0.6
v -0.4 2.8 0.6
v -0.3 1.8 0.6
v -0.3 1.9 0.6
v -0.3 2.8 0.6
v -0.3 2.9 0.6
v 0.2 1.8 0.6
v 0.2 1.9 0.6
v 0.2 2.8 0.6
v 0.2 2.9 0.6
v 0.3 2.7 0.6
v 0.3 2.8 0.6
v 0.4 1.9 0.6
v 0.4 2.1 0.6
v 0.4 2.6 0.6
v 0.4 2.7 0.6
v 0.5 0.4 0.6
v 0.5 0.7 0.6
v 0.5 0.9 0.6
v 0.5 2.1 0.6
v 0.5 2.4 0.6
v 0.5 2.5 0.6
v 0.5 2.6 0.6
v 0.5 3.1 0.6
v 0.6 1.1 0.6
v 0.6 1.2 0.6
v 0.6 1.6 0.6
v 0.6 1.7 0.6
v 0.6 1.8 0.6
v 0.6 1.9 0.6
v 0.6 2 0.6
v 0.6 2.1 0.6
v 0.6 2.2 0.6
v 0.6 2.3 0.6
v 0.6 2.5 0.6
v 0.6 2.6 0.6
v 0.7 0.7 0.6
v 0.7 0.9 0.6
v 0.7 1.1 0.6
v 0.7 1.2 0.6
v 0.7 1.6 0.6
v 0.7 1.7 0.6
v 0.7 1.8 0.6
v 0.7 1.9 0.6
v 0.7 2 0.6
v 0.7 2.1 0.6
v 0.7 2.2 0.6
v 0.7 2.3 0.6
v 0.7 2.5 0.6
v 0.7 2.6 0.6
v 0.8 0.4 0.6
v 0.8 3.2 0.6
v -0.7 0 0.5
v -0.7 0.4 0.5
v -0.6 0.4 0.5
v 0.5 0.4 0.5
v 0.7 0 0.5
v 0.7 0.4 0.5
v -0.8 0.4 -0.7
v -0.8 3.2 -0.7
v -0.7 0 -0.7
v -0.7 0.4 -0.7
v -0.7 3.1 -0.7
v -0.6 0.4 -0.7
v -0.6 2.1 -0.7
v -0.6 2.3 -0.7
v -0.6 2.4 -0.7
v -0.6 2.7 -0.7
v -0.6 3.1 -0.7
v -0.5 2 -0.7
v -0.5 2.1 -0.7
v -0.5 2.7 -0.7
v -0.5 2.8 -0.7
v -0.4 1.9 -0.7
v -0.4 2 -0.7
v -0.4 2.4 -0.7
v -0.4 2.5 -0.7
v -0.4 2.8 -0.7
v -0.4 2.9 -0.7
v -0.3 1.8 -0.7
v -0.3 1.9 -0.7
v -0.3 2.3 -0.7
v -0.3 2.4 -0.7
v -0.3 2.9 -0.7
v -0.3 3 -0.7
v 0 2.3 -0.7
v 0 2.4 -0.7
v 0.1 2.4 -0.7
v 0.1 2.5 -0.7
v 0.3 1.8 -0.7
v 0.3 1.9 -0.7
v 0.3 2.2 -0.7
v 0.3 2.3 -0.7
v 0.3 2.9 -0.7
v 0.3 3 -0.7
v 0.4 1.9 -0.7
v 0.4 2 -0.7
v 0.4 2.3 -0.7
v 0.4 2.4 -0.7
v 0.4 2.8 -0.7
v 0.4 2.9 -0.7
v 0.5 2 -0.7
v 0.5 2.1 -0.7
v 0.5 2.7 -0.7
v 0.5 2.8 -0.7
v 0.6 0.4 -0.7
v 0.6 2.1 -0.7
v 0.6 2.2 -0.7
v 0.6 2.3 -0.7
v 0.6 2.7 -0.7
v 0.6 3.1 -0.7
v 0.7 0 -0.7
v 0.7 0.4 -0.7
v 0.7 3.1 -0.7
v 0.8 0.4 -0.7
v 0.8 3.2 -0.7
v -0.7 0 0.5
v 0.7 0 0.5
v -0.7 0 -0.7
v 0.7 0 -0.7
v -0.8 0.4 0.6
v -0.7 0.4 0.6
v -0.6 0.4 0.6
v 0.5 0.4 0.6
v 0.8 0.4 0.6
v -0.7 0.4 0.5
v -0.6 0.4 0.5
v 0.5 0.4 0.5
v 0.7 0.4 0.5
v -0.8 0.4 0.4
v -0.7 0.4 0.4
v 0.7 0.4 0.4
v 0.8 0.4 0.4
v -0.8 0.4 0.3
v -0.7 0.4 0.3
v 0.7 0.4 0.3
v 0.8 0.4 0.3
v -0.8 0.4 -0.5
v -0.7 0.4 -0.5
v 0.7 0.4 -0.5
v 0.8 0.4 -0.5
v -0.8 0.4 -0.6
v -0.7 0.4 -0.6
v 0.7 0.4 -0.6
v 0.8 0.4 -0.6
v -0.8 0.4 -0.7
v -0.7 0.4 -0.7
v 0.7 0.4 -0.7
v 0.8 0.4 -0.7
v -0.3 1.8 0.7
v 0.2 1.8 0.7
v -0.3 1.8 0.6
v 0.2 1.8 0.6
v -0.5 1.9 0.7
v -0.3 1.9 0.7
v 0.2 1.9 0.7
v 0.4 1.9 0.7
v -0.5 1.9 0.6
v -0.3 1.9 0.6
v 0.2 1.9 0.6
v 0.4 1.9 0.6
v -0.6 2.1 0.7
v -0.5 2.1 0.7
v 0.4 2.1 0.7
v 0.5 2.1 0.7
v -0.6 2.1 0.6
v -0.5 2.1 0.6
v 0.4 2.1 0.6
v 0.5 2.1 0.6
v -0.6 2.6 0.7
v -0.5 2.6 0.7
v 0.4 2.6 0.7
v 0.5 2.6 0.7
v -0.6 2.6 0.6
v -0.5 2.6 0.6
v 0.4 2.6 0.6
v 0.5 2.6 0.6
v -0.5 2.7 0.7
v -0.4 2.7 0.7
v 0.3 2.7 0.7
v 0.4 2.7 0.7
v -0.5 2.7 0.6
v -0.4 2.7 0.6
v 0.3 2.7 0.6
v 0.4 2.7 0.6
v -0.4 2.8 0.7
v -0.3 2.8 0.7
v 0.2 2.8 0.7
v 0.3 2.8 0.7
v -0.4 2.8 0.6
v -0.3 2.8 0.6
v 0.2 2.8 0.6
v 0.3 2.8 0.6
v -0.3 2.9 0.7
v 0.2 2.9 0.7
v -0.3 2.9 0.6
v 0.2 2.9 0.6
v -0.8 3.2 0.6
v 0.8 3.2 0.6
v -0.6 3.2 0.4
v -0.2 3.2 0.4
v 0.2 3.2 0.4
v 0.6 3.2 0.4
v -0.4 3.2 0.3
v -0.2 3.2 0.3
v 0.2 3.2 0.3
v 0.4 3.2 0.3
v -0.5 3.2 0.1
v -0.4 3.2 0.1
v -0.1 3.2 0.1
v 0.4 3.2 0.1
v 0.5 3.2 0.1
v -0.5 3.2 0
v -0.4 3.2 0
v -0.1 3.2 0
v 0.2 3.2 0
v -0.6 3.2 -0.1
v -0.5 3.2 -0.1
v -0.4 3.2 -0.1
v -0.1 3.2 -0.1
v 0.1 3.2 -0.1
v 0.2 3.2 -0.1
v 0.4 3.2 -0.1
v 0.5 3.2 -0.1
v 0.6 3.2 -0.1
v 0.1 3.2 -0.2
v 0.3 3.2 -0.2
v 0.4 3.2 -0.2
v 0.5 3.2 -0.2
v -0.5 3.2 -0.3
v -0.4 3.2 -0.3
v 0.3 3.2 -0.3
v 0.4 3.2 -0.3
v 0.5 3.2 -0.3
v -0.4 3.2 -0.5
v -0.2 3.2 -0.5
v 0.2 3.2 -0.5
v 0.4 3.2 -0.5
v -0.6 3.2 -0.6
v -0.2 3.2 -0.6
v 0.2 3.2 -0.6
v 0.6 3.2 -0.6
v -0.8 3.2 -0.7
v 0.8 3.2 -0.7

# faces
f 7/1/1 4/1/1 3/1/1
f 8/1/1 4/1/1 7/1/1
f 9/1/1 7/1/1 3/1/1
f 10/7/1 8/7/1 7/7/1
f 10/1/1 7/1/1 9/1/1
f 11/7/1 8/7/1 10/7/1
f 12/1/1 4/1/1 8/1/1
f 12/7/1 8/7/1 11/7/1
f 13/1/1 4/1/1 12/1/1
f 14/9/1 3/9/1 2/9/1
f 14/1/1 9/1/1 3/1/1
f 15/7/1 11/7/1 10/7/1
f 15/1/1 9/1/1 14/1/1
f 15/7/1 10/7/1 9/7/1
f 16/7/1 11/7/1 15/7/1
f 17/8/1 13/8/1 12/8/1
f 17/7/1 11/7/1 16/7/1
f 17/8/1 12/8/1 11/8/1
f 18/1/1 4/1/1 13/1/1
f 18/8/1 13/8/1 17/8/1
f 19/9/1 5/9/1 4/9/1
f 19/1/1 4/1/1 18/1/1
f 20/7/1 16/7/1 15/7/1
f 20/7/1 15/7/1 14/7/1
f 21/8/1 17/8/1 16/8/1
f 21/7/1 16/7/1 20/7/1
f 22/8/1 17/8/1 21/8/1
f 23/1/1 18/1/1 17/1/1
f 23/8/1 17/8/1 22/8/1
f 24/8/1 19/8/1 18/8/1
f 24/1/1 18/1/1 23/1/1
f 25/9/1 5/9/1 19/9/1
f 25/8/1 19/8/1 24/8/1
f 26/8/1 22/8/1 21/8/1
f 26/8/1 21/8/1 20/8/1
f 27/1/1 24/1/1 23/1/1
f 27/8/1 22/8/1 26/8/1
f 27/1/1 23/1/1 22/1/1
f 27/1/1 25/1/1 24/1/1
f 28/7/1 20/7/1 14/7/1
f 28/9/1 14/9/1 2/9/1
f 29/8/1 26/8/1 20/8/1
f 29/7/1 20/7/1 28/7/1
f 30/1/1 27/1/1 26/1/1
f 30/8/1 26/8/1 29/8/1
f 31/8/1 29/8/1 28/8/1
f 31/9/1 28/9/1 2/9/1
f 32/1/1 30/1/1 29/1/1
f 32/8/1 29/8/1 31/8/1
f 33/1/1 25/1/1 27/1/1
f 33/1/1 30/1/1 32/1/1
f 33/1/1 27/1/1 30/1/1
f 34/9/1 5/9/1 25/9/1
f 34/1/1 25/1/1 33/1/1
f 35/6/1 32/6/1 31/6/1
f 35/1/1 33/1/1 32/1/1
f 36/1/1 33/1/1 35/1/1
f 37/1/1 33/1/1 36/1/1
f 38/6/1 34/6/1 33/6/1
f 38/1/1 33/1/1 37/1/1
f 39/1/1 37/1/1 36/1/1
f 39/6/1 36/6/1 35/6/1
f 40/6/1 38/6/1 37/6/1
f 40/1/1 37/1/1 39/1/1
f 41/12/1 2/12/1 1/12/1
f 41/9/1 31/9/1 2/9/1
f 42/6/1 40/6/1 39/6/1
f 42/9/1 31/9/1 41/9/1
f 42/6/1 35/6/1 31/6/1
f 42/6/1 39/6/1 35/6/1
f 43/6/1 38/6/1 40/6/1
f 43/6/1 40/6/1 42/6/1
f 43/9/1 5/9/1 34/9/1
f 43/6/1 34/6/1 38/6/1
f 44/12/1 6/12/1 5/12/1
f 44/9/1 5/9/1 43/9/1
f 45/12/1 42/12/1 41/12/1
f 45/12/1 41/12/1 1/12/1
f 45/12/1 44/12/1 43/12/1
f 45/12/1 43/12/1 42/12/1
f 46/12/1 6/12/1 44/12/1
f 46/12/1 44/12/1 45/12/1
f 49/12/1 48/12/1 47/12/1
f 50/12/1 48/12/1 49/12/1
f 51/12/1 48/12/1 50/12/1
f 52/12/1 48/12/1 51/12/1
f 53/12/1 48/12/1 52/12/1
f 54/12/1 48/12/1 53/12/1
f 57/7/1 56/7/1 55/7/1
f 58/7/1 56/7/1 57/7/1
f 59/8/1 58/8/1 57/8/1
f 60/8/1 58/8/1 59/8/1
f 61/1/1 60/1/1 59/1/1
f 62/1/1 60/1/1 61/1/1
f 65/7/1 64/7/1 63/7/1
f 66/7/1 64/7/1 65/7/1
f 69/1/1 68/1/1 67/1/1
f 70/1/1 68/1/1 69/1/1
f 73/1/1 72/1/1 71/1/1
f 74/1/1 72/1/1 73/1/1
f 77/7/1 76/7/1 75/7/1
f 78/7/1 76/7/1 77/7/1
f 81/1/1 80/1/1 79/1/1
f 82/1/1 80/1/1 81/1/1
f 83/7/2 84/7/2 85/7/2
f 85/7/2 84/7/2 86/7/2
f 87/1/2 88/1/2 89/1/2
f 89/1/2 88/1/2 90/1/2
f 91/1/2 92/1/2 93/1/2
f 93/1/2 92/1/2 94/1/2
f 95/7/2 96/7/2 97/7/2
f 97/7/2 96/7/2 98/7/2
f 99/1/2 100/1/2 101/1/2
f 101/1/2 100/1/2 102/1/2
f 103/7/2 104/7/2 105/7/2
f 105/7/2 104/7/2 106/7/2
f 105/8/2 106/8/2 107/8/2
f 105/8/2 107/8/2 108/8/2
f 108/8/2 107/8/2 109/8/2
f 110/12/2 111/12/2 112/12/2
f 112/12/2 111/12/2 113/12/2
f 113/12/2 111/12/2 114/12/2
f 114/12/2 111/12/2 115/12/2
f 115/12/2 111/12/2 116/12/2
f 116/12/2 111/12/2 117/12/2
f 120/1/2 121/1/2 124/1/2
f 124/1/2 121/1/2 125/1/2
f 120/1/2 124/1/2 126/1/2
f 124/7/2 125/7/2 127/7/2
f 126/1/2 124/1/2 127/1/2
f 127/7/2 125/7/2 128/7/2
f 125/1/2 121/1/2 129/1/2
f 128/7/2 125/7/2 129/7/2
f 129/1/2 121/1/2 130/1/2
f 119/9/2 120/9/2 131/9/2
f 120/1/2 126/1/2 131/1/2
f 127/8/2 128/8/2 132/8/2
f 131/1/2 126/1/2 132/1/2
f 126/8/2 127/8/2 132/8/2
f 129/7/2 130/7/2 133/7/2
f 132/8/2 128/8/2 133/8/2
f 128/7/2 129/7/2 133/7/2
f 133/7/2 130/7/2 134/7/2
f 130/1/2 121/1/2 135/1/2
f 134/7/2 130/7/2 135/7/2
f 121/9/2 122/9/2 136/9/2
f 135/1/2 121/1/2 136/1/2
f 119/9/2 131/9/2 137/9/2
f 131/8/2 132/8/2 137/8/2
f 132/1/2 133/1/2 138/1/2
f 137/8/2 132/8/2 138/8/2
f 133/8/2 134/8/2 139/8/2
f 138/1/2 133/1/2 139/1/2
f 139/8/2 134/8/2 140/8/2
f 134/7/2 135/7/2 141/7/2
f 140/8/2 134/8/2 141/8/2
f 135/7/2 136/7/2 141/7/2
f 141/7/2 136/7/2 142/7/2
f 137/1/2 138/1/2 143/1/2
f 139/1/2 140/1/2 143/1/2
f 141/8/2 142/8/2 143/8/2
f 140/8/2 141/8/2 143/8/2
f 138/1/2 139/1/2 143/1/2
f 143/8/2 142/8/2 144/8/2
f 143/1/2 144/1/2 145/1/2
f 144/8/2 142/8/2 145/8/2
f 142/7/2 136/7/2 146/7/2
f 145/8/2 142/8/2 146/8/2
f 136/9/2 122/9/2 147/9/2
f 146/7/2 136/7/2 147/7/2
f 143/1/2 145/1/2 148/1/2
f 119/9/2 137/9/2 148/9/2
f 145/1/2 146/1/2 148/1/2
f 137/1/2 143/1/2 148/1/2
f 148/1/2 146/1/2 149/1/2
f 146/8/2 147/8/2 150/8/2
f 149/1/2 146/1/2 150/1/2
f 147/9/2 122/9/2 151/9/2
f 150/8/2 147/8/2 151/8/2
f 149/1/2 150/1/2 152/1/2
f 148/6/2 149/6/2 152/6/2
f 152/1/2 150/1/2 153/1/2
f 153/1/2 150/1/2 154/1/2
f 150/6/2 151/6/2 155/6/2
f 154/1/2 150/1/2 155/1/2
f 153/1/2 154/1/2 156/1/2
f 152/6/2 153/6/2 156/6/2
f 154/6/2 155/6/2 157/6/2
f 156/1/2 154/1/2 157/1/2
f 118/12/2 119/12/2 158/12/2
f 119/9/2 148/9/2 158/9/2
f 156/6/2 157/6/2 159/6/2
f 158/9/2 148/9/2 159/9/2
f 148/6/2 152/6/2 159/6/2
f 152/6/2 156/6/2 159/6/2
f 157/6/2 155/6/2 160/6/2
f 159/6/2 157/6/2 160/6/2
f 151/9/2 122/9/2 160/9/2
f 155/6/2 151/6/2 160/6/2
f 122/12/2 123/12/2 161/12/2
f 160/9/2 122/9/2 161/9/2
f 158/12/2 159/12/2 162/12/2
f 118/12/2 158/12/2 162/12/2
f 160/12/2 161/12/2 162/12/2
f 159/12/2 160/12/2 162/12/2
f 161/12/2 123/12/2 163/12/2
f 162/12/2 161/12/2 163/12/2
f 169/7/3 165/7/3 164/7/3
f 170/8/3 166/8/3 165/8/3
f 170/7/3 165/7/3 169/7/3
f 171/1/3 167/1/3 166/1/3
f 171/8/3 166/8/3 170/8/3
f 172/1/3 167/1/3 171/1/3
f 174/1/3 171/1/3 170/1/3
f 174/1/3 173/1/3 172/1/3
f 174/1/3 172/1/3 171/1/3
f 177/7/3 169/7/3 168/7/3
f 178/1/3 175/1/3 174/1/3
f 180/8/3 170/8/3 169/8/3
f 180/1/3 179/1/3 178/1/3
f 180/1/3 178/1/3 174/1/3
f 180/1/3 174/1/3 170/1/3
f 181/1/3 179/1/3 180/1/3
f 182/7/3 169/7/3 177/7/3
f 182/7/3 177/7/3 176/7/3
f 182/8/3 181/8/3 180/8/3
f 182/8/3 180/8/3 169/8/3
f 183/8/3 181/8/3 182/8/3
f 184/1/3 179/1/3 181/1/3
f 184/8/3 181/8/3 183/8/3
f 185/1/3 179/1/3 184/1/3
f 186/7/3 183/7/3 182/7/3
f 186/7/3 182/7/3 176/7/3
f 187/7/3 183/7/3 186/7/3
f 188/8/3 185/8/3 184/8/3
f 188/7/3 183/7/3 187/7/3
f 188/8/3 184/8/3 183/8/3
f 189/8/3 185/8/3 188/8/3
f 190/1/3 179/1/3 185/1/3
f 190/8/3 185/8/3 189/8/3
f 191/1/3 179/1/3 190/1/3
f 192/1/3 179/1/3 191/1/3
f 193/1/3 179/1/3 192/1/3
f 194/7/3 189/7/3 188/7/3
f 194/7/3 188/7/3 187/7/3
f 194/8/3 191/8/3 190/8/3
f 194/8/3 190/8/3 189/8/3
f 195/8/3 191/8/3 194/8/3
f 196/1/3 192/1/3 191/1/3
f 197/1/3 192/1/3 196/1/3
f 198/7/3 194/7/3 187/7/3
f 198/7/3 195/7/3 194/7/3
f 199/7/3 195/7/3 198/7/3
f 200/8/3 191/8/3 195/8/3
f 200/1/3 196/1/3 191/1/3
f 201/1/3 196/1/3 200/1/3
f 202/1/3 196/1/3 201/1/3
f 203/7/3 195/7/3 199/7/3
f 204/8/3 201/8/3 200/8/3
f 204/7/3 195/7/3 203/7/3
f 204/8/3 200/8/3 195/8/3
f 205/8/3 201/8/3 204/8/3
f 208/12/3 207/12/3 206/12/3
f 209/12/3 207/12/3 208/12/3
f 210/9/3 209/9/3 208/9/3
f 211/9/3 209/9/3 210/9/3
f 212/9/3 209/9/3 211/9/3
f 213/9/3 209/9/3 212/9/3
f 214/9/3 209/9/3 213/9/3
f 215/12/3 207/12/3 209/12/3
f 215/9/3 209/9/3 214/9/3
f 216/1/3 211/1/3 210/1/3
f 217/1/3 211/1/3 216/1/3
f 218/6/3 215/6/3 214/6/3
f 219/6/3 215/6/3 218/6/3
f 220/6/3 215/6/3 219/6/3
f 221/6/3 215/6/3 220/6/3
f 222/1/3 216/1/3 210/1/3
f 223/1/3 216/1/3 222/1/3
f 224/6/3 215/6/3 221/6/3
f 225/6/3 215/6/3 224/6/3
f 226/1/3 222/1/3 210/1/3
f 229/6/3 215/6/3 225/6/3
f 231/6/3 229/6/3 228/6/3
f 232/1/3 227/1/3 226/1/3
f 235/6/3 231/6/3 230/6/3
f 236/1/3 233/1/3 232/1/3
f 236/1/3 226/1/3 210/1/3
f 236/1/3 232/1/3 226/1/3
f 237/1/3 233/1/3 236/1/3
f 238/1/3 233/1/3 237/1/3
f 239/1/3 233/1/3 238/1/3
f 242/6/3 235/6/3 234/6/3
f 243/12/3 207/12/3 215/12/3
f 243/6/3 231/6/3 235/6/3
f 243/6/3 235/6/3 242/6/3
f 243/6/3 215/6/3 229/6/3
f 243/6/3 229/6/3 231/6/3
f 244/12/3 241/12/3 240/12/3
f 244/12/3 240/12/3 239/12/3
f 244/12/3 239/12/3 238/12/3
f 245/12/3 241/12/3 244/12/3
f 246/12/3 241/12/3 245/12/3
f 247/12/3 241/12/3 246/12/3
f 248/12/3 241/12/3 247/12/3
f 249/12/3 241/12/3 248/12/3
f 250/12/3 241/12/3 249/12/3
f 251/12/3 241/12/3 250/12/3
f 252/12/3 241/12/3 251/12/3
f 253/12/3 241/12/3 252/12/3
f 254/5/3 242/5/3 241/5/3
f 254/12/3 241/12/3 253/12/3
f 255/12/3 243/12/3 242/12/3
f 255/5/3 242/5/3 254/5/3
f 256/11/3 238/11/3 237/11/3
f 256/12/3 237/12/3 236/12/3
f 257/12/3 244/12/3 238/12/3
f 257/11/3 238/11/3 256/11/3
f 258/11/3 245/11/3 244/11/3
f 258/12/3 244/12/3 257/12/3
f 259/12/3 246/12/3 245/12/3
f 259/11/3 245/11/3 258/11/3
f 260/2/3 247/2/3 246/2/3
f 260/12/3 246/12/3 259/12/3
f 261/12/3 248/12/3 247/12/3
f 261/2/3 247/2/3 260/2/3
f 262/3/3 249/3/3 248/3/3
f 262/12/3 248/12/3 261/12/3
f 263/12/3 250/12/3 249/12/3
f 263/3/3 249/3/3 262/3/3
f 264/10/3 251/10/3 250/10/3
f 264/12/3 250/12/3 263/12/3
f 265/12/3 252/12/3 251/12/3
f 265/10/3 251/10/3 264/10/3
f 266/7/3 253/7/3 252/7/3
f 266/12/3 252/12/3 265/12/3
f 267/12/3 254/12/3 253/12/3
f 267/7/3 253/7/3 266/7/3
f 268/4/3 255/4/3 254/4/3
f 268/12/3 254/12/3 267/12/3
f 269/12/3 243/12/3 255/12/3
f 269/4/3 255/4/3 268/4/3
f 270/12/3 265/12/3 264/12/3
f 270/12/3 266/12/3 265/12/3
f 270/12/3 269/12/3 268/12/3
f 270/12/3 264/12/3 263/12/3
f 270/12/3 263/12/3 262/12/3
f 270/12/3 262/12/3 261/12/3
f 270/12/3 261/12/3 260/12/3
f 270/12/3 260/12/3 259/12/3
f 270/12/3 259/12/3 258/12/3
f 270/12/3 258/12/3 257/12/3
f 270/12/3 257/12/3 256/12/3
f 270/12/3 256/12/3 236/12/3
f 270/12/3 267/12/3 266/12/3
f 270/12/3 268/12/3 267/12/3
f 271/12/3 243/12/3 269/12/3
f 271/12/3 269/12/3 270/12/3
f 271/12/3 207/12/3 243/12/3
f 274/12/3 273/12/3 272/12/3
f 275/12/3 274/12/3 272/12/3
f 276/12/3 275/12/3 272/12/3
f 277/12/3 275/12/3 276/12/3
f 278/12/4 279/12/4 281/12/4
f 281/12/4 279/12/4 282/12/4
f 280/12/4 281/12/4 283/12/4
f 281/9/4 282/9/4 283/9/4
f 283/9/4 282/9/4 284/9/4
f 284/9/4 282/9/4 285/9/4
f 285/9/4 282/9/4 286/9/4
f 286/9/4 282/9/4 287/9/4
f 282/12/4 279/12/4 288/12/4
f 287/9/4 282/9/4 288/9/4
f 283/1/4 284/1/4 289/1/4
f 284/7/4 285/7/4 290/7/4
f 289/1/4 284/1/4 290/1/4
f 286/1/4 287/1/4 291/1/4
f 287/6/4 288/6/4 291/6/4
f 291/6/4 288/6/4 292/6/4
f 283/1/4 289/1/4 293/1/4
f 289/7/4 290/7/4 294/7/4
f 293/1/4 289/1/4 294/1/4
f 285/8/4 286/8/4 295/8/4
f 286/1/4 291/1/4 295/1/4
f 291/1/4 292/1/4 295/1/4
f 295/1/4 292/1/4 296/1/4
f 292/6/4 288/6/4 297/6/4
f 296/1/4 292/1/4 297/1/4
f 297/6/4 288/6/4 298/6/4
f 283/1/4 293/1/4 299/1/4
f 293/7/4 294/7/4 300/7/4
f 299/1/4 293/1/4 300/1/4
f 290/7/4 285/7/4 301/7/4
f 300/7/4 294/7/4 301/7/4
f 295/8/4 296/8/4 301/8/4
f 294/7/4 290/7/4 301/7/4
f 285/8/4 295/8/4 301/8/4
f 301/8/4 296/8/4 302/8/4
f 297/1/4 298/1/4 303/1/4
f 296/1/4 297/1/4 303/1/4
f 298/6/4 288/6/4 303/6/4
f 303/6/4 288/6/4 304/6/4
f 299/7/4 300/7/4 305/7/4
f 301/7/4 302/7/4 305/7/4
f 300/7/4 301/7/4 305/7/4
f 302/8/4 296/8/4 306/8/4
f 305/7/4 302/7/4 306/7/4
f 305/8/4 306/8/4 307/8/4
f 306/8/4 296/8/4 307/8/4
f 303/1/4 304/1/4 308/1/4
f 307/8/4 296/8/4 308/8/4
f 296/1/4 303/1/4 308/1/4
f 299/7/4 305/7/4 309/7/4
f 283/1/4 299/1/4 309/1/4
f 309/7/4 305/7/4 310/7/4
f 310/7/4 305/7/4 311/7/4
f 305/8/4 307/8/4 312/8/4
f 311/7/4 305/7/4 312/7/4
f 308/1/4 304/1/4 313/1/4
f 307/1/4 308/1/4 313/1/4
f 304/6/4 288/6/4 314/6/4
f 313/1/4 304/1/4 314/1/4
f 310/7/4 311/7/4 315/7/4
f 309/1/4 310/1/4 315/1/4
f 315/7/4 311/7/4 316/7/4
f 312/8/4 307/8/4 317/8/4
f 311/8/4 312/8/4 317/8/4
f 307/1/4 313/1/4 318/1/4
f 317/8/4 307/8/4 318/8/4
f 318/1/4 313/1/4 319/1/4
f 313/6/4 314/6/4 320/6/4
f 319/1/4 313/1/4 320/1/4
f 316/7/4 311/7/4 321/7/4
f 315/1/4 316/1/4 321/1/4
f 321/7/4 311/7/4 322/7/4
f 318/1/4 319/1/4 323/1/4
f 317/1/4 318/1/4 323/1/4
f 319/6/4 320/6/4 324/6/4
f 323/1/4 319/1/4 324/1/4
f 280/12/4 283/12/4 325/12/4
f 283/1/4 309/1/4 325/1/4
f 309/1/4 315/1/4 325/1/4
f 315/1/4 321/1/4 325/1/4
f 321/1/4 322/1/4 325/1/4
f 322/7/4 311/7/4 326/7/4
f 325/1/4 322/1/4 326/1/4
f 311/8/4 317/8/4 327/8/4
f 326/7/4 311/7/4 327/7/4
f 317/1/4 323/1/4 328/1/4
f 327/8/4 317/8/4 328/8/4
f 323/6/4 324/6/4 329/6/4
f 328/1/4 323/1/4 329/1/4
f 324/6/4 320/6/4 330/6/4
f 329/6/4 324/6/4 330/6/4
f 288/12/4 279/12/4 330/12/4
f 320/6/4 314/6/4 330/6/4
f 314/6/4 288/6/4 330/6/4
f 280/12/4 325/12/4 331/12/4
f 325/9/4 326/9/4 332/9/4
f 331/12/4 325/12/4 332/12/4
f 328/9/4 329/9/4 332/9/4
f 329/9/4 330/9/4 332/9/4
f 326/9/4 327/9/4 332/9/4
f 327/9/4 328/9/4 332/9/4
f 330/12/4 279/12/4 333/12/4
f 332/9/4 330/9/4 333/9/4
f 332/12/4 333/12/4 334/12/4
f 333/12/4 279/12/4 335/12/4
f 334/12/4 333/12/4 335/12/4
f 338/12/5 337/12/5 336/12/5
f 339/12/5 337/12/5 338/12/5
f 345/12/5 341/12/5 340/12/5
f 345/9/5 342/9/5 341/9/5
f 346/1/5 343/1/5 342/1/5
f 346/9/5 342/9/5 345/9/5
f 347/12/5 344/12/5 343/12/5
f 347/1/5 343/1/5 346/1/5
f 348/12/5 344/12/5 347/12/5
f 349/12/5 345/12/5 340/12/5
f 350/12/5 345/12/5 349/12/5
f 351/12/5 344/12/5 348/12/5
f 352/12/5 344/12/5 351/12/5
f 353/9/5 350/9/5 349/9/5
f 354/9/5 350/9/5 353/9/5
f 355/9/5 352/9/5 351/9/5
f 356/9/5 352/9/5 355/9/5
f 357/1/5 354/1/5 353/1/5
f 358/1/5 354/1/5 357/1/5
f 359/1/5 356/1/5 355/1/5
f 360/1/5 356/1/5 359/1/5
f 361/9/5 358/9/5 357/9/5
f 362/9/5 358/9/5 361/9/5
f 363/9/5 360/9/5 359/9/5
f 364/9/5 360/9/5 363/9/5
f 365/12/5 362/12/5 361/12/5
f 366/12/5 362/12/5 365/12/5
f 367/12/5 364/12/5 363/12/5
f 368/12/5 364/12/5 367/12/5
f 371/7/5 370/7/5 369/7/5
f 372/7/5 370/7/5 371/7/5
f 377/7/5 374/7/5 373/7/5
f 378/7/5 374/7/5 377/7/5
f 379/7/5 376/7/5 375/7/5
f 380/7/5 376/7/5 379/7/5
f 385/7/5 382/7/5 381/7/5
f 386/7/5 382/7/5 385/7/5
f 387/7/5 384/7/5 383/7/5
f 388/7/5 384/7/5 387/7/5
f 389/1/6 390/1/6 393/1/6
f 393/1/6 390/1/6 394/1/6
f 391/8/6 392/8/6 395/8/6
f 395/8/6 392/8/6 396/8/6
f 397/1/6 398/1/6 401/1/6
f 401/1/6 398/1/6 402/1/6
f 399/1/6 400/1/6 403/1/6
f 403/1/6 400/1/6 404/1/6
f 405/1/6 406/1/6 409/1/6
f 409/1/6 406/1/6 410/1/6
f 407/1/6 408/1/6 411/1/6
f 411/1/6 408/1/6 412/1/6
f 413/1/6 414/1/6 415/1/6
f 415/1/6 414/1/6 416/1/6
f 417/12/6 418/12/6 419/12/6
f 419/12/6 418/12/6 420/12/6
f 420/12/6 418/12/6 421/12/6
f 421/12/6 418/12/6 422/12/6
f 419/1/6 420/1/6 423/1/6
f 420/7/6 421/7/6 424/7/6
f 423/1/6 420/1/6 424/1/6
f 421/1/6 422/1/6 425/1/6
f 424/7/6 421/7/6 425/7/6
f 425/1/6 422/1/6 426/1/6
f 419/1/6 423/1/6 427/1/6
f 423/7/6 424/7/6 428/7/6
f 427/1/6 423/1/6 428/1/6
f 424/7/6 425/7/6 428/7/6
f 425/7/6 426/7/6 428/7/6
f 428/7/6 426/7/6 429/7/6
f 426/1/6 422/1/6 430/1/6
f 429/7/6 426/7/6 430/7/6
f 430/1/6 422/1/6 431/1/6
f 419/1/6 427/1/6 432/1/6
f 427/7/6 428/7/6 432/7/6
f 428/8/6 429/8/6 433/8/6
f 432/7/6 428/7/6 433/7/6
f 430/7/6 431/7/6 434/7/6
f 433/8/6 429/8/6 434/8/6
f 429/7/6 430/7/6 434/7/6
f 434/7/6 431/7/6 435/7/6
f 417/12/6 419/12/6 436/12/6
f 419/1/6 432/1/6 436/1/6
f 432/8/6 433/8/6 437/8/6
f 436/1/6 432/1/6 437/1/6
f 433/1/6 434/1/6 438/1/6
f 437/8/6 433/8/6 438/8/6
f 434/8/6 435/8/6 439/8/6
f 438/1/6 434/1/6 439/1/6
f 439/8/6 435/8/6 440/8/6
f 435/7/6 431/7/6 441/7/6
f 440/8/6 435/8/6 441/8/6
f 441/7/6 431/7/6 442/7/6
f 431/1/6 422/1/6 443/1/6
f 442/7/6 431/7/6 443/7/6
f 422/12/6 418/12/6 444/12/6
f 443/1/6 422/1/6 444/1/6
f 439/1/6 440/1/6 445/1/6
f 437/1/6 438/1/6 445/1/6
f 441/8/6 442/8/6 445/8/6
f 440/8/6 441/8/6 445/8/6
f 438/1/6 439/1/6 445/1/6
f 445/8/6 442/8/6 446/8/6
f 442/7/6 443/7/6 447/7/6
f 446/8/6 442/8/6 447/8/6
f 443/6/6 444/6/6 448/6/6
f 447/7/6 443/7/6 448/7/6
f 445/1/6 446/1/6 449/1/6
f 436/6/6 437/6/6 449/6/6
f 437/1/6 445/1/6 449/1/6
f 449/1/6 446/1/6 450/1/6
f 446/8/6 447/8/6 451/8/6
f 450/1/6 446/1/6 451/1/6
f 447/8/6 448/8/6 451/8/6
f 451/8/6 448/8/6 452/8/6
f 448/6/6 444/6/6 453/6/6
f 452/8/6 448/8/6 453/8/6
f 451/1/6 452/1/6 454/1/6
f 449/6/6 450/6/6 454/6/6
f 450/1/6 451/1/6 454/1/6
f 454/1/6 452/1/6 455/1/6
f 455/1/6 452/1/6 456/1/6
f 452/6/6 453/6/6 457/6/6
f 456/1/6 452/1/6 457/1/6
f 436/6/6 449/6/6 458/6/6
f 417/12/6 436/12/6 458/12/6
f 449/6/6 454/6/6 458/6/6
f 454/6/6 455/6/6 458/6/6
f 455/1/6 456/1/6 459/1/6
f 458/6/6 455/6/6 459/6/6
f 456/6/6 457/6/6 460/6/6
f 459/1/6 456/1/6 460/1/6
f 444/12/6 418/12/6 461/12/6
f 460/6/6 457/6/6 461/6/6
f 453/6/6 444/6/6 461/6/6
f 457/6/6 453/6/6 461/6/6
f 459/12/6 460/12/6 462/12/6
f 458/12/6 459/12/6 462/12/6
f 460/12/6 461/12/6 462/12/6
f 417/12/6 458/12/6 462/12/6
f 461/12/6 418/12/6 463/12/6
f 462/12/6 461/12/6 463/12/6
