# MagicaVoxel @ Ephtracy

# group
o 

# material
mtllib fullMeatShelf4.mtl
usemtl palette

# normals
vn -1 0 0
vn 1 0 0
vn 0 0 1
vn 0 0 -1
vn 0 -1 0
vn 0 1 0

# texcoords
vt 0.845703 0.5
vt 0.849609 0.5
vt 0.884766 0.5
vt 0.888672 0.5
vt 0.892578 0.5
vt 0.904297 0.5
vt 0.916016 0.5
vt 0.919922 0.5

# verts
v -0.8 0 0.6
v -0.8 0 -0.8
v -0.8 0.2 0.8
v -0.8 0.2 0.6
v -0.8 0.2 -0.6
v -0.8 0.3 0.8
v -0.8 0.3 0.7
v -0.8 0.4 0.7
v -0.8 0.4 -0.6
v -0.8 1.3 0.8
v -0.8 1.3 -0.6
v -0.8 1.4 0.8
v -0.8 1.4 0.7
v -0.8 1.5 0.7
v -0.8 1.5 -0.6
v -0.8 2.4 0.8
v -0.8 2.4 -0.6
v -0.8 2.5 0.8
v -0.8 2.5 0.7
v -0.8 2.6 0.7
v -0.8 2.6 -0.6
v -0.8 3.5 0.8
v -0.8 3.5 -0.6
v -0.8 3.6 0.8
v -0.8 3.6 0.7
v -0.8 3.7 0.7
v -0.8 3.7 -0.6
v -0.8 4.6 0.8
v -0.8 4.6 -0.6
v -0.8 4.7 0.7
v -0.8 4.7 -0.7
v -0.8 4.8 0.8
v -0.8 4.8 0.7
v -0.8 4.8 -0.7
v -0.8 4.8 -0.8
v 0.8 0 0.6
v 0.8 0 -0.8
v 0.8 0.2 0.8
v 0.8 0.2 0.6
v 0.8 0.2 -0.6
v 0.8 0.3 0.8
v 0.8 0.3 0.7
v 0.8 0.4 0.7
v 0.8 0.4 -0.6
v 0.8 1.3 0.8
v 0.8 1.3 -0.6
v 0.8 1.4 0.8
v 0.8 1.4 0.7
v 0.8 1.5 0.7
v 0.8 1.5 -0.6
v 0.8 2.4 0.8
v 0.8 2.4 -0.6
v 0.8 2.5 0.8
v 0.8 2.5 0.7
v 0.8 2.6 0.7
v 0.8 2.6 -0.6
v 0.8 3.5 0.8
v 0.8 3.5 -0.6
v 0.8 3.6 0.8
v 0.8 3.6 0.7
v 0.8 3.7 0.7
v 0.8 3.7 -0.6
v 0.8 4.6 0.8
v 0.8 4.6 -0.6
v 0.8 4.7 -0.2
v 0.8 4.7 -0.6
v 0.8 4.8 0.8
v 0.8 4.8 -0.2
v 0.8 4.8 -0.6
v 0.8 4.8 -0.8
v -0.8 0.2 0.8
v -0.8 0.3 0.8
v -0.8 1.3 0.8
v -0.8 1.4 0.8
v -0.8 2.4 0.8
v -0.8 2.5 0.8
v -0.8 3.5 0.8
v -0.8 3.6 0.8
v -0.8 4.6 0.8
v -0.8 4.8 0.8
v 0.8 0.2 0.8
v 0.8 0.3 0.8
v 0.8 1.3 0.8
v 0.8 1.4 0.8
v 0.8 2.4 0.8
v 0.8 2.5 0.8
v 0.8 3.5 0.8
v 0.8 3.6 0.8
v 0.8 4.6 0.8
v 0.8 4.8 0.8
v -0.8 0.3 0.7
v -0.8 0.4 0.7
v -0.8 1.4 0.7
v -0.8 1.5 0.7
v -0.8 2.5 0.7
v -0.8 2.6 0.7
v -0.8 3.6 0.7
v -0.8 3.7 0.7
v 0.8 0.3 0.7
v 0.8 0.4 0.7
v 0.8 1.4 0.7
v 0.8 1.5 0.7
v 0.8 2.5 0.7
v 0.8 2.6 0.7
v 0.8 3.6 0.7
v 0.8 3.7 0.7
v -0.8 0 0.6
v -0.8 0.2 0.6
v 0.8 0 0.6
v 0.8 0.2 0.6
v -0.8 0.4 -0.6
v -0.8 1.3 -0.6
v -0.8 1.5 -0.6
v -0.8 2.4 -0.6
v -0.8 2.6 -0.6
v -0.8 3.5 -0.6
v -0.8 3.7 -0.6
v -0.8 4.6 -0.6
v 0.8 0.4 -0.6
v 0.8 1.3 -0.6
v 0.8 1.5 -0.6
v 0.8 2.4 -0.6
v 0.8 2.6 -0.6
v 0.8 3.5 -0.6
v 0.8 3.7 -0.6
v 0.8 4.6 -0.6
v -0.8 0 -0.8
v -0.8 4.8 -0.8
v 0.8 0 -0.8
v 0.8 4.8 -0.8
v -0.8 0 0.6
v 0.8 0 0.6
v -0.8 0 -0.8
v 0.8 0 -0.8
v -0.8 0.2 0.8
v 0.8 0.2 0.8
v -0.8 0.2 0.6
v 0.8 0.2 0.6
v -0.8 1.3 0.8
v 0.8 1.3 0.8
v -0.8 1.3 -0.6
v 0.8 1.3 -0.6
v -0.8 2.4 0.8
v 0.8 2.4 0.8
v -0.8 2.4 -0.6
v 0.8 2.4 -0.6
v -0.8 3.5 0.8
v 0.8 3.5 0.8
v -0.8 3.5 -0.6
v 0.8 3.5 -0.6
v -0.8 4.6 0.8
v 0.8 4.6 0.8
v -0.8 4.6 -0.6
v 0.8 4.6 -0.6
v -0.8 0.3 0.8
v 0.8 0.3 0.8
v -0.8 0.3 0.7
v 0.8 0.3 0.7
v -0.8 0.4 0.7
v 0.8 0.4 0.7
v -0.8 0.4 -0.6
v 0.8 0.4 -0.6
v -0.8 1.4 0.8
v 0.8 1.4 0.8
v -0.8 1.4 0.7
v 0.8 1.4 0.7
v -0.8 1.5 0.7
v 0.8 1.5 0.7
v -0.8 1.5 -0.6
v 0.8 1.5 -0.6
v -0.8 2.5 0.8
v 0.8 2.5 0.8
v -0.8 2.5 0.7
v 0.8 2.5 0.7
v -0.8 2.6 0.7
v 0.8 2.6 0.7
v -0.8 2.6 -0.6
v 0.8 2.6 -0.6
v -0.8 3.6 0.8
v 0.8 3.6 0.8
v -0.8 3.6 0.7
v 0.8 3.6 0.7
v -0.8 3.7 0.7
v 0.8 3.7 0.7
v -0.8 3.7 -0.6
v 0.8 3.7 -0.6
v -0.8 4.8 0.8
v 0.8 4.8 0.8
v -0.8 4.8 0.7
v -0.5 4.8 0.7
v -0.7 4.8 0.6
v -0.6 4.8 0.6
v -0.2 4.8 0.6
v 0.4 4.8 0.6
v -0.3 4.8 0.5
v -0.2 4.8 0.5
v -0.1 4.8 0.5
v 0.3 4.8 0.5
v 0.4 4.8 0.5
v 0.5 4.8 0.5
v -0.4 4.8 0.4
v -0.3 4.8 0.4
v -0.2 4.8 0.4
v -0.1 4.8 0.4
v 0.3 4.8 0.4
v 0.4 4.8 0.4
v 0.5 4.8 0.4
v 0.6 4.8 0.4
v -0.7 4.8 0.3
v -0.6 4.8 0.3
v -0.5 4.8 0.3
v -0.4 4.8 0.3
v -0.3 4.8 0.3
v -0.2 4.8 0.3
v -0.1 4.8 0.3
v 0.2 4.8 0.3
v 0.4 4.8 0.3
v 0.5 4.8 0.3
v 0.6 4.8 0.3
v 0.7 4.8 0.3
v -0.4 4.8 0.2
v -0.3 4.8 0.2
v -0.2 4.8 0.2
v -0.1 4.8 0.2
v 0.2 4.8 0.2
v 0.3 4.8 0.2
v 0.5 4.8 0.2
v 0.6 4.8 0.2
v -0.4 4.8 0.1
v -0.2 4.8 0.1
v 0.3 4.8 0.1
v 0.4 4.8 0.1
v -0.1 4.8 0
v 0 4.8 0
v -0.1 4.8 -0.1
v 0 4.8 -0.1
v 0.3 4.8 -0.1
v 0.4 4.8 -0.1
v -0.4 4.8 -0.2
v -0.3 4.8 -0.2
v 0.2 4.8 -0.2
v 0.3 4.8 -0.2
v 0.4 4.8 -0.2
v 0.5 4.8 -0.2
v 0.6 4.8 -0.2
v 0.7 4.8 -0.2
v 0.8 4.8 -0.2
v -0.5 4.8 -0.3
v -0.4 4.8 -0.3
v -0.3 4.8 -0.3
v -0.2 4.8 -0.3
v 0.2 4.8 -0.3
v 0.3 4.8 -0.3
v 0.5 4.8 -0.3
v 0.7 4.8 -0.3
v -0.4 4.8 -0.4
v -0.3 4.8 -0.4
v -0.2 4.8 -0.4
v -0.1 4.8 -0.4
v 0.3 4.8 -0.4
v 0.4 4.8 -0.4
v -0.3 4.8 -0.5
v -0.2 4.8 -0.5
v -0.1 4.8 -0.5
v 0.3 4.8 -0.5
v 0.6 4.8 -0.5
v 0.7 4.8 -0.5
v -0.7 4.8 -0.6
v -0.6 4.8 -0.6
v -0.2 4.8 -0.6
v 0.3 4.8 -0.6
v 0.4 4.8 -0.6
v 0.6 4.8 -0.6
v 0.7 4.8 -0.6
v 0.8 4.8 -0.6
v -0.8 4.8 -0.7
v -0.5 4.8 -0.7
v 0.3 4.8 -0.7
v 0.7 4.8 -0.7
v -0.8 4.8 -0.8
v 0.8 4.8 -0.8

# faces
f 4/4/1 2/4/1 1/4/1
f 5/4/1 2/4/1 4/4/1
f 6/5/1 4/5/1 3/5/1
f 6/5/1 5/5/1 4/5/1
f 7/5/1 5/5/1 6/5/1
f 8/5/1 5/5/1 7/5/1
f 9/4/1 2/4/1 5/4/1
f 9/5/1 5/5/1 8/5/1
f 11/4/1 2/4/1 9/4/1
f 12/5/1 11/5/1 10/5/1
f 13/5/1 11/5/1 12/5/1
f 14/5/1 11/5/1 13/5/1
f 15/4/1 2/4/1 11/4/1
f 15/5/1 11/5/1 14/5/1
f 17/4/1 2/4/1 15/4/1
f 18/5/1 17/5/1 16/5/1
f 19/5/1 17/5/1 18/5/1
f 20/5/1 17/5/1 19/5/1
f 21/4/1 2/4/1 17/4/1
f 21/5/1 17/5/1 20/5/1
f 23/4/1 2/4/1 21/4/1
f 24/5/1 23/5/1 22/5/1
f 25/5/1 23/5/1 24/5/1
f 26/5/1 23/5/1 25/5/1
f 27/4/1 2/4/1 23/4/1
f 27/5/1 23/5/1 26/5/1
f 29/4/1 2/4/1 27/4/1
f 30/4/1 29/4/1 28/4/1
f 31/4/1 2/4/1 29/4/1
f 31/4/1 29/4/1 30/4/1
f 32/4/1 30/4/1 28/4/1
f 33/3/1 31/3/1 30/3/1
f 33/4/1 30/4/1 32/4/1
f 34/4/1 2/4/1 31/4/1
f 34/3/1 31/3/1 33/3/1
f 35/4/1 2/4/1 34/4/1
f 36/4/2 37/4/2 39/4/2
f 39/4/2 37/4/2 40/4/2
f 38/5/2 39/5/2 41/5/2
f 39/5/2 40/5/2 41/5/2
f 41/5/2 40/5/2 42/5/2
f 42/5/2 40/5/2 43/5/2
f 40/4/2 37/4/2 44/4/2
f 43/5/2 40/5/2 44/5/2
f 44/4/2 37/4/2 46/4/2
f 45/5/2 46/5/2 47/5/2
f 47/5/2 46/5/2 48/5/2
f 48/5/2 46/5/2 49/5/2
f 46/4/2 37/4/2 50/4/2
f 49/5/2 46/5/2 50/5/2
f 50/4/2 37/4/2 52/4/2
f 51/5/2 52/5/2 53/5/2
f 53/5/2 52/5/2 54/5/2
f 54/5/2 52/5/2 55/5/2
f 52/4/2 37/4/2 56/4/2
f 55/5/2 52/5/2 56/5/2
f 56/4/2 37/4/2 58/4/2
f 57/5/2 58/5/2 59/5/2
f 59/5/2 58/5/2 60/5/2
f 60/5/2 58/5/2 61/5/2
f 58/4/2 37/4/2 62/4/2
f 61/5/2 58/5/2 62/5/2
f 62/4/2 37/4/2 64/4/2
f 63/4/2 64/4/2 65/4/2
f 64/4/2 37/4/2 66/4/2
f 65/4/2 64/4/2 66/4/2
f 63/4/2 65/4/2 67/4/2
f 65/3/2 66/3/2 68/3/2
f 67/4/2 65/4/2 68/4/2
f 66/4/2 37/4/2 69/4/2
f 68/3/2 66/3/2 69/3/2
f 69/4/2 37/4/2 70/4/2
f 81/5/3 72/5/3 71/5/3
f 82/5/3 72/5/3 81/5/3
f 83/5/3 74/5/3 73/5/3
f 84/5/3 74/5/3 83/5/3
f 85/5/3 76/5/3 75/5/3
f 86/5/3 76/5/3 85/5/3
f 87/5/3 78/5/3 77/5/3
f 88/5/3 78/5/3 87/5/3
f 89/4/3 80/4/3 79/4/3
f 90/4/3 80/4/3 89/4/3
f 99/5/3 92/5/3 91/5/3
f 100/5/3 92/5/3 99/5/3
f 101/5/3 94/5/3 93/5/3
f 102/5/3 94/5/3 101/5/3
f 103/5/3 96/5/3 95/5/3
f 104/5/3 96/5/3 103/5/3
f 105/5/3 98/5/3 97/5/3
f 106/5/3 98/5/3 105/5/3
f 109/4/3 108/4/3 107/4/3
f 110/4/3 108/4/3 109/4/3
f 119/4/3 112/4/3 111/4/3
f 120/4/3 112/4/3 119/4/3
f 121/4/3 114/4/3 113/4/3
f 122/4/3 114/4/3 121/4/3
f 123/4/3 116/4/3 115/4/3
f 124/4/3 116/4/3 123/4/3
f 125/4/3 118/4/3 117/4/3
f 126/4/3 118/4/3 125/4/3
f 127/4/4 128/4/4 129/4/4
f 129/4/4 128/4/4 130/4/4
f 133/4/5 132/4/5 131/4/5
f 134/4/5 132/4/5 133/4/5
f 137/5/5 136/5/5 135/5/5
f 138/5/5 136/5/5 137/5/5
f 141/5/5 140/5/5 139/5/5
f 142/5/5 140/5/5 141/5/5
f 145/5/5 144/5/5 143/5/5
f 146/5/5 144/5/5 145/5/5
f 149/5/5 148/5/5 147/5/5
f 150/5/5 148/5/5 149/5/5
f 153/4/5 152/4/5 151/4/5
f 154/4/5 152/4/5 153/4/5
f 155/5/6 156/5/6 157/5/6
f 157/5/6 156/5/6 158/5/6
f 159/5/6 160/5/6 161/5/6
f 161/5/6 160/5/6 162/5/6
f 163/5/6 164/5/6 165/5/6
f 165/5/6 164/5/6 166/5/6
f 167/5/6 168/5/6 169/5/6
f 169/5/6 168/5/6 170/5/6
f 171/5/6 172/5/6 173/5/6
f 173/5/6 172/5/6 174/5/6
f 175/5/6 176/5/6 177/5/6
f 177/5/6 176/5/6 178/5/6
f 179/5/6 180/5/6 181/5/6
f 181/5/6 180/5/6 182/5/6
f 183/5/6 184/5/6 185/5/6
f 185/5/6 184/5/6 186/5/6
f 187/4/6 188/4/6 189/4/6
f 189/4/6 188/4/6 190/4/6
f 189/3/6 190/3/6 191/3/6
f 191/3/6 190/3/6 192/3/6
f 190/4/6 188/4/6 193/4/6
f 193/4/6 188/4/6 194/4/6
f 190/4/6 193/4/6 195/4/6
f 193/3/6 194/3/6 196/3/6
f 195/4/6 193/4/6 196/4/6
f 196/3/6 194/3/6 197/3/6
f 197/3/6 194/3/6 198/3/6
f 194/4/6 188/4/6 199/4/6
f 198/3/6 194/3/6 199/3/6
f 199/4/6 188/4/6 200/4/6
f 190/4/6 195/4/6 201/4/6
f 195/3/6 196/3/6 202/3/6
f 201/4/6 195/4/6 202/4/6
f 196/3/6 197/3/6 202/3/6
f 202/3/6 197/3/6 203/3/6
f 197/1/6 198/1/6 204/1/6
f 203/3/6 197/3/6 204/3/6
f 199/3/6 200/3/6 205/3/6
f 204/1/6 198/1/6 205/1/6
f 198/3/6 199/3/6 205/3/6
f 205/3/6 200/3/6 206/3/6
f 200/4/6 188/4/6 207/4/6
f 206/3/6 200/3/6 207/3/6
f 207/4/6 188/4/6 208/4/6
f 189/3/6 191/3/6 209/3/6
f 191/7/6 192/7/6 209/7/6
f 192/3/6 190/3/6 210/3/6
f 209/7/6 192/7/6 210/7/6
f 190/4/6 201/4/6 211/4/6
f 210/3/6 190/3/6 211/3/6
f 202/3/6 203/3/6 212/3/6
f 211/4/6 201/4/6 212/4/6
f 201/3/6 202/3/6 212/3/6
f 212/3/6 203/3/6 213/3/6
f 205/1/6 206/1/6 214/1/6
f 213/3/6 203/3/6 214/3/6
f 203/1/6 204/1/6 214/1/6
f 204/1/6 205/1/6 214/1/6
f 214/1/6 206/1/6 215/1/6
f 215/1/6 206/1/6 216/1/6
f 207/3/6 208/3/6 217/3/6
f 216/1/6 206/1/6 217/1/6
f 206/3/6 207/3/6 217/3/6
f 217/3/6 208/3/6 218/3/6
f 208/4/6 188/4/6 219/4/6
f 218/3/6 208/3/6 219/3/6
f 219/4/6 188/4/6 220/4/6
f 210/3/6 211/3/6 221/3/6
f 212/3/6 213/3/6 221/3/6
f 211/3/6 212/3/6 221/3/6
f 214/1/6 215/1/6 222/1/6
f 221/3/6 213/3/6 222/3/6
f 213/1/6 214/1/6 222/1/6
f 222/1/6 215/1/6 223/1/6
f 215/2/6 216/2/6 224/2/6
f 223/1/6 215/1/6 224/1/6
f 217/1/6 218/1/6 225/1/6
f 224/2/6 216/2/6 225/2/6
f 216/1/6 217/1/6 225/1/6
f 225/1/6 218/1/6 226/1/6
f 219/3/6 220/3/6 227/3/6
f 226/1/6 218/1/6 227/1/6
f 218/3/6 219/3/6 227/3/6
f 227/3/6 220/3/6 228/3/6
f 222/1/6 223/1/6 229/1/6
f 210/3/6 221/3/6 229/3/6
f 221/1/6 222/1/6 229/1/6
f 223/2/6 224/2/6 230/2/6
f 229/1/6 223/1/6 230/1/6
f 225/2/6 226/2/6 230/2/6
f 224/2/6 225/2/6 230/2/6
f 226/1/6 227/1/6 231/1/6
f 230/2/6 226/2/6 231/2/6
f 227/1/6 228/1/6 231/1/6
f 231/1/6 228/1/6 232/1/6
f 229/2/6 230/2/6 233/2/6
f 230/2/6 231/2/6 233/2/6
f 231/2/6 232/2/6 233/2/6
f 233/2/6 232/2/6 234/2/6
f 229/2/6 233/2/6 235/2/6
f 233/1/6 234/1/6 235/1/6
f 234/2/6 232/2/6 236/2/6
f 235/1/6 234/1/6 236/1/6
f 236/2/6 232/2/6 237/2/6
f 232/1/6 228/1/6 238/1/6
f 237/2/6 232/2/6 238/2/6
f 210/3/6 229/3/6 239/3/6
f 236/2/6 237/2/6 239/2/6
f 229/2/6 235/2/6 239/2/6
f 235/2/6 236/2/6 239/2/6
f 239/2/6 237/2/6 240/2/6
f 240/2/6 237/2/6 241/2/6
f 237/6/6 238/6/6 242/6/6
f 241/2/6 237/2/6 242/2/6
f 238/1/6 228/1/6 243/1/6
f 242/6/6 238/6/6 243/6/6
f 243/1/6 228/1/6 244/1/6
f 228/3/6 220/3/6 245/3/6
f 244/1/6 228/1/6 245/1/6
f 220/4/6 188/4/6 246/4/6
f 245/3/6 220/3/6 246/3/6
f 246/4/6 188/4/6 247/4/6
f 210/3/6 239/3/6 248/3/6
f 239/3/6 240/3/6 248/3/6
f 248/3/6 240/3/6 249/3/6
f 240/2/6 241/2/6 250/2/6
f 249/3/6 240/3/6 250/3/6
f 250/2/6 241/2/6 251/2/6
f 241/6/6 242/6/6 252/6/6
f 251/2/6 241/2/6 252/2/6
f 243/6/6 244/6/6 252/6/6
f 242/6/6 243/6/6 252/6/6
f 252/6/6 244/6/6 253/6/6
f 244/3/6 245/3/6 254/3/6
f 253/6/6 244/6/6 254/6/6
f 246/3/6 247/3/6 254/3/6
f 245/3/6 246/3/6 254/3/6
f 254/3/6 247/3/6 255/3/6
f 250/3/6 251/3/6 256/3/6
f 249/3/6 250/3/6 256/3/6
f 248/4/6 249/4/6 256/4/6
f 256/3/6 251/3/6 257/3/6
f 252/2/6 253/2/6 258/2/6
f 257/3/6 251/3/6 258/3/6
f 251/2/6 252/2/6 258/2/6
f 258/2/6 253/2/6 259/2/6
f 254/6/6 255/6/6 260/6/6
f 259/2/6 253/2/6 260/2/6
f 253/6/6 254/6/6 260/6/6
f 260/6/6 255/6/6 261/6/6
f 258/3/6 259/3/6 262/3/6
f 256/4/6 257/4/6 262/4/6
f 257/3/6 258/3/6 262/3/6
f 262/3/6 259/3/6 263/3/6
f 259/2/6 260/2/6 264/2/6
f 263/3/6 259/3/6 264/3/6
f 260/3/6 261/3/6 265/3/6
f 264/2/6 260/2/6 265/2/6
f 261/6/6 255/6/6 266/6/6
f 255/3/6 247/3/6 267/3/6
f 266/6/6 255/6/6 267/6/6
f 189/3/6 209/3/6 268/3/6
f 209/8/6 210/8/6 268/8/6
f 210/3/6 248/3/6 269/3/6
f 268/8/6 210/8/6 269/8/6
f 263/3/6 264/3/6 270/3/6
f 262/4/6 263/4/6 270/4/6
f 264/3/6 265/3/6 270/3/6
f 265/3/6 261/3/6 271/3/6
f 270/3/6 265/3/6 271/3/6
f 261/6/6 266/6/6 272/6/6
f 271/3/6 261/3/6 272/3/6
f 266/3/6 267/3/6 273/3/6
f 272/6/6 266/6/6 273/6/6
f 267/3/6 247/3/6 274/3/6
f 273/3/6 267/3/6 274/3/6
f 274/3/6 247/3/6 275/3/6
f 268/3/6 269/3/6 276/3/6
f 189/3/6 268/3/6 276/3/6
f 270/4/6 271/4/6 277/4/6
f 276/3/6 269/3/6 277/3/6
f 262/4/6 270/4/6 277/4/6
f 269/3/6 248/3/6 277/3/6
f 256/4/6 262/4/6 277/4/6
f 248/4/6 256/4/6 277/4/6
f 272/3/6 273/3/6 278/3/6
f 277/4/6 271/4/6 278/4/6
f 273/3/6 274/3/6 278/3/6
f 271/3/6 272/3/6 278/3/6
f 274/4/6 275/4/6 279/4/6
f 278/3/6 274/3/6 279/3/6
f 276/4/6 277/4/6 280/4/6
f 277/4/6 278/4/6 280/4/6
f 278/4/6 279/4/6 280/4/6
f 279/4/6 275/4/6 281/4/6
f 280/4/6 279/4/6 281/4/6
