# MagicaVoxel @ Ephtracy

# group
o 

# material
mtllib fullMeatShelf3.mtl
usemtl palette

# normals
vn -1 0 0
vn 1 0 0
vn 0 0 1
vn 0 0 -1
vn 0 -1 0
vn 0 1 0

# texcoords
vt 0.783203 0.5
vt 0.845703 0.5
vt 0.849609 0.5
vt 0.884766 0.5
vt 0.888672 0.5
vt 0.892578 0.5
vt 0.900391 0.5
vt 0.904297 0.5
vt 0.916016 0.5
vt 0.919922 0.5

# verts
v -0.8 0 0.6
v -0.8 0 -0.8
v -0.8 0.2 0.8
v -0.8 0.2 0.6
v -0.8 0.2 -0.6
v -0.8 0.3 0.8
v -0.8 0.3 0.7
v -0.8 0.4 0.7
v -0.8 0.4 -0.6
v -0.8 0.5 0.4
v -0.8 0.5 0
v -0.8 0.8 0.4
v -0.8 0.8 0
v -0.8 1.3 0.8
v -0.8 1.3 -0.6
v -0.8 1.4 0.8
v -0.8 1.4 0.7
v -0.8 1.5 0.7
v -0.8 1.5 -0.6
v -0.8 2.4 0.8
v -0.8 2.4 -0.6
v -0.8 2.5 0.8
v -0.8 2.5 0.7
v -0.8 2.6 0.7
v -0.8 2.6 -0.6
v -0.8 3.5 0.8
v -0.8 3.5 -0.6
v -0.8 3.6 0.8
v -0.8 3.6 0.7
v -0.8 3.7 0.7
v -0.8 3.7 -0.6
v -0.8 4.6 0.8
v -0.8 4.6 -0.6
v -0.8 4.7 0.7
v -0.8 4.7 -0.7
v -0.8 4.8 0.8
v -0.8 4.8 0.7
v -0.8 4.8 -0.7
v -0.8 4.8 -0.8
v -0.7 0.4 0.4
v -0.7 0.4 0
v -0.7 0.5 0.5
v -0.7 0.5 0.4
v -0.7 0.5 0
v -0.7 0.5 -0.1
v -0.7 0.8 0.5
v -0.7 0.8 0.4
v -0.7 0.8 0
v -0.7 0.8 -0.1
v -0.7 0.9 0.4
v -0.7 0.9 0
v -0.4 0.8 0
v -0.4 0.8 -0.1
v -0.4 0.9 0.1
v -0.4 0.9 0
v -0.4 1 0.1
v -0.4 1 -0.1
v -0.3 0.9 -0.1
v -0.3 0.9 -0.3
v -0.3 1 0
v -0.3 1 -0.1
v -0.3 1.1 -0.2
v -0.3 1.1 -0.3
v -0.3 1.2 0
v -0.3 1.2 -0.2
v 0 3.8 0.4
v 0 3.8 0
v 0 4.1 0.4
v 0 4.1 0
v 0.1 3.7 0.4
v 0.1 3.7 0
v 0.1 3.8 0.5
v 0.1 3.8 0.4
v 0.1 3.8 0
v 0.1 3.8 -0.1
v 0.1 4.1 0.5
v 0.1 4.1 0.4
v 0.1 4.1 0
v 0.1 4.1 -0.1
v 0.1 4.2 0.4
v 0.1 4.2 0
v 0.4 4.1 0
v 0.4 4.1 -0.1
v 0.4 4.2 0.1
v 0.4 4.2 0
v 0.4 4.3 0.1
v 0.4 4.3 -0.1
v 0.5 4.2 -0.1
v 0.5 4.2 -0.3
v 0.5 4.3 0
v 0.5 4.3 -0.1
v 0.5 4.4 -0.2
v 0.5 4.4 -0.3
v 0.5 4.5 0
v 0.5 4.5 -0.2
v -0.3 0.4 0.4
v -0.3 0.4 0
v -0.3 0.5 0.5
v -0.3 0.5 0.4
v -0.3 0.5 0
v -0.3 0.5 -0.1
v -0.3 0.8 0.5
v -0.3 0.8 0.4
v -0.3 0.8 0.1
v -0.3 0.8 0
v -0.3 0.8 -0.1
v -0.3 0.9 0.4
v -0.3 0.9 0.1
v -0.2 0.5 0.4
v -0.2 0.5 0
v -0.2 0.8 0.4
v -0.2 0.8 0.1
v -0.2 0.8 0
v -0.2 0.8 -0.1
v -0.2 0.9 0
v -0.2 0.9 -0.1
v -0.2 1 0.1
v -0.2 1 0
v -0.1 0.9 -0.2
v -0.1 0.9 -0.3
v -0.1 1.1 0
v -0.1 1.1 -0.2
v -0.1 1.1 -0.3
v -0.1 1.2 0
v -0.1 1.2 -0.2
v 0 0.9 0
v 0 0.9 -0.2
v 0 1.1 0
v 0 1.1 -0.2
v 0.5 3.7 0.4
v 0.5 3.7 0
v 0.5 3.8 0.5
v 0.5 3.8 0.4
v 0.5 3.8 0
v 0.5 3.8 -0.1
v 0.5 4.1 0.5
v 0.5 4.1 0.4
v 0.5 4.1 0.1
v 0.5 4.1 0
v 0.5 4.1 -0.1
v 0.5 4.2 0.4
v 0.5 4.2 0.1
v 0.6 3.8 0.4
v 0.6 3.8 0
v 0.6 4.1 0.4
v 0.6 4.1 0.1
v 0.6 4.1 0
v 0.6 4.1 -0.1
v 0.6 4.2 0
v 0.6 4.2 -0.1
v 0.6 4.3 0.1
v 0.6 4.3 0
v 0.7 4.2 -0.2
v 0.7 4.2 -0.3
v 0.7 4.4 0
v 0.7 4.4 -0.2
v 0.7 4.4 -0.3
v 0.7 4.5 0
v 0.7 4.5 -0.2
v 0.8 0 0.6
v 0.8 0 -0.8
v 0.8 0.2 0.8
v 0.8 0.2 0.6
v 0.8 0.2 -0.6
v 0.8 0.3 0.8
v 0.8 0.3 0.7
v 0.8 0.4 0.7
v 0.8 0.4 -0.6
v 0.8 1.3 0.8
v 0.8 1.3 -0.6
v 0.8 1.4 0.8
v 0.8 1.4 0.7
v 0.8 1.5 0.7
v 0.8 1.5 -0.6
v 0.8 2.4 0.8
v 0.8 2.4 -0.6
v 0.8 2.5 0.8
v 0.8 2.5 0.7
v 0.8 2.6 0.7
v 0.8 2.6 -0.6
v 0.8 3.5 0.8
v 0.8 3.5 -0.6
v 0.8 3.6 0.8
v 0.8 3.6 0.7
v 0.8 3.7 0.7
v 0.8 3.7 -0.6
v 0.8 4.2 0
v 0.8 4.2 -0.2
v 0.8 4.4 0
v 0.8 4.4 -0.2
v 0.8 4.6 0.8
v 0.8 4.6 -0.6
v 0.8 4.7 -0.2
v 0.8 4.7 -0.6
v 0.8 4.8 0.8
v 0.8 4.8 -0.2
v 0.8 4.8 -0.6
v 0.8 4.8 -0.8
v -0.8 0.2 0.8
v -0.8 0.3 0.8
v -0.8 1.3 0.8
v -0.8 1.4 0.8
v -0.8 2.4 0.8
v -0.8 2.5 0.8
v -0.8 3.5 0.8
v -0.8 3.6 0.8
v -0.8 4.6 0.8
v -0.8 4.8 0.8
v 0.8 0.2 0.8
v 0.8 0.3 0.8
v 0.8 1.3 0.8
v 0.8 1.4 0.8
v 0.8 2.4 0.8
v 0.8 2.5 0.8
v 0.8 3.5 0.8
v 0.8 3.6 0.8
v 0.8 4.6 0.8
v 0.8 4.8 0.8
v -0.8 0.3 0.7
v -0.8 0.4 0.7
v -0.8 1.4 0.7
v -0.8 1.5 0.7
v -0.8 2.5 0.7
v -0.8 2.6 0.7
v -0.8 3.6 0.7
v -0.8 3.7 0.7
v 0.8 0.3 0.7
v 0.8 0.4 0.7
v 0.8 1.4 0.7
v 0.8 1.5 0.7
v 0.8 2.5 0.7
v 0.8 2.6 0.7
v 0.8 3.6 0.7
v 0.8 3.7 0.7
v -0.8 0 0.6
v -0.8 0.2 0.6
v 0.8 0 0.6
v 0.8 0.2 0.6
v -0.7 0.5 0.5
v -0.7 0.8 0.5
v -0.3 0.5 0.5
v -0.3 0.8 0.5
v 0.1 3.8 0.5
v 0.1 4.1 0.5
v 0.5 3.8 0.5
v 0.5 4.1 0.5
v -0.8 0.5 0.4
v -0.8 0.8 0.4
v -0.7 0.4 0.4
v -0.7 0.5 0.4
v -0.7 0.8 0.4
v -0.7 0.9 0.4
v -0.3 0.4 0.4
v -0.3 0.5 0.4
v -0.3 0.8 0.4
v -0.3 0.9 0.4
v -0.2 0.5 0.4
v -0.2 0.8 0.4
v 0 3.8 0.4
v 0 4.1 0.4
v 0.1 3.7 0.4
v 0.1 3.8 0.4
v 0.1 4.1 0.4
v 0.1 4.2 0.4
v 0.5 3.7 0.4
v 0.5 3.8 0.4
v 0.5 4.1 0.4
v 0.5 4.2 0.4
v 0.6 3.8 0.4
v 0.6 4.1 0.4
v -0.4 0.9 0.1
v -0.4 1 0.1
v -0.3 0.8 0.1
v -0.3 0.9 0.1
v -0.2 0.8 0.1
v -0.2 1 0.1
v 0.4 4.2 0.1
v 0.4 4.3 0.1
v 0.5 4.1 0.1
v 0.5 4.2 0.1
v 0.6 4.1 0.1
v 0.6 4.3 0.1
v -0.3 1 0
v -0.3 1.2 0
v -0.2 0.9 0
v -0.2 1 0
v -0.1 1.1 0
v -0.1 1.2 0
v 0 0.9 0
v 0 1.1 0
v 0.5 4.3 0
v 0.5 4.5 0
v 0.6 4.2 0
v 0.6 4.3 0
v 0.7 4.4 0
v 0.7 4.5 0
v 0.8 4.2 0
v 0.8 4.4 0
v -0.8 0.4 -0.6
v -0.8 1.3 -0.6
v -0.8 1.5 -0.6
v -0.8 2.4 -0.6
v -0.8 2.6 -0.6
v -0.8 3.5 -0.6
v -0.8 3.7 -0.6
v -0.8 4.6 -0.6
v 0.8 0.4 -0.6
v 0.8 1.3 -0.6
v 0.8 1.5 -0.6
v 0.8 2.4 -0.6
v 0.8 2.6 -0.6
v 0.8 3.5 -0.6
v 0.8 3.7 -0.6
v 0.8 4.6 -0.6
v -0.8 0.5 0
v -0.8 0.8 0
v -0.7 0.4 0
v -0.7 0.5 0
v -0.7 0.8 0
v -0.7 0.9 0
v -0.4 0.8 0
v -0.4 0.9 0
v -0.3 0.4 0
v -0.3 0.5 0
v -0.3 0.8 0
v -0.2 0.5 0
v -0.2 0.8 0
v 0 3.8 0
v 0 4.1 0
v 0.1 3.7 0
v 0.1 3.8 0
v 0.1 4.1 0
v 0.1 4.2 0
v 0.4 4.1 0
v 0.4 4.2 0
v 0.5 3.7 0
v 0.5 3.8 0
v 0.5 4.1 0
v 0.6 3.8 0
v 0.6 4.1 0
v -0.7 0.5 -0.1
v -0.7 0.8 -0.1
v -0.4 0.8 -0.1
v -0.4 1 -0.1
v -0.3 0.5 -0.1
v -0.3 0.8 -0.1
v -0.3 0.9 -0.1
v -0.3 1 -0.1
v -0.2 0.8 -0.1
v -0.2 0.9 -0.1
v 0.1 3.8 -0.1
v 0.1 4.1 -0.1
v 0.4 4.1 -0.1
v 0.4 4.3 -0.1
v 0.5 3.8 -0.1
v 0.5 4.1 -0.1
v 0.5 4.2 -0.1
v 0.5 4.3 -0.1
v 0.6 4.1 -0.1
v 0.6 4.2 -0.1
v -0.3 1.1 -0.2
v -0.3 1.2 -0.2
v -0.1 0.9 -0.2
v -0.1 1.1 -0.2
v -0.1 1.2 -0.2
v 0 0.9 -0.2
v 0 1.1 -0.2
v 0.5 4.4 -0.2
v 0.5 4.5 -0.2
v 0.7 4.2 -0.2
v 0.7 4.4 -0.2
v 0.7 4.5 -0.2
v 0.8 4.2 -0.2
v 0.8 4.4 -0.2
v -0.3 0.9 -0.3
v -0.3 1.1 -0.3
v -0.1 0.9 -0.3
v -0.1 1.1 -0.3
v 0.5 4.2 -0.3
v 0.5 4.4 -0.3
v 0.7 4.2 -0.3
v 0.7 4.4 -0.3
v -0.8 0 -0.8
v -0.8 4.8 -0.8
v 0.8 0 -0.8
v 0.8 4.8 -0.8
v -0.8 0 0.6
v 0.8 0 0.6
v -0.8 0 -0.8
v 0.8 0 -0.8
v -0.8 0.2 0.8
v 0.8 0.2 0.8
v -0.8 0.2 0.6
v 0.8 0.2 0.6
v -0.7 0.5 0.5
v -0.3 0.5 0.5
v -0.8 0.5 0.4
v -0.7 0.5 0.4
v -0.3 0.5 0.4
v -0.2 0.5 0.4
v -0.8 0.5 0
v -0.7 0.5 0
v -0.3 0.5 0
v -0.2 0.5 0
v -0.7 0.5 -0.1
v -0.3 0.5 -0.1
v -0.3 0.8 0
v -0.2 0.8 0
v -0.3 0.8 -0.1
v -0.2 0.8 -0.1
v -0.2 0.9 0
v 0 0.9 0
v -0.3 0.9 -0.1
v -0.2 0.9 -0.1
v -0.1 0.9 -0.2
v 0 0.9 -0.2
v -0.3 0.9 -0.3
v -0.1 0.9 -0.3
v -0.8 1.3 0.8
v 0.8 1.3 0.8
v -0.8 1.3 -0.6
v 0.8 1.3 -0.6
v -0.8 2.4 0.8
v 0.8 2.4 0.8
v -0.8 2.4 -0.6
v 0.8 2.4 -0.6
v -0.8 3.5 0.8
v 0.8 3.5 0.8
v -0.8 3.5 -0.6
v 0.8 3.5 -0.6
v 0.1 3.8 0.5
v 0.5 3.8 0.5
v 0 3.8 0.4
v 0.1 3.8 0.4
v 0.5 3.8 0.4
v 0.6 3.8 0.4
v 0 3.8 0
v 0.1 3.8 0
v 0.5 3.8 0
v 0.6 3.8 0
v 0.1 3.8 -0.1
v 0.5 3.8 -0.1
v 0.5 4.1 0
v 0.6 4.1 0
v 0.5 4.1 -0.1
v 0.6 4.1 -0.1
v 0.6 4.2 0
v 0.8 4.2 0
v 0.5 4.2 -0.1
v 0.6 4.2 -0.1
v 0.7 4.2 -0.2
v 0.8 4.2 -0.2
v 0.5 4.2 -0.3
v 0.7 4.2 -0.3
v -0.8 4.6 0.8
v 0.8 4.6 0.8
v -0.8 4.6 -0.6
v 0.8 4.6 -0.6
v -0.8 0.3 0.8
v 0.8 0.3 0.8
v -0.8 0.3 0.7
v 0.8 0.3 0.7
v -0.8 0.4 0.7
v 0.8 0.4 0.7
v -0.7 0.4 0.4
v -0.3 0.4 0.4
v -0.7 0.4 0
v -0.3 0.4 0
v -0.8 0.4 -0.6
v 0.8 0.4 -0.6
v -0.7 0.8 0.5
v -0.3 0.8 0.5
v -0.8 0.8 0.4
v -0.7 0.8 0.4
v -0.3 0.8 0.4
v -0.2 0.8 0.4
v -0.3 0.8 0.1
v -0.2 0.8 0.1
v -0.8 0.8 0
v -0.7 0.8 0
v -0.4 0.8 0
v -0.7 0.8 -0.1
v -0.4 0.8 -0.1
v -0.7 0.9 0.4
v -0.3 0.9 0.4
v -0.4 0.9 0.1
v -0.3 0.9 0.1
v -0.7 0.9 0
v -0.4 0.9 0
v -0.4 1 0.1
v -0.2 1 0.1
v -0.3 1 0
v -0.2 1 0
v -0.4 1 -0.1
v -0.3 1 -0.1
v -0.1 1.1 0
v 0 1.1 0
v -0.3 1.1 -0.2
v -0.1 1.1 -0.2
v 0 1.1 -0.2
v -0.3 1.1 -0.3
v -0.1 1.1 -0.3
v -0.3 1.2 0
v -0.1 1.2 0
v -0.3 1.2 -0.2
v -0.1 1.2 -0.2
v -0.8 1.4 0.8
v 0.8 1.4 0.8
v -0.8 1.4 0.7
v 0.8 1.4 0.7
v -0.8 1.5 0.7
v 0.8 1.5 0.7
v -0.8 1.5 -0.6
v 0.8 1.5 -0.6
v -0.8 2.5 0.8
v 0.8 2.5 0.8
v -0.8 2.5 0.7
v 0.8 2.5 0.7
v -0.8 2.6 0.7
v 0.8 2.6 0.7
v -0.8 2.6 -0.6
v 0.8 2.6 -0.6
v -0.8 3.6 0.8
v 0.8 3.6 0.8
v -0.8 3.6 0.7
v 0.8 3.6 0.7
v -0.8 3.7 0.7
v 0.8 3.7 0.7
v 0.1 3.7 0.4
v 0.5 3.7 0.4
v 0.1 3.7 0
v 0.5 3.7 0
v -0.8 3.7 -0.6
v 0.8 3.7 -0.6
v 0.1 4.1 0.5
v 0.5 4.1 0.5
v 0 4.1 0.4
v 0.1 4.1 0.4
v 0.5 4.1 0.4
v 0.6 4.1 0.4
v 0.5 4.1 0.1
v 0.6 4.1 0.1
v 0 4.1 0
v 0.1 4.1 0
v 0.4 4.1 0
v 0.1 4.1 -0.1
v 0.4 4.1 -0.1
v 0.1 4.2 0.4
v 0.5 4.2 0.4
v 0.4 4.2 0.1
v 0.5 4.2 0.1
v 0.1 4.2 0
v 0.4 4.2 0
v 0.4 4.3 0.1
v 0.6 4.3 0.1
v 0.5 4.3 0
v 0.6 4.3 0
v 0.4 4.3 -0.1
v 0.5 4.3 -0.1
v 0.7 4.4 0
v 0.8 4.4 0
v 0.5 4.4 -0.2
v 0.7 4.4 -0.2
v 0.8 4.4 -0.2
v 0.5 4.4 -0.3
v 0.7 4.4 -0.3
v 0.5 4.5 0
v 0.7 4.5 0
v 0.5 4.5 -0.2
v 0.7 4.5 -0.2
v -0.8 4.8 0.8
v 0.8 4.8 0.8
v -0.8 4.8 0.7
v -0.5 4.8 0.7
v -0.7 4.8 0.6
v -0.6 4.8 0.6
v -0.2 4.8 0.6
v 0.4 4.8 0.6
v -0.3 4.8 0.5
v -0.2 4.8 0.5
v -0.1 4.8 0.5
v 0.3 4.8 0.5
v 0.4 4.8 0.5
v 0.5 4.8 0.5
v -0.4 4.8 0.4
v -0.3 4.8 0.4
v -0.2 4.8 0.4
v -0.1 4.8 0.4
v 0.3 4.8 0.4
v 0.4 4.8 0.4
v 0.5 4.8 0.4
v 0.6 4.8 0.4
v -0.7 4.8 0.3
v -0.6 4.8 0.3
v -0.5 4.8 0.3
v -0.4 4.8 0.3
v -0.3 4.8 0.3
v -0.2 4.8 0.3
v -0.1 4.8 0.3
v 0.2 4.8 0.3
v 0.4 4.8 0.3
v 0.5 4.8 0.3
v 0.6 4.8 0.3
v 0.7 4.8 0.3
v -0.4 4.8 0.2
v -0.3 4.8 0.2
v -0.2 4.8 0.2
v -0.1 4.8 0.2
v 0.2 4.8 0.2
v 0.3 4.8 0.2
v 0.5 4.8 0.2
v 0.6 4.8 0.2
v -0.4 4.8 0.1
v -0.2 4.8 0.1
v 0.3 4.8 0.1
v 0.4 4.8 0.1
v -0.7 4.8 0
v -0.6 4.8 0
v -0.1 4.8 0
v 0 4.8 0
v -0.1 4.8 -0.1
v 0 4.8 -0.1
v 0.3 4.8 -0.1
v 0.4 4.8 -0.1
v -0.4 4.8 -0.2
v -0.3 4.8 -0.2
v 0.2 4.8 -0.2
v 0.3 4.8 -0.2
v 0.4 4.8 -0.2
v 0.5 4.8 -0.2
v 0.6 4.8 -0.2
v 0.7 4.8 -0.2
v 0.8 4.8 -0.2
v -0.5 4.8 -0.3
v -0.4 4.8 -0.3
v -0.3 4.8 -0.3
v -0.2 4.8 -0.3
v 0.2 4.8 -0.3
v 0.3 4.8 -0.3
v 0.5 4.8 -0.3
v 0.7 4.8 -0.3
v -0.4 4.8 -0.4
v -0.3 4.8 -0.4
v -0.2 4.8 -0.4
v -0.1 4.8 -0.4
v 0.3 4.8 -0.4
v 0.4 4.8 -0.4
v -0.3 4.8 -0.5
v -0.2 4.8 -0.5
v -0.1 4.8 -0.5
v 0.3 4.8 -0.5
v 0.6 4.8 -0.5
v 0.7 4.8 -0.5
v -0.7 4.8 -0.6
v -0.6 4.8 -0.6
v -0.2 4.8 -0.6
v 0.3 4.8 -0.6
v 0.4 4.8 -0.6
v 0.6 4.8 -0.6
v 0.7 4.8 -0.6
v 0.8 4.8 -0.6
v -0.8 4.8 -0.7
v -0.5 4.8 -0.7
v 0.3 4.8 -0.7
v 0.7 4.8 -0.7
v -0.8 4.8 -0.8
v 0.8 4.8 -0.8

# faces
f 4/5/1 2/5/1 1/5/1
f 5/5/1 2/5/1 4/5/1
f 6/6/1 4/6/1 3/6/1
f 6/6/1 5/6/1 4/6/1
f 7/6/1 5/6/1 6/6/1
f 8/6/1 5/6/1 7/6/1
f 9/5/1 2/5/1 5/5/1
f 9/6/1 5/6/1 8/6/1
f 12/2/1 11/2/1 10/2/1
f 13/2/1 11/2/1 12/2/1
f 15/5/1 2/5/1 9/5/1
f 16/6/1 15/6/1 14/6/1
f 17/6/1 15/6/1 16/6/1
f 18/6/1 15/6/1 17/6/1
f 19/5/1 2/5/1 15/5/1
f 19/6/1 15/6/1 18/6/1
f 21/5/1 2/5/1 19/5/1
f 22/6/1 21/6/1 20/6/1
f 23/6/1 21/6/1 22/6/1
f 24/6/1 21/6/1 23/6/1
f 25/5/1 2/5/1 21/5/1
f 25/6/1 21/6/1 24/6/1
f 27/5/1 2/5/1 25/5/1
f 28/6/1 27/6/1 26/6/1
f 29/6/1 27/6/1 28/6/1
f 30/6/1 27/6/1 29/6/1
f 31/5/1 2/5/1 27/5/1
f 31/6/1 27/6/1 30/6/1
f 33/5/1 2/5/1 31/5/1
f 34/5/1 33/5/1 32/5/1
f 35/5/1 2/5/1 33/5/1
f 35/5/1 33/5/1 34/5/1
f 36/5/1 34/5/1 32/5/1
f 37/4/1 35/4/1 34/4/1
f 37/5/1 34/5/1 36/5/1
f 38/5/1 2/5/1 35/5/1
f 38/4/1 35/4/1 37/4/1
f 39/5/1 2/5/1 38/5/1
f 43/2/1 41/2/1 40/2/1
f 44/2/1 41/2/1 43/2/1
f 46/2/1 43/2/1 42/2/1
f 47/2/1 43/2/1 46/2/1
f 48/2/1 45/2/1 44/2/1
f 49/2/1 45/2/1 48/2/1
f 50/2/1 48/2/1 47/2/1
f 51/2/1 48/2/1 50/2/1
f 55/7/1 53/7/1 52/7/1
f 56/7/1 55/7/1 54/7/1
f 57/7/1 53/7/1 55/7/1
f 57/7/1 55/7/1 56/7/1
f 61/7/1 59/7/1 58/7/1
f 62/7/1 59/7/1 61/7/1
f 62/7/1 61/7/1 60/7/1
f 63/7/1 59/7/1 62/7/1
f 64/7/1 62/7/1 60/7/1
f 65/7/1 62/7/1 64/7/1
f 68/2/1 67/2/1 66/2/1
f 69/2/1 67/2/1 68/2/1
f 73/2/1 71/2/1 70/2/1
f 74/2/1 71/2/1 73/2/1
f 76/2/1 73/2/1 72/2/1
f 77/2/1 73/2/1 76/2/1
f 78/2/1 75/2/1 74/2/1
f 79/2/1 75/2/1 78/2/1
f 80/2/1 78/2/1 77/2/1
f 81/2/1 78/2/1 80/2/1
f 85/7/1 83/7/1 82/7/1
f 86/7/1 85/7/1 84/7/1
f 87/7/1 83/7/1 85/7/1
f 87/7/1 85/7/1 86/7/1
f 91/7/1 89/7/1 88/7/1
f 92/7/1 89/7/1 91/7/1
f 92/7/1 91/7/1 90/7/1
f 93/7/1 89/7/1 92/7/1
f 94/7/1 92/7/1 90/7/1
f 95/7/1 92/7/1 94/7/1
f 96/2/2 97/2/2 99/2/2
f 99/2/2 97/2/2 100/2/2
f 98/2/2 99/2/2 102/2/2
f 102/2/2 99/2/2 103/2/2
f 100/2/2 101/2/2 105/2/2
f 105/2/2 101/2/2 106/2/2
f 103/2/2 104/2/2 107/2/2
f 107/2/2 104/2/2 108/2/2
f 109/2/2 110/2/2 111/2/2
f 111/2/2 110/2/2 112/2/2
f 112/2/2 110/2/2 113/2/2
f 113/7/2 114/7/2 115/7/2
f 112/7/2 113/7/2 115/7/2
f 115/7/2 114/7/2 116/7/2
f 112/7/2 115/7/2 117/7/2
f 117/7/2 115/7/2 118/7/2
f 119/7/2 120/7/2 122/7/2
f 122/7/2 120/7/2 123/7/2
f 121/7/2 122/7/2 124/7/2
f 124/7/2 122/7/2 125/7/2
f 126/7/2 127/7/2 128/7/2
f 128/7/2 127/7/2 129/7/2
f 130/2/2 131/2/2 133/2/2
f 133/2/2 131/2/2 134/2/2
f 132/2/2 133/2/2 136/2/2
f 136/2/2 133/2/2 137/2/2
f 134/2/2 135/2/2 139/2/2
f 139/2/2 135/2/2 140/2/2
f 137/2/2 138/2/2 141/2/2
f 141/2/2 138/2/2 142/2/2
f 143/2/2 144/2/2 145/2/2
f 145/2/2 144/2/2 146/2/2
f 146/2/2 144/2/2 147/2/2
f 147/7/2 148/7/2 149/7/2
f 146/7/2 147/7/2 149/7/2
f 149/7/2 148/7/2 150/7/2
f 146/7/2 149/7/2 151/7/2
f 151/7/2 149/7/2 152/7/2
f 153/7/2 154/7/2 156/7/2
f 156/7/2 154/7/2 157/7/2
f 155/7/2 156/7/2 158/7/2
f 158/7/2 156/7/2 159/7/2
f 160/5/2 161/5/2 163/5/2
f 163/5/2 161/5/2 164/5/2
f 162/6/2 163/6/2 165/6/2
f 163/6/2 164/6/2 165/6/2
f 165/6/2 164/6/2 166/6/2
f 166/6/2 164/6/2 167/6/2
f 164/5/2 161/5/2 168/5/2
f 167/6/2 164/6/2 168/6/2
f 168/5/2 161/5/2 170/5/2
f 169/6/2 170/6/2 171/6/2
f 171/6/2 170/6/2 172/6/2
f 172/6/2 170/6/2 173/6/2
f 170/5/2 161/5/2 174/5/2
f 173/6/2 170/6/2 174/6/2
f 174/5/2 161/5/2 176/5/2
f 175/6/2 176/6/2 177/6/2
f 177/6/2 176/6/2 178/6/2
f 178/6/2 176/6/2 179/6/2
f 176/5/2 161/5/2 180/5/2
f 179/6/2 176/6/2 180/6/2
f 180/5/2 161/5/2 182/5/2
f 181/6/2 182/6/2 183/6/2
f 183/6/2 182/6/2 184/6/2
f 184/6/2 182/6/2 185/6/2
f 182/5/2 161/5/2 186/5/2
f 185/6/2 182/6/2 186/6/2
f 187/7/2 188/7/2 189/7/2
f 189/7/2 188/7/2 190/7/2
f 186/5/2 161/5/2 192/5/2
f 191/5/2 192/5/2 193/5/2
f 192/5/2 161/5/2 194/5/2
f 193/5/2 192/5/2 194/5/2
f 191/5/2 193/5/2 195/5/2
f 193/4/2 194/4/2 196/4/2
f 195/5/2 193/5/2 196/5/2
f 194/5/2 161/5/2 197/5/2
f 196/4/2 194/4/2 197/4/2
f 197/5/2 161/5/2 198/5/2
f 209/6/3 200/6/3 199/6/3
f 210/6/3 200/6/3 209/6/3
f 211/6/3 202/6/3 201/6/3
f 212/6/3 202/6/3 211/6/3
f 213/6/3 204/6/3 203/6/3
f 214/6/3 204/6/3 213/6/3
f 215/6/3 206/6/3 205/6/3
f 216/6/3 206/6/3 215/6/3
f 217/5/3 208/5/3 207/5/3
f 218/5/3 208/5/3 217/5/3
f 227/6/3 220/6/3 219/6/3
f 228/6/3 220/6/3 227/6/3
f 229/6/3 222/6/3 221/6/3
f 230/6/3 222/6/3 229/6/3
f 231/6/3 224/6/3 223/6/3
f 232/6/3 224/6/3 231/6/3
f 233/6/3 226/6/3 225/6/3
f 234/6/3 226/6/3 233/6/3
f 237/5/3 236/5/3 235/5/3
f 238/5/3 236/5/3 237/5/3
f 241/2/3 240/2/3 239/2/3
f 242/2/3 240/2/3 241/2/3
f 245/2/3 244/2/3 243/2/3
f 246/2/3 244/2/3 245/2/3
f 250/2/3 248/2/3 247/2/3
f 251/2/3 248/2/3 250/2/3
f 253/2/3 250/2/3 249/2/3
f 254/2/3 250/2/3 253/2/3
f 255/2/3 252/2/3 251/2/3
f 256/2/3 252/2/3 255/2/3
f 257/2/3 255/2/3 254/2/3
f 258/2/3 255/2/3 257/2/3
f 262/2/3 260/2/3 259/2/3
f 263/2/3 260/2/3 262/2/3
f 265/2/3 262/2/3 261/2/3
f 266/2/3 262/2/3 265/2/3
f 267/2/3 264/2/3 263/2/3
f 268/2/3 264/2/3 267/2/3
f 269/2/3 267/2/3 266/2/3
f 270/2/3 267/2/3 269/2/3
f 274/7/3 272/7/3 271/7/3
f 275/7/3 274/7/3 273/7/3
f 276/7/3 272/7/3 274/7/3
f 276/7/3 274/7/3 275/7/3
f 280/7/3 278/7/3 277/7/3
f 281/7/3 280/7/3 279/7/3
f 282/7/3 278/7/3 280/7/3
f 282/7/3 280/7/3 281/7/3
f 286/7/3 284/7/3 283/7/3
f 287/7/3 284/7/3 286/7/3
f 287/7/3 286/7/3 285/7/3
f 288/7/3 284/7/3 287/7/3
f 289/7/3 287/7/3 285/7/3
f 290/7/3 287/7/3 289/7/3
f 294/7/3 292/7/3 291/7/3
f 295/7/3 292/7/3 294/7/3
f 295/7/3 294/7/3 293/7/3
f 296/7/3 292/7/3 295/7/3
f 297/7/3 295/7/3 293/7/3
f 298/7/3 295/7/3 297/7/3
f 307/5/3 300/5/3 299/5/3
f 308/5/3 300/5/3 307/5/3
f 309/5/3 302/5/3 301/5/3
f 310/5/3 302/5/3 309/5/3
f 311/5/3 304/5/3 303/5/3
f 312/5/3 304/5/3 311/5/3
f 313/5/3 306/5/3 305/5/3
f 314/5/3 306/5/3 313/5/3
f 315/2/4 316/2/4 318/2/4
f 318/2/4 316/2/4 319/2/4
f 319/2/4 320/2/4 321/2/4
f 321/2/4 320/2/4 322/2/4
f 317/2/4 318/2/4 323/2/4
f 323/2/4 318/2/4 324/2/4
f 324/2/4 325/2/4 326/2/4
f 326/2/4 325/2/4 327/2/4
f 328/2/4 329/2/4 331/2/4
f 331/2/4 329/2/4 332/2/4
f 332/2/4 333/2/4 334/2/4
f 334/2/4 333/2/4 335/2/4
f 330/2/4 331/2/4 336/2/4
f 336/2/4 331/2/4 337/2/4
f 337/2/4 338/2/4 339/2/4
f 339/2/4 338/2/4 340/2/4
f 341/2/4 342/2/4 343/2/4
f 341/2/4 343/2/4 345/2/4
f 343/7/4 344/7/4 346/7/4
f 345/2/4 343/2/4 346/2/4
f 346/7/4 344/7/4 347/7/4
f 347/7/4 344/7/4 348/7/4
f 346/7/4 347/7/4 349/7/4
f 349/7/4 347/7/4 350/7/4
f 351/2/4 352/2/4 353/2/4
f 351/2/4 353/2/4 355/2/4
f 353/7/4 354/7/4 356/7/4
f 355/2/4 353/2/4 356/2/4
f 356/7/4 354/7/4 357/7/4
f 357/7/4 354/7/4 358/7/4
f 356/7/4 357/7/4 359/7/4
f 359/7/4 357/7/4 360/7/4
f 361/7/4 362/7/4 364/7/4
f 364/7/4 362/7/4 365/7/4
f 363/7/4 364/7/4 366/7/4
f 366/7/4 364/7/4 367/7/4
f 368/7/4 369/7/4 371/7/4
f 371/7/4 369/7/4 372/7/4
f 370/7/4 371/7/4 373/7/4
f 373/7/4 371/7/4 374/7/4
f 375/7/4 376/7/4 377/7/4
f 377/7/4 376/7/4 378/7/4
f 379/7/4 380/7/4 381/7/4
f 381/7/4 380/7/4 382/7/4
f 383/5/4 384/5/4 385/5/4
f 385/5/4 384/5/4 386/5/4
f 389/5/5 388/5/5 387/5/5
f 390/5/5 388/5/5 389/5/5
f 393/6/5 392/6/5 391/6/5
f 394/6/5 392/6/5 393/6/5
f 398/2/5 396/2/5 395/2/5
f 399/2/5 396/2/5 398/2/5
f 401/2/5 398/2/5 397/2/5
f 402/2/5 398/2/5 401/2/5
f 403/2/5 400/2/5 399/2/5
f 404/2/5 400/2/5 403/2/5
f 405/2/5 403/2/5 402/2/5
f 406/2/5 403/2/5 405/2/5
f 409/7/5 408/7/5 407/7/5
f 410/7/5 408/7/5 409/7/5
f 414/7/5 412/7/5 411/7/5
f 415/7/5 412/7/5 414/7/5
f 415/7/5 414/7/5 413/7/5
f 416/7/5 412/7/5 415/7/5
f 417/7/5 415/7/5 413/7/5
f 418/7/5 415/7/5 417/7/5
f 421/6/5 420/6/5 419/6/5
f 422/6/5 420/6/5 421/6/5
f 425/6/5 424/6/5 423/6/5
f 426/6/5 424/6/5 425/6/5
f 429/6/5 428/6/5 427/6/5
f 430/6/5 428/6/5 429/6/5
f 434/2/5 432/2/5 431/2/5
f 435/2/5 432/2/5 434/2/5
f 437/2/5 434/2/5 433/2/5
f 438/2/5 434/2/5 437/2/5
f 439/2/5 436/2/5 435/2/5
f 440/2/5 436/2/5 439/2/5
f 441/2/5 439/2/5 438/2/5
f 442/2/5 439/2/5 441/2/5
f 445/7/5 444/7/5 443/7/5
f 446/7/5 444/7/5 445/7/5
f 450/7/5 448/7/5 447/7/5
f 451/7/5 448/7/5 450/7/5
f 451/7/5 450/7/5 449/7/5
f 452/7/5 448/7/5 451/7/5
f 453/7/5 451/7/5 449/7/5
f 454/7/5 451/7/5 453/7/5
f 457/5/5 456/5/5 455/5/5
f 458/5/5 456/5/5 457/5/5
f 459/6/6 460/6/6 461/6/6
f 461/6/6 460/6/6 462/6/6
f 463/6/6 464/6/6 465/6/6
f 465/6/6 464/6/6 466/6/6
f 463/6/6 465/6/6 467/6/6
f 466/6/6 464/6/6 468/6/6
f 463/6/6 467/6/6 469/6/6
f 467/6/6 468/6/6 469/6/6
f 468/6/6 464/6/6 470/6/6
f 469/6/6 468/6/6 470/6/6
f 471/2/6 472/2/6 474/2/6
f 474/2/6 472/2/6 475/2/6
f 475/2/6 476/2/6 477/2/6
f 477/2/6 476/2/6 478/2/6
f 473/2/6 474/2/6 479/2/6
f 479/2/6 474/2/6 480/2/6
f 480/2/6 481/2/6 482/2/6
f 482/2/6 481/2/6 483/2/6
f 484/2/6 485/2/6 486/2/6
f 486/2/6 485/2/6 487/2/6
f 484/2/6 486/2/6 488/2/6
f 488/2/6 486/2/6 489/2/6
f 490/7/6 491/7/6 492/7/6
f 492/7/6 491/7/6 493/7/6
f 490/7/6 492/7/6 494/7/6
f 494/7/6 492/7/6 495/7/6
f 496/7/6 497/7/6 499/7/6
f 499/7/6 497/7/6 500/7/6
f 498/7/6 499/7/6 501/7/6
f 501/7/6 499/7/6 502/7/6
f 503/7/6 504/7/6 505/7/6
f 505/7/6 504/7/6 506/7/6
f 507/6/6 508/6/6 509/6/6
f 509/6/6 508/6/6 510/6/6
f 511/6/6 512/6/6 513/6/6
f 513/6/6 512/6/6 514/6/6
f 515/6/6 516/6/6 517/6/6
f 517/6/6 516/6/6 518/6/6
f 519/6/6 520/6/6 521/6/6
f 521/6/6 520/6/6 522/6/6
f 523/6/6 524/6/6 525/6/6
f 525/6/6 524/6/6 526/6/6
f 527/6/6 528/6/6 529/6/6
f 529/6/6 528/6/6 530/6/6
f 527/6/6 529/6/6 531/6/6
f 530/6/6 528/6/6 532/6/6
f 527/6/6 531/6/6 533/6/6
f 531/6/6 532/6/6 533/6/6
f 532/6/6 528/6/6 534/6/6
f 533/6/6 532/6/6 534/6/6
f 535/2/6 536/2/6 538/2/6
f 538/2/6 536/2/6 539/2/6
f 539/2/6 540/2/6 541/2/6
f 541/2/6 540/2/6 542/2/6
f 537/2/6 538/2/6 543/2/6
f 543/2/6 538/2/6 544/2/6
f 544/2/6 545/2/6 546/2/6
f 546/2/6 545/2/6 547/2/6
f 548/2/6 549/2/6 550/2/6
f 550/2/6 549/2/6 551/2/6
f 548/2/6 550/2/6 552/2/6
f 552/2/6 550/2/6 553/2/6
f 554/7/6 555/7/6 556/7/6
f 556/7/6 555/7/6 557/7/6
f 554/7/6 556/7/6 558/7/6
f 558/7/6 556/7/6 559/7/6
f 560/7/6 561/7/6 563/7/6
f 563/7/6 561/7/6 564/7/6
f 562/7/6 563/7/6 565/7/6
f 565/7/6 563/7/6 566/7/6
f 567/7/6 568/7/6 569/7/6
f 569/7/6 568/7/6 570/7/6
f 571/5/6 572/5/6 573/5/6
f 573/5/6 572/5/6 574/5/6
f 573/4/6 574/4/6 575/4/6
f 575/4/6 574/4/6 576/4/6
f 574/5/6 572/5/6 577/5/6
f 577/5/6 572/5/6 578/5/6
f 574/5/6 577/5/6 579/5/6
f 577/4/6 578/4/6 580/4/6
f 579/5/6 577/5/6 580/5/6
f 580/4/6 578/4/6 581/4/6
f 581/4/6 578/4/6 582/4/6
f 578/5/6 572/5/6 583/5/6
f 582/4/6 578/4/6 583/4/6
f 583/5/6 572/5/6 584/5/6
f 574/5/6 579/5/6 585/5/6
f 579/4/6 580/4/6 586/4/6
f 585/5/6 579/5/6 586/5/6
f 580/4/6 581/4/6 586/4/6
f 586/4/6 581/4/6 587/4/6
f 581/2/6 582/2/6 588/2/6
f 587/4/6 581/4/6 588/4/6
f 583/4/6 584/4/6 589/4/6
f 588/2/6 582/2/6 589/2/6
f 582/4/6 583/4/6 589/4/6
f 589/4/6 584/4/6 590/4/6
f 584/5/6 572/5/6 591/5/6
f 590/4/6 584/4/6 591/4/6
f 591/5/6 572/5/6 592/5/6
f 573/4/6 575/4/6 593/4/6
f 575/1/6 576/1/6 593/1/6
f 576/4/6 574/4/6 594/4/6
f 593/1/6 576/1/6 594/1/6
f 574/5/6 585/5/6 595/5/6
f 594/4/6 574/4/6 595/4/6
f 586/4/6 587/4/6 596/4/6
f 595/5/6 585/5/6 596/5/6
f 585/4/6 586/4/6 596/4/6
f 596/4/6 587/4/6 597/4/6
f 589/2/6 590/2/6 598/2/6
f 597/4/6 587/4/6 598/4/6
f 587/2/6 588/2/6 598/2/6
f 588/2/6 589/2/6 598/2/6
f 598/2/6 590/2/6 599/2/6
f 599/2/6 590/2/6 600/2/6
f 591/4/6 592/4/6 601/4/6
f 600/2/6 590/2/6 601/2/6
f 590/4/6 591/4/6 601/4/6
f 601/4/6 592/4/6 602/4/6
f 592/5/6 572/5/6 603/5/6
f 602/4/6 592/4/6 603/4/6
f 603/5/6 572/5/6 604/5/6
f 594/4/6 595/4/6 605/4/6
f 596/4/6 597/4/6 605/4/6
f 595/4/6 596/4/6 605/4/6
f 598/2/6 599/2/6 606/2/6
f 605/4/6 597/4/6 606/4/6
f 597/2/6 598/2/6 606/2/6
f 606/2/6 599/2/6 607/2/6
f 599/3/6 600/3/6 608/3/6
f 607/2/6 599/2/6 608/2/6
f 601/2/6 602/2/6 609/2/6
f 608/3/6 600/3/6 609/3/6
f 600/2/6 601/2/6 609/2/6
f 609/2/6 602/2/6 610/2/6
f 603/4/6 604/4/6 611/4/6
f 610/2/6 602/2/6 611/2/6
f 602/4/6 603/4/6 611/4/6
f 611/4/6 604/4/6 612/4/6
f 606/2/6 607/2/6 613/2/6
f 594/4/6 605/4/6 613/4/6
f 605/2/6 606/2/6 613/2/6
f 607/3/6 608/3/6 614/3/6
f 613/2/6 607/2/6 614/2/6
f 609/3/6 610/3/6 614/3/6
f 608/3/6 609/3/6 614/3/6
f 610/2/6 611/2/6 615/2/6
f 614/3/6 610/3/6 615/3/6
f 611/2/6 612/2/6 615/2/6
f 615/2/6 612/2/6 616/2/6
f 573/4/6 593/4/6 617/4/6
f 593/9/6 594/9/6 617/9/6
f 594/4/6 613/4/6 618/4/6
f 617/9/6 594/9/6 618/9/6
f 613/3/6 614/3/6 619/3/6
f 615/3/6 616/3/6 619/3/6
f 614/3/6 615/3/6 619/3/6
f 619/3/6 616/3/6 620/3/6
f 613/3/6 619/3/6 621/3/6
f 619/2/6 620/2/6 621/2/6
f 620/3/6 616/3/6 622/3/6
f 621/2/6 620/2/6 622/2/6
f 622/3/6 616/3/6 623/3/6
f 616/2/6 612/2/6 624/2/6
f 623/3/6 616/3/6 624/3/6
f 622/3/6 623/3/6 625/3/6
f 618/4/6 613/4/6 625/4/6
f 613/3/6 621/3/6 625/3/6
f 621/3/6 622/3/6 625/3/6
f 625/3/6 623/3/6 626/3/6
f 626/3/6 623/3/6 627/3/6
f 623/8/6 624/8/6 628/8/6
f 627/3/6 623/3/6 628/3/6
f 624/2/6 612/2/6 629/2/6
f 628/8/6 624/8/6 629/8/6
f 629/2/6 612/2/6 630/2/6
f 612/4/6 604/4/6 631/4/6
f 630/2/6 612/2/6 631/2/6
f 604/5/6 572/5/6 632/5/6
f 631/4/6 604/4/6 632/4/6
f 632/5/6 572/5/6 633/5/6
f 618/4/6 625/4/6 634/4/6
f 625/4/6 626/4/6 634/4/6
f 634/4/6 626/4/6 635/4/6
f 626/3/6 627/3/6 636/3/6
f 635/4/6 626/4/6 636/4/6
f 636/3/6 627/3/6 637/3/6
f 627/8/6 628/8/6 638/8/6
f 637/3/6 627/3/6 638/3/6
f 629/8/6 630/8/6 638/8/6
f 628/8/6 629/8/6 638/8/6
f 638/8/6 630/8/6 639/8/6
f 630/4/6 631/4/6 640/4/6
f 639/8/6 630/8/6 640/8/6
f 632/4/6 633/4/6 640/4/6
f 631/4/6 632/4/6 640/4/6
f 640/4/6 633/4/6 641/4/6
f 636/4/6 637/4/6 642/4/6
f 635/4/6 636/4/6 642/4/6
f 634/5/6 635/5/6 642/5/6
f 642/4/6 637/4/6 643/4/6
f 638/3/6 639/3/6 644/3/6
f 643/4/6 637/4/6 644/4/6
f 637/3/6 638/3/6 644/3/6
f 644/3/6 639/3/6 645/3/6
f 640/8/6 641/8/6 646/8/6
f 645/3/6 639/3/6 646/3/6
f 639/8/6 640/8/6 646/8/6
f 646/8/6 641/8/6 647/8/6
f 644/4/6 645/4/6 648/4/6
f 642/5/6 643/5/6 648/5/6
f 643/4/6 644/4/6 648/4/6
f 648/4/6 645/4/6 649/4/6
f 645/3/6 646/3/6 650/3/6
f 649/4/6 645/4/6 650/4/6
f 646/4/6 647/4/6 651/4/6
f 650/3/6 646/3/6 651/3/6
f 647/8/6 641/8/6 652/8/6
f 641/4/6 633/4/6 653/4/6
f 652/8/6 641/8/6 653/8/6
f 573/4/6 617/4/6 654/4/6
f 617/10/6 618/10/6 654/10/6
f 618/4/6 634/4/6 655/4/6
f 654/10/6 618/10/6 655/10/6
f 649/4/6 650/4/6 656/4/6
f 648/5/6 649/5/6 656/5/6
f 650/4/6 651/4/6 656/4/6
f 651/4/6 647/4/6 657/4/6
f 656/4/6 651/4/6 657/4/6
f 647/8/6 652/8/6 658/8/6
f 657/4/6 647/4/6 658/4/6
f 652/4/6 653/4/6 659/4/6
f 658/8/6 652/8/6 659/8/6
f 653/4/6 633/4/6 660/4/6
f 659/4/6 653/4/6 660/4/6
f 660/4/6 633/4/6 661/4/6
f 654/4/6 655/4/6 662/4/6
f 573/4/6 654/4/6 662/4/6
f 656/5/6 657/5/6 663/5/6
f 662/4/6 655/4/6 663/4/6
f 648/5/6 656/5/6 663/5/6
f 655/4/6 634/4/6 663/4/6
f 642/5/6 648/5/6 663/5/6
f 634/5/6 642/5/6 663/5/6
f 658/4/6 659/4/6 664/4/6
f 663/5/6 657/5/6 664/5/6
f 659/4/6 660/4/6 664/4/6
f 657/4/6 658/4/6 664/4/6
f 660/5/6 661/5/6 665/5/6
f 664/4/6 660/4/6 665/4/6
f 662/5/6 663/5/6 666/5/6
f 663/5/6 664/5/6 666/5/6
f 664/5/6 665/5/6 666/5/6
f 665/5/6 661/5/6 667/5/6
f 666/5/6 665/5/6 667/5/6
