# MagicaVoxel @ Ephtracy

# group
o 

# material
mtllib SlidingDoor.mtl
usemtl palette

# normals
vn -1 0 0
vn 1 0 0
vn 0 0 1
vn 0 0 -1
vn 0 -1 0
vn 0 1 0

# texcoords
vt 0.982422 0.5
vt 0.986328 0.5

# verts
v -0.7 0 0.8
v -0.7 0 -0.8
v -0.7 0.1 0.7
v -0.7 0.1 -0.7
v -0.7 0.5 0.7
v -0.7 0.5 -0.7
v -0.7 0.6 0.7
v -0.7 0.6 -0.7
v -0.7 3.4 0.7
v -0.7 3.4 -0.7
v -0.7 3.6 0.8
v -0.7 3.6 -0.8
v -0.5 0 0.8
v -0.5 0 -0.8
v -0.5 0.1 0.7
v -0.5 0.1 -0.7
v -0.5 0.5 0.7
v -0.5 0.5 -0.7
v -0.5 0.6 0.7
v -0.5 0.6 -0.7
v -0.5 3.4 0.7
v -0.5 3.4 -0.7
v -0.5 3.6 0.8
v -0.5 3.6 -0.8
v -0.7 0 0.8
v -0.7 3.6 0.8
v -0.5 0 0.8
v -0.5 3.6 0.8
v -0.7 0.6 -0.7
v -0.7 3.4 -0.7
v -0.5 0.6 -0.7
v -0.5 3.4 -0.7
v -0.7 0.6 0.7
v -0.7 3.4 0.7
v -0.5 0.6 0.7
v -0.5 3.4 0.7
v -0.7 0 -0.8
v -0.7 3.6 -0.8
v -0.5 0 -0.8
v -0.5 3.6 -0.8
v -0.7 0 0.8
v -0.5 0 0.8
v -0.7 0 -0.8
v -0.5 0 -0.8
v -0.7 3.4 0.7
v -0.5 3.4 0.7
v -0.7 3.4 -0.7
v -0.5 3.4 -0.7
v -0.7 0.6 0.7
v -0.5 0.6 0.7
v -0.7 0.6 -0.7
v -0.5 0.6 -0.7
v -0.7 3.6 0.8
v -0.5 3.6 0.8
v -0.7 3.6 -0.8
v -0.5 3.6 -0.8

# faces
f 3/2/1 2/2/1 1/2/1
f 4/2/1 2/2/1 3/2/1
f 5/2/1 3/2/1 1/2/1
f 5/1/1 4/1/1 3/1/1
f 6/2/1 2/2/1 4/2/1
f 6/1/1 4/1/1 5/1/1
f 7/2/1 5/2/1 1/2/1
f 7/2/1 6/2/1 5/2/1
f 8/2/1 2/2/1 6/2/1
f 8/2/1 6/2/1 7/2/1
f 9/2/1 7/2/1 1/2/1
f 10/2/1 2/2/1 8/2/1
f 11/2/1 9/2/1 1/2/1
f 11/2/1 10/2/1 9/2/1
f 12/2/1 2/2/1 10/2/1
f 12/2/1 10/2/1 11/2/1
f 13/2/2 14/2/2 15/2/2
f 15/2/2 14/2/2 16/2/2
f 13/2/2 15/2/2 17/2/2
f 15/1/2 16/1/2 17/1/2
f 16/2/2 14/2/2 18/2/2
f 17/1/2 16/1/2 18/1/2
f 13/2/2 17/2/2 19/2/2
f 17/2/2 18/2/2 19/2/2
f 18/2/2 14/2/2 20/2/2
f 19/2/2 18/2/2 20/2/2
f 13/2/2 19/2/2 21/2/2
f 20/2/2 14/2/2 22/2/2
f 13/2/2 21/2/2 23/2/2
f 21/2/2 22/2/2 23/2/2
f 22/2/2 14/2/2 24/2/2
f 23/2/2 22/2/2 24/2/2
f 27/2/3 26/2/3 25/2/3
f 28/2/3 26/2/3 27/2/3
f 31/2/3 30/2/3 29/2/3
f 32/2/3 30/2/3 31/2/3
f 33/2/4 34/2/4 35/2/4
f 35/2/4 34/2/4 36/2/4
f 37/2/4 38/2/4 39/2/4
f 39/2/4 38/2/4 40/2/4
f 43/2/5 42/2/5 41/2/5
f 44/2/5 42/2/5 43/2/5
f 47/2/5 46/2/5 45/2/5
f 48/2/5 46/2/5 47/2/5
f 49/2/6 50/2/6 51/2/6
f 51/2/6 50/2/6 52/2/6
f 53/2/6 54/2/6 55/2/6
f 55/2/6 54/2/6 56/2/6
