# MagicaVoxel @ Ephtracy

# group
o 

# material
mtllib WallsSimpleV1DoubleDoorLeft.mtl
usemtl palette

# normals
vn -1 0 0
vn 1 0 0
vn 0 0 1
vn 0 0 -1
vn 0 -1 0
vn 0 1 0

# texcoords
vt 0.306641 0.5
vt 0.310547 0.5
vt 0.974609 0.5
vt 0.978516 0.5

# verts
v -1.2 0 -0.6
v -1.2 0 -0.7
v -1.2 0.6 -0.6
v -1.2 0.6 -0.7
v -1.2 3.9 -0.6
v -1.2 3.9 -0.7
v -0.6 1.6 -0.5
v -0.6 1.6 -0.6
v -0.6 1.6 -0.7
v -0.6 1.6 -0.8
v -0.6 1.7 -0.5
v -0.6 1.7 -0.6
v -0.6 1.7 -0.7
v -0.6 1.7 -0.8
v -0.2 1.6 -0.5
v -0.2 1.6 -0.6
v -0.2 1.6 -0.7
v -0.2 1.6 -0.8
v -0.2 1.7 -0.5
v -0.2 1.7 -0.6
v -0.2 1.7 -0.7
v -0.2 1.7 -0.8
v 1.19209e-07 0 -0.6
v 1.19209e-07 0 -0.7
v 1.19209e-07 0.6 -0.6
v 1.19209e-07 0.6 -0.7
v 1.19209e-07 3.9 -0.6
v 1.19209e-07 3.9 -0.7
v -0.6 1.6 -0.5
v -0.6 1.7 -0.5
v -0.2 1.6 -0.5
v -0.2 1.7 -0.5
v -1.2 0 -0.6
v -1.2 0.6 -0.6
v -1.2 3.9 -0.6
v -0.6 1.6 -0.6
v -0.6 1.7 -0.6
v -0.2 1.6 -0.6
v -0.2 1.7 -0.6
v -0.0999999 0 -0.6
v -0.0999999 0.6 -0.6
v -0.0999999 3.9 -0.6
v 1.19209e-07 0 -0.6
v 1.19209e-07 0.6 -0.6
v 1.19209e-07 3.9 -0.6
v -1.2 0 -0.7
v -1.2 0.6 -0.7
v -1.2 3.9 -0.7
v -0.6 1.6 -0.7
v -0.6 1.7 -0.7
v -0.2 1.6 -0.7
v -0.2 1.7 -0.7
v -0.0999999 0 -0.7
v -0.0999999 0.6 -0.7
v -0.0999999 3.9 -0.7
v 1.19209e-07 0 -0.7
v 1.19209e-07 0.6 -0.7
v 1.19209e-07 3.9 -0.7
v -0.6 1.6 -0.8
v -0.6 1.7 -0.8
v -0.2 1.6 -0.8
v -0.2 1.7 -0.8
v -1.2 0 -0.6
v -0.0999999 0 -0.6
v 1.19209e-07 0 -0.6
v -1.2 0 -0.7
v -0.0999999 0 -0.7
v 1.19209e-07 0 -0.7
v -0.6 1.6 -0.5
v -0.2 1.6 -0.5
v -0.6 1.6 -0.6
v -0.2 1.6 -0.6
v -0.6 1.6 -0.7
v -0.2 1.6 -0.7
v -0.6 1.6 -0.8
v -0.2 1.6 -0.8
v -0.6 1.7 -0.5
v -0.2 1.7 -0.5
v -0.6 1.7 -0.6
v -0.2 1.7 -0.6
v -0.6 1.7 -0.7
v -0.2 1.7 -0.7
v -0.6 1.7 -0.8
v -0.2 1.7 -0.8
v -1.2 3.9 -0.6
v -0.0999999 3.9 -0.6
v 1.19209e-07 3.9 -0.6
v -1.2 3.9 -0.7
v -0.0999999 3.9 -0.7
v 1.19209e-07 3.9 -0.7

# faces
f 3/3/1 2/3/1 1/3/1
f 4/3/1 2/3/1 3/3/1
f 5/1/1 4/1/1 3/1/1
f 6/1/1 4/1/1 5/1/1
f 11/3/1 8/3/1 7/3/1
f 12/3/1 8/3/1 11/3/1
f 13/3/1 10/3/1 9/3/1
f 14/3/1 10/3/1 13/3/1
f 15/3/2 16/3/2 19/3/2
f 19/3/2 16/3/2 20/3/2
f 17/3/2 18/3/2 21/3/2
f 21/3/2 18/3/2 22/3/2
f 23/4/2 24/4/2 25/4/2
f 25/4/2 24/4/2 26/4/2
f 25/2/2 26/2/2 27/2/2
f 27/2/2 26/2/2 28/2/2
f 31/3/3 30/3/3 29/3/3
f 32/3/3 30/3/3 31/3/3
f 36/1/3 35/1/3 34/1/3
f 37/1/3 35/1/3 36/1/3
f 38/1/3 36/1/3 34/1/3
f 39/1/3 35/1/3 37/1/3
f 40/3/3 34/3/3 33/3/3
f 41/1/3 39/1/3 38/1/3
f 41/3/3 34/3/3 40/3/3
f 41/1/3 38/1/3 34/1/3
f 42/1/3 35/1/3 39/1/3
f 42/1/3 39/1/3 41/1/3
f 43/4/3 41/4/3 40/4/3
f 44/2/3 42/2/3 41/2/3
f 44/4/3 41/4/3 43/4/3
f 45/2/3 42/2/3 44/2/3
f 47/1/4 48/1/4 49/1/4
f 49/1/4 48/1/4 50/1/4
f 47/1/4 49/1/4 51/1/4
f 50/1/4 48/1/4 52/1/4
f 46/3/4 47/3/4 53/3/4
f 51/1/4 52/1/4 54/1/4
f 53/3/4 47/3/4 54/3/4
f 47/1/4 51/1/4 54/1/4
f 52/1/4 48/1/4 55/1/4
f 54/1/4 52/1/4 55/1/4
f 53/4/4 54/4/4 56/4/4
f 54/2/4 55/2/4 57/2/4
f 56/4/4 54/4/4 57/4/4
f 57/2/4 55/2/4 58/2/4
f 59/3/4 60/3/4 61/3/4
f 61/3/4 60/3/4 62/3/4
f 66/3/5 64/3/5 63/3/5
f 67/4/5 65/4/5 64/4/5
f 67/3/5 64/3/5 66/3/5
f 68/4/5 65/4/5 67/4/5
f 71/3/5 70/3/5 69/3/5
f 72/3/5 70/3/5 71/3/5
f 75/3/5 74/3/5 73/3/5
f 76/3/5 74/3/5 75/3/5
f 77/3/6 78/3/6 79/3/6
f 79/3/6 78/3/6 80/3/6
f 81/3/6 82/3/6 83/3/6
f 83/3/6 82/3/6 84/3/6
f 85/1/6 86/1/6 88/1/6
f 86/2/6 87/2/6 89/2/6
f 88/1/6 86/1/6 89/1/6
f 89/2/6 87/2/6 90/2/6
