# MagicaVoxel @ Ephtracy

# group
o 

# material
mtllib ./fullMilkShelfAnimAttempt.mtl
usemtl palette

# normals
vn -1 0 0
vn 1 0 0
vn 0 0 1
vn 0 0 -1
vn 0 -1 0
vn 0 1 0

# texcoords
vt 0.880859 0.5
vt 0.884766 0.5
vt 0.888672 0.5
vt 0.892578 0.5
vt 0.900391 0.5
vt 0.904297 0.5
vt 0.923828 0.5
vt 0.974609 0.5

# verts
v -0.8 0 0.5
v -0.8 0 -0.8
v -0.8 0.2 0.6
v -0.8 0.2 0.5
v -0.8 0.3 0.7
v -0.8 0.3 0.6
v -0.8 0.4 0.4
v -0.8 0.4 -0.4
v -0.8 4.5 0.4
v -0.8 4.5 -0.4
v -0.8 4.8 0.7
v -0.8 4.8 -0.8
v -0.7 1.3 0.4
v -0.7 1.3 -0.4
v -0.7 1.5 0.4
v -0.7 1.5 -0.4
v -0.7 2.4 0.4
v -0.7 2.4 -0.4
v -0.7 2.6 0.4
v -0.7 2.6 -0.4
v -0.7 3.5 0.4
v -0.7 3.5 -0.4
v -0.7 3.7 0.4
v -0.7 3.7 -0.4
v 0.5 2.2 0.8
v 0.5 2.2 0.7
v 0.5 2.8 0.8
v 0.5 2.8 0.7
v 0.6 0.6 0.7
v 0.6 0.6 0.6
v 0.6 1.3 0.6
v 0.6 1.4 0.6
v 0.6 2.2 0.7
v 0.6 2.4 0.6
v 0.6 2.5 0.6
v 0.6 2.8 0.7
v 0.6 3.5 0.6
v 0.6 3.6 0.6
v 0.6 4.5 0.7
v 0.6 4.5 0.6
v 0.7 0.3 0.6
v 0.7 0.3 0.5
v 0.7 0.4 0.5
v 0.7 0.4 0.4
v 0.7 0.4 -0.4
v 0.7 0.4 -0.6
v 0.7 1.3 0.6
v 0.7 1.3 0.4
v 0.7 1.3 -0.4
v 0.7 1.3 -0.6
v 0.7 1.4 0.6
v 0.7 1.4 0.5
v 0.7 1.5 0.5
v 0.7 1.5 0.4
v 0.7 1.5 -0.4
v 0.7 1.5 -0.6
v 0.7 2.4 0.6
v 0.7 2.4 0.4
v 0.7 2.4 -0.4
v 0.7 2.4 -0.6
v 0.7 2.5 0.6
v 0.7 2.5 0.5
v 0.7 2.6 0.5
v 0.7 2.6 0.4
v 0.7 2.6 -0.4
v 0.7 2.6 -0.6
v 0.7 3.5 0.6
v 0.7 3.5 0.4
v 0.7 3.5 -0.4
v 0.7 3.5 -0.6
v 0.7 3.6 0.6
v 0.7 3.6 0.5
v 0.7 3.7 0.5
v 0.7 3.7 0.4
v 0.7 3.7 -0.4
v 0.7 3.7 -0.6
v 0.7 4.5 0.4
v 0.7 4.5 -0.4
v 0.7 4.6 0.6
v 0.7 4.6 -0.6
v -0.7 0.3 0.6
v -0.7 0.3 0.5
v -0.7 0.4 0.5
v -0.7 0.4 0.4
v -0.7 0.4 -0.4
v -0.7 0.4 -0.6
v -0.7 1.3 0.6
v -0.7 1.3 0.4
v -0.7 1.3 -0.4
v -0.7 1.3 -0.6
v -0.7 1.4 0.6
v -0.7 1.4 0.5
v -0.7 1.5 0.5
v -0.7 1.5 0.4
v -0.7 1.5 -0.4
v -0.7 1.5 -0.6
v -0.7 2.4 0.6
v -0.7 2.4 0.4
v -0.7 2.4 -0.4
v -0.7 2.4 -0.6
v -0.7 2.5 0.6
v -0.7 2.5 0.5
v -0.7 2.6 0.5
v -0.7 2.6 0.4
v -0.7 2.6 -0.4
v -0.7 2.6 -0.6
v -0.7 3.5 0.6
v -0.7 3.5 0.4
v -0.7 3.5 -0.4
v -0.7 3.5 -0.6
v -0.7 3.6 0.6
v -0.7 3.6 0.5
v -0.7 3.7 0.5
v -0.7 3.7 0.4
v -0.7 3.7 -0.4
v -0.7 3.7 -0.6
v -0.7 4.5 0.4
v -0.7 4.5 -0.4
v -0.7 4.6 0.6
v -0.7 4.6 -0.6
v -0.6 0.6 0.7
v -0.6 0.6 0.6
v -0.6 1.3 0.6
v -0.6 1.4 0.6
v -0.6 2.4 0.6
v -0.6 2.5 0.6
v -0.6 3.5 0.6
v -0.6 3.6 0.6
v -0.6 4.5 0.7
v -0.6 4.5 0.6
v 0.7 0.3 0.4
v 0.7 0.3 -0.4
v 0.7 0.4 0.4
v 0.7 0.4 -0.4
v 0.7 1.3 0.4
v 0.7 1.3 -0.4
v 0.7 1.5 0.4
v 0.7 1.5 -0.4
v 0.7 2.2 0.8
v 0.7 2.2 0.7
v 0.7 2.4 0.4
v 0.7 2.4 -0.4
v 0.7 2.6 0.4
v 0.7 2.6 -0.4
v 0.7 2.8 0.8
v 0.7 2.8 0.7
v 0.7 3.5 0.4
v 0.7 3.5 -0.4
v 0.7 3.7 0.4
v 0.7 3.7 -0.4
v 0.8 0 0.5
v 0.8 0 -0.8
v 0.8 0.2 0.6
v 0.8 0.2 0.5
v 0.8 0.3 0.7
v 0.8 0.3 0.6
v 0.8 0.3 0.4
v 0.8 0.3 -0.4
v 0.8 4.5 0.4
v 0.8 4.5 -0.4
v 0.8 4.8 0.7
v 0.8 4.8 -0.8
v 0.5 2.2 0.8
v 0.5 2.8 0.8
v 0.7 2.2 0.8
v 0.7 2.8 0.8
v -0.8 0.3 0.7
v -0.8 4.8 0.7
v -0.6 0.6 0.7
v -0.6 4.5 0.7
v 0.6 0.6 0.7
v 0.6 2.2 0.7
v 0.6 2.8 0.7
v 0.6 4.5 0.7
v 0.7 2.2 0.7
v 0.7 2.8 0.7
v 0.8 0.3 0.7
v 0.8 4.8 0.7
v -0.8 0.2 0.6
v -0.8 0.3 0.6
v -0.7 0.2 0.6
v -0.7 0.3 0.6
v -0.6 1.3 0.6
v -0.6 1.4 0.6
v -0.6 2.4 0.6
v -0.6 2.5 0.6
v -0.6 3.5 0.6
v -0.6 3.6 0.6
v 0.6 1.3 0.6
v 0.6 1.4 0.6
v 0.6 2.4 0.6
v 0.6 2.5 0.6
v 0.6 3.5 0.6
v 0.6 3.6 0.6
v 0.7 0.2 0.6
v 0.7 0.3 0.6
v 0.8 0.2 0.6
v 0.8 0.3 0.6
v -0.8 0 0.5
v -0.8 0.2 0.5
v -0.7 0.2 0.5
v -0.7 0.3 0.5
v -0.7 0.4 0.5
v -0.7 1.4 0.5
v -0.7 1.5 0.5
v -0.7 2.5 0.5
v -0.7 2.6 0.5
v -0.7 3.6 0.5
v -0.7 3.7 0.5
v 0.7 0.2 0.5
v 0.7 0.3 0.5
v 0.7 0.4 0.5
v 0.7 1.4 0.5
v 0.7 1.5 0.5
v 0.7 2.5 0.5
v 0.7 2.6 0.5
v 0.7 3.6 0.5
v 0.7 3.7 0.5
v 0.8 0 0.5
v 0.8 0.2 0.5
v -0.8 0.4 -0.4
v -0.8 4.5 -0.4
v -0.7 0.4 -0.4
v -0.7 1.3 -0.4
v -0.7 1.5 -0.4
v -0.7 2.4 -0.4
v -0.7 2.6 -0.4
v -0.7 3.5 -0.4
v -0.7 3.7 -0.4
v -0.7 4.5 -0.4
v 0.7 0.3 -0.4
v 0.7 0.4 -0.4
v 0.7 1.3 -0.4
v 0.7 1.5 -0.4
v 0.7 2.4 -0.4
v 0.7 2.6 -0.4
v 0.7 3.5 -0.4
v 0.7 3.7 -0.4
v 0.7 4.5 -0.4
v 0.8 0.3 -0.4
v 0.8 4.5 -0.4
v -0.7 0.4 -0.6
v -0.7 1.3 -0.6
v -0.7 1.5 -0.6
v -0.7 2.4 -0.6
v -0.7 2.6 -0.6
v -0.7 3.5 -0.6
v -0.7 3.7 -0.6
v -0.7 4.6 -0.6
v 0.7 0.4 -0.6
v 0.7 1.3 -0.6
v 0.7 1.5 -0.6
v 0.7 2.4 -0.6
v 0.7 2.6 -0.6
v 0.7 3.5 -0.6
v 0.7 3.7 -0.6
v 0.7 4.6 -0.6
v 0.5 2.2 0.7
v 0.5 2.8 0.7
v 0.6 2.2 0.7
v 0.6 2.8 0.7
v -0.7 0.3 0.6
v -0.7 1.3 0.6
v -0.7 1.4 0.6
v -0.7 2.4 0.6
v -0.7 2.5 0.6
v -0.7 3.5 0.6
v -0.7 3.6 0.6
v -0.7 4.6 0.6
v -0.6 0.6 0.6
v -0.6 1.3 0.6
v -0.6 1.4 0.6
v -0.6 2.4 0.6
v -0.6 2.5 0.6
v -0.6 3.5 0.6
v -0.6 3.6 0.6
v -0.6 4.5 0.6
v 0.6 0.6 0.6
v 0.6 1.3 0.6
v 0.6 1.4 0.6
v 0.6 2.4 0.6
v 0.6 2.5 0.6
v 0.6 3.5 0.6
v 0.6 3.6 0.6
v 0.6 4.5 0.6
v 0.7 0.3 0.6
v 0.7 1.3 0.6
v 0.7 1.4 0.6
v 0.7 2.4 0.6
v 0.7 2.5 0.6
v 0.7 3.5 0.6
v 0.7 3.6 0.6
v 0.7 4.6 0.6
v -0.8 0.4 0.4
v -0.8 4.5 0.4
v -0.7 0.4 0.4
v -0.7 1.3 0.4
v -0.7 1.5 0.4
v -0.7 2.4 0.4
v -0.7 2.6 0.4
v -0.7 3.5 0.4
v -0.7 3.7 0.4
v -0.7 4.5 0.4
v 0.7 0.3 0.4
v 0.7 0.4 0.4
v 0.7 1.3 0.4
v 0.7 1.5 0.4
v 0.7 2.4 0.4
v 0.7 2.6 0.4
v 0.7 3.5 0.4
v 0.7 3.7 0.4
v 0.7 4.5 0.4
v 0.8 0.3 0.4
v 0.8 4.5 0.4
v -0.8 0 -0.8
v -0.8 4.8 -0.8
v 0.8 0 -0.8
v 0.8 4.8 -0.8
v -0.8 0 0.5
v 0.8 0 0.5
v -0.7 0 0.4
v 0.7 0 0.4
v -0.7 0 -0.7
v 0.7 0 -0.7
v -0.8 0 -0.8
v 0.8 0 -0.8
v -0.8 0.2 0.6
v -0.7 0.2 0.6
v 0.7 0.2 0.6
v 0.8 0.2 0.6
v -0.8 0.2 0.5
v -0.7 0.2 0.5
v 0.7 0.2 0.5
v 0.8 0.2 0.5
v -0.8 0.3 0.7
v 0.8 0.3 0.7
v -0.8 0.3 0.6
v -0.7 0.3 0.6
v 0.7 0.3 0.6
v 0.8 0.3 0.6
v -0.7 1.3 0.6
v -0.6 1.3 0.6
v 0.6 1.3 0.6
v 0.7 1.3 0.6
v -0.7 1.3 0.4
v 0.7 1.3 0.4
v -0.7 1.3 -0.4
v 0.7 1.3 -0.4
v -0.7 1.3 -0.6
v 0.7 1.3 -0.6
v 0.5 2.2 0.8
v 0.7 2.2 0.8
v 0.5 2.2 0.7
v 0.6 2.2 0.7
v 0.7 2.2 0.7
v -0.7 2.4 0.6
v -0.6 2.4 0.6
v 0.6 2.4 0.6
v 0.7 2.4 0.6
v -0.7 2.4 0.4
v 0.7 2.4 0.4
v -0.7 2.4 -0.4
v 0.7 2.4 -0.4
v -0.7 2.4 -0.6
v 0.7 2.4 -0.6
v -0.7 3.5 0.6
v -0.6 3.5 0.6
v 0.6 3.5 0.6
v 0.7 3.5 0.6
v -0.7 3.5 0.4
v 0.7 3.5 0.4
v -0.7 3.5 -0.4
v 0.7 3.5 -0.4
v -0.7 3.5 -0.6
v 0.7 3.5 -0.6
v -0.6 4.5 0.7
v 0.6 4.5 0.7
v -0.6 4.5 0.6
v 0.6 4.5 0.6
v -0.8 4.5 0.4
v -0.7 4.5 0.4
v 0.7 4.5 0.4
v 0.8 4.5 0.4
v -0.8 4.5 -0.4
v -0.7 4.5 -0.4
v 0.7 4.5 -0.4
v 0.8 4.5 -0.4
v -0.7 4.6 0.6
v 0.7 4.6 0.6
v -0.7 4.6 -0.6
v 0.7 4.6 -0.6
v -0.7 0.3 0.6
v 0.7 0.3 0.6
v -0.7 0.3 0.5
v 0.7 0.3 0.5
v 0.7 0.3 0.4
v 0.8 0.3 0.4
v 0.7 0.3 -0.4
v 0.8 0.3 -0.4
v -0.7 0.4 0.5
v 0.7 0.4 0.5
v -0.8 0.4 0.4
v -0.7 0.4 0.4
v 0.7 0.4 0.4
v -0.8 0.4 -0.4
v -0.7 0.4 -0.4
v 0.7 0.4 -0.4
v -0.7 0.4 -0.6
v 0.7 0.4 -0.6
v -0.6 0.6 0.7
v 0.6 0.6 0.7
v -0.6 0.6 0.6
v 0.6 0.6 0.6
v -0.7 1.4 0.6
v -0.6 1.4 0.6
v 0.6 1.4 0.6
v 0.7 1.4 0.6
v -0.7 1.4 0.5
v 0.7 1.4 0.5
v -0.7 1.5 0.5
v 0.7 1.5 0.5
v -0.7 1.5 0.4
v 0.7 1.5 0.4
v -0.7 1.5 -0.4
v 0.7 1.5 -0.4
v -0.7 1.5 -0.6
v 0.7 1.5 -0.6
v -0.7 2.5 0.6
v -0.6 2.5 0.6
v 0.6 2.5 0.6
v 0.7 2.5 0.6
v -0.7 2.5 0.5
v 0.7 2.5 0.5
v -0.7 2.6 0.5
v 0.7 2.6 0.5
v -0.7 2.6 0.4
v 0.7 2.6 0.4
v -0.7 2.6 -0.4
v 0.7 2.6 -0.4
v -0.7 2.6 -0.6
v 0.7 2.6 -0.6
v 0.5 2.8 0.8
v 0.7 2.8 0.8
v 0.5 2.8 0.7
v 0.6 2.8 0.7
v 0.7 2.8 0.7
v -0.7 3.6 0.6
v -0.6 3.6 0.6
v 0.6 3.6 0.6
v 0.7 3.6 0.6
v -0.7 3.6 0.5
v 0.7 3.6 0.5
v -0.7 3.7 0.5
v 0.7 3.7 0.5
v -0.7 3.7 0.4
v 0.7 3.7 0.4
v -0.7 3.7 -0.4
v 0.7 3.7 -0.4
v -0.7 3.7 -0.6
v 0.7 3.7 -0.6
v -0.8 4.8 0.7
v 0.8 4.8 0.7
v -0.7 4.8 0.6
v -0.2 4.8 0.6
v 0.6 4.8 0.6
v 0.7 4.8 0.6
v -0.6 4.8 0.5
v -0.3 4.8 0.5
v -0.1 4.8 0.5
v 0.5 4.8 0.5
v -0.5 4.8 0.4
v -0.4 4.8 0.4
v -0.1 4.8 0.1
v 0.5 4.8 0.1
v -0.1 4.8 -0.1
v 0.5 4.8 -0.1
v 0 4.8 -0.3
v 0.4 4.8 -0.3
v -0.1 4.8 -0.4
v 0 4.8 -0.4
v 0.1 4.8 -0.4
v 0.3 4.8 -0.4
v 0.4 4.8 -0.4
v 0.5 4.8 -0.4
v -0.2 4.8 -0.5
v -0.1 4.8 -0.5
v 0 4.8 -0.5
v 0.1 4.8 -0.5
v 0.3 4.8 -0.5
v 0.4 4.8 -0.5
v 0.5 4.8 -0.5
v 0.6 4.8 -0.5
v -0.5 4.8 -0.6
v -0.4 4.8 -0.6
v -0.1 4.8 -0.6
v 0 4.8 -0.6
v 0.1 4.8 -0.6
v 0.3 4.8 -0.6
v 0.4 4.8 -0.6
v 0.5 4.8 -0.6
v -0.7 4.8 -0.7
v -0.6 4.8 -0.7
v -0.3 4.8 -0.7
v 0 4.8 -0.7
v 0.4 4.8 -0.7
v 0.7 4.8 -0.7
v -0.8 4.8 -0.8
v 0.8 4.8 -0.8

# faces
f 4/1/1 2/1/1 1/1/1
f 6/1/1 4/1/1 3/1/1
f 7/1/1 2/1/1 4/1/1
f 7/1/1 6/1/1 5/1/1
f 7/1/1 4/1/1 6/1/1
f 8/1/1 2/1/1 7/1/1
f 9/1/1 7/1/1 5/1/1
f 10/1/1 2/1/1 8/1/1
f 11/1/1 9/1/1 5/1/1
f 11/1/1 10/1/1 9/1/1
f 12/1/1 2/1/1 10/1/1
f 12/1/1 10/1/1 11/1/1
f 15/4/1 14/4/1 13/4/1
f 16/4/1 14/4/1 15/4/1
f 19/4/1 18/4/1 17/4/1
f 20/4/1 18/4/1 19/4/1
f 23/4/1 22/4/1 21/4/1
f 24/4/1 22/4/1 23/4/1
f 27/1/1 26/1/1 25/1/1
f 28/1/1 26/1/1 27/1/1
f 31/1/1 30/1/1 29/1/1
f 32/1/1 31/1/1 29/1/1
f 33/1/1 32/1/1 29/1/1
f 34/1/1 32/1/1 33/1/1
f 35/1/1 34/1/1 33/1/1
f 36/1/1 35/1/1 33/1/1
f 37/1/1 35/1/1 36/1/1
f 38/1/1 37/1/1 36/1/1
f 39/1/1 38/1/1 36/1/1
f 40/1/1 38/1/1 39/1/1
f 43/1/1 42/1/1 41/1/1
f 47/1/1 43/1/1 41/1/1
f 47/1/1 44/1/1 43/1/1
f 48/1/1 44/1/1 47/1/1
f 49/1/1 46/1/1 45/1/1
f 50/1/1 46/1/1 49/1/1
f 53/1/1 52/1/1 51/1/1
f 57/1/1 53/1/1 51/1/1
f 57/1/1 54/1/1 53/1/1
f 58/1/1 54/1/1 57/1/1
f 59/1/1 56/1/1 55/1/1
f 60/1/1 56/1/1 59/1/1
f 63/1/1 62/1/1 61/1/1
f 67/1/1 63/1/1 61/1/1
f 67/1/1 64/1/1 63/1/1
f 68/1/1 64/1/1 67/1/1
f 69/1/1 66/1/1 65/1/1
f 70/1/1 66/1/1 69/1/1
f 73/1/1 72/1/1 71/1/1
f 77/1/1 74/1/1 73/1/1
f 78/1/1 76/1/1 75/1/1
f 79/1/1 73/1/1 71/1/1
f 79/1/1 78/1/1 77/1/1
f 79/1/1 77/1/1 73/1/1
f 80/1/1 76/1/1 78/1/1
f 80/1/1 78/1/1 79/1/1
f 81/1/2 82/1/2 83/1/2
f 81/1/2 83/1/2 87/1/2
f 83/1/2 84/1/2 87/1/2
f 87/1/2 84/1/2 88/1/2
f 85/1/2 86/1/2 89/1/2
f 89/1/2 86/1/2 90/1/2
f 91/1/2 92/1/2 93/1/2
f 91/1/2 93/1/2 97/1/2
f 93/1/2 94/1/2 97/1/2
f 97/1/2 94/1/2 98/1/2
f 95/1/2 96/1/2 99/1/2
f 99/1/2 96/1/2 100/1/2
f 101/1/2 102/1/2 103/1/2
f 101/1/2 103/1/2 107/1/2
f 103/1/2 104/1/2 107/1/2
f 107/1/2 104/1/2 108/1/2
f 105/1/2 106/1/2 109/1/2
f 109/1/2 106/1/2 110/1/2
f 111/1/2 112/1/2 113/1/2
f 113/1/2 114/1/2 117/1/2
f 115/1/2 116/1/2 118/1/2
f 111/1/2 113/1/2 119/1/2
f 117/1/2 118/1/2 119/1/2
f 113/1/2 117/1/2 119/1/2
f 118/1/2 116/1/2 120/1/2
f 119/1/2 118/1/2 120/1/2
f 121/1/2 122/1/2 123/1/2
f 121/1/2 123/1/2 124/1/2
f 121/1/2 124/1/2 125/1/2
f 121/1/2 125/1/2 126/1/2
f 121/1/2 126/1/2 127/1/2
f 121/1/2 127/1/2 128/1/2
f 121/1/2 128/1/2 129/1/2
f 129/1/2 128/1/2 130/1/2
f 131/4/2 132/4/2 133/4/2
f 133/4/2 132/4/2 134/4/2
f 135/4/2 136/4/2 137/4/2
f 137/4/2 136/4/2 138/4/2
f 141/4/2 142/4/2 143/4/2
f 143/4/2 142/4/2 144/4/2
f 139/1/2 140/1/2 145/1/2
f 145/1/2 140/1/2 146/1/2
f 147/4/2 148/4/2 149/4/2
f 149/4/2 148/4/2 150/4/2
f 151/1/2 152/1/2 154/1/2
f 153/1/2 154/1/2 156/1/2
f 154/1/2 152/1/2 157/1/2
f 156/1/2 154/1/2 157/1/2
f 157/1/2 152/1/2 158/1/2
f 155/1/2 156/1/2 159/1/2
f 156/1/2 157/1/2 159/1/2
f 158/1/2 152/1/2 160/1/2
f 155/1/2 159/1/2 161/1/2
f 159/1/2 160/1/2 161/1/2
f 160/1/2 152/1/2 162/1/2
f 161/1/2 160/1/2 162/1/2
f 165/1/3 164/1/3 163/1/3
f 166/1/3 164/1/3 165/1/3
f 169/1/3 168/1/3 167/1/3
f 170/1/3 168/1/3 169/1/3
f 171/1/3 169/1/3 167/1/3
f 174/1/3 168/1/3 170/1/3
f 175/1/3 172/1/3 171/1/3
f 176/1/3 174/1/3 173/1/3
f 177/1/3 175/1/3 171/1/3
f 177/1/3 176/1/3 175/1/3
f 177/1/3 171/1/3 167/1/3
f 178/1/3 174/1/3 176/1/3
f 178/1/3 176/1/3 177/1/3
f 178/1/3 168/1/3 174/1/3
f 181/1/3 180/1/3 179/1/3
f 182/1/3 180/1/3 181/1/3
f 189/4/3 184/4/3 183/4/3
f 190/4/3 184/4/3 189/4/3
f 191/4/3 186/4/3 185/4/3
f 192/4/3 186/4/3 191/4/3
f 193/4/3 188/4/3 187/4/3
f 194/4/3 188/4/3 193/4/3
f 195/4/3 182/4/3 181/4/3
f 196/4/3 182/4/3 195/4/3
f 197/1/3 196/1/3 195/1/3
f 198/1/3 196/1/3 197/1/3
f 201/1/3 200/1/3 199/1/3
f 210/1/3 201/1/3 199/1/3
f 211/4/3 203/4/3 202/4/3
f 212/4/3 203/4/3 211/4/3
f 213/4/3 205/4/3 204/4/3
f 214/4/3 205/4/3 213/4/3
f 215/4/3 207/4/3 206/4/3
f 216/4/3 207/4/3 215/4/3
f 217/4/3 209/4/3 208/4/3
f 218/4/3 209/4/3 217/4/3
f 219/1/3 210/1/3 199/1/3
f 220/1/3 210/1/3 219/1/3
f 223/1/3 222/1/3 221/1/3
f 224/1/3 222/1/3 223/1/3
f 225/1/3 222/1/3 224/1/3
f 226/1/3 222/1/3 225/1/3
f 227/1/3 222/1/3 226/1/3
f 228/1/3 222/1/3 227/1/3
f 229/1/3 222/1/3 228/1/3
f 230/1/3 222/1/3 229/1/3
f 240/1/3 232/1/3 231/1/3
f 240/1/3 239/1/3 238/1/3
f 240/1/3 238/1/3 237/1/3
f 240/1/3 237/1/3 236/1/3
f 240/1/3 236/1/3 235/1/3
f 240/1/3 235/1/3 234/1/3
f 240/1/3 234/1/3 233/1/3
f 240/1/3 233/1/3 232/1/3
f 241/1/3 239/1/3 240/1/3
f 250/3/3 243/3/3 242/3/3
f 251/3/3 243/3/3 250/3/3
f 252/3/3 245/3/3 244/3/3
f 253/3/3 245/3/3 252/3/3
f 254/3/3 247/3/3 246/3/3
f 255/3/3 247/3/3 254/3/3
f 256/3/3 249/3/3 248/3/3
f 257/3/3 249/3/3 256/3/3
f 258/1/4 259/1/4 260/1/4
f 260/1/4 259/1/4 261/1/4
f 262/1/4 263/1/4 270/1/4
f 270/1/4 263/1/4 271/1/4
f 264/1/4 265/1/4 272/1/4
f 272/1/4 265/1/4 273/1/4
f 266/1/4 267/1/4 274/1/4
f 274/1/4 267/1/4 275/1/4
f 268/1/4 269/1/4 276/1/4
f 276/1/4 269/1/4 277/1/4
f 262/1/4 270/1/4 278/1/4
f 277/1/4 269/1/4 285/1/4
f 262/1/4 278/1/4 286/1/4
f 278/1/4 279/1/4 286/1/4
f 286/1/4 279/1/4 287/1/4
f 280/1/4 281/1/4 288/1/4
f 288/1/4 281/1/4 289/1/4
f 282/1/4 283/1/4 290/1/4
f 290/1/4 283/1/4 291/1/4
f 284/1/4 285/1/4 292/1/4
f 285/1/4 269/1/4 293/1/4
f 292/1/4 285/1/4 293/1/4
f 294/1/4 295/1/4 296/1/4
f 296/1/4 295/1/4 297/1/4
f 297/1/4 295/1/4 298/1/4
f 298/1/4 295/1/4 299/1/4
f 299/1/4 295/1/4 300/1/4
f 300/1/4 295/1/4 301/1/4
f 301/1/4 295/1/4 302/1/4
f 302/1/4 295/1/4 303/1/4
f 304/1/4 305/1/4 313/1/4
f 311/1/4 312/1/4 313/1/4
f 310/1/4 311/1/4 313/1/4
f 309/1/4 310/1/4 313/1/4
f 308/1/4 309/1/4 313/1/4
f 307/1/4 308/1/4 313/1/4
f 306/1/4 307/1/4 313/1/4
f 305/1/4 306/1/4 313/1/4
f 313/1/4 312/1/4 314/1/4
f 315/1/4 316/1/4 317/1/4
f 317/1/4 316/1/4 318/1/4
f 321/1/5 320/1/5 319/1/5
f 322/1/5 320/1/5 321/1/5
f 323/1/5 321/1/5 319/1/5
f 323/3/5 322/3/5 321/3/5
f 324/1/5 320/1/5 322/1/5
f 324/3/5 322/3/5 323/3/5
f 325/1/5 323/1/5 319/1/5
f 325/1/5 324/1/5 323/1/5
f 326/1/5 320/1/5 324/1/5
f 326/1/5 324/1/5 325/1/5
f 331/1/5 328/1/5 327/1/5
f 332/4/5 329/4/5 328/4/5
f 332/1/5 328/1/5 331/1/5
f 333/1/5 330/1/5 329/1/5
f 333/4/5 329/4/5 332/4/5
f 334/1/5 330/1/5 333/1/5
f 337/1/5 336/1/5 335/1/5
f 338/1/5 336/1/5 337/1/5
f 339/1/5 336/1/5 338/1/5
f 340/1/5 336/1/5 339/1/5
f 345/4/5 342/4/5 341/4/5
f 345/4/5 344/4/5 343/4/5
f 345/4/5 343/4/5 342/4/5
f 346/4/5 344/4/5 345/4/5
f 347/4/5 346/4/5 345/4/5
f 348/4/5 346/4/5 347/4/5
f 349/4/5 348/4/5 347/4/5
f 350/4/5 348/4/5 349/4/5
f 353/1/5 352/1/5 351/1/5
f 354/1/5 352/1/5 353/1/5
f 355/1/5 352/1/5 354/1/5
f 360/4/5 357/4/5 356/4/5
f 360/4/5 359/4/5 358/4/5
f 360/4/5 358/4/5 357/4/5
f 361/4/5 359/4/5 360/4/5
f 362/4/5 361/4/5 360/4/5
f 363/4/5 361/4/5 362/4/5
f 364/4/5 363/4/5 362/4/5
f 365/4/5 363/4/5 364/4/5
f 370/4/5 367/4/5 366/4/5
f 370/4/5 369/4/5 368/4/5
f 370/4/5 368/4/5 367/4/5
f 371/4/5 369/4/5 370/4/5
f 372/4/5 371/4/5 370/4/5
f 373/4/5 371/4/5 372/4/5
f 374/4/5 373/4/5 372/4/5
f 375/4/5 373/4/5 374/4/5
f 378/1/5 377/1/5 376/1/5
f 379/1/5 377/1/5 378/1/5
f 384/1/5 381/1/5 380/1/5
f 385/1/5 381/1/5 384/1/5
f 386/1/5 383/1/5 382/1/5
f 387/1/5 383/1/5 386/1/5
f 390/3/5 389/3/5 388/3/5
f 391/3/5 389/3/5 390/3/5
f 392/4/6 393/4/6 394/4/6
f 394/4/6 393/4/6 395/4/6
f 396/1/6 397/1/6 398/1/6
f 398/1/6 397/1/6 399/1/6
f 400/4/6 401/4/6 403/4/6
f 403/4/6 401/4/6 404/4/6
f 402/1/6 403/1/6 405/1/6
f 403/4/6 404/4/6 406/4/6
f 405/1/6 403/1/6 406/1/6
f 406/4/6 404/4/6 407/4/6
f 406/4/6 407/4/6 408/4/6
f 408/4/6 407/4/6 409/4/6
f 410/1/6 411/1/6 412/1/6
f 412/1/6 411/1/6 413/1/6
f 414/4/6 415/4/6 418/4/6
f 416/4/6 417/4/6 418/4/6
f 415/4/6 416/4/6 418/4/6
f 418/4/6 417/4/6 419/4/6
f 420/4/6 421/4/6 422/4/6
f 422/4/6 421/4/6 423/4/6
f 422/4/6 423/4/6 424/4/6
f 424/4/6 423/4/6 425/4/6
f 424/4/6 425/4/6 426/4/6
f 426/4/6 425/4/6 427/4/6
f 428/4/6 429/4/6 432/4/6
f 430/4/6 431/4/6 432/4/6
f 429/4/6 430/4/6 432/4/6
f 432/4/6 431/4/6 433/4/6
f 434/4/6 435/4/6 436/4/6
f 436/4/6 435/4/6 437/4/6
f 436/4/6 437/4/6 438/4/6
f 438/4/6 437/4/6 439/4/6
f 438/4/6 439/4/6 440/4/6
f 440/4/6 439/4/6 441/4/6
f 442/1/6 443/1/6 444/1/6
f 444/1/6 443/1/6 445/1/6
f 445/1/6 443/1/6 446/1/6
f 447/4/6 448/4/6 451/4/6
f 449/4/6 450/4/6 451/4/6
f 448/4/6 449/4/6 451/4/6
f 451/4/6 450/4/6 452/4/6
f 453/4/6 454/4/6 455/4/6
f 455/4/6 454/4/6 456/4/6
f 455/4/6 456/4/6 457/4/6
f 457/4/6 456/4/6 458/4/6
f 457/4/6 458/4/6 459/4/6
f 459/4/6 458/4/6 460/4/6
f 461/1/6 462/1/6 463/1/6
f 463/1/6 462/1/6 464/1/6
f 464/1/6 462/1/6 465/1/6
f 465/1/6 462/1/6 466/1/6
f 463/3/6 464/3/6 467/3/6
f 467/3/6 464/3/6 468/3/6
f 464/2/6 465/2/6 469/2/6
f 469/2/6 465/2/6 470/2/6
f 467/2/6 468/2/6 471/2/6
f 471/2/6 468/2/6 472/2/6
f 464/2/6 469/2/6 473/2/6
f 469/6/6 470/6/6 473/6/6
f 470/2/6 465/2/6 474/2/6
f 473/6/6 470/6/6 474/6/6
f 464/2/6 473/2/6 475/2/6
f 473/8/6 474/8/6 475/8/6
f 474/2/6 465/2/6 476/2/6
f 475/8/6 474/8/6 476/8/6
f 475/6/6 476/6/6 477/6/6
f 477/6/6 476/6/6 478/6/6
f 464/2/6 475/2/6 479/2/6
f 475/6/6 477/6/6 479/6/6
f 477/5/6 478/5/6 480/5/6
f 479/6/6 477/6/6 480/6/6
f 480/5/6 478/5/6 481/5/6
f 481/5/6 478/5/6 482/5/6
f 478/6/6 476/6/6 483/6/6
f 482/5/6 478/5/6 483/5/6
f 476/2/6 465/2/6 484/2/6
f 483/6/6 476/6/6 484/6/6
f 468/3/6 464/3/6 485/3/6
f 464/2/6 479/2/6 485/2/6
f 479/2/6 480/2/6 485/2/6
f 485/2/6 480/2/6 486/2/6
f 480/6/6 481/6/6 487/6/6
f 486/2/6 480/2/6 487/2/6
f 481/5/6 482/5/6 488/5/6
f 487/6/6 481/6/6 488/6/6
f 482/6/6 483/6/6 489/6/6
f 488/5/6 482/5/6 489/5/6
f 483/2/6 484/2/6 490/2/6
f 489/6/6 483/6/6 490/6/6
f 484/2/6 465/2/6 491/2/6
f 490/2/6 484/2/6 491/2/6
f 465/3/6 466/3/6 492/3/6
f 491/2/6 465/2/6 492/2/6
f 471/7/6 472/7/6 493/7/6
f 467/2/6 471/2/6 493/2/6
f 472/2/6 468/2/6 494/2/6
f 493/7/6 472/7/6 494/7/6
f 486/2/6 487/2/6 495/2/6
f 487/2/6 488/2/6 495/2/6
f 485/3/6 486/3/6 495/3/6
f 495/2/6 488/2/6 496/2/6
f 488/6/6 489/6/6 497/6/6
f 496/2/6 488/2/6 497/2/6
f 489/2/6 490/2/6 498/2/6
f 497/6/6 489/6/6 498/6/6
f 490/2/6 491/2/6 498/2/6
f 498/2/6 491/2/6 499/2/6
f 491/3/6 492/3/6 500/3/6
f 499/2/6 491/2/6 500/2/6
f 461/1/6 463/1/6 501/1/6
f 463/3/6 467/3/6 501/3/6
f 467/2/6 493/2/6 502/2/6
f 501/3/6 467/3/6 502/3/6
f 493/2/6 494/2/6 502/2/6
f 485/3/6 495/3/6 503/3/6
f 502/2/6 494/2/6 503/2/6
f 494/2/6 468/2/6 503/2/6
f 468/3/6 485/3/6 503/3/6
f 495/3/6 496/3/6 503/3/6
f 496/2/6 497/2/6 504/2/6
f 503/3/6 496/3/6 504/3/6
f 497/2/6 498/2/6 504/2/6
f 498/2/6 499/2/6 504/2/6
f 499/3/6 500/3/6 505/3/6
f 504/2/6 499/2/6 505/2/6
f 500/3/6 492/3/6 506/3/6
f 505/3/6 500/3/6 506/3/6
f 466/1/6 462/1/6 506/1/6
f 492/3/6 466/3/6 506/3/6
f 504/1/6 505/1/6 507/1/6
f 461/1/6 501/1/6 507/1/6
f 505/1/6 506/1/6 507/1/6
f 503/1/6 504/1/6 507/1/6
f 501/1/6 502/1/6 507/1/6
f 502/1/6 503/1/6 507/1/6
f 506/1/6 462/1/6 508/1/6
f 507/1/6 506/1/6 508/1/6
